<?xml version="1.0" encoding="utf-8"?>
<svg version="1.1" xmlns:xlink="http://www.w3.org/1999/xlink" width="15px" height="19px" xmlns="http://www.w3.org/2000/svg">
  <defs>
    <mask fill="white" id="clip30">
      <path d="M 0 2.375  C 0 2.375  0 19  0 19  C 0 18.3701108371218  0.237052962183952 17.7660199925303  0.65900981426239 17.3206210931142  C 1.08096666634083 16.8752221936981  1.65326289832592 16.625  2.25 16.625  C 2.25 16.625  15 16.625  15 16.625  L 15 0  C 15 0  2.25 0  2.25 0  C 1.65326289832592 0  1.08096666634083 0.250222571194172  0.65900981426239 0.695621470610301  C 0.237052962183952 1.14102037002643  0 1.7451108371218  0 2.375  Z " fill-rule="evenodd" />
    </mask>
  </defs>
  <g transform="matrix(1 0 0 1 -1194 -36 )">
    <path d="M 0 2.375  C 0 2.375  0 19  0 19  C 0 18.3701108371218  0.237052962183952 17.7660199925303  0.65900981426239 17.3206210931142  C 1.08096666634083 16.8752221936981  1.65326289832592 16.625  2.25 16.625  C 2.25 16.625  15 16.625  15 16.625  L 15 0  C 15 0  2.25 0  2.25 0  C 1.65326289832592 0  1.08096666634083 0.250222571194172  0.65900981426239 0.695621470610301  C 0.237052962183952 1.14102037002643  0 1.7451108371218  0 2.375  Z " fill-rule="nonzero" fill="#ffffff" stroke="none" fill-opacity="0" transform="matrix(1 0 0 1 1194 36 )" />
    <path d="M 0 2.375  C 0 2.375  0 19  0 19  C 0 18.3701108371218  0.237052962183952 17.7660199925303  0.65900981426239 17.3206210931142  C 1.08096666634083 16.8752221936981  1.65326289832592 16.625  2.25 16.625  C 2.25 16.625  15 16.625  15 16.625  L 15 0  C 15 0  2.25 0  2.25 0  C 1.65326289832592 0  1.08096666634083 0.250222571194172  0.65900981426239 0.695621470610301  C 0.237052962183952 1.14102037002643  0 1.7451108371218  0 2.375  Z " stroke-width="4" stroke="#b1b1b1" fill="none" transform="matrix(1 0 0 1 1194 36 )" mask="url(#clip30)" />
  </g>
</svg>