<?xml version="1.0" encoding="utf-8"?>
<svg version="1.1" xmlns:xlink="http://www.w3.org/1999/xlink" width="10px" height="7px" xmlns="http://www.w3.org/2000/svg">
  <g transform="matrix(1 0 0 1 -176 -66 )">
    <path d="M 10 5.86687660217285  C 10 5.86687660217285  5.76067877142372 7  5.76067877142372 7  C 5.76067877142372 6.47937497496605  5.76067877142372 5.93687580525875  5.76067877142372 5.39437580108643  C 5.77310863640522 5.04147754237056  5.68726647346428 4.69194358587265  5.51243848633972 4.38352489471436  C 5.33761049921517 4.07510620355606  5.08043565989309 3.81952345184982  4.76868148650942 3.64437580108643  C 4.21708032835568 3.27687581256032  3.69661252293505 3.55687713623047  3.67881893772272 4.21312713623047  C 3.69143652294035 4.35216339118779  3.71675207873749 4.48980249091983  3.75444764975395 4.6243782043457  C 3.92348671092822 5.60437820851803  3.61654738673002 6.19937740638852  2.86476836925165 6.33937740325928  C 2.44029476179365 6.39385012630373  2.01008041850501 6.29599095880985  1.65302562362125 6.06375694274902  C 1.29597082873749 5.83152292668819  1.03601300006363 5.48048216104507  0.920821313422705 5.07500267028809  C 0.872475805510776 4.7285054884851  0.848692006762194 4.37912100553513  0.849645341931105 4.02937793731689  C 0.859860553569913 3.47022315859795  0.822661765017818 2.91120079904795  0.738435431868318 2.35812473297119  C 0.569396370694044 1.62749975174665  0.266903794756491 0.927500784397125  0 0.144375801086426  C 0.161140296220092 0.0685248011723161  0.334046737124555 0.0197252570651472  0.511562871203122 0  C 2.00467090191753 0.0629414347931743  3.46229689886306 0.467396326363087  4.76868148650942 1.18124866485596  C 5.71174147293399 1.71499867737293  6.77935283387069 2.05625184625387  7.64234176141184 2.74312686920166  C 8.71447851264212 3.54248746484518  9.53239966909893 4.62617459893227  10 5.86687660217285  Z " fill-rule="nonzero" fill="#ffffff" stroke="none" transform="matrix(1 0 0 1 176 66 )" />
  </g>
</svg>