<?xml version="1.0" encoding="utf-8"?>
<svg version="1.1" xmlns:xlink="http://www.w3.org/1999/xlink" width="20px" height="20px" xmlns="http://www.w3.org/2000/svg">
  <defs>
    <mask fill="white" id="clip27">
      <path d="M 18.8259722610663 10.8023664017113  L 18.8259722610663 9.19764201539903  C 18.8259722610663 9.19764201539903  19.8597267426935 7.64704806583221  19.8597267426935 7.64704806583221  C 19.9270915930107 7.54715237726361  19.9716361414897 7.43364996350417  19.9901994355187 7.31460128377767  C 20.0087627295477 7.19555260405117  20.0008892982368 7.07387697287502  19.9671365831244 6.95821394427475  C 19.772110990838 6.31603065259081  19.5150805487719 5.69434025082071  19.1996777016115 5.101925467559  C 19.1419025578704 4.9964669896618  19.0615573027998 4.90506489477311  18.9643769223029 4.83424528898159  C 18.867196541806 4.76342568319007  18.755579030442 4.71493529474339  18.6374935102251 4.69223639408543  C 18.6374935102251 4.69223639408543  16.8083185428317 4.32636909273804  16.8083185428317 4.32636909273804  L 15.6736277354138 3.19167891356225  C 15.6736277354138 3.19167891356225  15.3077624403773 1.3624322212188  15.3077624403773 1.3624322212188  C 15.2850633032232 1.24433787920421  15.2365702309384 1.1327120267231  15.1657445479195 1.03552542816693  C 15.0949188649006 0.938338829610751  15.0035088424499 0.857988926698293  14.8980409966305 0.800213247491051  C 14.305594798156 0.484859105798333  13.6838842101719 0.227868466084172  13.0416879804203 0.0328696887651012  C 12.9260276608842 -0.000885530225919834  12.8043538259734 -0.00876322068590191  12.6853064608507 0.00979609368412177  C 12.5662590957281 0.0283554080541454  12.4527567160323 0.0728964739710809  12.3528601112511 0.140256713162019  C 12.3528601112511 0.140256713162019  10.8023645927826 1.17392338271729  10.8023645927826 1.17392338271729  L 9.19764229393506 1.17392338271729  C 9.19764229393506 1.17392338271729  7.64714218432147 0.140256713162019  7.64714218432147 0.140256713162019  C 7.54724548986945 0.0728966652690437  7.43374392916705 0.0283557846720097  7.31469659991269 0.00979647628004736  C 7.19564927065834 -0.00876283211191497  7.07397618898225 -0.000885323982803693  6.95831584553398 0.0328696887651012  C 6.31612525906493 0.227867437857622  5.69442007524122 0.484855327663568  5.10197813314091 0.800205212976613  C 4.99650615050845 0.857983038307876  4.90509215863019 0.938336916631124  4.83426539956162 1.03552848893433  C 4.76343864049306 1.13272006123754  4.7149464439931 1.24435164070141  4.69225056786726 1.36245135101508  C 4.69225056786726 1.36245135101508  4.32647403496999 3.19158173419714  4.32647403496999 3.19158173419714  L 3.19168719609967 4.32636679716248  C 3.19168719609967 4.32636679716248  1.36254321893603 4.69214380587144  1.36254321893603 4.69214380587144  C 1.24444972399566 4.71483803616897  1.13282392107133 4.76332718267341  1.03563646853707 4.83414887480834  C 0.938449016002819 4.90497056694327  0.858097442129572 4.99637693614581  0.800319954991474 5.10184206164722  C 0.484916581762365 5.69428831342381  0.227887227702052 6.3160096098149  0.0328620538793837 6.95822236138511  C -0.000889053136574706 7.07388204227103  -0.00876280651513146 7.19555390726854  0.00979977463096758 7.31459898820212  C 0.0283623557770666 7.4336440691357  0.0729060217459589 7.54714265693587  0.14026806835603 7.64703582276259  C 0.14026806835603 7.64703582276259  1.1739343856493 9.19754177526652  1.1739343856493 9.19754177526652  L 1.1739343856493 10.802265396387  C 1.1739343856493 10.802265396387  0.140263094615467 12.3527751748502  0.140263094615467 12.3527751748502  C 0.0729053282917459 12.4526699487754  0.0283655121893469 12.5661682675628  0.00980608745552806 12.6852127746025  C -0.00875333727829073 12.8042572816422  -0.000877288327166538 12.9259273651774  0.0328750621239326 13.0415855754602  C 0.227845488932088 13.6838021529897  0.484833630291151 14.3055267970951  0.800207854531097 14.8979746749044  C 0.857988061683565 15.0034354842455  0.938339282851652 15.0948399882929  1.03552475067212 15.1656602098248  C 1.1327102184926 15.2364804313566  1.24433285304854 15.2849710140903  1.36242308397166 15.3076691047209  C 1.36242308397166 15.3076691047209  3.19168719609967 15.673537936452  3.19168719609967 15.673537936452  L 4.32637379496787 16.8082256287543  C 4.32637379496787 16.8082256287543  4.69215874496457 18.6374794947714  4.69215874496457 18.6374794947714  C 4.71485258705768 18.7555731074625  4.76334015206064 18.8671999104553  4.83415903803266 18.9643893485906  C 4.90497792400469 19.061578786726  4.99638155591613 19.1419334720875  5.10184345955029 19.1997164505076  C 5.69425795042864 19.5151083496357  6.31595720402322 19.7721036522378  6.95815285988169 19.9670692034919  C 7.07380547968476 20.0008148964422  7.19546909212401 20.0086880899055  7.31450606738959 19.9901274947359  C 7.43354304265518 19.9715668995662  7.54703437490794 19.927028094851  7.64692333973671 19.8596745271765  C 7.64692333973671 19.8596745271765  9.19754205393295 18.8259845073136  9.19754205393295 18.8259845073136  L 10.8022635875897 18.8259845073136  C 10.8022635875897 18.8259845073136  12.3528570504877 19.8597403336757  12.3528570504877 19.8597403336757  C 12.4527531232221 19.9271017385886  12.5662543491535 19.9716443289112  12.6853018697056 19.990204013921  C 12.8043493902577 20.0087636989308  12.9260230338708 20.0008862535713  13.0416833892752 19.96713041884  C 13.6838603457821 19.7721509626152  14.3055492693001 19.5151665042164  14.8979660079266 19.1998082735298  C 15.0034266083451 19.1420281526229  15.0948295348462 19.0616773051768  15.1656496642534 18.9644918842987  C 15.2364697936605 18.8673064634206  15.2849602430744 18.7556829722737  15.3076583744209 18.6375927431653  C 15.3076583744209 18.6375927431653  15.6735267302209 16.808325103695  15.6735267302209 16.808325103695  L 16.8082129464936 15.6735409972194  C 16.8082129464936 15.6735409972194  18.637456781064 15.307756336592  18.637456781064 15.307756336592  C 18.7555502042677 15.2850622662076  18.86717555286 15.2365733603201  18.9643631488675 15.1657520328469  C 19.061550744875 15.0949307053737  19.1419027790584 15.0035235769574  19.199680762375 14.898058846008  C 19.51507966402 14.3056516190159  19.7721062442635 13.6839700647766  19.9671304615976 13.0417952380275  C 20.0008831767099 12.9261322094272  20.0087581384026 12.8044558130592  19.9901948443736 12.6854071333327  C 19.9716315503446 12.5663584536062  19.9270854714838 12.4528560398468  19.8597206211666 12.3529603512782  C 19.8597206211666 12.3529603512782  18.8259722610663 10.8023664017113  18.8259722610663 10.8023664017113  Z " fill-rule="evenodd" />
    </mask>
  </defs>
  <g transform="matrix(1 0 0 1 -1141 -38 )">
    <path d="M 18.8259722610663 10.8023664017113  L 18.8259722610663 9.19764201539903  C 18.8259722610663 9.19764201539903  19.8597267426935 7.64704806583221  19.8597267426935 7.64704806583221  C 19.9270915930107 7.54715237726361  19.9716361414897 7.43364996350417  19.9901994355187 7.31460128377767  C 20.0087627295477 7.19555260405117  20.0008892982368 7.07387697287502  19.9671365831244 6.95821394427475  C 19.772110990838 6.31603065259081  19.5150805487719 5.69434025082071  19.1996777016115 5.101925467559  C 19.1419025578704 4.9964669896618  19.0615573027998 4.90506489477311  18.9643769223029 4.83424528898159  C 18.867196541806 4.76342568319007  18.755579030442 4.71493529474339  18.6374935102251 4.69223639408543  C 18.6374935102251 4.69223639408543  16.8083185428317 4.32636909273804  16.8083185428317 4.32636909273804  L 15.6736277354138 3.19167891356225  C 15.6736277354138 3.19167891356225  15.3077624403773 1.3624322212188  15.3077624403773 1.3624322212188  C 15.2850633032232 1.24433787920421  15.2365702309384 1.1327120267231  15.1657445479195 1.03552542816693  C 15.0949188649006 0.938338829610751  15.0035088424499 0.857988926698293  14.8980409966305 0.800213247491051  C 14.305594798156 0.484859105798333  13.6838842101719 0.227868466084172  13.0416879804203 0.0328696887651012  C 12.9260276608842 -0.000885530225919834  12.8043538259734 -0.00876322068590191  12.6853064608507 0.00979609368412177  C 12.5662590957281 0.0283554080541454  12.4527567160323 0.0728964739710809  12.3528601112511 0.140256713162019  C 12.3528601112511 0.140256713162019  10.8023645927826 1.17392338271729  10.8023645927826 1.17392338271729  L 9.19764229393506 1.17392338271729  C 9.19764229393506 1.17392338271729  7.64714218432147 0.140256713162019  7.64714218432147 0.140256713162019  C 7.54724548986945 0.0728966652690437  7.43374392916705 0.0283557846720097  7.31469659991269 0.00979647628004736  C 7.19564927065834 -0.00876283211191497  7.07397618898225 -0.000885323982803693  6.95831584553398 0.0328696887651012  C 6.31612525906493 0.227867437857622  5.69442007524122 0.484855327663568  5.10197813314091 0.800205212976613  C 4.99650615050845 0.857983038307876  4.90509215863019 0.938336916631124  4.83426539956162 1.03552848893433  C 4.76343864049306 1.13272006123754  4.7149464439931 1.24435164070141  4.69225056786726 1.36245135101508  C 4.69225056786726 1.36245135101508  4.32647403496999 3.19158173419714  4.32647403496999 3.19158173419714  L 3.19168719609967 4.32636679716248  C 3.19168719609967 4.32636679716248  1.36254321893603 4.69214380587144  1.36254321893603 4.69214380587144  C 1.24444972399566 4.71483803616897  1.13282392107133 4.76332718267341  1.03563646853707 4.83414887480834  C 0.938449016002819 4.90497056694327  0.858097442129572 4.99637693614581  0.800319954991474 5.10184206164722  C 0.484916581762365 5.69428831342381  0.227887227702052 6.3160096098149  0.0328620538793837 6.95822236138511  C -0.000889053136574706 7.07388204227103  -0.00876280651513146 7.19555390726854  0.00979977463096758 7.31459898820212  C 0.0283623557770666 7.4336440691357  0.0729060217459589 7.54714265693587  0.14026806835603 7.64703582276259  C 0.14026806835603 7.64703582276259  1.1739343856493 9.19754177526652  1.1739343856493 9.19754177526652  L 1.1739343856493 10.802265396387  C 1.1739343856493 10.802265396387  0.140263094615467 12.3527751748502  0.140263094615467 12.3527751748502  C 0.0729053282917459 12.4526699487754  0.0283655121893469 12.5661682675628  0.00980608745552806 12.6852127746025  C -0.00875333727829073 12.8042572816422  -0.000877288327166538 12.9259273651774  0.0328750621239326 13.0415855754602  C 0.227845488932088 13.6838021529897  0.484833630291151 14.3055267970951  0.800207854531097 14.8979746749044  C 0.857988061683565 15.0034354842455  0.938339282851652 15.0948399882929  1.03552475067212 15.1656602098248  C 1.1327102184926 15.2364804313566  1.24433285304854 15.2849710140903  1.36242308397166 15.3076691047209  C 1.36242308397166 15.3076691047209  3.19168719609967 15.673537936452  3.19168719609967 15.673537936452  L 4.32637379496787 16.8082256287543  C 4.32637379496787 16.8082256287543  4.69215874496457 18.6374794947714  4.69215874496457 18.6374794947714  C 4.71485258705768 18.7555731074625  4.76334015206064 18.8671999104553  4.83415903803266 18.9643893485906  C 4.90497792400469 19.061578786726  4.99638155591613 19.1419334720875  5.10184345955029 19.1997164505076  C 5.69425795042864 19.5151083496357  6.31595720402322 19.7721036522378  6.95815285988169 19.9670692034919  C 7.07380547968476 20.0008148964422  7.19546909212401 20.0086880899055  7.31450606738959 19.9901274947359  C 7.43354304265518 19.9715668995662  7.54703437490794 19.927028094851  7.64692333973671 19.8596745271765  C 7.64692333973671 19.8596745271765  9.19754205393295 18.8259845073136  9.19754205393295 18.8259845073136  L 10.8022635875897 18.8259845073136  C 10.8022635875897 18.8259845073136  12.3528570504877 19.8597403336757  12.3528570504877 19.8597403336757  C 12.4527531232221 19.9271017385886  12.5662543491535 19.9716443289112  12.6853018697056 19.990204013921  C 12.8043493902577 20.0087636989308  12.9260230338708 20.0008862535713  13.0416833892752 19.96713041884  C 13.6838603457821 19.7721509626152  14.3055492693001 19.5151665042164  14.8979660079266 19.1998082735298  C 15.0034266083451 19.1420281526229  15.0948295348462 19.0616773051768  15.1656496642534 18.9644918842987  C 15.2364697936605 18.8673064634206  15.2849602430744 18.7556829722737  15.3076583744209 18.6375927431653  C 15.3076583744209 18.6375927431653  15.6735267302209 16.808325103695  15.6735267302209 16.808325103695  L 16.8082129464936 15.6735409972194  C 16.8082129464936 15.6735409972194  18.637456781064 15.307756336592  18.637456781064 15.307756336592  C 18.7555502042677 15.2850622662076  18.86717555286 15.2365733603201  18.9643631488675 15.1657520328469  C 19.061550744875 15.0949307053737  19.1419027790584 15.0035235769574  19.199680762375 14.898058846008  C 19.51507966402 14.3056516190159  19.7721062442635 13.6839700647766  19.9671304615976 13.0417952380275  C 20.0008831767099 12.9261322094272  20.0087581384026 12.8044558130592  19.9901948443736 12.6854071333327  C 19.9716315503446 12.5663584536062  19.9270854714838 12.4528560398468  19.8597206211666 12.3529603512782  C 19.8597206211666 12.3529603512782  18.8259722610663 10.8023664017113  18.8259722610663 10.8023664017113  Z " fill-rule="nonzero" fill="#ffffff" stroke="none" fill-opacity="0" transform="matrix(1 0 0 1 1141 38 )" />
    <path d="M 18.8259722610663 10.8023664017113  L 18.8259722610663 9.19764201539903  C 18.8259722610663 9.19764201539903  19.8597267426935 7.64704806583221  19.8597267426935 7.64704806583221  C 19.9270915930107 7.54715237726361  19.9716361414897 7.43364996350417  19.9901994355187 7.31460128377767  C 20.0087627295477 7.19555260405117  20.0008892982368 7.07387697287502  19.9671365831244 6.95821394427475  C 19.772110990838 6.31603065259081  19.5150805487719 5.69434025082071  19.1996777016115 5.101925467559  C 19.1419025578704 4.9964669896618  19.0615573027998 4.90506489477311  18.9643769223029 4.83424528898159  C 18.867196541806 4.76342568319007  18.755579030442 4.71493529474339  18.6374935102251 4.69223639408543  C 18.6374935102251 4.69223639408543  16.8083185428317 4.32636909273804  16.8083185428317 4.32636909273804  L 15.6736277354138 3.19167891356225  C 15.6736277354138 3.19167891356225  15.3077624403773 1.3624322212188  15.3077624403773 1.3624322212188  C 15.2850633032232 1.24433787920421  15.2365702309384 1.1327120267231  15.1657445479195 1.03552542816693  C 15.0949188649006 0.938338829610751  15.0035088424499 0.857988926698293  14.8980409966305 0.800213247491051  C 14.305594798156 0.484859105798333  13.6838842101719 0.227868466084172  13.0416879804203 0.0328696887651012  C 12.9260276608842 -0.000885530225919834  12.8043538259734 -0.00876322068590191  12.6853064608507 0.00979609368412177  C 12.5662590957281 0.0283554080541454  12.4527567160323 0.0728964739710809  12.3528601112511 0.140256713162019  C 12.3528601112511 0.140256713162019  10.8023645927826 1.17392338271729  10.8023645927826 1.17392338271729  L 9.19764229393506 1.17392338271729  C 9.19764229393506 1.17392338271729  7.64714218432147 0.140256713162019  7.64714218432147 0.140256713162019  C 7.54724548986945 0.0728966652690437  7.43374392916705 0.0283557846720097  7.31469659991269 0.00979647628004736  C 7.19564927065834 -0.00876283211191497  7.07397618898225 -0.000885323982803693  6.95831584553398 0.0328696887651012  C 6.31612525906493 0.227867437857622  5.69442007524122 0.484855327663568  5.10197813314091 0.800205212976613  C 4.99650615050845 0.857983038307876  4.90509215863019 0.938336916631124  4.83426539956162 1.03552848893433  C 4.76343864049306 1.13272006123754  4.7149464439931 1.24435164070141  4.69225056786726 1.36245135101508  C 4.69225056786726 1.36245135101508  4.32647403496999 3.19158173419714  4.32647403496999 3.19158173419714  L 3.19168719609967 4.32636679716248  C 3.19168719609967 4.32636679716248  1.36254321893603 4.69214380587144  1.36254321893603 4.69214380587144  C 1.24444972399566 4.71483803616897  1.13282392107133 4.76332718267341  1.03563646853707 4.83414887480834  C 0.938449016002819 4.90497056694327  0.858097442129572 4.99637693614581  0.800319954991474 5.10184206164722  C 0.484916581762365 5.69428831342381  0.227887227702052 6.3160096098149  0.0328620538793837 6.95822236138511  C -0.000889053136574706 7.07388204227103  -0.00876280651513146 7.19555390726854  0.00979977463096758 7.31459898820212  C 0.0283623557770666 7.4336440691357  0.0729060217459589 7.54714265693587  0.14026806835603 7.64703582276259  C 0.14026806835603 7.64703582276259  1.1739343856493 9.19754177526652  1.1739343856493 9.19754177526652  L 1.1739343856493 10.802265396387  C 1.1739343856493 10.802265396387  0.140263094615467 12.3527751748502  0.140263094615467 12.3527751748502  C 0.0729053282917459 12.4526699487754  0.0283655121893469 12.5661682675628  0.00980608745552806 12.6852127746025  C -0.00875333727829073 12.8042572816422  -0.000877288327166538 12.9259273651774  0.0328750621239326 13.0415855754602  C 0.227845488932088 13.6838021529897  0.484833630291151 14.3055267970951  0.800207854531097 14.8979746749044  C 0.857988061683565 15.0034354842455  0.938339282851652 15.0948399882929  1.03552475067212 15.1656602098248  C 1.1327102184926 15.2364804313566  1.24433285304854 15.2849710140903  1.36242308397166 15.3076691047209  C 1.36242308397166 15.3076691047209  3.19168719609967 15.673537936452  3.19168719609967 15.673537936452  L 4.32637379496787 16.8082256287543  C 4.32637379496787 16.8082256287543  4.69215874496457 18.6374794947714  4.69215874496457 18.6374794947714  C 4.71485258705768 18.7555731074625  4.76334015206064 18.8671999104553  4.83415903803266 18.9643893485906  C 4.90497792400469 19.061578786726  4.99638155591613 19.1419334720875  5.10184345955029 19.1997164505076  C 5.69425795042864 19.5151083496357  6.31595720402322 19.7721036522378  6.95815285988169 19.9670692034919  C 7.07380547968476 20.0008148964422  7.19546909212401 20.0086880899055  7.31450606738959 19.9901274947359  C 7.43354304265518 19.9715668995662  7.54703437490794 19.927028094851  7.64692333973671 19.8596745271765  C 7.64692333973671 19.8596745271765  9.19754205393295 18.8259845073136  9.19754205393295 18.8259845073136  L 10.8022635875897 18.8259845073136  C 10.8022635875897 18.8259845073136  12.3528570504877 19.8597403336757  12.3528570504877 19.8597403336757  C 12.4527531232221 19.9271017385886  12.5662543491535 19.9716443289112  12.6853018697056 19.990204013921  C 12.8043493902577 20.0087636989308  12.9260230338708 20.0008862535713  13.0416833892752 19.96713041884  C 13.6838603457821 19.7721509626152  14.3055492693001 19.5151665042164  14.8979660079266 19.1998082735298  C 15.0034266083451 19.1420281526229  15.0948295348462 19.0616773051768  15.1656496642534 18.9644918842987  C 15.2364697936605 18.8673064634206  15.2849602430744 18.7556829722737  15.3076583744209 18.6375927431653  C 15.3076583744209 18.6375927431653  15.6735267302209 16.808325103695  15.6735267302209 16.808325103695  L 16.8082129464936 15.6735409972194  C 16.8082129464936 15.6735409972194  18.637456781064 15.307756336592  18.637456781064 15.307756336592  C 18.7555502042677 15.2850622662076  18.86717555286 15.2365733603201  18.9643631488675 15.1657520328469  C 19.061550744875 15.0949307053737  19.1419027790584 15.0035235769574  19.199680762375 14.898058846008  C 19.51507966402 14.3056516190159  19.7721062442635 13.6839700647766  19.9671304615976 13.0417952380275  C 20.0008831767099 12.9261322094272  20.0087581384026 12.8044558130592  19.9901948443736 12.6854071333327  C 19.9716315503446 12.5663584536062  19.9270854714838 12.4528560398468  19.8597206211666 12.3529603512782  C 19.8597206211666 12.3529603512782  18.8259722610663 10.8023664017113  18.8259722610663 10.8023664017113  Z " stroke-width="4" stroke="#b1b1b1" fill="none" transform="matrix(1 0 0 1 1141 38 )" mask="url(#clip27)" />
  </g>
</svg>