<?xml version="1.0" encoding="utf-8"?>
<svg version="1.1" xmlns:xlink="http://www.w3.org/1999/xlink" width="8px" height="14px" xmlns="http://www.w3.org/2000/svg">
  <defs>
    <mask fill="white" id="clip29">
      <path d="M 4 0  C 5.06086597442627 0  6.07828159332276 0.409721030129327  6.82842712402344 1.13902918497721  C 7.57857265472412 1.8683373398251  8 2.85749141375224  8 3.88888888888889  C 8 3.88888888888889  8 10.1111111111111  8 10.1111111111111  C 8 11.1425085862478  7.57857265472412 12.1316626601749  6.82842712402344 12.8609708150228  C 6.07828159332276 13.5902789698707  5.06086597442627 14  4 14  C 3.47470598220825 14.0000001276741  2.95456256866455 13.8994107809332  2.46926116943359 13.7039763132731  C 1.98395977020264 13.5085418456131  1.54300420284271 13.22208970454  1.1715705871582 12.8609737820096  C 0.800136971473694 12.4998578594791  0.505499935150146 12.0711501770549  0.304481506347656 11.5993294186062  C 0.103463077545166 11.1275086601575  0 10.621815111902  0 10.1111200120714  C 0 10.1111200120714  0 3.8888799879286  0 3.8888799879286  C 0 2.85748483075036  0.421426773071289 1.86833307478163  1.1715705871582 1.1390265888638  C 1.92171440124512 0.409720102945964  2.93912725448608 0  3.99999084472656 0  Z " fill-rule="evenodd" />
    </mask>
  </defs>
  <g transform="matrix(1 0 0 1 -222 -246 )">
    <path d="M 4 0  C 5.06086597442627 0  6.07828159332276 0.409721030129327  6.82842712402344 1.13902918497721  C 7.57857265472412 1.8683373398251  8 2.85749141375224  8 3.88888888888889  C 8 3.88888888888889  8 10.1111111111111  8 10.1111111111111  C 8 11.1425085862478  7.57857265472412 12.1316626601749  6.82842712402344 12.8609708150228  C 6.07828159332276 13.5902789698707  5.06086597442627 14  4 14  C 3.47470598220825 14.0000001276741  2.95456256866455 13.8994107809332  2.46926116943359 13.7039763132731  C 1.98395977020264 13.5085418456131  1.54300420284271 13.22208970454  1.1715705871582 12.8609737820096  C 0.800136971473694 12.4998578594791  0.505499935150146 12.0711501770549  0.304481506347656 11.5993294186062  C 0.103463077545166 11.1275086601575  0 10.621815111902  0 10.1111200120714  C 0 10.1111200120714  0 3.8888799879286  0 3.8888799879286  C 0 2.85748483075036  0.421426773071289 1.86833307478163  1.1715705871582 1.1390265888638  C 1.92171440124512 0.409720102945964  2.93912725448608 0  3.99999084472656 0  Z " fill-rule="nonzero" fill="#ffffff" stroke="none" fill-opacity="0" transform="matrix(1 0 0 1 222 246 )" />
    <path d="M 4 0  C 5.06086597442627 0  6.07828159332276 0.409721030129327  6.82842712402344 1.13902918497721  C 7.57857265472412 1.8683373398251  8 2.85749141375224  8 3.88888888888889  C 8 3.88888888888889  8 10.1111111111111  8 10.1111111111111  C 8 11.1425085862478  7.57857265472412 12.1316626601749  6.82842712402344 12.8609708150228  C 6.07828159332276 13.5902789698707  5.06086597442627 14  4 14  C 3.47470598220825 14.0000001276741  2.95456256866455 13.8994107809332  2.46926116943359 13.7039763132731  C 1.98395977020264 13.5085418456131  1.54300420284271 13.22208970454  1.1715705871582 12.8609737820096  C 0.800136971473694 12.4998578594791  0.505499935150146 12.0711501770549  0.304481506347656 11.5993294186062  C 0.103463077545166 11.1275086601575  0 10.621815111902  0 10.1111200120714  C 0 10.1111200120714  0 3.8888799879286  0 3.8888799879286  C 0 2.85748483075036  0.421426773071289 1.86833307478163  1.1715705871582 1.1390265888638  C 1.92171440124512 0.409720102945964  2.93912725448608 0  3.99999084472656 0  Z " stroke-width="4" stroke="#b1b1b1" fill="none" transform="matrix(1 0 0 1 222 246 )" mask="url(#clip29)" />
  </g>
</svg>