<?xml version="1.0" encoding="utf-8"?>
<svg version="1.1" xmlns:xlink="http://www.w3.org/1999/xlink" width="14px" height="7px" xmlns="http://www.w3.org/2000/svg">
  <g transform="matrix(1 0 0 1 -195 -320 )">
    <path d="M 11.5120748461856 2.05939976395212  C 11.7634106541912 1.90953768220605  12.0596349828641 1.81284774911482  12.3468758986558 1.69199123250717  C 12.1531163969423 1.48947129662012  11.9019249662183 1.36274875453704  11.6334414334297 1.33207722137919  C 11.364957900641 1.30140568822135  11.0946699059702 1.36856720737373  10.8657816754714 1.52280391165065  C 8.34045528857357 2.72814624035787  5.8181274120969 3.93509526218176  3.29878520537153 5.1436604282583  C 2.93973404725623 5.31285954862758  2.5357916398312 5.38052622451486  2.19469304898465 5.58356516607655  C 1.41824492256984 6.06699123250717  0.668732776305075 6.55041375476179  0 7  C 0.897627881912553 5.00828466162957  1.13101176468286 4.74724515028294  3.01603023109476 3.95926066430619  C 4.48813994459068 3.34530956915992  5.99166339382451 2.82802953364736  7.4727493775791 2.25275248693306  C 7.99045511736464 2.0980272338435  8.48583869018564 1.86703105406181  8.94485855604711 1.56629573427752  C 10.4394089451897 0.401238872686941  12.1359256291638 0.0870166954152441  13.8818119065661 0  C 13.9311814398038 0.0725139128460367  14.0119723320912 0.149873881258825  13.9985079141634 0.193382228966447  C 13.6708737287049 1.45028995558295  13.4015815547324 2.74102462333765  12.2974992428591 3.5338433653684  C 11.3460137393944 4.21547410289949  10.4124839866146 4.9454545469514  9.4116288897217 5.53523436182769  C 9.26895902929 5.63689828659467  9.1022854760498 5.69251440640264  8.93124402182743 5.69556988703423  C 8.76020256760506 5.69862536766581  8.59190985939956 5.6489779693444  8.44618857428636 5.55246585735964  C 8.30046728917317 5.45595374537487  8.18338654969336 5.31661389713805  8.10872892226974 5.15083038273478  C 8.03407129484611 4.98504686833152  8.00495359293063 4.79972671768634  8.02479545577254 4.61671303321531  C 8.04803880536988 4.43099512805466  8.10867606151219 4.25298986851395  8.20248293306825 4.0951652335188  C 8.29628980462432 3.93734059852365  8.42099536730033 3.80350373184032  8.56785648924958 3.70303068622492  C 9.5193419927142 3.10358235924064  10.5201960195513 2.59116844855157  11.5120748461856 2.05939976395212  Z " fill-rule="nonzero" fill="#ffffff" stroke="none" transform="matrix(1 0 0 1 195 320 )" />
  </g>
</svg>