<?xml version="1.0" encoding="utf-8"?>
<svg version="1.1" xmlns:xlink="http://www.w3.org/1999/xlink" width="3px" height="6px" xmlns="http://www.w3.org/2000/svg">
  <g transform="matrix(1 0 0 1 -102 -141 )">
    <path d="M 0.913303787901128 2.20750611362243  C 0.913303787901128 2.20750611362243  1.12846849150072 2.16335329664037  1.12846849150072 2.16335329664037  C 1.17718513928072 1.86754747004662  1.22996423828195 1.57174059083192  1.31521837114076 1.08608923530878  C 2.29361110410271 2.64900354691153  2.37480302166905 4.35320695706654  3 5.84106602712225  C 3 5.84106602712225  2.79295647237838 6  2.79295647237838 6  C 2.61026904395957 5.84988958269474  2.36262756123452 5.74392928503038  2.24895538005647 5.55849877727551  C 2.02933285703417 5.16986173087093  1.85479150415141 4.75315494180269  1.72931162102624 4.31788141930355  C 1.55068390947485 3.68211963331739  1.4207676219988 3.11700079136042  0.791510926800429 2.70640465106879  C -0.0204332210145753 2.18101817076375  -0.182820322853139 1.18322330637501  0.190673991917153 0  C 0.190673991917153 0  0.913303787901128 2.20750611362243  0.913303787901128 2.20750611362243  Z " fill-rule="nonzero" fill="#000000" stroke="none" transform="matrix(1 0 0 1 102 141 )" />
  </g>
</svg>