<?xml version="1.0" encoding="utf-8"?>
<svg version="1.1" xmlns:xlink="http://www.w3.org/1999/xlink" width="25px" height="7px" xmlns="http://www.w3.org/2000/svg">
  <g transform="matrix(1 0 0 1 -134 -153 )">
    <path d="M 17.6480408535679 0.430445877183711  C 17.6846861598544 0.341387606118543  17.7442258331974 0.247384076461973  17.8679037495934 0  C 17.8765023518342 0.14207814340206  17.9114265151924 0.280851229729424  17.9705940366104 0.408084071932235  C 18.0297615580283 0.535316914135047  18.1119763631158 0.648422695779039  18.2123621436017 0.740702713312899  C 18.3127479240877 0.832982730846759  18.429263905624 0.902552332478739  18.5550032578235 0.945295867369279  C 18.680742610023 0.98803940225982  18.8131409984838 1.00308432175346  18.9443624416356 0.989536305847891  C 19.3734190048097 1.0487662318551  19.7807524945398 1.22783572198357  20.1261674449983 1.50905192589349  C 20.4920471883082 1.76955383970768  20.8286904055421 2.07505504103187  21.1293338453403 2.41942351537846  C 21.7645228765994 3.13458175185719  22.5283369288971 3.70197823319467  23.3738700888189 4.08678977487204  C 23.9378100122051 4.39521091709259  24.4811651465762 4.7456932397911  25 5.13569584321068  C 24.573998301621 5.63046399613462  24.2579263857789 6.03617809513204  23.8914733092623 6.39241117939271  C 23.6634846525349 6.62583394653871  23.3779322661206 6.78315744424648  23.0691402267602 6.84547554696583  C 22.7603481873997 6.90779364968518  22.4414661497915 6.87244948634662  22.1508268133761 6.7436923402135  C 21.463727305146 6.47156985020724  20.7766317285308 6.17470413970844  20.1078548563797 5.87289555934711  C 19.776465614524 5.71228226588805  19.4128382224159 5.64484050560484  19.0508270789786 5.67684851047124  C 18.6888159355412 5.70885651533765  18.3401812108839 5.83928637992798  18.0373860583048 6.05597245919461  C 16.3242179467492 7.12467171197663  14.4049274964776 7.36215253136843  12.6780174078629 6.37261622552054  C 11.0564625859136 5.44245210038276  9.54025680557301 5.56615139327183  7.90496000656457 5.94712286158632  C 6.53076099010435 6.27366985549193  5.11991539094791 6.63979283763533  3.70907110232977 6.82285705657642  C 2.72775519797935 6.90763847077942  1.74104926799271 6.88608865640429  0.763707789483234 6.75853478083619  C 0.493448661592658 6.75853478083616  0.0582929017681141 6.49135998238593  0.0124862672035347 6.26376662791224  C -0.0791270019256242 5.79373688853259  0.351454784672265 5.64530583220247  0.713327202169161 5.53645683914901  C 1.86765436725882 5.18022375488834  3.04029368412099 4.86852828467326  4.18087887215143 4.46281840281448  C 4.83475978365773 4.2169091600026  5.46397920371413 3.90029849674048  6.05895365712879 3.51780941883465  C 7.35528136104191 2.71133733192786  8.62413089904745 1.84053630443235  9.91587794394083 1.01922118709327  C 10.2083969472268 0.813082083094264  10.5383285428498 0.676870396093715  10.8835654512187 0.619698319467303  C 11.2288023595875 0.562526242840891  11.5813661326969 0.585723118955631  11.9176256079325 0.68773498014465  C 12.4398212276347 0.85595615390822  12.9482676077112 1.09344667566795  13.4704632274134 1.26166784943152  C 14.157640221221 1.51419559643434  14.8621993214487 1.70774755901399  15.577572055493 1.84053813284211  C 16.7868672380311 1.99391626142815  17.1945551737676 1.66736625949358  17.6480408535679 0.430445877183711  Z M 11.1251658093067 2.03844237418653  C 10.2548397764697 2.21161122476087  8.22561148931111 3.51780941883465  7.4377373734352 4.50734572468254  C 7.66930485090338 4.53106561998957  7.90242569850643 4.53106561998957  8.13399317597461 4.50734572468254  C 9.9662585312549 4.0125775717586  11.7023260062942 4.50733788021486  13.3834295047116 5.19506560570143  C 13.9537993658812 5.46764631878596  14.5718412593176 5.60431899820515  15.1954959699025 5.59578130426248  C 15.8191506804874 5.58724361031982  16.4337898158138 5.43370796662905  16.9975805016503 5.14560086970964  C 17.6664283612931 4.77721207500679  18.4030341093631 4.57491958388461  19.1535593032214 4.55351885125851  C 19.9040844970797 4.53211811863242  20.6495581118197 4.69215011786755  21.3354692894394 5.02190883147866  C 21.7260847334309 5.15723999541364  22.1257833273124 5.259794378218  22.5310157238037 5.32866267043138  C 21.5943883020512 4.32786229880415  20.6064671754188 3.38465760137176  19.5719110891671 2.5035256458651  C 19.1413287317683 2.12750185436138  18.7244905902651 2.3155161683326  18.2572629334055 2.56784792160534  C 16.6540307475352 3.41884915878996  15.0187296892773 3.85918920997599  13.4154975034071 2.53321052711048  C 13.090805194212 2.27412244588851  12.7172576823843 2.09547803153877  12.321411197435 2.00996542300201  C 11.9255647124857 1.92445281446525  11.5171390801964 1.93417174129016  11.1251658093067 2.03844237418653  Z " fill-rule="nonzero" fill="#000000" stroke="none" transform="matrix(1 0 0 1 134 153 )" />
  </g>
</svg>