<?xml version="1.0" encoding="utf-8"?>
<svg version="1.1" xmlns:xlink="http://www.w3.org/1999/xlink" width="76px" height="168px" xmlns="http://www.w3.org/2000/svg">
  <g transform="matrix(1 0 0 1 -118 -163 )">
    <path d="M 71.6488947025408 93.7719379494496  C 71.6488947025408 93.7719379494496  70.7602438652363 93.3399774884947  70.7602438652363 93.3399774884947  C 69.9084385212088 92.9126134582728  69.0888738277043 92.3933319748927  68.0943335074347 92.3519741641911  C 68.0208750889044 92.3440624448414  67.9492647549503 92.3238650899263  67.8825231454733 92.2922328628578  C 65.4560290433513 91.2307157899912  62.9696879578829 90.2886768277993  60.626072133451 89.0755143805513  C 57.6908782337797 87.5394265782929  54.5908020374488 86.3400799095625  51.3851284729765 85.5003761378044  C 50.7774508750907 85.376735361214  50.1621614411206 85.2938444904978  49.5433872123282 85.2522393805763  C 49.3435078362969 85.2077855397662  49.1344857245989 85.2310747375138  48.9493655159025 85.3184596681105  C 48.7642453072062 85.4058445987073  48.6135890422564 85.5523336388444  48.5212202506136 85.7347415434104  C 48.3002113042757 86.1942727551685  48.5442391951199 86.5067472444629  48.8205003951948 86.8192284717453  C 48.8963023737832 86.90005475176  48.9778578329314 86.9753030597216  49.0645305501759 87.0443942778972  C 52.2645559027312 89.6912941628021  55.478392874476 92.3244257637868  58.6600008319891 94.9897068796322  C 60.1518112575052 96.2396317887615  61.5837680033187 97.5630603668621  63.0479523362715 98.8451524301374  C 63.5958703876607 99.3046836418954  64.1391952874753 99.8285615697038  64.7285524777096 100.265116215396  C 66.643963318527 101.671281697081  67.1826620240907 103.656448722384  65.7967517298439 105.742720406236  C 65.4928644097615 106.202251617994  65.1521495997208 106.638813001674  64.8114274621098 107.070772339631  C 63.2459473466482 109.060542451484  61.64822669044 111.027336134222  60.1103727773181 113.044678092486  C 59.1296455033303 114.326770155761  58.2686308580118 115.719148618633  57.2786948865028 116.978264143232  C 56.2887589149938 118.237379667832  55.0179676587366 119.487309068953  53.9221315559582 120.773996439963  C 53.2084568394123 121.610343269466  52.582253552131 122.520211681128  51.8962049281485 123.384130357042  C 51.3713086754503 124.045855328268  50.8234001746021 124.689199013774  50.2800865268617 125.337138007014  C 49.640081445373 126.090769187723  48.9908665137116 126.835197427375  48.3508614322229 127.59342391582  C 47.3885516630537 128.74684725295  46.4722814295421 129.946232651416  45.4547193654697 131.04910760346  C 44.2341793236853 132.273093231339  43.144741095406 133.620667690305  42.2040471645351 135.070005706343  C 41.6653378655552 135.989068129859  40.8687836088912 136.733498615507  40.2748220698963 137.615798522361  C 38.5804200793625 140.157006219797  36.6143556938095 142.491435915668  34.7726144331612 144.922356008338  C 32.3803334427245 148.047110487851  29.8324653569002 151.050101090165  27.1386048467985 153.919984987878  C 25.6649755776546 155.554639801932  24.2816219742176 157.268156245273  22.9946870103398 159.052940769899  C 21.6778420572778 160.822135891343  20.3471788984465 162.582141602486  18.9750816504814 164.309978954314  C 18.497552733084 164.86007173612  17.9788397970409 165.373172087971  17.4234168866045 165.844825542512  C 16.6729073250859 166.538717667884  15.9085830157523 167.223392225834  15.0475689742037 168  C 14.7518018095184 167.681027926562  14.4750687358735 167.345018275573  14.2187901492496 166.993653571907  C 11.9626570610449 163.418500648016  9.71420085140213 159.838726888728  7.47341559239932 156.254383349366  C 5.40759580585073 152.951885789337  3.35098757100795 149.641735847168  1.30358517950164 146.323920594688  C 1.05034575067368 145.919533130533  0.843136993064447 145.487568177586  0.585293215475921 145.08318071343  C 0.246171232591785 144.572809246671  0.0469011812493211 143.982701033907  0.00731816466645039 143.371578406451  C -0.0322648519164203 142.760455778995  0.0892242828716564 142.14965410984  0.359684380041045 141.599954322546  C 1.40947688543742 139.302298263756  2.54674869655048 137.004635412197  3.6656065431317 134.757527848054  C 4.12604185829378 133.801702962657  4.66015246199428 132.873457702486  5.13900517219862 131.922228124824  C 6.26707171630098 129.693501791621  7.23398363870413 127.368260300884  8.53241119672381 125.24522615515  C 10.4340091010358 122.129604443017  11.9074099256294 118.811789190537  13.6340423574872 115.595070708231  C 13.7207024710364 115.432153145757  13.7990664371426 115.264993567974  13.8688548132878 115.094197394048  C 15.0705909375592 112.09805390215  16.2170831099289 109.074335057897  17.4878845753851 106.101168214235  C 18.8465232448498 102.766121680747  20.0102965174325 99.3552547060632  20.9733692321203 95.885770304513  C 21.613374313609 93.7075924659581  22.3546813525253 91.5523875505733  22.7782818501588 89.3052799864303  C 23.1282126852909 87.5131082167495  23.8464889513009 85.7944659723838  24.3437591114357 84.0252708509396  C 25.1034773704755 81.300250844098  25.8631956295153 78.5706465951599  26.5308268584556 75.8226499400817  C 27.0511187623932 73.6858297615824  27.4010507501768 71.5030486173555  27.8845078091417 69.3524426252115  C 28.2114168730269 67.8819427256735  28.6350224203717 66.4344290061598  29.0263924492371 64.9823103375624  C 29.4407842219053 63.4566667452026  29.868987311878 61.9402030313568  30.2925878095115 60.4191547467322  C 30.3478400460959 60.2215563223894  30.4261106783051 60.0285582592727  30.4905716227022 59.8355551563601  C 30.6010760958711 59.8769129670618  30.6563350811272 59.8769196964902  30.6701481402734 59.8998962574205  C 31.5081404380191 61.4025633111045  32.3737464236026 62.8914427981714  33.161090830094 64.4216816982664  C 33.4475045571623 65.0180747555313  33.6460100755174 65.6526688624803  33.7504474714466 66.3057624712304  C 33.8825894706007 67.0883098091038  34.2093905420178 67.8252452966705  34.7008962370984 68.4490587873504  C 35.192401932179 69.0728722780303  35.8329031478075 69.5636115762691  36.5637145537996 69.8763149380299  C 38.1795676256881 70.6021876355424  39.8815508795973 71.1195038861521  41.6285030205825 71.4157473021754  C 43.3551354524403 71.7603957109939  45.0771680363672 72.1555914366816  46.8130091657461 72.4772632794342  C 48.1943151112323 72.7346007591143  49.5756210567185 72.8862421345274  50.9569270022048 73.1481749219426  C 52.4717591715238 73.4330842754239  53.9727721470864 73.796121228365  55.4829999676449 74.1177930711176  C 58.6461905301157 74.7887086578141  61.7817534631544 75.6250464690956  65.0462399179104 75.7169527128167  C 65.5899875114976 75.7716002699241  66.1268209524888 75.880906610695  66.6485598731679 76.0432159465066  C 67.0445342507939 76.1397174979629  67.4220951304374 76.2821727362025  67.8180695080633 76.3740789799236  C 69.1993754535496 76.6865602072059  69.6091606270424 76.2592001211721  69.2546254431497 74.8989877168385  C 68.9369250767856 73.6950159946215  68.6652699270045 72.4772616360225  68.407426149416 71.2549085733041  C 68.0989344805731 69.8211712452081  67.8088624846313 68.3782460406613  67.5464143582822 66.9353179875342  C 67.4262278114586 66.3597185252126  67.3721586781604 65.772324845079  67.3852591877014 65.1845051926383  C 67.4635331921022 63.3739521920169  66.9248249703026 61.7150339383815  66.3216547337866 60.0469355871105  C 65.8636595818562 58.7714253876073  65.4808343781344 57.4702688723763  65.175161244101 56.1501198866211  C 65.0506420037763 55.4389979045301  64.7319998936903 54.7759274721628  64.2542906137768 54.2338685631269  C 63.6961175317427 53.5574818398314  63.2796531270078 52.7761679919834  63.0295450406519 51.9362125043365  C 62.3039776501163 49.6571090295444  61.2839570901645 47.4820749279695  59.9952639485276 45.4660192132459  C 59.0743933182035 44.1287833475881  58.0844622866295 42.8650680232614  57.1405699125025 41.5554041135753  C 56.1966775383755 40.2457402038891  55.3724926334302 38.9268934575478  54.4009741667399 37.6861591638889  C 53.5019899733764 36.4796890176776  52.5040179351418 35.3499396831394  51.4173623173668 34.3086019527112  C 49.6769168392274 32.7278145579688  47.4944450979667 32.0476988514044  45.1784553660983 31.7857660639892  C 44.1315590897115 31.7152258428892  43.1078679933811 31.4453847735936  42.162609672335 30.9907860428667  C 42.2007737955008 30.7838373593041  42.2577954481965 30.5807968319687  42.3329684907256 30.3842014776389  C 43.76834839195 27.8216493684458  45.0431347383163 25.1727254577178  46.149981187803 22.4526882750851  C 47.3545125468572 19.3300163268516  48.8112047548175 16.3101592809207  50.5056953348525 13.422902768795  C 50.7196342462006 13.0371976359893  50.9117825827714 12.6398497257579  51.0812394788051 12.2327186131951  C 51.4726095076705 11.3779905527515  51.8455615377238 10.5140707812297  52.2461402641103 9.61798489638931  C 51.3943349200828 9.26874117983561  50.7359129924335 10.472714655025  49.8150423621094 9.69151157312416  C 50.0084251884397 9.50310377794676  50.1649687101339 9.23197811537013  50.3859776564717 9.1722390600328  C 50.7040865829054 9.08937007408218  51.0294141540405 9.03705341911487  51.3575034781765 9.01600013088861  C 51.710685202208 8.98714436910396  52.0499658942265 8.86570559982147  52.3410291704607 8.66397521397116  C 52.6320924466949 8.46224482812084  52.8646166285435 8.1873785688328  53.0150734230341 7.86717210149343  C 53.1677631916487 7.49232244235893  53.4024439707371 7.15626379031085  53.7019746797998 6.88355822022209  C 54.0015053888624 6.61085265013333  54.3583059720637 6.40839601327213  54.7463006531114 6.29098341087037  C 55.2620423280209 6.09795966944616  55.7649447825042 5.87233165375964  56.2519331265686 5.61547196863481  C 56.5485297612307 5.46088097055115  56.7935751551891 5.22339691738333  56.9571152166176 4.93205111467345  C 57.1206552780461 4.64070531196357  57.1956050355126 4.30811623065094  57.1728037568928 3.97494217695138  C 57.1451776386006 2.72961257555729  57.7069008581043 2.26089244652098  58.86259349477 1.98057840077491  C 59.599290010007 1.80595654249806  60.2439046546321 1.16261732159457  60.8931184336419 0.721467368167289  C 61.2522579662952 0.487106454553104  61.5929801039062 0.234360913614185  61.9290978927566 0  C 62.1086676590832 0.133264047575213  62.2329851991169 0.179220535005942  62.2744243791282 0.261936156409218  C 62.9650773518713 1.7600079023581  63.9826455634184 3.07425649238392  64.5397723123287 4.65963919486142  C 65.0462511699846 6.10716255572366  65.8289928743604 7.45360021205124  66.4551849095674 8.8643610014715  C 66.9892898597867 10.0683327236885  67.4942238350998 11.2845457812547  67.9700069794637 12.5130259209533  C 68.3936074770972 13.6113055652618  68.6974930956464 14.7555388347257  69.162532759569 15.8308418307978  C 70.1893035211626 18.1974276151761  70.4655669442082 20.7386379420704  70.8339152018267 23.2292971448586  C 71.2258782698903 25.8099289737298  71.8201361226537 28.355890075104  72.6112028250651 30.843732689397  C 73.1591208764542 32.5899512721655  73.532066155263 34.3867210886009  73.9418535791707 36.1742975505465  C 74.3516410030784 37.9618740124922  74.6186957286029 39.8505472446111  75.0376918774758 41.6886720916434  C 75.4566880263486 43.5267969386757  75.4336718674168 45.2546314419234  75.5902198762185 47.042207903869  C 75.9171289401037 50.8149591699325  75.9815825878052 54.5923076062643  76 58.3742492686766  C 75.9719315431173 60.1712084061373  75.8536096502353 61.9656244188062  75.6454698658187 63.7507560319782  C 75.4981305682601 65.2855902398083  75.3922242586414 66.8250198649343  75.336972022057 68.3460681495589  C 75.2540936620345 70.6437242083493  75.2494954950537 72.9046296378225  75.1850345506566 75.1793090483764  C 75.092947486252 78.5109103336224  74.3056064622439 81.7276281585642  73.6057447919796 84.9581326736369  C 73.4630098431816 85.6060716668773  73.329481355212 86.2540017309142  73.2005594664177 86.9019407241546  C 72.7769589687842 88.9836172098321  72.3579583465257 91.0744772990901  71.9297535001317 93.1561537847677  C 71.8561595009683 93.3699355001871  71.76211004738 93.57615739863  71.6488947025408 93.7719379494496  Z " fill-rule="nonzero" fill="#ffffff" stroke="none" transform="matrix(1 0 0 1 118 163 )" />
  </g>
</svg>