<?xml version="1.0" encoding="utf-8"?>
<svg version="1.1" xmlns:xlink="http://www.w3.org/1999/xlink" width="5px" height="17px" xmlns="http://www.w3.org/2000/svg">
  <g transform="matrix(1 0 0 1 -133 -196 )">
    <path d="M 1.9727470832911 0  C 1.9727470832911 0  2.3597683781502 0.155945950368839  2.3597683781502 0.155945950368839  C 2.31015018503263 0.761389714686025  2.29526594298916 1.37142011495329  2.20595319315944 1.99062395115373  C 2.03228952279323 3.14188439227203  1.86853856835699 4.28398041927194  1.60556216294843 5.43982755101799  C 1.36521108987723 6.29217071862045  1.43853508066619 7.19421358747958  1.81396523353593 8.003788377417  C 2.1662543887742 8.73765958866649  2.3746502135486 9.52657223567993  2.69716845217697 10.2696168281849  C 3.01968669080534 11.0126614206899  3.32235767141027 11.608930108744  3.68953229974087 12.2602407793386  C 4.05670692807147 12.9115514499333  4.42885100119274 13.4665415626676  4.73648379630353 14.0949187801235  C 5.04073613864717 14.7398321638831  5.08301538409742 15.4645679948545  4.85556261248459 16.1359896575073  C 4.59258620707604 17.0028750063169  4.08647964874096 17.218446868632  3.27274130083651 16.7781241582856  C 2.30809342771511 16.322334120636  1.55778933424831 15.5553252096303  1.16396812476322 14.6223859058527  C 0.905079540927996 13.9709342215594  0.692916129944152 13.3044164346704  0.528855868013155 12.6271707805027  C -0.176285249904722 9.75882988972969  -0.176285249904722 6.7807911675475  0.528855868013155 3.91245027677448  C 0.806717746514036 2.88503059196073  1.06968933123878 1.85302815331113  1.39220756986715 0.834781849752878  C 1.54288345458033 0.532972018389604  1.73827552913482 0.252013760721583  1.9727470832911 0  Z M 3.47617770665958 13.9022714311489  C 2.58801208201773 12.56754314621  1.67503368800317 11.2557562973489  1.33266816177661 9.46694520284153  C 1.1193099310014 9.74673360452254  1.03992748945524 9.80176274122917  1.04488930858216 9.85680308002247  C 1.10612455116772 11.4625730352089  1.48798077537322 13.0440459856404  2.17121682434976 14.5214780559103  C 2.30243029243889 14.8327915763049  2.50872795155268 15.1123412279605  2.77440917462606 15.338861035157  C 3.04009039769944 15.5653808423536  3.35815470895751 15.732906510687  3.7044171517635 15.828688930966  C 3.84991986603917 15.5167729720556  3.90538595896994 15.1752859648326  3.86537948848842 14.8376251912689  C 3.8253730180069 14.4999644177053  3.69126733186662 14.1776797144215  3.47617770665958 13.9022714311489  Z " fill-rule="nonzero" fill="#000000" stroke="none" transform="matrix(1 0 0 1 133 196 )" />
  </g>
</svg>