<?xml version="1.0" encoding="utf-8"?>
<svg version="1.1" xmlns:xlink="http://www.w3.org/1999/xlink" width="15px" height="3px" xmlns="http://www.w3.org/2000/svg">
  <g transform="matrix(1 0 0 1 -141 -154 )">
    <path d="M 0 2.10764086273415  C 0.783005000497821 1.29295114624531  2.79514570458482 0.217560708097411  3.64188366266712 0.0709165533023037  C 4.03143451220472 -0.0149299303996443  4.43733604643456 -0.0229440010288743  4.8307361733066 0.0474589163712535  C 5.22413630017864 0.117861833771381  5.5953752630927 0.264953040575626  5.91806095183407 0.47826142975646  C 7.51138505425093 1.56994567704472  9.13657897296021 1.20741172115105  10.7299030753771 0.506778553316418  C 11.1851385332105 0.299032679496506  11.6085052872515 0.14423964437506  12.0364266165295 0.453821732756078  C 13.0723757082374 1.17865859943609  14.0617987450855 1.9552015935735  15 2.77975739260174  C 14.5972719671548 2.72305781611645  14.2000435376445 2.63862432887822  13.811842123543 2.52720556947876  C 13.1301699234397 2.25571372899357  12.3893033861101 2.12395866016434  11.6434164887631 2.14157798013549  C 10.8975295914162 2.15919730010665  10.1654761167402 2.32574562305973  9.50076178215346 2.62904178403987  C 8.94045536092613 2.86624166010361  8.32961473706939 2.9926606812073  7.7098142548196 2.99968980324811  C 7.09001377256982 3.00671892528892  6.4757922881713 2.89419569012335  5.90894735135986 2.66977875610002  C 4.23823318637961 2.10356940896739  2.5128947258742 1.70436546732555  0.691952894540638 2.10356343617457  C 0.461960140805243 2.12444733507339  0.230279914421069 2.1258152078158  0 2.10764086273415  Z " fill-rule="nonzero" fill="#ffffff" stroke="none" transform="matrix(1 0 0 1 141 154 )" />
  </g>
</svg>