<?xml version="1.0" encoding="utf-8"?>
<svg version="1.1" xmlns:xlink="http://www.w3.org/1999/xlink" width="2px" height="2px" xmlns="http://www.w3.org/2000/svg">
  <g transform="matrix(1 0 0 1 -104 -76 )">
    <path d="M 0.221367345969372 2  C 0.221367345969372 2  0 1.86585675924858  0 1.86585675924858  C 0.0868116602437111 1.41126098121704  0.14323712146449 0.952941410588556  0.269114023320094 0.50579801507889  C 0.346396471250069 0.345993811358047  0.486047224789576 0.21425478151458  0.664108661112075 0.133178522522478  C 0.850517882805924 0.0287872550275553  1.07354731663479 -0.016430587069793  1.29466417096062 0.00534075066778361  C 1.51578102528646 0.0271120884053602  1.72109909327303 0.114502058231389  1.87513501246042 0.252413811116404  C 1.99341161960415 0.449011799294722  2.02906616342735 0.674620162672062  1.97608588722526 0.891164885406937  C 1.92310561102316 1.10770960814181  1.7847282266568 1.30193431818331  1.58431012655804 1.44107086666218  C 1.14114125255343 1.64678155704565  0.686258259212954 1.83332450121559  0.221367345969372 2  Z " fill-rule="nonzero" fill="#ffffff" stroke="none" transform="matrix(1 0 0 1 104 76 )" />
  </g>
</svg>