<?xml version="1.0" encoding="utf-8"?>
<svg version="1.1" xmlns:xlink="http://www.w3.org/1999/xlink" width="3px" height="8px" xmlns="http://www.w3.org/2000/svg">
  <g transform="matrix(1 0 0 1 -149 -208 )">
    <path d="M 0.124048893284526 0.673019040734462  C 0.0513327183667592 0.44867508810687  0.0256645314803193 0.233890508948617  0 0  C 0 0  2.25419669942386 1.86157457059566  2.25419669942386 1.86157457059566  C 2.47494493498769 2.01265923137397  2.65855801768811 2.22263540257397  2.78848284086716 2.4726115322356  C 2.91840766404621 2.72258766189723  2.99057245027042 3.00471258519349  2.99847700547499 3.29355725057403  C 2.99847700547496 4.36277098951003  2.99847700547499 5.42720269450883  2.99847700547499 6.49164316239705  C 3.00897485062742 6.75848276146186  2.96509218456197 7.02450630222455  2.87014651301154 7.26968941588628  C 2.71081521917598 7.53364135837987  2.52732615895559 7.77839335495301  2.3226370180065 8  C 2.13282208468519 7.80962676805519  1.96214429552172 7.59676369423388  1.81362275464369 7.36516075463728  C 1.69479775858528 7.08994431695895  1.60577273589945 6.799915039804  1.548424678671 6.50119903640082  C 1.06935341162399 4.55688480874596  0.594565324472076 2.6141510876908  0.124048893284526 0.673019040734462  Z " fill-rule="nonzero" fill="#ffffff" stroke="none" transform="matrix(1 0 0 1 149 208 )" />
  </g>
</svg>