<?xml version="1.0" encoding="utf-8"?>
<svg version="1.1" xmlns:xlink="http://www.w3.org/1999/xlink" width="6px" height="2px" xmlns="http://www.w3.org/2000/svg">
  <g transform="matrix(1 0 0 1 -214 -304 )">
    <path d="M 0.883960997169693 1.84475510950028  C 0.883960997169693 1.84475510950028  0.861862957107209 2  0.861862957107209 2  C 0.634689350904339 1.90935169510896  0.417784771326579 1.77982429771208  0.216838627738272 1.61480037002364  C 0.145743236019369 1.5600611735345  0.0878656054507898 1.48048136074776  0.0497748861873227 1.38509127119653  C 0.0116841669238556 1.2897011816453  -0.00509604565792259 1.18230133589721  0.00134514176617156 1.0751278630175  C 0.00778632919026572 0.967954390137802  0.0371947110548397 0.86526826268663  0.0862185342970632 0.778744873605069  C 0.135242357539287 0.692221484523508  0.201926513929808 0.62532532050656  0.278697095011729 0.585636231557161  C 0.434145633353592 0.475096851228193  0.60576089120435 0.408505767551981  0.78234218168527 0.390176423309022  C 2.15192233351275 0.252190949759565  3.5259196917525 0.131434000670234  4.89549984357999 0.0106967123853674  C 5.07102161229535 -0.0187981268306962  5.24941957377916 0.0129687588135749  5.41241184915844 0.102706680322203  C 5.62307670532049 0.291232965962115  5.81978501201327 0.504874860002307  6 0.740881122056879  C 5.80560797352341 0.976606309249926  5.61564418712679 1.21809353110421  5.41683416423786 1.43657053303267  C 5.35443851008093 1.47967453847624  5.28411186743378 1.49955341894654  5.21359642793567 1.49405044502149  C 5.21359642793567 1.49405044502149  4.89549984357999 1.53430042002221  4.89549984357999 1.53430042002221  L 0.883960997169693 1.84475510950028  Z " fill-rule="nonzero" fill="#ffffff" stroke="none" transform="matrix(1 0 0 1 214 304 )" />
  </g>
</svg>