<?xml version="1.0" encoding="utf-8"?>
<svg version="1.1" xmlns:xlink="http://www.w3.org/1999/xlink" width="19px" height="5px" xmlns="http://www.w3.org/2000/svg">
  <g transform="matrix(1 0 0 1 -116 -107 )">
    <path d="M 8.09278412919573 0  C 9.02403923818883 0.145196496747898  10.0391113345887 0.263168662187734  11.0215854257301 0.45373906247904  C 12.9492834391778 0.812192931573666  14.9281945510181 1.01637550428024  16.7348295157516 1.81495624991616  C 17.4037503240448 2.1226807057392  18.0195271629224 2.52985822601534  18.5600957817012 3.02190381775248  C 19.2678496556548 3.66621326700035  19.1002237293752 4.33321218996204  18.2108751158288 4.7188904038872  C 17.7112226897909 4.91876773067292  17.1740013729776 5.01397823772202  16.6341244840525 4.99834398327627  C 16.0942475951273 4.98270972883051  15.5637869357297 4.85657492080155  15.0771965585299 4.62813705258448  C 13.6011571752513 4.0337389067001  12.1111465363457 3.47110495303481  10.6211383397539 2.9220806701264  C 7.46418342257477 1.76504608244081  4.41432307383949 2.28230887762569  1.42499413844708 3.53916607203824  C 1.19945799814623 3.6660782585818  0.956415242096626 3.76081317501505  0.703277057400402 3.82048207525248  C 0.484432107342095 3.8431690287145  0.139866019606614 3.79326243624422  0.0467405073196259 3.64806593949632  C 0.00415048319774636 3.54039528555579  -0.00964991107553279 3.42394024070876  0.00664037866885185 3.30964483698815  C 0.0229306684132365 3.19534943326755  0.0687824094446165 3.08696556327935  0.139871695210653 2.99468058176512  C 0.452893303014521 2.68565158546184  0.822425082377255 2.43634796602461  1.22943852306068 2.2596185925632  C 2.97554185242274 1.54271085437395  4.73095150719503 0.848490642661708  6.50499246318346 0.204181193413839  C 7.0256333007115 0.0830477431092699  7.55771970843869 0.014625447174819  8.09278412919573 0  Z " fill-rule="nonzero" fill="#000000" stroke="none" transform="matrix(1 0 0 1 116 107 )" />
  </g>
</svg>