<?xml version="1.0" encoding="utf-8"?>
<svg version="1.1" xmlns:xlink="http://www.w3.org/1999/xlink" width="8px" height="2px" xmlns="http://www.w3.org/2000/svg">
  <g transform="matrix(1 0 0 1 -227 -317 )">
    <path d="M 0 1.59600056613256  C 0.224603491817773 1.41536626411247  0.470393631051259 1.25611693554288  0.733254766405074 1.1209239307482  C 1.73876827715158 0.719270944950224  2.77484427728595 0.379322687241228  3.83401490943436 0.103514715437196  C 5.30531809893628 -0.220208664654865  6.62326198094238 0.246452399658316  7.75908884301628 1.07047558543299  C 7.85244210916552 1.16710571468122  7.92125535777089 1.28008861007038  7.96092220845739 1.40187964430677  C 8.00058905914389 1.52367067854316  8.01018898961228 1.6514690779156  7.98912037719438 1.77677798000935  C 7.98912037719433 1.87767877404836  7.55781593537493 2.00802128832095  7.32298251760157 1.9996128888177  C 5.10883896224925 1.93654988862785  2.89468306654171 1.85246691788131  0.675746882860549 1.76417872388027  C 0.446112696694407 1.72269801157966  0.220256116074295 1.66648092530198  0 1.59600056613256  Z " fill-rule="nonzero" fill="#ffffff" stroke="none" transform="matrix(1 0 0 1 227 317 )" />
  </g>
</svg>