<?xml version="1.0" encoding="utf-8"?>
<svg version="1.1" xmlns:xlink="http://www.w3.org/1999/xlink" width="10px" height="6px" xmlns="http://www.w3.org/2000/svg">
  <g transform="matrix(1 0 0 1 -170 -82 )">
    <path d="M 9.37320310593211 2.6799160664648  C 9.55417796103348 2.53780066747228  9.73957277879289 2.46903907075897  10 2.35442987890452  C 9.96027381036973 2.56989515904439  9.97792396731289 2.69825269992471  9.92495571776123 2.75784947750303  C 8.6585479896213 4.2511978169761  6.99790815410312 5.32557537623192  5.14899534736563 5.84771602676709  C 3.75416470677577 6.21904980946852  2.50057670675522 5.93940591600701  1.54273413894356 4.69704225881678  C 1.1341060681169 4.24712844720774  0.76619665136275 3.75912571711627  0.443647246747227 3.23920948232971  C 0.177800113354449 2.73101614752156  0.0268511079313559 2.16663220078294  0.00224518215473608 1.58884131673958  C -0.0418950274493341 0.172271744766505  0.562816646737309 -0.24490937348893  1.99295942080793 0.131008772514675  C 1.93999117125627 0.396902089966012  1.89585742724002 0.671966115081367  1.83406113445207 0.942443795834889  C 1.7268377794723 1.38434489062583  1.71910074005158 1.84596252939073  1.81144412675526 2.29147316951181  C 1.90378751345895 2.7369838096329  2.09372177241434 3.15440234080915  2.36652395770357 3.51133636108471  C 2.6393261429928 3.86827038136027  2.98765234003607 4.15511947073956  3.3844644208555 4.34961915562811  C 3.78127650167493 4.54411884051666  4.21590107652208 4.64104240243677  4.65461369192763 4.63286139118589  C 5.4171890879168 4.57611439865303  6.16422523614879 4.38059172530239  6.86162413924412 4.0552265873179  C 7.74442831817072 3.67472407801211  8.53895316316078 3.1383528338826  9.37320310593211 2.6799160664648  Z " fill-rule="nonzero" fill="#000000" stroke="none" transform="matrix(1 0 0 1 170 82 )" />
  </g>
</svg>