<?xml version="1.0" encoding="utf-8"?>
<svg version="1.1" xmlns:xlink="http://www.w3.org/1999/xlink" width="36px" height="23px" xmlns="http://www.w3.org/2000/svg">
  <g transform="matrix(1 0 0 1 -191 -187 )">
    <path d="M 0 0.191520784502589  C 0 0.191520784502589  0.105576366734042 0  0.105576366734042 0  C 0.415134137325629 0.0208916209281001  0.722310029177917 0.0681833959580698  1.02370969612393 0.141354946521638  C 2.58453639986675 0.670300187221914  4.17750441594355 1.13541389992728  5.67865240074002 1.8011553601183  C 6.61396325436847 2.30197255110287  7.49934147570151 2.88977801614803  8.3228808724558 3.55669529252465  C 9.73680616469222 4.54162787716948  11.1231746776624 5.55392402173137  12.5416906321678 6.5251770007345  C 13.146129363213 7.01305314714778  13.9070441389562 7.26877207154631  14.6855381205184 7.24564471103291  C 15.0530314269199 7.26006114508628  15.4111381626299 7.36504253644382  15.7276144059189 7.55114840230443  C 16.5860690710874 7.96609684778701  17.4261604852051 8.40840227587823  18.2662525012978 8.85982969691763  C 18.5738271743049 9.02398512769177  18.9410933855922 9.11518037867751  18.9824093870565 9.59852687954754  C 18.9824093870565 9.7490026910905  19.3450714874034 9.91316033694991  19.5700141574819 9.99979792088421  C 21.925026199903 10.9117725000575  24.2846165367406 11.8237470792307  26.6442191319806 12.735721658404  C 27.7689324823732 13.1917089479906  28.8844677917286 13.62489352465  30.0045904798522 14.0717610771422  C 30.0743783243316 14.0927933661773  30.140828634046 14.1235002847575  30.2019857833664 14.1629641013106  C 32.2769670990316 15.5537253128067  34.3335908003219 16.9764028862373  35.8163761360426 19.0192259522827  C 35.8880465003769 19.1527376895333  35.9494282343017 19.291452417482  36 19.4341760556819  C 35.4681942188693 19.7300369779446  34.904593589449 19.9655928830952  34.3198143260642 20.1364003780211  C 33.2088729624784 20.3324749158048  32.5110995212997 21.0483716413612  31.8316808487951 21.8144302639492  C 31.8316808487951 21.8144302639492  30.7850094136748 23  30.7850094136748 23  C 30.4665739055436 22.6331815796472  30.1765274620077 22.2429599544157  29.917366692792 21.8326736519084  C 29.4174920252282 20.8948310079361  28.6700425573304 20.1098262038304  27.7551666247676 19.561851940141  C 26.2172933418195 18.572359486949  24.7574674466448 17.4643120822665  23.2425474750415 16.4429005492438  C 22.6553871811551 16.0759747448184  22.0416113781908 15.7528578641429  21.4062808162617 15.4762097218206  C 20.2494328299865 14.9290249525734  19.078801036302 14.4092039063171  17.9081810632199 13.8848185341641  C 16.3060383990565 13.1689184655956  14.6947144103553 12.4803671172318  13.087981083923 11.7507874430216  C 12.0963970487799 11.2948001534349  11.0635088738186 10.9072110007726  10.388680863583 9.92683828467502  C 10.2188261954569 9.68516503424001  9.83779750583344 9.58940935753835  9.55317617153358 9.42981380890092  C 9.15161553340006 9.17771669331371  8.73458126160657 8.95080493421879  8.30451428317922 8.75039720041771  C 6.2157608712572 7.92050030945255  4.55852927481626 6.38381759686336  2.59372385360588 5.3532863267462  C 1.21652385952104 5.27120861135913  0.991581189442519 4.20876823608982  0.757457194826098 3.16911722887819  C 0.642690528652362 2.68121080510301  0.518739172352555 2.19786207555823  0.38101916747157 1.62787796357494  C 0.38101916747157 1.62787796357494  1.29915249686146 1.72819572390911  1.29915249686146 1.72819572390911  C 1.29915249686146 1.58683966305009  1.29914969562496 1.44091872252302  1.2532430284714 1.39531999288488  C 1.00993770931709 1.18100596732274  0.720733538424838 1.01228732498924  0.486609543808417 0.793413430879867  C 0.309534197793118 0.605102386476271  0.146878632220588 0.403918054649695  0 0.191520784502589  Z M 3.21804779298166 4.59634575615706  C 3.21804779298166 4.59634575615706  2.55699067505271 4.07652748215472  2.55699067505271 4.07652748215472  C 2.6763480034954 4.32732049686316  2.69471179495579 4.42763992190865  2.75898112828671 4.4777985234914  C 2.82325046161763 4.52795712507413  2.91047311997454 4.52338779145394  3.21804779298166 4.59634575615706  Z " fill-rule="nonzero" fill="#ffffff" stroke="none" transform="matrix(1 0 0 1 191 187 )" />
  </g>
</svg>