<?xml version="1.0" encoding="utf-8"?>
<svg version="1.1" xmlns:xlink="http://www.w3.org/1999/xlink" width="277px" height="369px" xmlns="http://www.w3.org/2000/svg">
  <g>
    <path d="M 14.1499253544318 360.572248396721  C 14.4305318284113 363.372300807931  14.7157388975645 366.186154350278  15.0147457780877 369  C 15.0147457780877 369  0 369  0 369  L 0 0  L 277 0  L 277 369  C 277 369  240.801764582461 369  240.801764582461 369  C 241.23634008186 368.281183431528  241.626533396412 367.536496757841  241.970181404632 366.770084483833  C 243.962027277466 361.58837821693  245.457059541418 356.231956426267  247.660510308855 351.137608359724  C 247.797414276596 350.879775879958  247.848957489769 350.585173169279  247.807717070807 350.296205463732  C 247.531710698464 349.349061348404  247.775529794552 348.457083883985  248.051536166896 347.588102129546  C 248.488546233591 346.208766000948  249.012958313625 344.889221327247  249.431567973776 343.528276329492  C 250.434391117485 340.415574474725  251.395799746761 337.293669161913  252.407823093741 334.180967307147  C 253.033437519441 332.263690053318  253.820070253695 330.387801942325  254.349082435365 328.442937992233  C 254.951169089966 326.091823551376  255.836238932241 323.822341430944  256.984934201924 321.68418534957  C 258.824976611098 318.382974294052  259.542576289229 314.750702274855  260.388995812804 311.146037121963  C 260.77080460503 309.536811638599  261.171022824575 307.927599638468  261.548231515165 306.332167503236  C 261.851838524743 305.044787138468  262.183052889153 303.766591048284  262.417658291936 302.470015118095  C 262.707464969187 300.879180765573  262.822465371422 299.251572043992  263.162873221506 297.679128822312  C 263.770880520473 295.146883688542  264.065943086043 292.549676773018  264.041481118086 289.945647560453  C 263.903477931914 285.577749819893  264.069100845638 281.209866549145  264.14730264885 276.828175570073  C 264.234704662189 271.770609765214  264.547496136666 266.680859591001  263.728677277745 261.655478155497  C 263.701076642224 261.476164465356  263.7286784002 261.287654058787  263.70107776468 261.108340368646  C 263.461872260261 257.889889401918  263.199674068867 254.671430542565  263.277875872079 251.416197314152  C 263.274011347456 251.12231817628  263.240086386181 250.829592375588  263.176658939629 250.542606540974  C 262.859251625143 248.809240814805  262.578662013706 247.066689608236  262.187652990789 245.35171501291  C 261.796643967873 243.636740417584  261.355041668728 241.999925935941  260.844429893602 240.349320408182  C 260.159014091798 238.142382514729  259.376996045964 235.963037675488  258.659379532709 233.760697674366  C 257.962409900541 231.399467738839  257.038065633556 229.111321753536  255.899315918948 226.928378754418  C 255.677532204096 226.465324167181  255.392677150803 226.035181523228  255.052884056928 225.65019450317  C 253.845647084205 224.414698718091  252.572646633832 223.245165433797  251.239406271571 222.146682981545  C 249.813294153253 221.032864173044  248.725415850861 219.544360439438  248.097525996398 217.847749241148  C 247.711117102535 216.854627189095  247.306296533016 215.866106317965  246.878486669593 214.891375506373  C 246.315547052103 213.54492235403  245.459483799257 212.340784624352  244.37251826767 211.366508296396  C 243.285552736084 210.39223196844  241.995019518679 209.672306486206  240.594754196065 209.259086314599  C 239.071034332638 208.853371645352  237.573264469159 208.355906584945  236.109650823705 207.769407785739  C 235.677240858646 207.571702937352  235.221819143712 207.419969229262  234.775608846327 207.245253321832  C 233.920735951898 206.897963450198  232.99052439747 206.777597170003  232.07534885701 206.895831043894  C 231.528410778005 206.928048761642  230.980059755019 206.928048761642  230.433121676014 206.895831043894  C 229.885709032963 206.895831043894  229.338293099659 206.89582487093  228.790880456608 206.93260716687  C 228.399871433691 206.955596102689  228.013468160677 207.024557295558  227.617859036124 207.070535167197  C 227.35623183373 205.95151522868  226.751542699294 204.942072927984  225.88821467921 204.183125432585  C 224.747388376748 203.144025553426  223.551358551479 202.164698055322  222.378331537566 201.166978220558  C 220.629388425575 199.738027080334  218.523663742653 198.812874119261  216.287795655492 198.491076794891  C 214.95206248847 198.244462995923  213.661569083118 197.796423113076  212.460504075193 197.162309589302  C 211.411679915125 196.633564084301  210.381262303405 196.063442974507  209.31863783843 195.557686383059  C 205.992761175074 193.98984094409  202.662275965103 192.458771189618  199.635406237108 190.320800146443  C 197.8965661736 189.097788739623  196.001330331726 188.100076249385  194.15208771928 187.037987456673  C 193.291867890798 186.546024213357  192.381044641144 186.118429489509  191.332220481077 186.47705686979  C 191.259266952334 186.490863833898  191.184363866891 186.490863833898  191.111410338148 186.47705686979  C 190.283391275955 186.47705686979  190.154582672208 186.394290532672  189.984378747166 185.594275573701  C 189.832575242377 184.877020813139  189.763579270138 184.141383855747  189.616375880695 183.419531257664  C 189.119564410476 181.047073186633  188.811360671771 178.610239799706  188.038542884047 176.329737382885  C 187.1009837577 173.777531143688  186.007159805024 171.285412332813  184.763269641863 168.867523875891  C 183.682244770344 166.623803720754  182.187209709678 164.586988062763  181.326989881196 162.219127664822  C 181.216587339113 161.915673704472  180.991182146457 161.648999813411  180.866979278902 161.354741445887  C 180.574639217113 160.807626131093  180.321015128265 160.240708988423  180.1079645928 159.658156885205  C 179.804550419421 158.634603064946  179.295881593072 157.683486931459  178.612930135347 156.862708505033  C 178.047117085752 156.205224974518  178.051711593959 156.044297372709  178.635925050097 155.377618221963  C 178.776745322806 155.2123391257  178.930573196404 155.058588797206  179.095935652391 154.917839512431  C 179.373545419481 154.727726546796  179.570264760608 154.440993988698  179.647673222317 154.113661742062  C 179.725081684025 153.786329495426  179.677619877934 153.441910483788  179.514546985087 153.147688674463  C 179.318757976486 152.751973659177  179.241098773566 152.308292094617  179.290858968212 151.869644736543  C 179.340619162858 151.430997378469  179.515687441346 151.015948173316  179.795146714049 150.674091003497  C 180.185736860439 150.134434602655  180.437822701534 149.507182564994  180.529257261709 148.847421957461  C 180.620691821885 148.187661349928  180.548685968039 147.515561117064  180.3195655391 146.890107172764  C 179.983345275279 146.068115858209  179.424124108924 145.356309420282  178.704923832759 144.8348957799  C 178.392518935501 144.575960662105  178.141093502865 144.251347698706  177.968553101171 143.884188802266  C 177.796012699477 143.517029905827  177.706611319496 143.11636287149  177.706708687292 142.710720386872  C 177.706708687292 142.379679702855  177.683708156835 142.04863737454  177.706708687292 141.717596690522  C 177.763413761258 141.034102028937  177.611838240102 140.34945219404  177.271925106859 139.753673148128  C 176.932011973616 139.157894102217  176.41966840165 138.678874270017  175.802258055361 138.379598769289  C 175.144880083056 137.982857356536  174.544445354422 137.498729790377  174.017414672317 136.940489163438  C 173.713638543775 136.638008654199  173.510147356322 136.249584916806  173.434455679677 135.827734324587  C 173.358764003032 135.405883732368  173.414532270216 134.970974737877  173.594212779717 134.581836169855  C 173.787417226648 134.043895099434  174.008213893251 133.510546714403  174.261219729996 132.866856532019  C 174.261219729996 132.866856532019  175.415850834044 132.866856532019  175.415850834044 132.866856532019  C 176.138163798488 132.876478675988  176.850080991677 132.694260835692  177.478865301208 132.33882942029  C 178.107649610738 131.983398004888  178.630757955747 131.467498459013  178.99473275835 130.843833016342  C 179.105602413428 130.5962221432  179.298040080788 130.394076939818  179.539956506271 130.271088047335  C 179.781872931754 130.148099154852  180.05864406839 130.111697102547  180.324156099005 130.167957752076  C 180.72863365973 130.234087457292  181.143662510966 130.166066303765  181.505825179737 129.974283266978  C 181.867987848509 129.782500230191  182.157381311209 129.477499932024  182.329809624977 129.105870055562  C 182.502701631249 128.738574545463  182.720576622424 128.394163453855  182.97842625882 128.080558482024  C 183.271051119358 127.757911412473  183.434774406388 127.338992190374  183.438436861113 126.903526108127  C 183.507438454199 126.154086813782  183.654641843643 125.413839741453  183.783444812833 124.572444683277  C 185.057674172412 125.20693930024  184.110043364653 126.324204390402  184.579254170219 127.147208262926  C 184.80689812589 127.055568341106  185.021807105487 126.93503706943  185.218675645843 126.788581430744  C 185.88926825816 126.16114676652  186.430043310885 125.408183634513  186.810308399023 124.572444683277  C 187.564725780204 123.004599244308  187.624535052914 121.675843877656  185.927095904129 120.655135129339  C 186.198502147418 120.356278979105  186.350306790086 120.057418875707  186.589512294505 119.947071987885  C 188.006344914472 119.271197271718  187.969545223841 118.006798804837  187.94194458832 116.728614005491  C 187.94194458832 116.507920229848  187.905136439855 116.268838666766  187.891336122095 116.071133818379  C 187.840734956117 115.38606353679  187.794735578029 114.691794017518  187.734934201924 113.91936580962  C 187.734934201924 113.91936580962  189.114966008804 113.91936580962  189.114966008804 113.91936580962  C 189.771976405098 113.965360196164  190.431405027103 113.965360196164  191.088415423397 113.91936580962  C 191.727686589333 113.812630393627  192.31407248934 113.498670061853  192.757161159927 113.025892638022  C 193.200249830514 112.553115214191  193.475426929058 111.947783626023  193.540265756721 111.303230845539  C 193.547045256311 110.716989049923  193.52401783661 110.130778221897  193.471266974059 109.546872807604  C 193.443666338538 108.167536679006  193.406867736089 106.75601322132  193.416067947929 105.362883744591  C 193.401966745171 105.062947236549  193.495114571383 104.767789466081  193.678852935244 104.530229384531  C 193.862591299105 104.292669302981  194.12492295821 104.128217733338  194.41888769171 104.066311431855  C 195.039902015774 103.905388886259  195.6563229558 103.905385529153  195.978330371922 104.378957586818  C 195.9047286772 104.990463290228  195.697716042465 105.487026810105  195.826519011655 105.868643131343  C 196.189927397338 106.990503208912  197.022543243496 107.247980356139  197.97936526117 106.530725595577  C 198.443750034447 106.171724274799  198.804171241262 105.695648638233  199.023598312958 105.151389466979  C 199.571010956009 103.730673293986  199.184596934837 101.886962865541  197.76776431487 101.073154558438  C 196.985746269036 100.613375848905  197.013342437011 100.553599302299  197.418151764836 99.7673776914587  C 197.932941776425 98.8727786150327  198.271777379483 97.8880166063864  198.416380948713 96.8661751568144  C 198.660186554767 94.3787724083995  196.709735454852 91.1741133099356  194.083074898209 90.5212275621308  C 193.443660167602 90.3603050165349  193.107852422581 90.1028278007952  193.163053693622 89.3993663883646  C 193.259655917088 88.4292333594835  192.726053744453 87.7303733472164  192.109639522025 87.0682919791807  C 191.493225299597 86.406210611145  191.405819365375 86.1211447396883  192.206237817752 85.5923992346878  C 192.721693118341 85.2367833565899  193.160377292787 84.7812427946528  193.496227266139 84.2528419342614  C 193.832077239491 83.72444107387  194.058241136891 83.1339660361444  194.161282877499 82.5164855610742  C 194.432528995179 81.5232407348596  194.586909459785 80.5017523706203  194.621293479792 79.4727457333151  C 194.593692844272 78.0428339949013  194.372887772102 76.5899377277263  193.356264323486 75.4542843020264  C 192.161468233126 74.1401609844934  190.593297171812 73.2225099357325  188.861965792907 72.8243495222464  C 188.628152408672 72.8036428738104  188.406787309869 72.709889967229  188.22926871543 72.5563931618966  C 188.051750120991 72.4028963565641  187.927075722592 72.197445184847  187.872931767248 71.9691608418891  C 186.975911070841 68.6403630901078  184.790860819623 66.6587142474561  181.432783335141 65.8816882020372  C 179.868075483644 65.4587385892427  178.25079740787 65.2620980907477  176.630271524125 65.2977672765442  C 176.064418881829 65.343014511751  175.496063180152 65.2498659784478  174.974300740235 65.0263662240193  C 174.452538300318 64.8028664695908  173.993073496031 64.4557415483305  173.635612049314 64.0149877638413  C 172.450857589395 62.5857232206478  170.78951294622 61.6322022482817  168.95729804709 61.3298817839307  C 168.494108896635 61.2122504214946  168.067361181467 60.9815992229137  167.715277843944 60.6586017811199  C 167.612226349109 60.5941494915808  167.525111012704 60.5072063048823  167.460480711631 60.4042979074758  C 167.395850410557 60.3013895100693  167.355373592304 60.1851929884254  167.342094804369 60.0644169357653  C 167.328816016435 59.9436408831053  167.343087603705 59.8214282357365  167.383816957385 59.70694768853  C 167.424546311065 59.5924671413234  167.490677296179 59.4886892603231  167.57726624021 59.4034078684824  C 167.778733703195 59.1385394701169  168.034294174024 58.919557544467  168.326959422408 58.7610113640106  C 168.619624670793 58.6024651835541  168.94269423517 58.5079886784739  169.274706485745 58.4838539572503  C 170.306109418332 58.3682664420334  171.348381699144 58.5669987018712  172.264775400652 59.0539785748775  C 172.615395919455 59.2558285036618  172.981488465484 59.4295520916758  173.359602880256 59.5735237459962  C 173.598808384674 59.6424905551666  174.077225597008 59.5735257123011  174.127826762986 59.4677766071903  C 174.199728816229 59.1725322096859  174.17719853993 58.8621891116307  174.063418540228 58.5804070653122  C 174.017417479314 58.4332778815503  173.80580587054 58.3229300071508  173.654002365751 58.2309742638741  C 172.344899622838 57.317997868699  170.783507248833 56.8358323288662  169.187303348237 56.8516381352762  C 168.488087241525 56.8838226450805  167.807267593054 56.9665842154501  167.09885128307 56.9895731512692  C 166.482437060642 56.9895731512692  166.229431244461 56.6999104836801  166.293832729057 56.0930025629807  C 166.348456365474 55.6372052715034  166.540535457033 55.2088075279085  166.84454549509 54.86471022294  C 167.148555533146 54.5206129179715  167.550113214372 54.27710481884  167.995877572906 54.1665321553656  C 168.539060761234 54.0737707135083  169.08757010019 54.0154135084838  169.638118792312 53.9918140007299  C 170.098129394605 53.9550317047895  170.507534341097 53.9090542407997  170.668538049158 53.2055928283691  C 169.969321942446 53.1136370850923  169.329908308589 52.9803018215404  168.685893476346 52.9619106735701  C 167.356462787461 52.9159328019317  166.027036156554 52.9619106735701  164.909210362272 53.8814680926354  C 164.832361695851 53.9620382315839  164.737363244141 54.0230936779849  164.632134274093 54.0595537671162  C 164.526905304045 54.0960138562476  164.414492212212 54.1068246692246  164.304239143546 54.091082171667  C 164.19398607488 54.0753396741094  164.089091881141 54.0334991101397  163.998286047037 53.9690481634431  C 163.907480212934 53.9045972167464  163.833382474988 53.8194003623149  163.782178771289 53.7205462458656  C 163.611974846247 53.4814613256782  163.45557798484 53.2285806457239  163.27157374118 53.0032890736681  C 162.642272313675 52.1977985515446  161.758411968118 51.6292610091882  160.764229575128 51.3904435064703  C 159.770047182138 51.1516260037524  158.724241828486 51.256631482487  157.797450381571 51.6883251916113  C 157.702593170792 51.7317084314126  157.618411978501 51.7953659809242  157.550851680403 51.8748086187062  C 157.483291382304 51.9542512564881  157.433994919577 52.0475437788066  157.40643856194 52.148103901144  C 157.40643856194 52.2906353021953  157.622641858215 52.5251200588674  157.792845783257 52.5802935027781  C 158.15625416894 52.6998359628718  158.505866712119 52.7963901945365  158.602468935584 53.2239843976904  C 158.777272962262 54.0102060085304  158.979666960274 54.7964292636671  159.094669610847 55.5964442226387  C 159.166911574564 55.8580161073758  159.149037162821 56.1362694653578  159.043906722118 56.3864538548254  C 158.938776281414 56.6366382442929  158.752510277247 56.8442112028975  158.515065798076 56.9757803512366  C 157.751448213623 56.0056473223554  157.015426193933 55.1090759667284  156.339210595401 54.171127416821  C 156.291694812037 54.045056879194  156.270835205004 53.9105113070035  156.277961014779 53.7759805334842  C 156.285086824555 53.6414497599649  156.32004163392 53.5098563445456  156.380609864998 53.3895050137488  C 156.725617816718 52.6216745885609  156.75321338148 52.4285686464866  156.15979972207 51.9825832850856  C 154.517561902592 50.7549740955551  152.939729893019 49.4216158488725  150.87428239401 48.8790769957403  C 150.359070517248 48.7457411738126  149.866859751878 48.5112519261548  149.365448180024 48.3273404396013  C 149.391263252213 48.2219426453529  149.433149551114 48.1211432298726  149.489645988816 48.0284835768384  C 149.563453824694 47.9462758621536  149.652499490387 47.8791373226152  149.751855401341 47.8307785914261  C 151.237689655523 47.1135238308639  152.774121079397 46.7043220191797  154.448559720002 47.0813405577078  C 154.908570322296 47.1916874455292  155.437589248982 47.416977599379  155.89299974964 46.9434055417148  C 155.685994984092 46.0744237872753  154.972972951624 45.8169498190217  154.305957556364 45.5410825823402  C 153.638942161104 45.2652153456586  152.925926297859 45.053716299586  152.222110089511 44.8146313793986  C 150.572468105776 44.2700605590917  148.805415116513 44.1858064348251  147.111399036468 44.5709492245997  C 145.689243336776 44.8379922328873  144.33292042938 45.379937440065  143.11851037778 46.1663819079312  C 143.05397563797 46.1589451740021  142.990617780252 46.1435009407506  142.929904346231 46.1204047385446  C 142.842914210778 46.053328336297  142.75996367564 45.9811699059316  142.681494690238 45.9043081838109  C 140.950294592396 44.0842626941424  138.775353312114 42.7454133182981  136.370148665236 42.0191759835603  C 135.45319984334 41.7883318404525  134.558749601646 41.4759707791502  133.697488188984 41.0858257644624  C 132.98248314892 40.7012771687413  132.168122472089 40.541049537229  131.360640506234 40.6260470549297  C 130.671162065495 40.7048410176243  129.99240584387 40.8590234810196  129.336582625416 41.0858257644624  C 128.183091374414 41.4658626016005  127.057881267063 41.9267861801847  125.969315685819 42.4651618930603  C 124.763747090324 43.1241667269744  123.827702521914 44.1850267366878  123.324254722632 45.4629210435996  C 122.924045496444 46.3824784626648  122.836632213991 46.3319009824613  121.875210094681 46.2261518773505  C 121.181856394871 46.1488867064564  120.484351603179 46.1151029039135  119.786772067924 46.125  C 118.366212908286 46.1697186657238  116.9920508017 46.6410322406266  115.843333706677 47.4775327753299  C 114.694616611654 48.3140333100333  113.824588212264 49.4769404618946  113.346609597407 50.8147449419327  C 113.278655319023 50.9644593165276  113.19704225085 51.1075960928505  113.102804539728 51.2423392821114  C 112.964801353556 51.2423392821114  112.881999167665 51.2699260040667  112.822197791561 51.2423392821114  C 112.532391114309 51.086014519226  112.247184264506 50.9204943279443  111.966577790527 50.7503762032248  C 109.827528445992 49.4308113594837  107.578081707249 49.4583981653666  105.287228899054 50.2584131243382  C 104.7858173272 50.4377268144787  104.261404414321 50.6768113509969  104.215403353406 51.3894683288485  C 104.342975809393 51.4649868591699  104.475097820515 51.5325475616347  104.611012752147 51.5917685757163  C 105.609235794219 51.9366026078658  106.616653884835 52.2492526817355  107.610276825272 52.612477872132  C 108.360111488316 52.9383636308738  108.980007949186 53.5045623254627  109.37211827436 54.2217033554962  C 109.511579014849 54.5342833275124  109.610515171876 54.8633924012701  109.66652477906 55.201034251814  C 109.077711221285 55.0814917917203  108.700503353258 54.9941310289983  108.323294662668 54.9251642198279  C 107.646916416 54.7626753719107  106.959730787524 54.6489715219998  106.26704670888 54.584928956967  C 104.390203486619 54.5205599373584  102.513364651361 54.5435497141669  100.6365214291 54.5067674182264  C 99.3858420498225 54.4735019545574  98.1393537938295 54.6650509359716  96.9564366107529 55.072293266565  C 95.6893787945992 55.4799180879988  94.5422564848298 56.1931608465852  93.6164112047794 57.1490111846072  C 92.6905659247289 58.1048615226293  92.0144905183602 59.2738981196698  91.6479103295327 60.5528546423139  C 90.7404968230972 63.3501933060866  90.9379944322597 66.3885008156995  92.1999216484438 69.0449679686349  C 92.3906317277442 69.5385798387322  92.5549377111602 70.0419820164029  92.692136362116 70.5530415746486  C 92.4404481617119 70.5879050755671  92.1870887325277 70.6093913587665  91.9331216760138 70.6174103133565  C 90.2860614435242 70.5370939236603  88.6350948042428 70.6109785505083  87.0018074578924 70.8381021295456  C 84.370413325048 71.1309969913534  81.7693118863897 71.6509564704557  79.2276240676114 72.3921564127791  C 78.3504441953347 72.6627666955682  77.51918445405 73.0642345572564  76.7619669585507 73.5829815867087  C 75.9569484045373 74.1393138427824  75.1519298505239 74.819784916603  74.9219245493772 75.858884795762  C 74.6275177704899 77.2933943168863  74.6137174655821 78.7141105994988  75.4969378022439 79.9968931815556  C 75.7177428864094 80.3187382727475  75.8925474751721 80.677365954483  76.0581512985782 80.9670265392961  C 75.7361438824566 81.5831300254166  75.2255307089732 81.5463477157737  74.7701202083158 81.6566946035951  C 73.2704856492264 82.0199197939916  71.770851090137 82.3831455324871  70.2850168359554 82.792348577394  C 69.7910057542433 82.9271803394424  69.3240937382327 83.1465200503734  68.9049850290752 83.4406382415949  C 67.7733589298855 84.2590443314086  66.604934540135 85.100439334775  66.4853317879258 86.6590892083233  C 66.4163301948399 87.757960372339  66.1909278057529 88.957979905872  66.531335655837 89.9465041752151  C 67.0971487054318 91.5787185721319  66.4117278585743 92.3557499889204  65.2755016577486 93.321285235091  C 63.4814602649344 94.8431527373352  63.2468602362305 97.0776711883428  64.3968867419639 99.1052952272251  C 64.9304990252697 100.052439342554  64.9580934932811 100.084630343905  64.0886734615272 100.843265203671  C 61.5862157587292 103.027214073951  61.6874189543765 105.864048746846  62.055427441695 108.774447943109  C 62.0917825832639 108.956040176432  62.1620120093691 109.12916484304  62.2624378280908 109.284795575651  C 62.7224484303842 110.084810534622  63.1272577582089 110.912417835276  63.642469634971 111.675650477754  C 63.9897773084837 112.267058708723  64.4955809283583 112.749644637012  65.1027800865415 113.068933751044  C 65.7099792447247 113.388222865076  66.3943859261714 113.531496220802  67.0787423764341 113.482577438697  C 67.3731491553214 113.482577438697  67.6675621308503 113.482577438697  67.9619689097376 113.482577438697  C 68.9463916469025 113.482577438697  68.9739899946696 113.551547906428  69.1671944416007 114.484898673625  C 69.374199207149 115.487216291099  69.516800794993 116.567693419348  70.0136122652114 117.427479608367  C 70.6714274023624 118.567730816777  70.4736206191658 119.266594446497  69.6088006890477 120.186151865563  C 68.9674098877916 120.827036493937  68.4674134260005 121.59507525153  68.1409937268075 122.440804621259  C 67.8145740276145 123.286533990989  67.668968658839 124.191218416644  67.7135592537445 125.096599147184  C 67.7032993013591 125.754929654981  67.8930138051738 126.400890994914  68.2576599289059 126.949226158693  C 68.6223060526379 127.497561322473  69.1447420346042 127.922488476218  69.7560074509999 128.167917559342  C 70.9382346681848 128.664478585369  72.0560621075929 129.317362089394  73.3946929997497 129.372535533304  C 73.6564374996357 129.362424494507  73.9159798611263 129.423868615846  74.1453758898172 129.550256393135  C 74.3747719185081 129.676644170425  74.5653308655564 129.863185764519  74.6965238465445 130.089789197669  C 74.90312990207 130.522237310165  75.020214531713 130.99194266688  75.0407667049471 131.470724898193  C 75.0613188781812 131.949507129506  74.9849126444369 132.427501030123  74.816124076227 132.87604705493  C 74.6091193106788 133.49215054105  74.1353081018711 133.528938448154  73.6154961234731 133.082953086752  C 73.4406920967951 132.935823902991  73.2520902740267 132.80248806736  73.0358852914972 132.62317437722  C 72.6816771365053 133.979521592265  72.9254793426325 134.503674905164  74.0387050352785 134.784139924556  C 74.750385110957 134.963218315825  75.474710283987 135.087719344752  76.2053580605304 135.156559556771  C 76.9082039186595 135.241542056561  77.6161138039883 135.04481457134  78.1742028768097 134.609421769921  C 78.9240201563544 134.020905034873  78.9654211259153 134.016306101155  79.5542346836898 134.751952047369  C 80.1021358743588 135.451427136259  80.881886168684 135.932403119849  81.7530848011158 136.108290821691  C 82.2576194255446 136.215049422268  82.7462196326349 136.386598167418  83.206719988972 136.618652485565  C 83.3522814328802 136.695957982838  83.4804310607992 136.802284976059  83.5832441700056 136.931060107872  C 83.6860572792121 137.059835239684  83.7613461193092 137.20832105052  83.8044614268092 137.367336335151  C 83.8475767343092 137.526351619782  83.8575973465503 137.692515923228  83.8339069907225 137.855556556043  C 83.8102166348947 138.018597188859  83.7533210913118 138.175049453259  83.6667305912654 138.315237046247  C 83.5908247534744 138.473560821859  83.479910481205 138.612565870845  83.3423731399107 138.721766848227  C 83.2048357986165 138.830967825609  83.0442709827838 138.907509742279  82.8728023807521 138.945594667272  C 82.7013337787204 138.983679592265  82.523446840545 138.982311263279  82.3525810401397 138.941609768789  C 82.1817152397344 138.900908274299  82.0223351340529 138.821930571714  81.8864847873308 138.710640001405  C 81.65467319255 138.593934720629  81.4604918011864 138.414263820711  81.3262329220468 138.192238383901  C 81.1919740429072 137.97021294709  81.1230836971905 137.714843445798  81.1274701012286 137.455453104434  C 81.1274701012286 137.253150473336  80.9710650895918 137.037048876092  80.8744628661263 136.788768363079  C 80.6812584191952 136.8991152509  80.5386537227483 136.931300325932  80.5064529804506 137.004864917813  C 80.0142416118682 138.172702822486  79.6370351970357 139.340539082863  80.2212486531743 140.609528316788  C 80.856347779288 141.863237429416  81.8594649070329 142.893126067524  83.0963149175079 143.561313805774  C 83.3839765422398 143.726234938625  83.7126390418621 143.805967457368  84.0439356351595 143.791203160541  C 85.1178176981234 143.762830404767  86.1626407469729 143.436479012002  87.0616040631313 142.848648387199  C 87.0616040631313 142.848648387199  87.9540257546532 142.232546600185  87.9540257546532 142.232546600185  C 87.9540257546532 142.232546600185  88.6256443224516 143.308427096732  88.6256443224516 143.308427096732  C 89.3018599209839 144.393504802996  89.9596736871965 145.496981642347  90.6726900988162 146.563668217769  C 90.9946975149378 147.046435840854  91.4639069221459 147.432646628805  91.799714670594 147.91081646918  C 92.1984912387077 148.489555996218  92.7676407411526 148.929854557138  93.4281561334673 149.170605643273  C 93.6613837979682 149.276119004181  93.8886599582786 149.394314428932  94.1089698594841 149.524644229666  C 93.9295657311702 149.892467202773  93.7731621247454 150.177519344351  93.6489592571908 150.476375494585  C 92.9267425874616 152.145372262806  93.4005551946265 153.520120090805  94.9875917944736 154.379906279824  C 95.1807962414047 154.485655384935  95.3923955151601 154.554619946899  95.5855999620912 154.664966834721  C 96.2664156622594 155.055778748785  96.3400210173868 155.52014959561  95.7834081710639 156.067286286262  C 95.387799046511 156.448902607501  94.9139870151404 156.756956597767  94.5459785278219 157.161561859963  C 93.1199457045824 158.738602864353  91.7399107171252 160.380015019087  90.3092777922498 161.934067109925  C 88.2238801778988 164.212745453496  86.2805114555734 166.617320806573  84.4901464809204 169.134203384966  C 82.8203079419514 171.506661455998  80.9296672663346 173.731983245386  79.5910363741778 176.325135105763  C 78.4272095635366 178.578050826321  77.1805788396222 180.789591435374  76.1317546795543 183.097680548459  C 75.8272099480923 183.843740758072  75.353223259166 184.508772433045  74.7472586584551 185.040220339835  C 74.1412940577443 185.571668246625  73.4199632884268 185.95496668349  72.6402758927567 186.159808437706  C 71.1912424516625 186.573609265323  69.7468088928541 187.001200097669  68.3345763745225 187.506956689117  C 66.5681357011989 188.132255740658  64.8292919087384 188.840312688594  63.0766515403227 189.516187404761  C 61.0207552048227 190.303667724801  59.1391425426113 191.486117234503  57.5381269771605 192.996715603443  C 56.5721047562144 193.916273022508  55.576945926039 194.786784027781  54.5526556413627 195.608255306068  C 53.0668213871811 196.812875472426  51.5257860230434 197.948530103944  50.0353516672258 199.143954704881  C 49.6357332332429 199.463902003517  49.2935078752484 199.849495467639  49.0233297460214 200.284210955801  C 47.8963037484676 202.123325793932  46.8152787672731 204.013008458874  45.7204534811708 205.879709993267  C 45.3816573885579 206.572302165374  44.9926799592962 207.239222863321  44.5566272189049 207.875147908879  C 43.3042240764868 209.414817006753  42.2929434491086 211.135607150999  41.5573561265748 212.978694390958  C 40.080722075665 216.698304221233  37.9278727552482 220.119060696579  36.6628435989414 223.944419419577  C 36.064829837895 225.755947561445  35.1402110267803 227.47552092606  34.7032009600853 229.31923365652  C 34.3210703811914 230.850367977047  33.5959429075751 232.274735694752  32.5825518027446 233.484827642379  C 31.5937218823993 234.728564752637  30.8166338956621 236.126618130943  30.2824987912777 237.622836028173  C 29.9144903039593 238.661935907332  29.5740819054998 239.714829134623  29.1462720420767 240.726342317518  C 28.5896591957537 242.045907161259  27.9548423184433 243.333292130058  27.3614286590329 244.639063625667  C 26.381606023504 246.777034668842  25.52138712726 248.965577923619  24.408161434614 251.043777681937  C 22.8666615965371 253.889992519974  21.600491929134 256.876783772382  20.6268754770272 259.963495871936  C 20.0150613562355 262.00031547624  19.2468430395154 263.991149580052  18.9892371011343 266.133718296318  C 18.8222033889487 267.036876376064  18.5695934518026 267.922105975277  18.2348199941414 268.77744587613  C 17.5577704811826 270.878853239475  17.0516461165537 273.031486367591  16.7213846914439 275.214347809587  C 16.3763767397238 277.389101114446  15.9991687346027 279.55924885359  15.6403604779749 281.729404266118  C 15.4977571901672 282.598386020558  15.3137534400458 283.467368926005  15.240151745324 284.345546245866  C 15.0515474000288 286.580070835581  14.9733455214148 288.823798664103  14.7387401186322 291.049127688398  C 14.4121326008746 294.157231870073  13.9797218406713 297.251537989966  13.5933129468091 300.355044279312  C 13.5565120994482 300.644704864125  13.5243112157726 300.938950899422  13.5105108980122 301.233209266946  C 13.3909081458029 303.619460795729  13.2805063645911 306.005715613106  13.1609036123818 308.391967141889  C 12.9952997889757 311.734558351422  12.7882949548805 315.0725742503  12.6594919856899 318.415165459833  C 12.6042907146486 319.766914892167  12.7008923074825 321.127848599085  12.7468933683973 322.48419581413  C 12.8158949614831 324.461244352816  12.9170978520967 326.442878067938  12.9630989130115 328.419926606624  C 13.0505009263505 331.914244755224  13.0827006849998 335.403978604347  13.1885031254466 338.893699079856  C 13.3127059930012 342.898371657425  13.5059104399323 346.898444150267  13.64851372774 350.903116727835  C 13.7083151038446 352.774416154559  13.611712948926 354.650323339395  13.6899147521385 356.517024873788  C 13.7497161282431 357.896361002386  13.9981218496429 359.220498964386  14.1499253544318 360.572248396721  Z " fill-rule="nonzero" fill="#ffffff" stroke="none" />
  </g>
</svg>