<?xml version="1.0" encoding="utf-8"?>
<svg version="1.1" xmlns:xlink="http://www.w3.org/1999/xlink" width="13px" height="8px" xmlns="http://www.w3.org/2000/svg">
  <g transform="matrix(1 0 0 1 -154 -116 )">
    <path d="M 7.35915107920593 7.8806960472861  C 6.30430637376638 8.17492264894171  5.3647083124757 7.88069245214546  4.42066661698552 7.47858278270198  C 3.30820440132069 7.01762779292738  2.23562880078678 6.43407777686324  0.941449610763798 6.75772703868442  C 0.108210978057969 6.96368564522895  -0.246354934196537 6.22321538388152  0.1835607570874 5.28659408886393  C 1.05057246795533 3.51511782941894  2.38056025705703 2.07435551696836  3.99960976887471 1.15271385767125  C 5.11544433643346 0.386624171130097  6.40501377904088 -0.0130175165321848  7.71816527513928 0.000323419196112379  C 8.7113896913305 0.0275194030703575  9.6739388506331 0.386508074393573  10.4793676265923 1.03011944518621  C 11.2776637314146 1.74004029129642  12.0110078780388 2.53499749567765  12.6688361852524 3.40354547508001  C 13.1386409220769 3.98219107628807  13.1120433642306 4.2666133494645  12.5668925468261 4.8011250042674  C 11.8400248078985 5.54649902282324  11.0821381732918 6.27225555732747  10.3153813359885 6.9440729400838  C 9.90492561775974 7.31221537008553  9.43154469164068 7.58492182527453  8.92358083259624 7.74586015171844  C 8.41561697355181 7.90679847816236  7.88351270081686 7.95266006501417  7.35915107920593 7.8806960472861  Z M 4.54032899845793 2.49144274688854  C 4.54032899845793 2.49144274688854  4.54476544709848 2.48654166411402  4.54476544709848 2.48654166411402  C 3.52980989286949 2.66798139693018  2.99795727320328 3.43787006565487  2.51042401885907 4.25189694818742  C 2.02289076451486 5.06592383071997  2.12038659477726 5.46803832291308  2.88714343208047 5.97312728832163  C 4.15271363609702 6.7569646934976  5.57643070168902 7.17522436216798  7.02674204935783 7.18926176505388  C 8.97687506673466 7.29224106832615  10.3153818643385 6.24773699050135  11.520918625268 4.79131535614925  C 11.9331058254497 4.30093770620908  11.9641339144175 3.92334607747359  11.5519467142357 3.45748731587619  C 11.2021026124156 3.13493027531645  10.8268253567289 2.84772691241606  10.4306207945785 2.5993264284809  C 10.4306207945785 3.22700980637449  10.4572135163719 3.61441140474479  10.4306207945785 3.9969059576683  C 10.3508426242448 5.04141040816012  9.93422494577667 5.99274030036903  9.06109721469527 6.33110087765859  C 6.97800071218318 7.14512776019114  5.59517259436265 6.37033222139238  4.89932966863323 3.97238557865747  C 4.82398362107514 3.712485438219  4.82841195293999 3.42806167437449  4.77079438987972 3.16325773288444  C 4.71317682681944 2.89845379139439  4.6289714077383 2.74643911550421  4.54032899845793 2.49144274688854  Z M 6.4594311794474 1.83923957455983  C 6.4594311794474 1.83923957455983  6.4594311794474 1.83433849178531  6.4594311794474 1.83433849178531  C 5.86995914749618 1.83433849178531  5.71484144481944 2.18741158292347  5.74586628773735 2.66307791739524  C 5.74941701551885 3.11502456620975  5.83658060143096 3.561377585403  6.00199004218086 3.97463034939389  C 6.16739948293075 4.38788311338477  6.40755609320444 4.75927695350004  6.70764236543139 5.06592564290468  C 7.4743992027346 5.79168457416933  8.12148552197656 5.82110960186653  8.89267447545094 5.12967713181902  C 9.20419202096024 4.76799259740084  9.41239591008632 4.31269779119236  9.49122984645794 3.82075856415111  C 9.57006378282955 3.32881933710985  9.5160268934338 2.8220819558781  9.33588651524841 2.36394725162898  C 9.33588651524843 2.32471704051063  9.20735340272958 2.36394156663017  9.04336494589112 2.31980757638183  C 8.95462623823275 2.75256818724942  8.84515028478711 3.17980052406043  8.71539236468357 3.59969354202842  C 8.65271945048633 3.8486185657505  8.52108516827636 4.06955047998343  8.33902462117148 4.2314021913639  C 8.1569640740666 4.39325390274437  7.93363385023513 4.48788778761563  7.70043300633513 4.50199433850114  C 7.164146421273 4.50199433850112  6.89822246259705 4.05574654293615  6.73423400575859 3.5555613493504  C 6.66364374153502 3.29265619746126  6.61322224169598 3.02362860876125  6.58353000956037 2.75134230275129  C 6.5480730471691 2.46201950214726  6.50818450356095 2.17760015184939  6.4594311794474 1.83923957455983  Z " fill-rule="nonzero" fill="#000000" stroke="none" transform="matrix(1 0 0 1 154 116 )" />
  </g>
</svg>