<?xml version="1.0" encoding="utf-8"?>
<svg version="1.1" xmlns:xlink="http://www.w3.org/1999/xlink" width="56px" height="146px" xmlns="http://www.w3.org/2000/svg">
  <g transform="matrix(1 0 0 1 -72 -157 )">
    <path d="M 4.98628569773323 76.4128335091308  C 3.98276744356491 75.5559099767384  3.61160256550721 74.433202164306  3.2312737470373 73.3334072155251  C 2.23946697823504 70.4238282275199  1.53951661594972 67.4228123613511  1.14175735036784 64.3746668117491  C 0.853074026704683 62.0101078357524  0.683529002334453 59.6317963015769  0.303200183864544 57.2809846395283  C -0.194938126759158 53.9029979513257  -0.0785101821577478 50.4627851873756  0.646870809874248 47.1262100044789  C 1.05469327951743 45.1557440454753  1.3067211965941 43.1532008749197  1.60915135950013 41.168987601968  C 2.0673788608464 38.0208247386218  2.40188199582053 34.8039268351024  3.574944373047 31.8344805826489  C 4.61053852171958 29.2178851868345  5.21539857440677 26.4409059183563  6.66797978863443 23.9755322870287  C 7.81813081264358 22.0233962256289  8.75291380541048 19.938367860327  9.78850795408306 17.9174947921675  C 10.0194627575973 17.4184892451423  10.2875138185579 16.937514947704  10.590406081439 16.4786037300226  C 12.8540499643096 13.4220903546958  15.0398016919883 10.3014111937651  17.4409136941628 7.35945978771737  C 19.1455200122809 5.26984949428853  21.1388081791879 3.40936466898511  23.031287812188 1.47555872369887  C 23.5353380745939 0.962321099143596  24.1310307454954 0.559062423192374  24.7679669658118 0  C 25.5790296344547 1.0173103003086  26.3717634936486 1.86507112362266  26.8803960266979 2.92362369353999  C 27.2561425745244 3.71639252969145  27.4944189272978 4.60539059689308  28.0167982722776 5.28359746376548  C 28.9332532749701 6.46129447736283  28.9332549410319 7.72605981563631  28.6629007272551 9.03664869611661  C 28.4560571828127 9.85208987146031  28.2036383284471 10.6552853855609  27.9068281468324 11.4424500509768  C 27.4944234065458 12.6980492386454  27.049943563817 13.9399110545535  26.6833615572775 15.2046751910241  C 26.5365789238181 15.8059621938016  26.4460652789754 16.4196053144328  26.4130020175656 17.037666699489  C 26.1426478037888 20.2087420440948  25.886046820377 23.3843947281257  25.6248571478871 26.5554700727315  C 25.6248571478871 26.702109390131  25.5790296429898 26.8487487075306  25.5698650931677 27.0137179498477  C 25.4690550434178 29.5386638576427  25.3407535787045 32.0544439425974  25.285766279772 34.5885547991943  C 25.2353612548971 36.7148248878309  25.2216144293104 38.8411013132464  25.285766279772 40.967371401883  C 25.3270067565319 42.4979192721194  25.5057180019071 44.0284672516107  25.6248571478871 45.5498501730452  C 25.7043913434803 46.0559373981985  25.7366025542896 46.5683323404216  25.7210810076516 47.0803964044596  C 25.487384986335 49.1150170050768  25.8448046638991 51.0946455092766  26.1243234462753 53.092606314686  C 26.3580194675919 54.792705956268  26.408424499295 56.5203009905298  26.5825509476216 58.2341480553147  C 26.6552343178486 59.0675573309665  26.7714750421767 59.8965841777702  26.9308013315259 60.7178437179  C 27.2973833380654 62.5095929567562  27.6685504011221 64.3059302420085  28.1221956318249 66.079349474006  C 28.5346003721116 67.7107118903186  29.0386509076423 69.3145783676774  29.5472834406917 70.9184459375842  C 30.55080169486 74.0986862309919  31.5405742295974 77.278930894592  32.6128265434177 80.431676341594  C 33.06589113795 81.7105900682147  33.6094979393587 82.9555825806385  34.2395285795996 84.1572198354719  C 35.3667682503914 86.3751396306376  36.3702865045597 88.6618064840052  37.9053485903697 90.6689322382166  C 38.3775795317784 91.3674555282346  38.8090365893065 92.0926926566653  39.1975535003247 92.8410227006706  C 39.1975535003247 92.8410227006706  41.6444936714313 97.0019212562706  41.6444936714313 97.0019212562706  C 41.7690497303586 97.1824317764789  41.8764294302447 97.3742047466018  41.9652445319776 97.5747311026659  C 43.147471450491 100.837455935291  45.5027608554808 103.458624955867  46.89119017145 106.615952768015  C 47.3494176727963 107.642428017126  48.1375689882219 108.513094547901  48.7241001768351 109.475415046143  C 49.8605043889138 111.308406554608  51.0381574490299 113.141414888314  52.069169327059 115.020231140788  C 53.1368393702358 116.986114516136  54.0716178837548 119.020730637306  55.5287813686259 120.743742650893  C 55.7459958878943 121.010112318193  55.8943063545889 121.325838746241  55.9606350580966 121.663091266665  C 56.0269637616044 122.00034378709  56.0092653585062 122.348740543727  55.9091040417862 122.677535267093  C 55.4508765404399 125.152073847222  53.9891381046719 127.177542828124  53.0955944551967 129.450452316101  C 52.0233421413764 132.199939578799  50.4057912087377 134.656148261324  49.0494377872727 137.240666227077  C 48.2521219305602 138.757466674111  47.6151851639942 140.361339816013  46.8866034215586 141.914800167509  C 46.5658441760787 142.611336931985  46.1946849243934 143.28953931941  45.8464320277402 143.972328660684  C 45.5760778139634 144.49014875964  45.3240532290102 145.012544613827  45.0307876347036 145.512034815179  C 44.9116484887236 145.713663880018  44.7100300552855 145.970281574141  44.5313213363154 145.997776446153  C 44.3526126173454 146.025271318165  44.0730899156272 145.791576091874  43.9402039440605 145.608276938296  C 43.330761347605 144.788013255739  42.7579842360438 143.940253524973  42.1577062355002 143.115407368015  C 41.9556031146599 142.809512780116  41.7204963214293 142.526744430507  41.4566187178001 142.27221896766  C 40.2102399010283 141.190754025737  39.4724905583072 139.747286607461  38.6110228579612 138.390872873716  C 38.2398585807782 137.804315604118  37.8274529938045 137.245257660372  37.4287950654482 136.677030288378  C 37.2592508877651 136.438741401018  37.0622158584387 136.218768972921  36.9018362356987 135.975897611159  C 35.8066724594111 134.28954539278  34.748165318772 132.580280802397  33.6209256479802 130.935170962881  C 31.7880156425951 128.236091027849  30.2575322221802 125.353723042259  28.2688247964174 122.755457544049  C 27.6011850794659 121.794447010951  27.0171016359774 120.778000369898  26.5229791350076 119.71727188123  C 24.9741701280172 116.724913147516  23.4528548541376 113.718800544567  21.9407041215449 110.717276862052  C 21.891757388898 110.579630799524  21.8255530971846 110.448760583603  21.7436696521244 110.327777354195  C 20.5522781923241 109.095090538531  20.2361003161756 107.431632883623  19.5304299815823 105.956074706199  C 18.8247596469891 104.480516528774  17.9953636350243 102.954551132938  17.170554154451 101.488157904315  C 16.2540991517584 99.8293006415969  15.1955983476164 98.230011066644  14.2837256155673 96.5574062714678  C 13.8524322417765 95.664681358892  13.4759837083978 94.7464809565218  13.1564828857769 93.8079190087705  C 12.583698509094 92.3461082545485  12.1025602007802 90.8384693694179  11.4243834900477 89.4224834684605  C 10.4025361533055 87.2824658473662  9.93056293252835 84.9820776826946  9.33486720262819 82.7229157271751  C 9.24772857551519 82.2179928851353  9.24772857551519 81.7018653070332  9.33486720262819 81.1969424649934  C 9.46450558287533 80.4766896501466  9.55627295282918 79.750132395874  9.60979950823788 79.0202650486914  C 9.58230585877164 76.6098811101754  10.7416214496732 74.72191061587  12.2446076409789 73.03097592309  C 13.4818219164639 71.6333199197365  14.8702523249326 70.3731371651187  16.1899475812498 69.0488007521807  C 16.4241382044015 68.8176054517227  16.6444720965171 68.5727775821784  16.8497963019079 68.3156013518717  C 17.0098190187182 68.0891775229752  17.0976430646528 67.8196573430689  17.1017319300895 67.5424199361612  C 17.1058207955262 67.2651825292535  17.0259847610991 66.9931793016749  16.8727090753746 66.7621343358323  C 16.7857818400863 66.6617433091899  16.6739491259036 66.5860155823439  16.5484622164355 66.5425758742013  C 16.4229753069674 66.4991361660587  16.2882618432096 66.4895268711253  16.1578752919939 66.5146905511126  C 15.5523862327209 66.749331720893  14.9913935308672 67.08562110556  14.499086108563 67.5090806130702  C 13.2939477275823 68.6867776266676  12.2079552660786 69.9836191931998  11.0119815356348 71.17506363  C 9.2752993230124 72.8934931691859  7.5936030471122 74.6898231343661  5.60489562134941 76.1424689397861  C 5.40546584678013 76.2473565460653  5.19872363166623 76.3377116718921  4.98628569773323 76.4128335091308  Z " fill-rule="nonzero" fill="#ffffff" stroke="none" transform="matrix(1 0 0 1 72 157 )" />
  </g>
</svg>