<?xml version="1.0" encoding="utf-8"?>
<svg version="1.1" xmlns:xlink="http://www.w3.org/1999/xlink" width="55px" height="164px" xmlns="http://www.w3.org/2000/svg">
  <g transform="matrix(1 0 0 1 -14 -205 )">
    <path d="M 55 163.981639885375  C 55 163.981639885375  2.80905890508388 164  2.80905890508388 164  C 2.7080026961403 163.012601400877  2.61153903652612 162.029794363341  2.50129590136353 161.042395764218  C 2.12922531077818 157.579612010971  1.74337398520217 154.112229031491  1.37589685430393 150.644852621709  C 1.32695176607177 150.096694800141  1.30548901258086 149.546446336585  1.31158863771781 148.996142359085  C 1.31158863771781 146.644756084544  1.25646819097167 144.293376379701  1.28402897476231 141.94199010516  C 1.3345570792341 137.63876947707  0.792527953176434 133.367696568768  0.576635142538358 129.082846128839  C 0.539887430817493 128.315890061389  0.255092279961082 127.558119033273  0.255092279961082 126.786570418782  C 0.255092279961082 125.473100760807  0.392895810472216 124.155026073367  0.466391233913946 122.841556415392  C 0.547046566027454 122.298974131853  0.568610267408423 121.749243141471  0.53070120276755 121.202012194726  C -0.245594250971282 116.462499269321  0.0713547138520122 111.68625691709  0.0300135355992414 106.919188490454  C 0.0727039598130834 106.00301860642  0.17242095726484 105.090390555805  0.328587634954863 104.186614789344  C 0.631756275475181 101.596415849717  0.962485646738989 99.0153906166944  1.24728042113168 96.4251916770671  C 1.60097714558941 93.1782577442099  1.79849624753014 89.9175609520511  1.90414592300562 86.6522568310326  C 2.02223006499646 85.1532834424095  2.22002920802894 83.6616650491324  2.49670320829344 82.1837132690883  C 2.95604961507144 79.0561857782692  3.34649325040903 75.9286425201761  3.82880695562258 72.8103001234377  C 4.02632591382262 71.5473484829062  4.35705673618294 70.2981733885461  4.65563188963697 69.0489993891356  C 5.29412338848739 66.3715419462474  6.03366990528708 63.7124636701069  6.59407253469824 61.0212284766027  C 7.66200695533904 56.0692804405812  9.4249776155794 51.2931926952313  11.8306222728744 46.8348304124992  C 13.1581334366502 44.3502601642941  14.2330016892336 41.7187192132224  15.3675873271173 39.1331127111405  C 16.2862801406733 37.0159464451506  17.0901387619026 34.8436871338702  18.0363923335813 32.735705961961  C 18.4634730345309 31.7635246436724  19.0130100723202 30.8498612634782  19.6716644202598 30.0169093544972  C 20.9006249943848 28.545346605276  21.7660744212651 26.8053534616901  22.1980696575388 24.9375486050791  C 22.4710443747363 23.7193285019244  22.8443892470895 22.5257893288585  23.3142815661907 21.3691411971779  C 24.3937455783123 18.682498660209  25.5467043978441 16.0234103105324  26.690476955102 13.3597303992701  C 26.9088057734693 12.8533708546384  27.1748997058843 12.3689664452273  27.4851477808233 11.913079505005  C 29.0570852545353 9.47441895992907  30.4230105021833 6.90901471565238  31.5687388089844 4.24351302727217  C 32.1980433884606 2.86574760123786  32.9467778650433 1.57065207324271  33.6679517477785 0.243404664651874  C 33.7138863891408 0.160738735804967  33.8241277070103 0.114813785502859  33.9711185538938 0  C 34.0625840690149 0.243685929826273  34.0924127609292 0.506183832597228  34.0579539212274 0.764173198334702  C 34.0234950815256 1.02216256407218  33.9258161285855 1.26765113677239  33.7735994587979 1.47880211789101  C 32.997304005059 2.89330792024785  32.1612959299972 4.27566260847372  31.3895939907038 5.69476095787087  C 29.773821903181 8.55361760339657  28.8886737111473 11.7669567310963  28.8126586160489 15.0497859581871  C 28.789572141179 15.2680891363017  28.789572141179 15.4882142694636  28.8126586160489 15.7065174475783  C 29.4419631955251 18.6411577437142  29.1663576677369 21.6400921654851  29.4879001470057 24.5885102122369  C 29.845993228438 28.5395762209681  29.9748244033591 32.508069009299  29.8737494465224 36.4740355299496  C 29.8796293250821 37.3538380322374  29.7996317764704 38.2321250695533  29.6348908569932 39.0963924818903  C 29.0193666565784 42.0494029661874  29.2444419922324 45.0207816677366  29.3271243487379 47.992162340195  C 29.3684655269907 49.4204457836728  29.441963332421 50.8578987729472  29.3546875162284 52.2815896693846  C 29.1895481064846 54.5537425451559  29.285101196195 56.8373312933728  29.6394817977958 59.0877542376792  C 30.0345197141959 61.4621033569167  29.8691568219003 63.8456364752853  29.7956613984586 66.2337631261488  C 29.7405398308773 68.0983389764364  29.7956613984586 69.9721056145425  29.7956613984586 71.8366814648302  C 29.7956613984586 74.1329571748874  29.7635050450728 76.4568004306218  29.703790014382 78.7668538912949  C 29.6762292305913 79.8277332430625  29.4878972028883 80.8886093099814  29.474116810993 81.949488661749  C 29.4235887065212 85.7337509268081  29.4281837815799 89.5179956726738  29.391436069859 93.2976652811976  C 29.391436069859 95.7225325273735  29.258222528724 98.1474118179949  29.2949702404449 100.572279064171  C 29.368333525122 101.85122737065  29.5217511073215 103.124320215239  29.7543183994904 104.384091136724  C 29.9564308173775 105.798596939081  30.2779738579194 107.203908778265  30.4295581781796 108.623007127662  C 30.8337830139539 112.416454705792  32.0418640615897 115.971096188533  33.1856366188476 119.594619197686  C 33.7184784353777 121.234160024008  34.2099809217497 122.892078922129  34.6050188381498 124.568360234268  C 35.2205430385647 127.167744267976  36.3689086722012 129.546693927386  37.457559603697 131.953190766411  C 38.7162322823456 134.647615548053  40.1192719789778 137.272237731693  41.6605764220877 139.81563655519  C 42.9743070972854 142.056801700763  44.0629583573314 144.440322336707  45.1562028580311 146.805486361863  C 46.8206178908517 150.487553040426  48.7823975340881 154.027875429477  51.0220584351257 157.391311779085  C 52.3771303570242 159.398256697118  53.5806162474638 161.524613750926  54.8530057854775 163.568299045281  C 54.9142768844506 163.701399529039  54.9634746961982 163.839742645093  55 163.981639885375  Z " fill-rule="nonzero" fill="#ffffff" stroke="none" transform="matrix(1 0 0 1 14 205 )" />
  </g>
</svg>