<?xml version="1.0" encoding="utf-8"?>
<svg version="1.1" xmlns:xlink="http://www.w3.org/1999/xlink" width="7px" height="3px" xmlns="http://www.w3.org/2000/svg">
  <g transform="matrix(1 0 0 1 -186 -109 )">
    <path d="M 2.42412464886578 2.72934108769812  C 1.70986255760481 2.48985279130749  1.0494171885108 2.35772107047407  0.286233084138511 2.78714835715914  C 0.0721852654829979 2.48263872071095  -0.0257288832722702 2.12993448837613  0.00577627192145701 1.77686630257538  C 0.0372814271151842 1.42379811677462  0.196674237555689 1.0874506492095  0.462345332982482 0.813434913464329  C 0.706442010749209 0.612210584637049  1.03124446796559 0.495774463158793  1.3723034664794 0.487231799668671  C 1.91454408171628 0.452175039737576  2.45916075572122 0.452175039737576  3.0014013709581 0.487231799668671  C 4.16574644940035 0.536781102688432  5.33009584349595 0.623495406330369  6.32321364277001 0  C 7.54626513694584 1.30066927271918  7.05704150665424 2.54765880558683  5.29584740169675 2.86972927060063  C 4.34537729707731 3.08273914016806  3.33910031257994 3.03354677328721  2.42412464886578 2.72934108769812  Z " fill-rule="nonzero" fill="#ffffff" stroke="none" transform="matrix(1 0 0 1 186 109 )" />
  </g>
</svg>