<?xml version="1.0" encoding="utf-8"?>
<svg version="1.1" xmlns:xlink="http://www.w3.org/1999/xlink" width="10px" height="4px" xmlns="http://www.w3.org/2000/svg">
  <g transform="matrix(1 0 0 1 -156 -119 )">
    <path d="M 0.30648788595392 1.49930528325309  C 0.803691696019137 0.816289595950198  1.37455800066542 0.149930280088067  2.42421043370003 0  C 2.51168146978625 0.216565943578058  2.60375624714126 0.391486639226191  2.65439737365749 0.574734751059253  C 2.70503850017373 0.757982862892315  2.70964617228291 1.04118196276422  2.78790973269166 1.26191263220743  C 3.51069674830565 3.29846546687319  4.94705623108751 3.95649180603616  7.11081337887829 3.26514666700295  C 8.03156113870813 2.97778030924601  8.45049968019835 2.16982505529981  8.53336698187589 1.28273755236689  C 8.56559315360713 0.957888636999801  8.53336698187589 0.628872414100233  8.53336698187589 0.095787006885406  C 8.94491318355517 0.306751129553925  9.33472174183191 0.550670161118879  9.6981123360808 0.824614728352496  C 10.1170525788772 1.22026405789846  10.0940445537173 1.54094876869859  9.6658968421036 1.95742175239407  C 8.41367987556362 3.20684070348051  7.02334407153863 4.08144006718888  4.99769895600831 3.99398074334344  C 3.49122936074179 3.98205891317044  2.0123834890676 3.62682867688259  0.697808493780771 2.9611231682698  C -0.0986383272529749 2.54465018457432  -0.190715924111297 2.18232097055599  0.30648788595392 1.49930528325309  Z " fill-rule="nonzero" fill="#ffffff" stroke="none" transform="matrix(1 0 0 1 156 119 )" />
  </g>
</svg>