<?xml version="1.0" encoding="utf-8"?>
<svg version="1.1" xmlns:xlink="http://www.w3.org/1999/xlink" width="17px" height="37px" xmlns="http://www.w3.org/2000/svg">
  <g transform="matrix(1 0 0 1 -163 -138 )">
    <path d="M 3.38553200291604 34.8294630299415  C 2.96587616599321 36.2061217584301  1.63145851585042 36.3483815548753  0.711987824655572 37  C 0.452343593769343 36.5748850741498  0.235989697571835 36.1260989578918  0.066003069924147 35.6600460091352  C -0.0407215811309605 35.2854506435545  -0.0175261849194332 34.8870562181277  0.13200886603193 34.5265964291824  C 1.26199152294108 32.4138924401155  2.22816373528357 30.2219707766672  3.02244976018842 27.9691221020982  C 3.59001466220584 26.2994835557603  4.26726955829278 24.6670613342063  5.05000909940251 23.0819724126864  C 6.20524150052322 20.8242520629549  6.66733210015268 18.3921640786213  7.22844499675702 15.9784223363073  C 7.30848845343024 15.6581862519263  7.31812816850652 15.3251058123944  7.25673525076789 15.0009923984249  C 7.1890497601752 14.792572175107  7.18369793146312 14.5697111569586  7.24130943576298 14.3584424265088  C 7.29892094006284 14.1471736960589  7.41711825014125 13.9562173472573  7.58208756164581 13.8078853662488  C 7.73784771240624 13.6042367653864  7.82660422675967 13.3594717261426  7.83669984774372 13.1057899748835  C 8.30822326759544 9.47141089666339  8.71845038762397 5.82785913506157  9.20883472628257 2.19806902430051  C 9.3811424182469 1.44798733718582  9.61612332950576 0.712851139420151  9.91141440689354 0  C 10.3337866750228 0.359467713566734  10.7795069353847 0.692090230075009  11.2458193535827 0.995789308742644  C 11.7173427734344 1.24358788971722  12.2501717115447 1.32159407296948  12.712264671993 1.56480376854029  C 14.1504110800568 2.32655491632032  14.8624039636098 4.51544343463815  14.074959872693 5.89669102117874  C 13.6960311395309 6.38284925779706  13.2574033691067 6.8220578847512  12.7688451800148 7.20451961406223  C 13.0470439853611 7.28711914105376  13.2780847181156 7.34218604625441  13.4997007248838 7.42019670835598  C 14.0791314395466 7.57562190113526  14.6451247107501 7.77508002220619  15.1924671760216 8.01674322239565  C 17.1822959088663 9.04923726876208  17.5783756534905 11.1601139420151  16.135514015725 12.8350487721057  C 15.9935628703907 13.0021414835759  15.8356848403095 13.1557882654729  15.6639905958733 13.2939350149352  C 15.5409553989083 13.3631596722038  15.4340132714719 13.4564670133057  15.3499054614402 13.5679531763562  C 15.2657976514085 13.6794393394068  15.2063605455892 13.8066784428622  15.1753433701859 13.941652498558  C 15.1443261947826 14.0766265542537  15.1424060217421 14.2163934300123  15.1697025870871 14.3521265788673  C 15.1969991524322 14.4878597277223  15.2529191107258 14.616615615719  15.3339328358288 14.7302511956471  C 15.3889395208477 14.8273713640696  15.4316812497239 14.9305962793155  15.4612389788777 15.0376971360487  C 16.041212794289 16.6116769795879  15.5461158115873 17.5799302954363  13.8863533827029 18.0525831124219  C 13.3488166908171 18.208604436625  12.7829839552934 18.2774328900974  12.2313015743024 18.3921544508047  C 12.2313015743024 18.3921544508047  11.3165449886099 18.5940655179775  11.3165449886099 18.5940655179775  C 11.9012340337228 18.9932965514273  11.9012340337228 18.9932976728491  12.731115248165 18.9106981458576  C 12.731115248165 18.9106981458576  14.1739757617311 18.7638651912657  14.1739757617311 18.7638651912657  C 14.7115124536169 19.3099398464905  15.1594570830913 19.7871820685631  15.630980502943 20.2414794533406  C 15.8085316437674 20.3788120915955  15.9456528067424 20.5593556696301  16.02845425487 20.764840557681  C 16.1112557029976 20.9703254457318  16.1367979076929 21.1934511331035  16.1025039227947 21.4116337709172  C 15.9421859583589 22.2376289861289  15.81017090923 23.0727991822696  15.5838396727601 23.8896166813773  C 15.4602276350111 24.4325583028752  15.1381966167945 24.9133324292668  14.6776458893449 25.2425244617506  C 14.2170951618953 25.5717164942345  13.6493749517256 25.7269166197077  13.0800523638872 25.6792702275931  C 12.799921930962 25.6969810251744  12.5198816307267 25.6432254877329  12.2676500898831 25.5233066019097  C 12.0154185490394 25.4033877160865  11.799725330799 25.2214643652718  11.6418972994878 24.995534207088  C 11.5215153396683 24.7841647674892  11.4129067762741 24.5666379699729  11.3165449886099 24.3439095804675  C 11.1306930682921 24.5178745972876  11.0039767575569 24.7430112401328  10.953405186871 24.9890923225757  C 10.9028336161852 25.2351734050185  10.9308246645157 25.4904194576492  11.0336280587483 25.7205683089561  C 11.0738962361935 26.0651519652077  11.0738962361935 26.4130720428102  11.0336280587483 26.7576556990618  C 11.0199794783386 26.9928834424005  11.0374185746894 27.2288427356847  11.0855031176034 27.4597510904271  C 11.4014238167735 28.4876562787415  11.0855094131203 29.2402358919134  10.1047407358031 29.7174775669509  C 9.46818410776126 30.0249313573052  8.79861052917258 30.2727237567839  8.11961677760531 30.5572332295264  C 8.11961677760531 30.5572332295264  8.45440876632205 31.0620108974582  8.45440876632205 31.0620108974582  C 8.25475150827887 31.1444315918605  8.08917219913315 31.2895025671349  7.98406530620019 31.4741234570892  C 7.87895841326722 31.6587443470435  7.84036556700784 31.872294446058  7.87442977959343 32.0807389167036  C 7.85886982476029 32.5942087524469  7.671819839832 33.0887664384322  7.34160601280053 33.4895230431735  C 7.06433084971226 33.7695288859216  6.6962574987409 33.9478135648554  6.29954328405901 33.9942867070086  C 5.84894551580651 34.0378398958359  5.39460705823988 34.0285971680375  4.94627337144502 33.9667546527665  C 4.03151790995189 33.9116883048578  3.63543940194706 34.0264121049898  3.38553200291604 34.8294630299415  Z M 11.6843326805041 8.02133656613491  C 11.6843326805041 8.02133656613491  10.5526793508105 6.71350797325142  10.5526793508105 6.71350797325142  C 10.4065070895323 7.34218212811601  10.5149574569868 7.79647951289352  11.0242027706623 8.09016670173999  C 11.1609445584846 8.17276622873151  11.4249947939647 8.05345860326974  11.6843326805041 8.02133656613491  Z " fill-rule="nonzero" fill="#ffffff" stroke="none" transform="matrix(1 0 0 1 163 138 )" />
  </g>
</svg>