<?xml version="1.0" encoding="utf-8"?>
<svg version="1.1" xmlns:xlink="http://www.w3.org/1999/xlink" width="2px" height="3px" xmlns="http://www.w3.org/2000/svg">
  <g transform="matrix(1 0 0 1 -179 -117 )">
    <path d="M 1.99976297966435 0.285586257443819  C 1.94304784174343 1.11652934951296  1.88228508538431 1.94747145102072  1.81341670319201 2.88920697137482  C 1.5992227104502 2.95106512012488  1.38087765037318 2.98815461760989  1.16118619116047 3  C 0.715567242591955 2.95971185039986  0.192977741940874 2.97482299168585  0.0471388106843049 2.29496043998055  C -0.0221942132219099 1.9820878788427  -0.0149046154929395 1.65062419174194  0.0680815983071301 1.34293046555344  C 0.1510678121072 1.03523673936493  0.305978137723303 0.76529521310317  0.513010668233152 0.567609795823489  C 0.704496743723066 0.363842766972899  0.926690402183137 0.209473180140649  1.16663823839223 0.113502821819181  C 1.40658607460133 0.0175324634977134  1.6594963346843 -0.0181204676689373  1.9106386973656 0.00861137680196121  C 1.95520059101513 0.144583890144723  2.00381406083662 0.215081993767508  1.99976297966435 0.285586257443819  Z " fill-rule="nonzero" fill="#ffffff" stroke="none" transform="matrix(1 0 0 1 179 117 )" />
  </g>
</svg>