<?xml version="1.0" encoding="utf-8"?>
<svg version="1.1" xmlns:xlink="http://www.w3.org/1999/xlink" width="4px" height="4px" xmlns="http://www.w3.org/2000/svg">
  <g transform="matrix(1 0 0 1 -126 -117 )">
    <path d="M 0.00571124829748525 1.07666638024298  C -0.027764822166772 0.363945215866844  0.0642974425464871 0.192080883316174  0.871907638599566 0  C 0.808544085005818 0.305955507595992  0.774845854495672 0.619775454277802  0.771483511396523 0.93513371305963  C 0.789775390640589 1.45669026870117  0.884700343436085 1.97016090904851  1.05183845654093 2.45156175826862  C 1.50376543586772 3.46251378840794  2.15237347417166 3.55855082552086  2.81352589857661 2.7245154127074  C 3.01796215418947 2.40756952111366  3.19860147616459 2.06924748464369  3.35331855193363 1.71356338256808  C 3.47048480167624 1.49115393714258  3.59183555632974 1.27379707777946  3.77176944208996 0.945237680035663  C 4.29064854987445 1.91575160727674  3.80107122747074 2.5779295568873  3.52070912408235 3.24010310770499  C 3.40268247586051 3.50737641410646  3.21769030553281 3.72269946446806  2.99220524596026 3.85525729865188  C 2.7667201863877 3.98781513283571  2.51229978366639 4.03080890049943  2.26535625408045 3.97809377045363  C 1.66222765749933 3.9054159203281  1.10121694637193 3.57162819570796  0.685898249377856 3.03834771216372  C 0.27057955238378 2.50506722861949  0.0289830642556903 1.80830367964447  0.00571124829748525 1.07666638024298  Z " fill-rule="nonzero" fill="#ffffff" stroke="none" transform="matrix(1 0 0 1 126 117 )" />
  </g>
</svg>