<?xml version="1.0" encoding="utf-8"?>
<svg version="1.1" xmlns:xlink="http://www.w3.org/1999/xlink" width="14px" height="8px" xmlns="http://www.w3.org/2000/svg">
  <g transform="matrix(1 0 0 1 -193 -324 )">
    <path d="M 1.60685075176694 7.51735830923494  C 1.03429151891848 6.9006154589744  0.604881093952247 6.34978399838096  0 5.63417395137323  C 2.15171444934506 4.30182105410496  4.13258532615151 3.08245899830519  6.10422072497348 1.86780512340328  C 6.91226802318208 1.36405328298103  7.67414172949425 0.775558143087617  8.51451094385049 0.337717776517374  C 9.57651594233568 -0.213113627952799  9.65501255125684 -0.133077190482706  10.2321891928344 0.897966272385747  C 10.3430071055403 1.09099266738287  10.4492081737166 1.28872248683096  10.5646435020322 1.48174888182808  C 10.6603357765125 1.71020069006925  10.8406869982517 1.89085193267767  11.0664179900677 1.98432589389492  C 11.2921489818837 2.07779985511217  11.5449616599113 2.07652094615747  11.7697815658574 1.98079147501039  C 12.1160875508039 1.86309245264403  12.4901014008441 1.8207416035944  12.8410247945197 1.70775054464825  C 13.1919481881954 1.59475948570209  13.5013193618612 1.45352066026555  14 1.23695445518282  C 13.9856275663902 1.53106013147886  13.9231928864893 1.8206310197115  13.8152922017139 2.09377793886403  C 13.2935245199295 2.82821981149092  12.7209635807216 3.50617654797232  11.779011319281 3.72274275305504  C 11.4354462980838 3.84296055959836  11.1056937338895 4.00081576572173  10.7955141586632 4.19353906701354  C 10.1757858658203 4.58018123549985  9.51612089007988 4.89595422518967  8.8284916549743 5.13513124594439  C 6.82610435584977 5.62739184737704  4.92719377751564 6.48382072836552  3.22294534818414 7.66330349857857  C 2.55342042193662 8.13409958804399  2.1794099846154 8.13410115949548  1.60685075176694 7.51735830923494  Z " fill-rule="nonzero" fill="#ffffff" stroke="none" transform="matrix(1 0 0 1 193 324 )" />
  </g>
</svg>