<?xml version="1.0" encoding="utf-8"?>
<svg version="1.1" xmlns:xlink="http://www.w3.org/1999/xlink" width="9px" height="17px" xmlns="http://www.w3.org/2000/svg">
  <g transform="matrix(1 0 0 1 -174 -89 )">
    <path d="M 3.18319168891466 16.9038741466232  C 3.16055222577631 16.9404923478066  3.07000212056405 16.9359181462239  2.76663331147398 17  C 2.8254959125975 16.6155088909846  2.86171794912093 16.3500269068274  2.90699687539763 16.0845449499529  C 2.95227580167433 15.8190629930784  3.16055720006523 15.4482983765941  3.06094356428062 15.2423209957901  C 2.71682373402362 14.5145342157243  3.18319665476973 14.1346259705447  3.51373282030053 13.6173938694507  C 4.4510065500348 12.24421129438  5.28865896580095 10.7703286507085  5.5150535938109 9.04011861921515  C 5.57826875340773 8.75923899612861  5.66304509570354 8.48376671966484  5.76861447173953 8.2162076772992  C 6.26668266415678 8.8753353395245  5.94068433881943 9.40630094480008  5.86371016448639 9.89149209513366  C 5.77768020692214 10.4453424178731  5.94973129686256 10.7245542366905  6.5338294198557 10.9122225203132  C 6.76605385376262 10.7196242279513  6.98538908697933 10.5116642006756  7.19037936829718 10.2897128069065  C 8.45366137532019 8.7334391781741  8.1774626754818 5.87264105546944  6.5564771734756 4.71001315937054  C 5.49970726644216 4.0088766531639  4.40194843600035 3.37299831422527  3.26922275300096 2.8058649790243  C 3.04040613713475 2.69806209488741  2.78640165181612 2.65685349302611  2.53570636913374 2.68685833689057  C 1.58032108643121 2.78298111414442  0.973583360297686 2.16504923773843  0.384957349062475 1.59288983145899  C 0.185515452697424 1.38574282824192  0.0558209744115966 1.12025204541832  0.0143577477468692 0.834240821821794  C -0.0271054789178581 0.548229598225272  0.0217730209484236 0.256288264449322  0.154030406722242 0  C 0.303450867146248 0.0778136800724844  0.475518517808492 0.109848737772606  0.529853227316406 0.201394244141451  C 0.883028834057533 0.842212768261348  1.24072245130727 1.23128704122205  2.1327172986209 1.14431881255888  C 2.65795282049053 1.09396878507912  3.25564016780848 1.70732367706831  3.80804307310717 2.05977386260598  C 4.36044597840587 2.41222404814366  4.82681614634101 2.73262801736242  5.34752377996857 3.04846000853736  C 5.96784506287492 3.42837384666776  6.61986377651982 3.74878229024711  7.21754561821585 4.15615978097023  C 7.70488383929399 4.52363004033832  8.11224272732533 4.98852131677826  8.41428387188152 5.52191797312004  C 8.7163250164377 6.05531462946183  8.90659109217001 6.64581618589737  8.97326469993857 7.256716188573  C 9.03993830770712 7.86761619124863  8.981584855164 8.48584787027626  8.80183820121472 9.07298006949035  C 8.62209154726544 9.66011226870445  8.32479773316633 10.2035941338193  7.92842806649467 10.6696274908001  C 6.33913778218291 12.5005375908944  4.68192798675311 14.3314433257587  3.54089907021921 16.5010716896048  C 3.44411653857879 16.6541019562534  3.32329275072242 16.7901562328119  3.18319168891466 16.9038741466232  Z " fill-rule="nonzero" fill="#000000" stroke="none" transform="matrix(1 0 0 1 174 89 )" />
  </g>
</svg>