<?xml version="1.0" encoding="utf-8"?>
<svg version="1.1" xmlns:xlink="http://www.w3.org/1999/xlink" width="15px" height="10px" xmlns="http://www.w3.org/2000/svg">
  <g transform="matrix(1 0 0 1 -118 -114 )">
    <path d="M 12.1197587876011 2.52319565751799  C 12.1197587876011 2.52319565751799  13.263989106477 2.97152921843623  13.263989106477 2.97152921843623  C 13.3550180928392 2.74536819618275  13.361054406417 2.49213810984691  13.2809199534042 2.26160113676635  C 13.2007855003915 2.03106416368578  13.0402683121952 1.83988802659539  12.8309100063578 1.72563013489379  C 12.2688107466881 1.26481959163077  11.6107043921833 0.945986135893662  10.9088067416397 0.794433717299222  C 10.2069090910962 0.642881298704782  9.48054471687204 0.662779061362141  8.7873730128514 0.852553831181088  C 7.08698954435571 1.21594113889247  5.33646076695902 1.48494790270984  3.77283734051685 2.36274064853327  C 3.09815435045323 2.73556660697551  2.45082041251028 3.16029984206178  1.7898134157833 3.55200304570712  C 1.61183024597145 3.64805831051558  1.42925652562622 3.73469242102661  1.24278150779139 3.81156708004307  C 1.24278150779139 3.81156708004307  1.08778843826269 3.62751382679562  1.08778843826269 3.62751382679562  C 1.35325744143126 3.30870073668198  1.63798341356086 3.00763195551302  1.94025727664707 2.72612278045084  C 3.79345420289378 1.16776349988798  6.07517536886384 0.255951738130577  8.45914830327501 0.121065656902299  C 8.64040882491413 0.125996838197574  8.82176886320997 0.116524402402284  9.001631002602 0.0927437131657882  C 11.0530319594661 -0.327275386413514  12.5847446261023 0.744010683918592  14.0161666749365 2.00406803891513  C 14.6999669938913 2.59870182539896  14.663502677935 2.81107015883026  14.1210210654794 3.61807317888345  C 14.0559620953006 3.74190688688424  14.0159353878671 3.87816122014883  14.0033955019873 4.01852682145861  C 13.9908556161076 4.15889242276838  14.006063550347 4.30043454670893  14.0480806953565 4.4345202223665  C 14.230427449795 4.96308359438087  14.5312981619861 5.44917310842964  14.7455555947151 5.96829785784246  C 15.2470091728173 7.1622847421109  15.0236314087151 7.78994999463068  13.9295508549127 8.36098722461064  C 12.2552752314717 9.29738492117536  10.3848819356303 9.79482764795074  8.48194999441203 9.80981343108593  C 7.89798896993697 9.79141590320707  7.31360966302815 9.82775055944705  6.73597205598726 9.9183628793148  C 5.54099625785851 10.1281357912488  4.31253601891608 9.93107896083022  3.23491754443362 9.35676314676382  C 2.32318378582734 8.88483156661737  1.41145002722105 8.4364965429748  0.499716268614773 7.94096840632448  C 0.384079149818229 7.90431236212135  0.279470677501102 7.83754724852776  0.195893151954119 7.74705706614223  C 0.112315626407136 7.65656688375671  0.052561111405935 7.54537940515187  0.0223693574947778 7.4241451411403  C -0.00782239641637942 7.30291087712872  -0.00744344853558434 7.17568550519843  0.023454489836869 7.05464207045435  C 0.0543524282093224 6.93359863571026  0.114738969081959 6.82279109271989  0.198842486012111 6.73282471332628  C 0.37453652817327 6.44651785869399  0.60209609767107 6.19811764592836  0.868967327894069 6.0013293238784  C 2.51920537880162 4.83093899611383  4.15576884930526 3.64167491118113  5.85615231780095 2.5467936767462  C 7.12584693362004 1.76688233674399  8.62406287779648 1.48548615713692  10.077484071973 1.75394487752587  C 10.7819455976552 1.93711180421241  11.4663070139372 2.19488968335574  12.1197587876011 2.52319565751799  Z M 6.49436316643472 4.5053070789467  C 6.49436316643472 4.5053070789467  6.51716485757174 4.50059035554283  6.51716485757174 4.50059035554283  C 5.79233650426355 4.56194145871152  3.92327707126954 5.44444834004191  2.30950833592637 6.51573301797297  C 1.9998445629073 6.75278398072912  1.70870634878356 7.01473211508949  1.438800927023 7.29914116928113  C 3.37623516406134 8.74325177752512  7.1736087336807 9.73903062512698  8.90590285329521 8.57807891996395  C 8.31979411671619 8.04439393119723  7.78819279280256 7.44978028530236  7.31948110501716 6.80361156990648  C 6.9699523858333 6.06842066367719  6.69349376845218 5.29836527278189  6.49436316643472 4.5053070789467  Z M 9.12927317232876 3.57560106493533  C 9.12927317232876 3.57560106493533  9.15207486346577 3.55672697021542  9.15207486346577 3.55672697021542  C 8.29048646810407 3.73606096842073  8.17195383915598 3.87763833839196  8.19018851392053 4.55721984080698  C 8.2155411905814 5.2403041742012  8.47874016446653 5.89083625255606  8.93119478403779 6.38872713908132  C 9.38364940360906 6.88661802560659  9.99480924741435 7.19825490572989  10.6518668797669 7.26610970324519  C 10.9208909847327 7.31532654811706  11.1980605110689 7.27517873478755  11.4437074265252 7.15141771293463  C 11.6893543419814 7.02765669108171  11.8908874595017 6.82662292415788  12.0194675176763 6.57708642774542  C 12.3248983344175 5.95885608475772  12.8582653623322 5.34062883599458  12.2929904276488 4.4345202223665  C 12.1015263443193 4.74127573820997  11.9693249395395 4.94420114525465  11.8371235483457 5.15185103939391  C 11.6685723702626 5.48393120802938  11.4717674011869 5.79980149368009  11.2490513786977 6.09571419968681  C 10.5287816898351 6.87440129567672  9.82219196138946 6.79889540908889  9.32985571217838 5.84087431489368  C 9.14777286368628 5.39142022274456  9.04436015023091 4.91202455720634  9.02443269373902 4.42507957445433  C 9.02834372424636 4.13873460460131  9.06350802787805 3.85376392052249  9.12927317232876 3.57560106493533  Z " fill-rule="nonzero" fill="#000000" stroke="none" transform="matrix(1 0 0 1 118 114 )" />
  </g>
</svg>