<?xml version="1.0" encoding="utf-8"?>
<svg version="1.1" xmlns:xlink="http://www.w3.org/1999/xlink" width="8px" height="3px" xmlns="http://www.w3.org/2000/svg">
  <g transform="matrix(1 0 0 1 -155 -114 )">
    <path d="M 8 0.763989119340759  C 7.41692006987641 0.763989119340759  7.07604406114699 0.78544950289863  6.7396517814292 0.763989119340759  C 4.6540196044044 0.605182281332293  2.89132285244255 1.35199968236432  1.27215472645286 2.52373661535036  C 1.09029664162505 2.69283156447237  0.885044827131175 2.83724771039322  0.662156274889407 2.9529442801121  C 0.57073076099668 2.98904520828571  0.471913594620595 3.00471899023181  0.373206037875956 2.99876895708869  C 0.274498481131317 2.99281892394557  0.178505727718126 2.96540758226754  0.0925369421885654 2.91861343021767  C 0.0428106381066385 2.83455143349472  0.0122968372114112 2.74134541273297  0.00301848633937837 2.64515858350042  C -0.00625986453265447 2.54897175426787  0.00591082636251723 2.4519943982431  0.0387163641458661 2.36064215618957  C 0.105428655598839 2.16469979079434  0.226318585152461 1.98968666427485  0.38856379088065 1.85417370619232  C 1.59060556701437 0.832659414940461  2.9002956572771 0.0214603835578716  4.58225705586605 0  C 5.1877631700517 0  5.8022293101929 0  6.40773542437855 0.0343373990836456  C 6.71345441116209 0.0332013817740362  7.01549423036287 0.0982416885160581  7.29123011734754 0.224597895131517  C 7.5669660043322 0.350954101746976  7.80926468458946 0.535352497830069  8 0.763989119340759  Z " fill-rule="nonzero" fill="#000000" stroke="none" transform="matrix(1 0 0 1 155 114 )" />
  </g>
</svg>