<?xml version="1.0" encoding="utf-8"?>
<svg version="1.1" xmlns:xlink="http://www.w3.org/1999/xlink" width="12px" height="12px" xmlns="http://www.w3.org/2000/svg">
  <g transform="matrix(1 0 0 1 -76 -88 )">
    <path d="M 9.60937171610718 0.0565291791308059  C 10.5579566533763 0.123709064191877  11.4634267050352 0.392424233148443  12 1.28367734381462  C 10.0261768710384 0.710409026886663  8.16733465171318 1.17618952771691  6.35639980262376 1.73154322642518  C 5.52157839308939 1.98496963972723  4.74139159384357 2.37466731052361  4.05201031351753 2.88256171822244  C 3.53697273055402 3.25440806437582  3.17214236122745 3.77862038902779  3.01718863746432 4.36947289486614  C 2.67224864989172 6.16093642530835  2.49019819863725 7.99270923487898  3.22798645779712 9.7662581471015  C 3.41681260794013 10.189204085898  3.76467585978977 10.5329280361376  4.20595646757456 10.7325908405643  C 4.64723707535934 10.932253644991  5.15142533322469 10.9740499627909  5.62340294297715 10.8500927629521  C 5.76912588674625 10.8253094035266  5.91843575525347 10.8253094035266  6.06415869902256 10.8500927629521  C 7.46787279132032 10.9934098421841  7.46787347665447 10.9978901251271  8.55060172338695 10.2499541203878  C 8.55275317469149 10.6543117154106  8.40202581920276 11.0463828552908  8.12502931707213 11.3569556268337  C 7.8480328149415 11.6675283983766  7.46257601497988 11.8766307483702  7.03669720718717 11.9473628085698  C 5.05329242142263 12.0638079337773  3.07467686494653 12.1265113399167  1.50328366437511 10.55002344167  C -0.0681095361963041 8.97353554342318  -0.31722938629088 7.05666947188402  0.339114732932895 5.0636663796907  C 0.894050128766673 3.48528410549421  1.93989783190733 2.09747694878725  3.34296177053794 1.07766286479275  C 4.09100639797507 0.447193491800826  5.04867532522913 0.0770610808464258  6.05457498621717 0.0296514890425676  C 7.23923458074302 -0.0174166618111634  8.42568118407466 -0.00844215118360857  9.60937171610718 0.0565291791308059  Z " fill-rule="nonzero" fill="#000000" stroke="none" transform="matrix(1 0 0 1 76 88 )" />
  </g>
</svg>