<?xml version="1.0" encoding="utf-8"?>
<svg version="1.1" xmlns:xlink="http://www.w3.org/1999/xlink" width="10px" height="5px" xmlns="http://www.w3.org/2000/svg">
  <g transform="matrix(1 0 0 1 -98 -57 )">
    <path d="M 1.89848049208017 3.91539993246889  C 1.42610991162203 4.23710325365119  0.953739813829303 4.5404238190559  0.310416065301326 5  C 0.490366773472297 4.25548658467913  0.859264603696093 3.62127164891784  0 3.29497257030896  C 0.824590886367607 2.17323105140604  1.91642684989132 1.28567724741665  3.17163255716732 0.716749914709544  C 4.88566300121263 -0.138061788420764  6.71665614384579 -0.142657545847345  8.52965959604038 0.257173733765448  C 9.02902281020927 0.367472014726673  9.47889957393301 0.863815412432386  9.87928988721161 1.26364669204518  C 10.1492159561718 1.53479662674933  9.92428360762744 1.83351975691387  9.61836740507752 1.93003075189892  C 9.34496920208587 2.01696662905734  9.05603027247385 2.04051783140295  8.772596892613 1.99896788029813  C 6.19030437180733 1.53939169935404  3.97691108899955 2.45854340381323  1.89848049208017 3.91539993246889  Z " fill-rule="nonzero" fill="#000000" stroke="none" transform="matrix(1 0 0 1 98 57 )" />
  </g>
</svg>