<?xml version="1.0" encoding="utf-8"?>
<svg version="1.1" xmlns:xlink="http://www.w3.org/1999/xlink" width="48px" height="103px" xmlns="http://www.w3.org/2000/svg">
  <g transform="matrix(1 0 0 1 -100 -169 )">
    <path d="M 42.2943150091605 47.5888737442234  C 42.2943150091605 47.5888737442234  45.1756186781663 47.8683972317078  45.1756186781663 47.8683972317078  C 45.2725857772919 48.2808188274514  45.3741630390093 48.7024053663609  45.471130138135 49.1285743631965  C 45.7112391441832 50.2008705012044  46.1314384366905 51.108203124947  47.2257813938615 51.6397687360248  C 48.061545438379 52.0476078738422  48.1492719627657 52.5562611952893  47.8260482944264 53.4727536545538  C 47.3135078907259 54.8016677641891  46.8332921354607 56.1443303401471  46.2699594335508 57.4549145088234  C 45.4018729974293 59.4620330470548  45.1940869334317 61.6341122043096  44.6399891848245 63.7191326365399  C 44.1782410793334 65.4925454927747  43.8365446695885 67.2934492726618  43.4394412922608 69.0851920698555  C 43.3840315208404 69.3326450436898  43.3193896033951 69.5846826878522  43.2547448683511 69.8321356616865  C 42.7160387636264 71.8087044804103  42.177332603857 73.7822102423566  41.6386264991322 75.7526691171789  C 41.1307035720831 77.5856540357079  40.6320218183836 79.4186389542369  40.1010115080777 81.251623872766  C 39.9163122631291 81.8794212095473  39.6069410385049 82.4751412862183  39.4083893498411 83.084608791295  C 39.2098376611772 83.6940762963717  39.0205209395772 84.4868545734976  38.8312042179772 85.1879712917244  C 38.6972972712379 85.6828772393931  38.5772309198499 86.1777741735724  38.4294715293954 86.6680976633149  C 38.0739254969744 87.8595378166571  37.7183862075247 89.0509959969776  37.3397527643247 90.2378536923936  C 36.9611193211246 91.4247113878096  36.564021007906 92.6069867345538  36.1761526114032 93.7892619720436  C 36.1761526114032 93.7892619720436  35.1372193740482 96.9145046144313  35.1372193740482 96.9145046144313  C 35.0476998729533 97.232970581698  34.9413495439623 97.5465337297803  34.8186120539446 97.8539037913514  C 34.2183395388241 99.204202704642  33.6103655596842 100.5407541349  32.9947014006812 101.863558300634  C 32.8515594868781 102.179748197987  32.6576275316967 102.473016846848  32.3621087507878 103  C 31.9696228501114 102.211816471922  31.6463957965253 101.652765017522  31.406286790477 101.061627398777  C 30.5478641606324 98.8768395494669  29.4136873620168 96.8089266105467  28.0309075052225 94.9073838911116  C 27.62918106421 94.2964213486207  27.3181598895555 93.6312550141412  27.1074112942402 92.9323437601617  C 26.1826663400194 90.5393145923642  25.0129364133587 88.2467450776198  23.6165967440421 86.0907029389175  C 22.2729097174308 83.9094507809836  21.2801569712342 81.5082406425948  20.1304041841577 79.2170094944335  C 18.9806513970813 76.9257783462722  17.8216540789307 74.6345471981109  16.6719012918542 72.3433160499496  C 16.5582428067267 72.1444925985989  16.431765245115 71.9531727404668  16.2932644634074 71.7705222474744  C 16.2932644634074 71.7705222474744  15.8315163579163 71.9767246600698  15.8315163579163 71.9767246600698  C 15.7651584471651 71.882986843926  15.7108782713686 71.7813974114531  15.6699157941415 71.6742944549299  C 14.9034139544387 68.1687107545413  13.2318782141955 65.0159711795085  11.8743387576302 61.7303456780837  C 10.950842546648 59.5399286042976  10.4336860974574 57.198292057765  9.70412407096534 54.9299733084888  C 8.86836002644786 52.3133873198079  7.99103704072843 49.7059590361878  7.15527299621095 47.0893730475069  C 6.69352489071983 45.5909078853498  6.26871665348408 44.0695370980812  5.7700286797376 42.5710719359241  C 5.15590367961833 40.6968447868053  4.44019694540281 38.8546945154063  3.85377686023624 36.9713024504352  C 3.44282105295451 35.6423883407999  3.15653807854051 34.2768163158261  2.85178431680655 32.9204074586339  C 2.63014523112484 31.9214306474443  2.47315030939871 30.9041212731898  2.28845106445004 29.8959795461479  C 2.23016131838648 29.6839168496459  2.20065557774757 29.4650748893828  2.20071779709201 29.2452637468614  C 2.46853169057061 26.6974147363271  1.48962881475115 24.3420291771998  1.02788070926003 21.9133240727453  C 0.210586571347902 17.6149743863525  -0.4820350914868 13.3303824529077  0.436843642844095 8.94954830533546  C 0.605925409416703 7.97416640536122  0.703145266757082 6.98785076055668  0.727740158215977 5.99844146773849  C 0.824707257341655 4.35333754269026  0.870884659118306 2.70365159673355  0.953999321409387 1.05854767168532  C 0.971097699053247 0.691482718543961  1.06216365417008 0.331544103126392  1.22181406808027 0  C 1.80908910696198 0.868071230323004  2.17367583318722 1.8654351185847  2.28383611985322 2.90527941772073  C 2.36233329861238 3.84468416661598  2.53779785860112 4.78408170471984  2.68093977240426 5.71890399568895  C 2.77571714664757 6.14873063914181  2.84815395266739 6.58310928585264  2.89796194564244 7.02032160969676  C 3.06397545385977 9.28221510682986  3.42076983044556 11.5263219852095  3.96459894201221 13.7290531241043  C 4.31091002113055 15.3374973857434  4.49560925231806 16.9780166677772  4.77265812662166 18.5956258452685  C 5.04970700092526 20.2132350227599  5.35907482654142 21.9133358722221  5.66382858827538 23.5721871710487  C 5.6771600032869 23.7923571460392  5.74367598511049 24.0061047504717  5.85776194709562 24.1953953307574  C 6.49035685382024 24.9377542249467  6.50882678794792 25.8863317560121  6.78125815807785 26.7524171234619  C 7.05368952820779 27.6185024909116  7.28918091999302 28.5853891499699  7.6401094757627 29.4743868616776  C 8.43417250880146 31.4865833266069  9.06567934766056 33.5582900158318  9.5286575362493 35.6698848364274  C 9.92114343692568 37.4432976926622  10.650706564311 39.1479714949164  11.2325091728262 40.8801422298158  C 11.4264433710776 41.4666973906346  11.6388500355111 42.0532458869341  11.8050793600933 42.6489659636051  C 12.3868819686085 44.7294038286549  12.9548346792243 46.8144264459735  13.5320198110882 48.8948643110232  C 13.5941162465499 49.1182686946842  13.7134222522383 49.321922679767  13.8783308902065 49.4860058629271  C 14.0861066195685 48.8114711808747  14.1178743673809 48.0956179540237  13.9706720564444 47.4055640647184  C 13.7213280695712 46.1820465966388  13.4304343889995 44.9722766115922  13.1487680380445 43.7395942276603  C 12.7516646607168 41.9890936610563  12.3453235228086 40.2385969183568  11.9482201454808 38.4880963517528  C 11.9250810013188 38.3148836238572  11.9127433853484 38.1404251771224  11.9112794515555 37.9657029219459  C 12.0727814165766 38.014305014743  12.227809840173 38.0819873327085  12.3730275570466 38.1673183971842  C 15.0657935653375 40.5294556606465  18.2770455165791 42.2351096388844  21.7511304522565 43.1484666603216  C 23.0070853124031 43.4600740997491  24.2261031115721 43.9091520539559  25.4912929250213 44.1474400846243  C 26.7564827384705 44.3857281152927  28.1879012710106 44.5048721442837  29.545440727576 44.6056863142565  C 30.5261414446758 44.6751454709143  31.4693947266772 45.0077712951747  32.2743754834298 45.5680061933973  C 33.9039520527219 46.5670945533445  35.588917755126 47.4743271546702  37.3212788945035 48.285402978821  C 37.3952985683103 48.3423189058205  37.4799800425481 48.384068459286  37.5704013541281 48.4082154296459  C 37.6608226657081 48.4323624000058  37.7551834206537 48.4384251818491  37.8479885101971 48.4260597347305  C 37.9407935997405 48.4136942876118  38.0301895668491 48.3831418077231  38.1109910321968 48.3361809347473  C 38.1917924975445 48.2892200617716  38.2623851559606 48.2267836969658  38.3186564933364 48.1525076565494  C 38.7804045988275 47.520127861842  39.4776515546558 47.5109679682786  40.1010115080777 47.4559784219518  C 40.8345801255444 47.4388451445997  41.5682949416376 47.4833045558044  42.2943150091605 47.5888737442234  Z M 25.916107382304 78.5754815544265  C 25.916107382304 78.5754815544265  25.916107382304 78.5708946170693  25.916107382304 78.5708946170693  C 26.0928212703809 77.6542558661432  25.9287749208293 76.705110976901  25.4543592768129 75.8993112669568  C 24.8263818467397 74.6162218458373  24.1614623466245 73.3514599620798  23.5473373465052 72.059205625108  C 23.3519086030699 71.7104883667681  23.251630729552 71.3171711072767  23.2564337854164 70.9181769883845  C 23.3018235221389 70.4076029743227  23.1518031549253 69.8987968332627  22.8362413184474 69.4930379268195  C 22.0534672853785 68.3362521813546  21.4611850811494 67.063204879785  21.0816041541547 65.7216664225025  C 20.7795227282719 64.6606430457745  20.2289097472283 63.6855482664027  19.4747156741294 62.8759612521644  C 18.2813679538335 61.5792730432708  17.44069307213 60.0021551907753  17.0320642504799 58.2934989558418  C 16.8067198057452 57.3566940250046  16.2955536058328 56.5117323431585  15.5683306472761 55.873959422766  C 15.8001398538116 56.8265320600228  16.1232965327954 57.7548903681588  16.5333824967804 58.6463435182152  C 17.3599115879952 60.442668773335  18.3803754691915 62.1702625130291  19.0591451974742 64.0078299987387  C 20.8998476657283 68.7909371540772  23.051492594768 73.4503945327546  25.5005228142149 77.9568323629448  C 25.5744025094422 78.1034711531495  25.6852333295585 78.2363793401285  25.916107382304 78.5754815544265  Z " fill-rule="nonzero" fill="#ffffff" stroke="none" transform="matrix(1 0 0 1 100 169 )" />
  </g>
</svg>