<?xml version="1.0" encoding="utf-8"?>
<svg version="1.1" xmlns:xlink="http://www.w3.org/1999/xlink" width="52px" height="182px" xmlns="http://www.w3.org/2000/svg">
  <g transform="matrix(1 0 0 1 -45 -187 )">
    <path d="M 52 182  C 52 182  27.4322398576747 181.986171069236  27.4322398576747 181.986171069236  C 27.3545469418971 181.669502998296  27.2464148511725 181.361062571323  27.1093454678277 181.065141794261  C 25.8454390558327 178.900723085908  24.5723106876825 176.745514441931  23.2715019340163 174.617936869442  C 22.6810639173878 173.641645890671  22.021433900148 172.711406221936  21.4263830908106 171.739720385148  C 19.5243745672379 168.53275827056  17.8086575203836 165.219264683915  16.2877273940257 161.815635568818  C 15.2368905875981 159.5836897102  14.0745397401374 157.405795392183  12.8050632899399 155.290151025749  C 11.2228738510973 152.660612428131  9.96357902205705 149.879102937323  8.59819106048846 147.143645964299  C 7.36196140474693 144.679892697662  6.75307348202583 142.018099989946  6.00118755561908 139.411587212038  C 5.30926798941697 137.085988204892  4.5435418152634 134.778807789364  3.88391185301246 132.443998498252  C 3.46414730408564 130.961141352368  3.14125074217996 129.446058313765  2.84141894115681 127.935570315983  C 2.46778237430789 126.061275662358  2.18640460353936 124.168560660392  1.81738082939935 122.294266006767  C 1.35737793165738 119.604657332369  1.21648300313981 116.870295896304  1.39761460331331 114.147760945317  C 1.42990418320688 113.410937514358  1.48525634075472 112.678729381442  1.48986913775963 111.941905950483  C 1.48986913775963 108.147265442993  1.48987195250019 104.35261000335  1.5359999242677 100.55796949586  C 1.5359999242677 98.6468337063701  1.69283277390715 96.7311108911131  1.70667116492188 94.8199751016236  C 1.72050955593661 92.9088393121341  1.60980242524117 91.0621566256252  1.59135123722153 89.1878619720002  C 1.56367445519207 86.3510918753487  1.59135095540379 83.5143305623169  1.54061018749058 80.6775604656654  C 1.51293340546112 79.3558835087792  1.29152054972212 78.0434043192011  1.21771579764355 76.7217273623149  C 1.1023958699432 74.700068165232  0.922495799530433 72.6738160134382  0.982462159735063 70.6613671003214  C 1.0925453914998 68.4544881550283  1.01539029394083 66.2422740391647  0.751822359323185 64.0483836518267  C 0.465828936426758 61.9898833188793  0.724145108170297 59.9359812108144  0.964010548988818 57.8820859100548  C 1.3437217040188 54.8112894434714  1.41017933023812 51.7099378384203  1.16236096540482 48.6257388858062  C 0.991687470208746 46.6823672122305  0.982463197649165 44.725188347349  0.871756069531324 42.777211421995  C 0.742597749957041 40.502269086458  0.585762646634897 38.2227138134755  0.410476358729914 35.9477714779384  C 0.400897924618157 35.5424848371077  0.356139527764586 35.1387926428325  0.276704820283317 34.7412253763289  C -0.438278709463337 31.7616957684073  0.341282653465017 28.9663718398081  1.37454921005928 26.2217045828178  C 2.1192754812639 24.4177662833444  3.00136461118094 22.6734563543774  4.01306960895127 21.0040799237574  C 4.58714366563572 19.8149462501357  5.02059080934349 18.5631266280101  5.30465420690918 17.2739085493537  C 5.56297084605775 16.3528792743796  5.65522749757389 15.3950110594458  5.83512657818778 14.4555612165394  C 5.96169203711539 13.7953973749825  6.3300689639408 13.205986879736  6.86839214498317 12.8023153544158  C 9.45617138416656 10.7944714734868  12.0347256977981 8.76820702462549  14.664019961384 6.81562506708369  C 15.5450641936178 6.16169430161517  16.5783302553126 5.71498833766967  17.52395364046 5.13934504081082  C 18.0821021081261 4.79856420467857  18.5987353864232 4.38409541491339  19.1384326282649 4.0110785574509  C 19.2822700363887 3.90724395169905  19.436928173307 3.81924570435875  19.5997123390663 3.74859589496474  C 21.3248984618627 3.13150626536072  23.0639254922718 2.53744240056962  24.7844988223593 1.90653734501641  C 26.3021090532995 1.34010433212368  27.792039448612 0.713802167750996  29.3004240941344 0.119738302959898  C 29.4887948771005 0.0696037866587865  29.6797344768488 0.0296301272485391  29.8724117097708 0  C 29.6140950706222 1.07299907021043  29.4111298269107 2.02626499783749  29.16203877318 2.97953026669309  C 28.6223415313383 5.1946056466551  28.0226798539009 7.40047645200375  27.5567873503906 9.63397239989801  C 27.2938579185332 10.8911773690214  27.044768569456 12.1437743414853  26.7080343717728 13.3871638846595  C 26.2928826430493 14.9068621664078  26.2467504268317 16.5232618420857  25.8315986981082 18.042960123834  C 25.2826758158599 20.0784348566614  25.6932156316957 22.1461533788326  25.4072222087993 24.18162811166  C 25.3841582229156 24.3658339693997  25.4072278399988 24.5546365423374  25.3841638541151 24.7342372443696  C 24.6415035131262 28.2433587293195  24.9228841433137 31.8399804372382  24.4616044325123 35.3859430580525  C 24.0003247217109 38.9319056788668  23.442175140521 42.3811665763659  23.5667206673864 45.9409447329247  C 23.6405254194649 48.0316811695488  23.5067489526447 50.1362346790508  23.4098802164008 52.2315763674532  C 23.3862620995193 52.7029342186955  23.2260101176734 53.1572933504351  22.9486005055994 53.5394362514616  C 22.5387630895403 54.0593466033299  22.2489501839892 54.6631581449163  22.0998475269816 55.3077967191656  C 22.0075915834466 55.6992341720091  21.8046290754292 56.0722600052329  21.7400499156421 56.4683026000595  C 21.6419994626407 57.0779195103555  21.5834468325186 57.693217061962  21.5647613731952 58.3103611500079  C 21.5416973873114 58.9688970574594  21.606276548817 59.6320325622342  21.5647613731952 60.2905684696857  C 21.4725054296602 62.0174983602623  21.2833835646218 63.7444282508389  21.2649323766022 65.4713581414154  C 21.2649323766022 66.8252712019783  21.4540584654698 68.1838017015917  21.5186376252569 69.5423199041377  C 21.6477959448312 72.1488326820456  21.8645988380675 74.7461353955779  21.3110631631103 77.3710687414181  C 20.757527488153 79.9960020872583  20.3146975734666 82.5058159965273  20.0194785651524 85.093908206503  C 19.6089396291378 88.7089480668585  19.0461750006971 92.3147563429703  19.1799461129803 95.9804528749347  C 19.2814276488067 98.7020943122144  19.1799461129803 101.432950644861  19.1799461129803 104.159197333919  C 19.1799461129803 105.001939140283  19.0646261852799 105.849286033733  19.0646261852799 106.692027840097  C 19.0646261852799 107.534769646462  19.1476604750982 108.299238532087  19.1984012430114 109.095928863723  C 19.2380016080235 109.350735548453  19.2641759612747 109.607434032712  19.2768179492193 109.864980438203  C 19.1900410098844 112.403011066801  19.3787278342578 114.942968162776  19.8395797594826 117.440451846382  C 20.2548466897978 120.089507207665  20.5365830701991 122.757706248366  20.6837224748776 125.434979207338  C 20.8682343619476 127.820444950469  21.6062821714245 130.040138977229  22.4642624401138 132.241399041037  C 22.7410302775924 132.964407046047  22.9901187743427 133.696607328602  23.2761121972391 134.410404994748  C 23.4232015758326 134.901343949668  23.644053296372 135.367160023137  23.9311285419488 135.79194890721  C 24.881364719805 136.920209791012  25.3149707537273 138.361620549253  26.3343989321948 139.476066007106  C 26.7781902165369 139.996930699249  27.2848293305867 140.460970971865  27.8427785187452 140.857609919568  C 28.6961459947255 141.419437790477  29.1435894719645 141.364168126525  29.9369905877402 140.705632219074  C 31.1409305845417 139.697105136626  31.6298848795379 138.333998700565  31.8374607438997 136.837326128732  C 31.8928143079586 136.436678391922  31.8697483545059 136.022212978361  31.9435531065845 135.626170383534  C 32.0487405593914 135.240795632007  32.1781608182412 134.862413300486  32.3310334129707 134.493294256586  C 32.9353098077259 135.317615440121  32.8199893438845 136.072859439012  32.9214708797109 136.795867444022  C 33.0644675911591 137.739922428911  33.1659494019297 138.688598366299  33.3181717125429 139.632653351188  C 33.7952730284915 142.172208376975  34.7081851003764 144.610386817482  36.0166537975893 146.839690563311  C 37.7095503714233 149.879087126808  38.9503980988011 153.102706497686  40.2096917180871 156.326308960095  C 41.090735950321 158.587435759888  42.0917098235898 160.807097287255  43.1111380020573 163.012962383251  C 44.7117786117355 166.489847984115  46.3723883860485 169.920689850815  48.0007057519801 173.411390767833  C 48.2838693123872 174.009918303433  48.5303351720412 174.625071529189  48.7387490661205 175.253449317781  C 49.5257183588031 177.634965067159  50.6221540998079 179.903164657077  52 182  Z M 5.46610140183269 52.5217028376767  C 5.45687580782287 52.3190763982803  5.42458650974704 52.1164420810751  5.40152252386329 51.9092104996957  C 5.40152252386329 51.9092104996957  5.12936918374721 51.9368402536416  5.12936918374721 51.9368402536416  C 5.12936918374721 51.9368402536416  5.24929937467045 53.1249758884815  5.24929937467045 53.1249758884815  C 5.32753630178332 53.046443260813  5.38751561873022 52.9516821478757  5.42498207702645 52.8474275615853  C 5.46244853532269 52.743172975295  5.47648555972634 52.6319780805665  5.46610140183269 52.5217028376767  Z " fill-rule="nonzero" fill="#ffffff" stroke="none" transform="matrix(1 0 0 1 45 187 )" />
  </g>
</svg>