<?xml version="1.0" encoding="utf-8"?>
<svg version="1.1" xmlns:xlink="http://www.w3.org/1999/xlink" width="54px" height="46px" xmlns="http://www.w3.org/2000/svg">
  <g transform="matrix(1 0 0 1 -130 -191 )">
    <path d="M 19.7115089922639 12.9914136791933  C 19.7115089922639 12.9914136791933  19.9726561281268 12.8390524419287  19.9726561281268 12.8390524419287  C 20.2104500567547 13.0923305805782  20.4337708014191 13.3590235388567  20.641546808436 13.6378322606  C 21.4667983620048 14.9505979902035  22.5043441434451 16.1148325832662  23.7111371869641 17.0822549523153  C 24.188031717099 17.4570590616877  24.5816333198394 17.9284938723672  24.866515424418 18.4661171398887  C 25.1513975289965 19.0037404074102  25.3212200002188 19.5955902636558  25.3650410843562 20.2034692339873  C 25.5148500103381 21.3762405054315  25.7725317049946 22.5324412770122  26.1347386417171 23.6571362144498  C 26.4282463984517 24.5614416212929  26.9535340570321 25.3715887249321  27.6574677651148 26.0056100343787  C 28.3614014731976 26.6396313438252  29.2190086503312 27.0750378556996  30.1435247427235 27.2677861362203  C 32.2006045914071 27.7295056426188  33.8819968446391 26.7460459032957  34.2164441509473 24.0819243601832  C 34.2562374876173 23.4007082574594  34.2562374876173 22.7177123407355  34.2164441509473 22.0364962380116  C 35.1006678040528 22.5813252313437  35.5588148109192 23.163099730943  35.5908850998638 24.0357495914312  C 35.6229553888084 24.9083994519193  35.5450704008839 25.882627617025  35.5908850998638 26.8060666298219  C 35.6410841130359 28.0651185900678  35.9719102560459 29.2966283469773  36.5588128795324 30.4092485542051  C 37.1457155030188 31.5218687614328  37.9736315223382 32.4870412641699  38.9811699775506 33.2331942681742  C 40.4518218103682 34.3551726995455  42.0599277654605 34.526008891594  43.7733974861457 34.1566332809711  C 44.9096020126551 33.9211563371112  45.2669572094868 33.4732884026948  45.2486313305775 32.3097552553772  C 45.2310975316445 31.4989246494418  45.1560661732401 30.6903987859488  45.0241298014764 29.8903495508289  C 44.4994527701113 26.4837615568447  43.1840145599577 23.2501730688484  41.1848698286601 20.4528017127996  C 39.1321858623883 17.512296235362  36.4114780710606 15.1091628171611  33.2497607280134 13.4439038680658  C 32.7341535083526 13.1617404644329  32.1944136654209 12.9268625070233  31.6370743997681 12.7420952909421  C 29.1447547861841 11.994109688375  26.6432833832159 11.2830616661346  24.1463824134022 10.5489276355495  C 23.295014824555 10.3110485262269  22.3954645129998 10.3110485262269  21.5440969241526 10.5489276355495  C 20.9891037166063 10.7475527946378  20.3790188320129 10.7193730622128  19.844375532156 10.4704291196148  C 19.5359745992138 10.3531711303146  19.2068911782477 10.3013069070661  18.8776921092222 10.3180678823502  C 18.6385108134966 10.2884355561822  18.3968476312235 10.3481869796113  18.1984411104809 10.4860273707618  C 18.0000345897384 10.6238677619123  17.8586482081549 10.8302309095009  17.8010439029303 11.066051228226  C 17.4940854166928 12.0125761943263  17.0863357280167 12.9360175188559  16.8572622365306 13.8963940569383  C 16.2254055329244 16.2461168730104  15.4025424736095 18.5393724259359  14.3970160488618 20.7529165738464  C 14.1325130165838 21.4873072067591  14.116402490945 22.2892353301369  14.3511985542574 23.0338120626996  C 14.461153827713 23.4955315690981  14.5756880270141 23.9572623589537  14.7360394683236 24.6036696569033  C 14.266430520163 24.5461001823184  13.8000341030547 24.4644100545305  13.3386836551827 24.3589447915734  C 12.2524777580296 24.0109051250932  11.0847340532163 24.0189963546034  10.0033741784067 24.38203922123  C 9.10862270150986 24.7267503779372  8.14698606704302 24.8585883826999  7.19337854828414 24.7672892524934  C 6.23977102952525 24.6759901222869  5.31994852796107 24.3640130453133  4.50560994581766 23.8556722204664  C 4.2627920579501 23.7033047773004  3.96041503717309 23.6432812436703  3.70385272561636 23.5093825906676  C 3.32994843143345 23.3562006745406  2.98975796330216 23.1301059390509  2.70278892327023 22.8440685668146  C 2.41581988323831 22.5580311945782  2.18772673775771 22.2176910565218  2.03161925253671 21.8425819360385  C 1.57347226956454 20.5590017214607  1.03743851684121 19.3031252012595  0.583872999329534 18.0195449866817  C -0.0987660096682323 16.0941746097738  -0.0804401205185778 14.1087731585838  0.125726016357362 12.1095277311049  C 0.29524040224168 10.5304469839958  0.423520438404827 8.94675377977387  0.611360699784956 7.36767303266475  C 0.871293817754622 5.50288216109693  1.44454715753748 3.69633990783088  2.30651023862728 2.02557496189997  C 3.32359655393319 -0.0567801176362748  4.94544002386959 -0.283020808772171  6.92005349426427 0.483433556437713  C 7.89970206138982 0.894990995537963  8.94688767521746 1.11889828321817  10.0079601223281 1.14368901381158  C 11.0715590767487 1.17603912575496  12.1264403247963 0.941213870346315  13.0775505008562 0.460353217342234  C 13.6717911370782 0.162328437846114  14.3256882581181 0.00491403481043507  14.9894268515147 0.000113214915043082  C 15.6531654449113 -0.00468760498034891  16.3092276833157 0.143252927936276  16.9076516935201 0.432651174203215  C 18.2372890276787 1.13002964588965  19.5143638682535 1.92477851830015  20.7285958537236 2.81050375900178  C 20.9312672072823 2.98952869990279  21.1099236883215 3.19441419621734  21.2600480317557 3.41997688918241  C 21.1134410004815 3.61851628023622  21.0263908355787 3.84936870606846  20.8568764496944 3.94632979938487  C 20.4638096407192 4.18315500629021  20.1242209794199 4.50019797022978  19.859909019036 4.87709590395812  C 19.5955970586521 5.25399383768646  19.4124133179134 5.68242819131298  19.3220952419667 6.1348898412951  C 19.221557038432 6.45587155739449  19.0879552595166 6.76536979643811  18.9234956222904 7.05832885409201  C 18.4653486393182 7.98176786688892  18.5111711585373 8.07872600861806  19.4183021935606 8.8728835728333  C 19.4996496393265 8.68216656228292  19.5685106105398 8.48627729754257  19.6244599469763 8.28649078174816  C 19.7262421795535 7.70430672017532  19.9598275496836 7.1536037792225  20.3070525329042 6.67715099498889  C 20.6542775161247 6.20069821075528  21.1058078735598 5.81132787375462  21.6265740070552 5.53926773268398  C 22.9259832596347 4.85546122340761  24.3452330663852 4.43357873301082  25.8048722547156 4.29724113322725  C 28.1425040824792 4.09531122842737  30.4965637785257 4.3685043111565  32.7274664562877 5.10062856538101  C 33.5338051419495 5.3407226999016  34.3630489702987 5.50232905153217  35.1877135178025 5.68239965242261  C 36.0859141195619 5.88732729657767  36.9161530400682 6.32317468889917  37.5975711223277 6.94750659097483  C 38.9397025976724 8.09786275192334  40.0850659589496 9.46274198145606  40.9878560000145 10.9875527122913  C 41.061382353214 11.155777334425  41.1602967869944 11.3115257554398  41.2810767802541 11.4492722186898  C 43.182386803281 13.1899547490054  44.1628246718255 15.6047468956158  45.7800835086096 17.5670547978093  C 46.8258917226457 18.8528551564217  47.6357502054671 20.316345196386  48.1716113189858 21.8887567047906  C 48.5701991963562 23.0015007548405  48.94128651135 24.1234752232416  49.3765261397121 25.2177504005663  C 49.9263025411248 26.6259948730651  50.5310559819097 27.9880708515148  51.1083211760854 29.405549705335  C 51.5474434661675 30.5016639210494  51.7999156117086 31.6645803861534  51.8551029953759 32.8453515736668  C 51.9465272306744 34.5469349985569  52.1285218239969 36.2423457669389  52.4002990236357 37.9242661440498  C 52.6018836950511 39.1155024353314  53.0783543279425 40.2328710515702  53.3715683904908 41.4379589148338  C 53.6376181302271 42.4737274404565  53.8380785714281 43.5254930461549  53.9717398196615 44.5868893302059  C 54.1137653854752 45.8058288755342  53.7335106064841 46.1013293117433  52.5331655635278 45.9720478494013  C 51.6581048413432 45.8658523610032  50.7830390399287 45.8104370050284  49.9079783177441 45.731944688115  C 47.3965164516725 45.4683856412549  44.9195607988403 44.9391165903568  42.5180652453572 44.1528718669465  C 40.9786914306322 43.691152360548  39.4668170040532 43.1186117193781  37.904535752795 42.7446189180946  C 36.5300948038785 42.4075636696171  35.0960846455156 42.2551962402114  33.6849919729152 42.0520396584969  C 31.5454455274813 41.7473047721648  29.3784102892845 41.5903201520984  27.2709342113048 41.1286006457  C 25.4016945557321 40.7130531009496  23.8119283894027 39.7065101053446  23.0514044129612 37.7580538852157  C 22.9047973816871 37.3794438932714  22.7123728558084 37.0239131120769  22.5474399353846 36.654537501454  C 22.4453904015017 36.5007079286477  22.3795820953073 36.3254156792106  22.3550260321966 36.1420356128211  C 22.5291218835414 34.1474072659204  21.1638349086242 32.7530065495455  20.3987294667222 31.1416054678116  C 20.0584539078346 30.6146649922192  19.6022411557235 30.1738661436994  19.0655200684888 29.8534181901639  C 18.2125958321849 29.2112901295734  17.4956175691533 28.4038505052347  16.956684941484 27.478538658718  C 16.4177523138148 26.5532268122012  16.0677452642845 25.5286971603001  15.9272244203585 24.4651453506471  C 15.6523362196521 22.8029551716456  15.4690701735413 21.1915608049447  16.1058944733188 19.5663081512288  C 16.7427187730962 17.9410554975128  17.3383098837293 16.2511634955374  17.9384824052074 14.588973316536  C 17.9980415108092 14.4319886827092  18.0621915986008 14.279611662365  18.1629839343085 14.0164315470203  C 18.2775206800516 14.2149709380741  18.3783001529848 14.3073142696768  18.3645557438028 14.3765721983887  C 18.1487442037712 15.6524820839281  18.2223611707071 16.9610787687637  18.5798853850612 18.2042299711289  C 18.8960068022197 19.6447947782525  19.2533608896766 21.0807459173556  19.6244599469763 22.5074591524972  C 19.7737258868866 23.1158819304214  19.9776884162114 23.7093337073331  20.2338032639897 24.2804603661999  C 20.368122805008 24.5649179718751  20.5817978051707 24.8037516479112  20.8486832693959 24.9677556653819  C 21.1155687336211 25.1317596828527  21.4240930973139 25.2138234960365  21.7365248088769 25.2038993789968  C 22.4512340760981 25.2038993789968  22.7948393023665 24.7421753592155  23.0055869183568 24.1604087855567  C 23.2263836134031 23.6149207282454  23.3728018529751 23.041787540452  23.4408321447949 22.4566626797016  C 23.5416244805026 21.3900906463409  23.5462048331748 20.3189097885903  23.5828565909933 19.247720564569  C 23.6195083488119 18.061101463948  22.9322822694506 17.3500550929452  22.0022439071248 16.7821400912685  C 21.3376851000062 16.3921715934365  20.7801703278415 15.8412792004862  20.3801759679916 15.1793669463158  C 19.9801816081417 14.5174546921454  19.7503457030691 13.765426804819  19.7115089922639 12.9914136791933  Z M 4.62473263548206 6.4765577670504  C 4.69803615111914 5.84861923174355  4.71178447639426 5.23452781007716  4.75759917537416 4.62505803741304  C 4.75759917537416 4.62505803741304  4.40940299422368 4.47269680014844  4.40940299422368 4.47269680014844  C 4.19290491160368 4.72638637217407  4.01250464352067 5.00919882227797  3.8733788538066 5.31301559296719  C 3.57558332579776 6.33803291038166  3.33275612600853 7.37691236769901  3.07619381445181 8.41116406643485  C 2.42510545298689 11.2985785112664  2.42510545298689 14.2964193625139  3.07619381445181 17.1838338073454  C 3.22767799883403 17.8655829295762  3.42357797418672 18.5365328476251  3.66262139339473 19.1923164782909  C 4.02625414643983 20.1314595315256  4.71904328659379 20.9035688076847  5.60974585256496 21.362389704027  C 6.36110689808547 21.8241092104254  6.82841795890153 21.5886350736695  7.07123584676909 20.7159852131814  C 7.28125317325451 20.0400988101555  7.24221485320099 19.3105296259982  6.9612850449474 18.6613277734838  C 6.67723391332004 18.0241548568556  6.30154612671473 17.4331539018755  5.99458764047722 16.81444974789  C 5.68762915423971 16.1957455939045  5.35776334069975 15.4939336592643  5.07829367453288 14.810588780988  C 4.79882400836601 14.1272439027117  4.58807695218334 13.2684453940406  4.26279260410387 12.5296941727948  C 3.91614113695038 11.7147359681559  3.84845179527134 10.806694801299  4.07037870091591 9.94868382289482  C 4.31319658878347 8.80361943822005  4.46438119417257 7.64009091436791  4.62473263548206 6.4765577670504  Z " fill-rule="nonzero" fill="#ffffff" stroke="none" transform="matrix(1 0 0 1 130 191 )" />
  </g>
</svg>