<?xml version="1.0" encoding="utf-8"?>
<svg version="1.1" xmlns:xlink="http://www.w3.org/1999/xlink" width="9px" height="8px" xmlns="http://www.w3.org/2000/svg">
  <g transform="matrix(1 0 0 1 -137 -138 )">
    <path d="M 4.88978431418858 4.94693261385302  C 6.55913898980983 5.35580924609042  8.10666966298022 5.99833184893742  9 7.80008497157866  C 8.40899288008202 7.94508512208933  7.78550197702193 7.87662795239278  7.2404127129495 7.60688282642123  C 6.53117434017437 7.33051568599767  5.74338884138856 7.33051568599767  5.03415046861343 7.60688282642123  C 4.6326030042147 7.75964991698881  4.1949619305072 7.80458250909545  3.77987914411822 7.91691125097832  C 1.77214187590902 8.45159608805078  -0.560436235652332 6.32183638878932  0.120840929694169 3.93597393690721  C 0.540435481115814 2.47120714703961  1.21269312334087 1.21312523259523  2.5075708709749 0.341454169874169  C 3.32420109487038 -0.206710103369232  4.14533189662632 -0.107863020501804  5.03415046861343 0.732355970924551  C 4.66340642568701 0.871816136801242  4.28353959343426 0.985912281092667  3.89718955286403 1.07383978765247  C 2.0924818186938 1.34792192427417  0.883329973197639 3.27099334689251  1.3615774969362 5.37378731780977  C 1.48246880924361 5.74751019991031  1.71358297265061 6.07631255486141  2.02480824756581 6.31735149202679  C 2.57975588442867 6.76666645955826  2.95422721882979 6.6273716679561  3.1753039205684 5.93093348970732  C 3.45503362151616 5.05476928159594  3.93328926671146 4.72227513008729  4.88978431418858 4.94693261385302  Z " fill-rule="nonzero" fill="#000000" stroke="none" transform="matrix(1 0 0 1 137 138 )" />
  </g>
</svg>