<?xml version="1.0" encoding="utf-8"?>
<svg version="1.1" xmlns:xlink="http://www.w3.org/1999/xlink" width="33px" height="92px" xmlns="http://www.w3.org/2000/svg">
  <g transform="matrix(1 0 0 1 -98 -186 )">
    <path d="M 31.9011267415044 91.9446472590949  C 31.9011267415044 91.9446472590949  31.623289809417 92  31.623289809417 92  C 31.2943223943902 91.6159911848246  30.9955419941394 91.2072966436823  30.7295934939157 90.7775659691672  C 29.6995476414898 88.8569289334761  28.5408317703624 87.0075779522589  27.2613022617263 85.2420666386137  C 26.5204113018522 84.1857088672966  25.8721317326627 83.0601775467656  25.1775464681309 81.9761423051911  C 24.617247670411 81.1089140789373  24.0198992821155 80.2647470568264  23.4503393563673 79.4067446539918  C 23.1065443494151 78.9269744510539  22.7881458768627 78.4296483923721  22.4964433902535 77.9167817604529  C 21.3851069228421 75.7902273727095  20.306182305904 73.6498130236028  19.1948458384925 71.5232586358594  C 18.7873558188419 70.7390628753682  18.3289402763666 69.9779317284151  17.8890362810165 69.2168005814621  C 16.1155286075737 66.1538243468115  14.4901954497406 63.0032037795035  12.4805286803717 60.0786148961402  C 11.8547872165107 59.1226380781148  11.2977252761051 58.1237631498412  10.8135212192206 57.089454267243  C 9.61883459955435 54.6815121552351  8.42414952550702 52.2689524023564  7.31281305809557 49.8194939749818  C 6.73399200431906 48.5509420450633  6.34502512393589 47.1947497417849  5.84492371360074 45.8892945181898  C 5.69042481499476 45.4348802348323  5.48047418643034 45.0010845164206  5.21979414924743 44.5976695612257  C 4.54715821962038 43.5326827206304  4.08653433265004 42.3487018285452  3.86304099072489 41.1103061091772  C 3.31663394024816 38.7392672908458  2.64520099898104 36.3866787995869  2.30716949474345 33.987962510998  C 1.89504891107865 31.077212472744  1.18193656043094 28.2264427145098  0.978191550605626 25.2649505374699  C 0.677204613681974 20.8503899621285  0.362332194792043 16.44043185035  0.24656798403674 12.0212582533185  C 0.149326050038323 8.26634438238782  0.0798680954727834 4.50682144906469  0.00114843133116749 0.751907578133966  C -0.00707906832766723 0.497032905684557  0.0289497122950737 0.24265562000306  0.107649524893123 0  C 0.380853050131489 1.57761734440151  0.635533732806026 3.15524414712521  0.93189010571552 4.72363566810757  C 1.12637397371235 5.77538052771508  1.39494751454367 6.80866362227918  1.61258423021163 7.85579557017712  C 1.96913799050586 9.70096201369496  2.33495205081824 11.5461284572128  2.61741673168526 13.3912949007307  C 3.02560586791362 16.0877758884511  3.64490414312062 18.748317451513  4.46964432457281 21.3485751884014  C 4.84008980450985 22.5064171273096  5.0993979668607 23.696547248575  5.42816831546964 24.8636150109024  C 6.00698936924615 26.9209756130217  6.56266097019319 28.9875739164531  7.19704884734027 31.0310956734631  C 7.86125817277809 33.3350983034314  8.73865483229272 35.572725067901  9.81795183299971 37.7152066103056  C 10.0108196873691 38.1928512203053  10.1656500660421 38.6848784189587  10.2810086760209 39.1867279752113  C 10.7116515433427 40.4414411700011  11.0635730560021 41.7284373780651  11.5960884144364 42.9416343674687  C 12.3063211389528 44.6442942504112  12.8716926857122 46.4034007402165  13.2862430651891 48.2003699934968  C 13.5085103448712 49.0906627782985  13.2862447212094 50.188527846582  14.402211752635 50.7282390115145  C 14.5411288110614 50.7928198373126  14.5457579605583 51.1295705925318  14.6105859188572 51.3417647373857  C 14.7911780810114 51.9414438095329  14.953251657954 52.550345955587  15.1569966677793 53.1407992043151  C 15.2357163319209 53.3760579214644  15.3422208153651 53.6989547298784  15.5274435553336 53.7819872231361  C 16.1433091764241 54.0633751123714  16.3192707469638 54.6261649683447  16.5693214521314 55.1658761332772  C 17.4954351381738 57.1033008109866  18.4215420345329 59.0268756455377  19.2828277691764 60.9781391683562  C 19.7875597435257 62.1267552838453  20.2089386399843 63.3076595816916  20.6256897876633 64.4931789908573  C 21.2415554087537 66.2829904938602  21.9454131174527 68.0036035920584  23.2419722558318 69.4474463869018  C 23.6470699885306 69.9749024807773  23.9802720131134 70.5534884496576  24.232906551583 71.168083240886  C 25.9138029447427 74.6139314773727  27.525248053778 78.0874585038828  29.2617112151076 81.5194681152213  C 30.3267419319761 83.6229578344363  31.5769959822204 85.6295787173406  32.7207463977309 87.6915521211889  C 32.915288723245 87.9589980861004  33.0132039519793 88.2841754774588  32.9985691984449 88.6141353429479  C 32.6836905418785 89.7350739881795  32.2762027854556 90.837547348992  31.9011267415044 91.9446472590949  Z " fill-rule="nonzero" fill="#ffffff" stroke="none" transform="matrix(1 0 0 1 98 186 )" />
  </g>
</svg>