<?xml version="1.0" encoding="utf-8"?>
<svg version="1.1" xmlns:xlink="http://www.w3.org/1999/xlink" width="6px" height="3px" xmlns="http://www.w3.org/2000/svg">
  <g transform="matrix(1 0 0 1 -212 -311 )">
    <path d="M 4.97676614769935 0.00500041368898756  C 5.46533343605171 0.00500041368898756  5.79864887198963 0.130205369652175  5.92649825013459 0.568369158231033  C 6.09087602786721 1.14006860556734  5.98586301110679 1.5615374458292  5.54752229770225 1.79105182667281  C 5.29142129227172 1.91986467174769  5.02032412317671 2.02203675232159  4.7393226712333 2.09567184791232  C 3.62064059545501 2.38360806391672  2.48826724351528 2.63398739299574  1.37871725742798 2.93026957834512  C 1.29706164804648 2.97007485253325  1.20703211239984 2.99344795918456  1.11467286567005 2.99880908312401  C 1.02231361894026 3.00417020706346  0.92976705964551 2.99138672727287  0.843257190371219 2.96134285810366  C 0.756747321096928 2.93129898893446  0.678271214931749 2.8846847040938  0.613115379496028 2.82462042716606  C 0.547959544060306 2.76455615023833  0.497631767256651 2.69243807456101  0.465507471854898 2.61311836559642  C 0.306562452508474 2.34554588299936  0.172162428057823 2.06639049013575  0.0636928923248179 1.77852063516363  C 0.0192958919549011 1.69457091349526  -0.00246272011247013 1.60213053652812  0.000221355232558755 1.50892172840608  C 0.00290543057758764 1.41571292028405  0.0299512689318368 1.32446057493063  0.07911835760932 1.24276125834313  C 0.128285446286803 1.16106194175564  0.198145586102218 1.09129345826806  0.282840394580824 1.03930768562899  C 0.36753520305943 0.987321912989908  0.464610099744723 0.954611776219108  0.56596111163446 0.943922904730828  C 1.93577587164141 0.626775771146037  3.30559046835372 0.313801577928795  4.67540522836067 0.00500041368898756  C 4.77572585784846 -0.00166680482208909  4.87644551821156 -0.00166680482208909  4.97676614769935 0.00500041368898756  Z " fill-rule="nonzero" fill="#ffffff" stroke="none" transform="matrix(1 0 0 1 212 311 )" />
  </g>
</svg>