<?xml version="1.0" encoding="utf-8"?>
<svg version="1.1" xmlns:xlink="http://www.w3.org/1999/xlink" width="6px" height="4px" xmlns="http://www.w3.org/2000/svg">
  <g transform="matrix(1 0 0 1 -187 -87 )">
    <path d="M 0.015915400082027 0.130718587383283  C 0.330795365131771 0.0710670560421895  0.648176247657081 0.0305451714519342  0.966736248208663 0.00931032815619358  C 1.63274484662358 0.00931032815619358  2.30312974864774 0.0649580447436898  2.96037508427821 0.00931032815619358  C 3.36395871824824 -0.0307764867971388  3.76926735253689 0.0591011507944549  4.13126696141494 0.268970251724527  C 4.49326657029299 0.4788393526546  4.79777843463886 0.800477248253762  5.0109771133069 1.19814332898161  C 5.32081354828047 1.6794009758571  5.59908817083839 2.1866997918699  5.84348519743406 2.71580833504604  C 6.16334460246486 3.39875759983635  5.99247257393135 3.8085274466745  5.33522723830087 3.90970511525313  C 4.50541360205974 4.10623319255363  3.64258703769208 3.9799353042974  2.8815088532083 3.55052871992752  C 2.32942277545735 3.20146576973883  1.75103991010881 2.90298762460547  1.19019056957343 2.57416021868617  C 0.795256643484195 2.36338499617897  0.468624490230413 2.01304160141494  0.257528470731981 1.57379258971932  C 0.0464324512335489 1.1345435780237  -0.0381822650484275 0.629156134120889  0.015915400082027 0.130718587383283  Z " fill-rule="nonzero" fill="#ffffff" stroke="none" transform="matrix(1 0 0 1 187 87 )" />
  </g>
</svg>