<?xml version="1.0" encoding="utf-8"?>
<svg version="1.1" xmlns:xlink="http://www.w3.org/1999/xlink" width="46px" height="11px" xmlns="http://www.w3.org/2000/svg">
  <g transform="matrix(1 0 0 1 -115 -181 )">
    <path d="M 41.2948014459956 4.2147062851712  C 40.4933142821072 3.20934398188116  40.7027999931085 2.09692587736179  40.689138280319 1.04036461874733  C 40.689138280319 0.179290446918767  41.0488950791752 -0.123255971356728  41.8685978431517 0.0443044125249452  C 42.8346873807107 0.223445395576185  43.7163602845654 0.722267723074214  44.3778035954119 1.46392172124106  C 45.2094327828384 2.35461090653018  45.6951053332756 3.5244406140893  45.7439749048971 4.75461055646758  C 45.7563306128594 4.90225036834253  45.7869251929696 5.04770680094355  45.8350446537482 5.18748565953932  C 46.1674796810755 6.17888461137725  46.0217630776735 6.89566166310524  45.1747368592783 7.49143187991646  C 43.8677663586527 8.42232286449103  42.6017763981364 9.40906617290825  40.9578169701615 9.73022356147676  C 39.3138575421866 10.0513809500453  37.7017792144397 10.5121708543973  36.0805892865748 10.9217628853907  C 35.782173389641 11.0084710363501  35.4681594106844 11.0233430934384  35.1631793474772 10.9651995405242  C 34.85819928427 10.9070559876099  34.5705394151599 10.777477389487  34.3227749750489 10.5866415627731  C 34.0586485294819 10.3911544621158  33.7444307851325 10.265486449107  33.4848582395875 10.0653448840944  C 32.0943666741088 9.00803213086393  30.3605584067492 8.53503010608975  28.6395112219346 8.74348139051079  C 28.0657504368999 8.78641195960171  27.5042393530331 8.93461866954663  26.9818833623341 9.18100128960237  C 26.2658350520368 9.55346746689699  25.4790684516711 9.76222282532639  24.6761774319 9.79276495864903  C 23.873286412129 9.82330709197167  23.0735068928904 9.67490667199946  22.3323508969949 9.35787284935461  C 21.1816569166368 8.865595492598  19.9329914931592 8.65979847839389  18.6892274050342 8.75744418710864  C 18.3590335798796 8.74860256879693  18.0317869292034 8.82295200163575  17.7363512673912 8.97393145358662  C 17.440915605579 9.12491090553749  17.1863702321204 9.34788758103798  16.995174425376 9.62318018898296  C 16.5397839888809 10.4097830975815  15.8475933027195 10.4935598494259  15.105306893404 10.2887638339292  C 13.666273074993 9.88848070390386  12.2363366335662 9.45095739245855  10.8109645152212 9.00412972985013  C 10.1187710604346 8.78537034902996  9.44479820011882 8.45026038705342  8.75260474533217 8.27339110220367  C 6.27422953571915 7.65193862347396  3.89999111774024 6.65741900479564  1.70771413685659 5.32245462522883  C 1.14758389128174 4.98733385746549  0.564684145596854 4.68014098554304  0 4.36363804745856  C 0.5874536457069 2.85094019752489  1.44814606997015 2.26913560706827  2.96459618875527 2.3296435188462  C 3.36533977069948 2.3296435188462  3.76607613250322 2.36223265780108  4.16681971444743 2.36688711261992  C 4.51197391493303 2.36823451074604  4.85337624814254 2.44016933703228  5.17090781981762 2.57845970196376  C 5.4884393914927 2.71675006689525  5.77567652952173 2.91858972177065  6.01570377482444 3.17209872354465  C 7.49666576320892 4.623942266183  9.36472499662761 5.59559728386933  11.3847609123773 5.96477167726835  C 13.2063226583576 6.32316469745189  15.027884404338 6.65362760237747  16.8494461503184 6.97943944143003  C 17.4218838581848 7.09330680700357  18.0018415866344 7.16332402790819  18.5844826015716 7.18889559466697  C 22.7649669475706 7.29749954332972  26.9484857068882 7.38593715422491  31.1350419195832 7.45420249041192  C 31.861267370728 7.44930266776679  32.5848937341662 7.36503992080595  33.2935881413977 7.20285839126483  C 35.750185670196 6.66958251998424  38.1396000634145 5.8529194938341  40.4159012389393 4.76857335306543  C 40.7191370682134 4.60153537834524  41.0125980487522 4.41660886052021  41.2948014459956 4.2147062851712  Z " fill-rule="nonzero" fill="#ffffff" stroke="none" transform="matrix(1 0 0 1 115 181 )" />
  </g>
</svg>