<?xml version="1.0" encoding="utf-8"?>
<svg version="1.1" xmlns:xlink="http://www.w3.org/1999/xlink" width="5px" height="5px" xmlns="http://www.w3.org/2000/svg">
  <g transform="matrix(1 0 0 1 -88 -132 )">
    <path d="M 0 0  C 0.712120536711996 0.551923034988215  1.7878752789254 0.542081668462069  2.19191531534031 1.61636046131616  C 2.49494535017733 2.42946134586484  3.12120740210494 3.12429000844142  3.70706542931873 4.0310207213674  C 3.70706542931873 4.0310207213674  5 3.75506040814493  5 3.75506040814493  C 4.96642125018736 4.02437787092483  4.84770778990805 4.27679630390355  4.66035354119176 4.47726433849277  C 4.47299929247546 4.67773237308199  4.226303256159 4.81629076365484  3.95454272225793 4.87368471214642  C 3.65617090651573 5.00074943879767  3.32438186789369 5.03295766158083  3.00620215256617 4.9657366509603  C 2.68802243723866 4.89851564033978  2.39959880812977 4.73527128209977  2.18181986322589 4.49916069904056  C 1.1128258769557 3.18116576031813  0.366563590462957 1.64229154304769  0 0  Z " fill-rule="nonzero" fill="#000000" stroke="none" transform="matrix(1 0 0 1 88 132 )" />
  </g>
</svg>