<?xml version="1.0" encoding="utf-8"?>
<svg version="1.1" xmlns:xlink="http://www.w3.org/1999/xlink" width="13px" height="17px" xmlns="http://www.w3.org/2000/svg">
  <g transform="matrix(1 0 0 1 -88 -124 )">
    <path d="M 1.5103729701386 4.02298165697819  C 2.16291571240961 4.77507430200822  2.68228707231677 4.68390653507868  3.38365954900103 3.80418605845244  C 3.50795340278178 5.08502261605052  2.78882466505154 5.38585691916492  2.16291634742312 5.69581025940108  C 2.06198845743674 5.9401449542166  2.05139745072767 6.21390638402118  2.13313336703573 6.4656914467624  C 2.21486928334378 6.71747650950362  2.38330945506136 6.92996476451114  2.60682296617872 7.06325145194195  C 3.93854282244553 8.05236728265568  4.58220744080827 8.0113462594915  5.54104577542119 7.0085560298933  C 6.92767726092816 5.49053006902184  7.89729960666937 3.62195191786645  8.35097548496145 1.59348679045293  C 8.45805183374317 1.0531836643924  8.74727725745024 0.568968786623294  9.16776203783717 0.226045597912059  C 9.24099166372172 0.143086135359438  9.33282701351876 0.0797257486561316  9.4353008505143 0.041455496871275  C 9.53777468750985 0.00318524508641844  9.64779245195179 -0.00883907302911703  9.75581503039859 0.00642928305680243  C 9.86383760884539 0.0216976391427219  9.96660316840236 0.0638002839452737  10.0551959606107 0.129076679524177  C 10.143788752819 0.19435307510308  10.2155346200228 0.280830302823434  10.2642119280417 0.381020597160288  C 10.8117260813531 1.09829562900574  11.1722692507847 1.94696552966245  11.311831819244 2.8469744416076  C 11.5071507304381 4.67022936499543  11.8711560596832 6.49349211294452  12.0975484310151 8.35321210002428  C 12.2706720059797 9.75711835625708  12.3372544824057 11.1746891219983  12.4615483361864 12.5877116441541  C 12.4579113992393 12.8784745686672  12.5170415451973 13.1664584970056  12.6346784200395 13.4309698282872  C 13.3005383481729 14.5431553576356  12.8255563642389 15.7738610379398  12.9587283551574 17  C 12.8180041617727 16.8889025389429  12.6912580511776 16.760278305165  12.5814050198241 16.6171042249972  C 11.9865701358747 15.5550582668996  11.1387095936832 14.6297621660677  10.8901218861217 13.3762744062385  C 10.7291566899667 12.8252455454722  10.6147945996489 12.260976874995  10.5483118931062 11.6897580379723  C 10.4906040347847 9.98501468025774  10.5483129779209 8.293944634683  10.1887486156705 6.5892012769684  C 9.82918425342015 4.8844579192538  9.7936752503614 3.13870375377446  9.60279540112143 1.27442552505875  C 9.50938027000156 1.45999235820361  9.43642161628898 1.65568319555798  9.3852787194793 1.85786643545514  C 9.1366910119178 4.34660942326744  7.70287074628872 6.11972477540441  6.04709904986348 7.78344493646558  C 5.10601706890268 8.71786306296695  4.00956897790309 8.85004405566802  2.80214296218758 8.47627679963375  C 2.51177141846843 8.34175137276302  2.20086295568244 8.26001115616868  1.88325978357176 8.23469607869811  C 1.02652003265728 8.31674255351079  0.60924499421291 7.77888180447884  0.396169821972822 7.10883560709288  C 0.167385936837713 6.38437415042141  0.0345034997813747 5.63161386383381  0.00109319653490559 4.87078851939458  C -0.0388584007406324 4.09134702225837  1.02651474087801 3.50335401033313  1.5103729701386 4.02298165697819  Z " fill-rule="nonzero" fill="#000000" stroke="none" transform="matrix(1 0 0 1 88 124 )" />
  </g>
</svg>