<?xml version="1.0" encoding="utf-8"?>
<svg version="1.1" xmlns:xlink="http://www.w3.org/1999/xlink" width="23px" height="22px" xmlns="http://www.w3.org/2000/svg">
  <g transform="matrix(1 0 0 1 -152 -202 )">
    <path d="M 0.0743665413158544 0.516216535804365  C 0.0278885160984273 0.423481010217937  0.0464780252174271 0.307554235508737  0 0.001526993473255  C 0.872464924166266 -0.0115910655878459  1.74414795712711 0.0598374111374098  2.60277221018512 0.214814734247782  C 5.14047236697192 0.914967937570244  7.69212046112078 1.60584751440418  10.1601035367954 2.53320275644979  C 12.4388201833694 3.3727206732046  14.5024520341004 4.70615455620543  16.202246725026 6.43737455160175  C 18.0151486940382 8.25095437262113  19.5569711097251 10.3153905893792  20.7803207935498 12.5671937097334  C 21.7001245428465 14.3526171616183  22.3277590076287 16.2733125685456  22.6394417745438 18.2565121411739  C 22.8101380520396 19.0890844074912  22.9281203417302 19.9315544343439  22.9926792998023 20.7789195315634  C 23.0438051265026 21.6228128261457  22.8393046800425 21.8082838496812  21.9934046093115 21.9381135841204  C 21.0291435965207 22.1108176628611  20.0349716437245 21.9190653767205  19.2047231378204 21.4002458456958  C 18.2359031984307 20.8014431897293  17.4313904487399 19.9718820115931  16.8635032873272 18.9861025385108  C 16.2956161259145 18.0003230654284  15.9821506219797 16.8892204163683  15.9512614210809 15.7526558177143  C 15.9055258829269 14.9805332677997  15.9055258829269 14.2063911469098  15.9512614210809 13.4342685969952  C 15.9981052305955 12.8770544442732  15.9211682087829 12.3163954629578  15.7259490982119 11.7922373928103  C 15.5307299876409 11.2680793226629  15.2220380570878 10.7933217815283  14.8218488292792 10.401812993417  C 14.2349947114615 9.83460761067619  13.6141442831712 9.3034947697691  12.9627278482852 8.81140214938507  C 12.7954621101423 8.63244597925145  12.5741433220918 8.51294089169958  12.3324916227869 8.47108700089879  C 12.0908399234821 8.429233110098  11.84209909387 8.46732461927002  11.6241584725347 8.57956333887367  C 11.1082523936601 8.8902273526974  11.2616338526132 9.40027161374649  11.2941684699192 9.88249632192231  C 11.3545898995852 10.8098515639679  11.4196551640021 11.7372068060135  11.3917683499105 12.6645620480591  C 11.3220513103529 14.8531203220033  9.65348679306894 14.931946768996  8.33815873447559 14.259614196403  C 7.75570325334346 14.0015926821108  7.24465493399136 13.6065163832543  6.84881378478127 13.1082452697135  C 6.45297263557117 12.6099741561727  6.18415305644167 12.0233783604895  6.06539071087347 11.3987311988704  C 5.89342201791527 10.3786404105104  5.66566948473289 9.36317401241031  5.50299640166621 8.34308322405027  C 5.31596501400609 7.09153645761099  4.69809924429517 5.94396490142253  3.7554323246297 5.09733943469319  C 3.63775545426545 5.00530149629362  3.53162778243286 4.89943974740316  3.43937097804545 4.782042048474  C 2.47172997013735 3.24562196396284  1.34377976754173 1.81571839838017  0.0743665413158544 0.516216535804365  Z " fill-rule="nonzero" fill="#ffffff" stroke="none" transform="matrix(1 0 0 1 152 202 )" />
  </g>
</svg>