<?xml version="1.0" encoding="utf-8"?>
<svg version="1.1" xmlns:xlink="http://www.w3.org/1999/xlink" width="14px" height="3px" xmlns="http://www.w3.org/2000/svg">
  <g transform="matrix(1 0 0 1 -226 -304 )">
    <path d="M 13.9414289826906 0.701889596792962  C 13.9414289826906 0.701889596792962  14 0.983379343715932  14 0.983379343715932  C 13.7829000448467 1.15437239158465  13.5487145479026 1.30133097717926  13.3013569823526 1.42178126157763  C 11.6980866098089 2.07197964765805  10.0084688426348 2.47177453367315  8.28911947949101 2.60776195900148  C 5.92272933158966 2.70928530858912  3.56085099526122 2.87078846291093  1.19446084735987 3  C 0.883449571853203 3  0.572441036704648 3  0 3  C 0.338055735414478 2.70004465832257  0.450743183585633 2.53853360985284  0.622024754046334 2.45546904734853  C 3.37154469243142 1.49561195398077  6.08050088280982 0.360390693070981  9.00580974343002 0.0558206305551972  C 10.6775774626316 -0.114575212645057  12.3653117977928 0.106354911942384  13.9414289826906 0.701889596792962  Z " fill-rule="nonzero" fill="#ffffff" stroke="none" transform="matrix(1 0 0 1 226 304 )" />
  </g>
</svg>