<?xml version="1.0" encoding="utf-8"?>
<svg version="1.1" xmlns:xlink="http://www.w3.org/1999/xlink" width="25px" height="3px" xmlns="http://www.w3.org/2000/svg">
  <g transform="matrix(1 0 0 1 -125 -183 )">
    <path d="M 15.079742540981 1.68083679587403  C 15.079742540981 1.68083679587403  15.0571126069249 1.96881484328135  15.0571126069249 1.96881484328135  C 16.4381814409535 2.10617215867099  17.8275109175962 2.17071829161778  19.2175113137582 2.16210841500377  C 20.6163827209194 2.1621084150038  22.0152553153577 2.07532711322202  23.3779100205914 2.03193381416704  C 23.5589937056222 2.45797713321757  23.3145357032283 2.61971337094679  23.0293289057135 2.68283089577616  C 22.6739527339185 2.74362211571724  22.3137427791099 2.78054869942636  21.9518787853417 2.79328608514793  C 18.4588267570786 3.12492019650189  14.9310019717608 3.05728108870594  11.4580688943336 2.59209511786934  C 10.6296110282348 2.46980490983851  9.81021348987224 2.36330084009523  9.04513490611375 2.82090289216906  C 8.85060434953757 2.90556845484815  8.62990868724899 2.93323279950107  8.41587629411482 2.89979257674162  C 7.58481591652165 2.8643929741273  6.75907464845717 2.76406238037705  5.94860559610085 2.59999251342552  C 4.11513322613818 2.11872136455799  2.32693194945346 1.5388262123407  0.516095126129761 0.994437550400353  C 0.336120371441078 0.924793826463461  0.16343323178185 0.841636647478087  0 0.745910364635679  C 0.117704389198669 0.651234077391617  0.181082578704299 0.552616792913261  0.253516050018233 0.552616792913261  C 1.258530499915 0.517113182992384  2.27260355059935 0.580225405615269  3.20065740096589 0.0910645734919208  C 3.51247982190118 0.0145257356170771  3.8450611360517 0.0340372853041364  4.1423002858238 0.146298187534176  C 4.87783801115346 0.354841210789771  5.67030858964877 0.354841210789771  6.40584631497843 0.146298187534176  C 7.20567898316025 -0.0602213444307692  8.05898267419851 -0.0478301466484506  8.85047326334771 0.181800351398739  C 10.7427976660083 0.655181817010438  12.6985047509391 0.674905074338581  14.6542085978414 0.698574146149596  C 15.7361836472684 0.698574146149596  16.8181552427983 0.777470573106682  17.9046573799662 0.809029335521369  C 19.5658380275249 0.855292959370473  21.2263845611558 0.701301032150323  22.8391849604056 0.351425825634671  C 23.3998771301997 0.237208632584695  23.9709514449586 0.165926594442855  24.5458936927763 0.138400791978004  C 24.6433407324013 0.150207489095089  24.7358390659823 0.183112147851193  24.8149246487438 0.234108570002199  C 24.8940102315054 0.285104992153205  24.9571593439816 0.352574011983786  24.9986028986072 0.430327548919968  C 25.0055723212546 0.519362053328488  24.9863707903438 0.608469195614598  24.9428017364261 0.689232105064856  C 24.8992326825084 0.769995014515114  24.8327416918166 0.839737546421935  24.7496183616356 0.891867717872015  C 24.4236076280717 1.0196229841975  24.0740921260833 1.09576674302785  23.7174419249646 1.11672679439365  C 21.476531442449 1.24690669743686  19.2356224710133 1.34946592555222  16.9992389683043 1.47964582859544  C 16.3563919154526 1.51514943851632  15.7180625060918 1.61377442353847  15.079742540981 1.68083679587403  Z " fill-rule="nonzero" fill="#ffffff" stroke="none" transform="matrix(1 0 0 1 125 183 )" />
  </g>
</svg>