<?xml version="1.0" encoding="utf-8"?>
<svg version="1.1" xmlns:xlink="http://www.w3.org/1999/xlink" width="86px" height="148px" xmlns="http://www.w3.org/2000/svg">
  <g transform="matrix(1 0 0 1 -69 -221 )">
    <path d="M 86 148  C 86 148  30.3810890000774 148  30.3810890000774 148  C 30.3438175364 147.713242899158  30.2586627635889 147.434864812931  30.1291973857029 147.176561149317  C 28.5399550056708 145.019032845715  27.5781651746872 142.576285443413  26.5934760563994 140.101338241138  C 25.7690852250764 138.022014622342  24.7111127311399 136.034687392366  23.7768031150275 133.996766305376  C 21.8715443242711 129.819717991285  19.9525508312068 125.647284533634  18.093091488615 121.447234764238  C 17.3053402158236 119.666928967615  16.7191017103982 117.808400498818  15.9267704927904 116.023494323391  C 15.3588567895778 114.712416416251  14.653546598178 113.456557422719  13.9894539446253 112.186881937705  C 12.2994526694367 108.966690479079  11.3468202166126 105.502674337308  10.5728087782706 101.969664358814  C 9.94535573784682 99.0990937924162  9.25836390618439 96.2377224481203  8.6125910864948 93.3717520411689  C 8.51552697825792 92.9806175396595  8.46782760149726 92.5787847225549  8.47061377993524 92.1756921591016  C 8.61717215055485 88.8864965539193  8.12253876554493 85.638709183854  7.8706415549524 82.3771151934227  C 7.72408318433279 80.4404000271862  7.27066821072596 78.5312684883336  6.95465171810584 76.6083542391517  C 6.67527481131597 74.8648505955301  6.42337566252111 73.1167488763646  6.14399875573124 71.3778455018682  C 5.79134267728087 69.2019161217653  5.41121162529519 67.0305904108386  5.05397560202837 64.8546610307357  C 4.80207839143584 63.336570793605  4.59598041061885 61.8092878054378  4.31660350382898 60.2911975683072  C 3.81738902746037 57.5034318461626  3.2632123742374 54.7294556344497  2.78231773173185 51.9416899123051  C 2.41134184671705 49.8071630640077  2.13196589537904 47.6588352986557  1.78846970656158 45.5013069950535  C 1.57321209544861 44.158027094358  1.40375565231351 42.8009598768123  1.06025946349605 41.4898819696719  C 0.258152226302112 38.4281256530351  -0.0921335603623222 35.2646654726786  0.0206089941372103 32.1007080074304  C 0.0134468553750824 31.2779267375963  0.0624176495728961 30.4556304685983  0.167170715662973 29.6395729094743  C 0.325365302383333 30.0865636148136  0.515148574248967 30.5216382378722  0.735079941901214 30.9414581752571  C 0.999702488163723 31.3383110417249  1.29690973718215 31.7122332781456  1.62359125639128 32.0593212694106  C 1.75464929062328 32.2408098957121  1.91762598212325 32.3967133569172  2.1044872092308 32.5193486206429  C 2.17286589562688 32.5673045864063  2.25144137578124 32.5985477295656  2.33396687134422 32.6106296825848  C 2.41649236690719 32.6227116356039  2.50068623837566 32.6152811015712  2.57984842056609 32.5889255112894  C 2.65901060275652 32.5625699210076  2.73096072723774 32.5180138401021  2.78996309368185 32.4588127948825  C 2.84896546012596 32.399611749663  2.89339406862339 32.3274054610385  2.91971760494841 32.2479201291657  C 2.9856443834962 32.1151844789909  3.01863763469269 31.9684090581725  3.0158926242865 31.8200980618606  C 2.95177333543425 30.7344335612113  2.88765404658201 29.64876105399  2.78689516507486 28.5630965533406  C 2.70445607648283 27.6430418508761  2.55332167157471 26.7505921632136  2.46172268652513 25.8351377298743  C 2.21898539286413 23.4245945147091  2.22814566467778 20.9588517991304  1.71061140904336 18.6081119729132  C 1.08773831343603 15.7743435595171  1.55947325739904 13.0877837581261  1.87548975001916 10.3276196507325  C 2.03578796873744 8.94753759703574  2.13196438713004 7.54446033974093  2.22356337217962 6.15057747866867  C 2.33348215014433 4.50367959635447  2.40217971177229 2.84757656926913  2.49377869682187 1.20067868695493  C 2.49377869682187 0.809655427439602  2.55790106018169 0.423228543442539  2.58996070460782 0.0322052839272097  C 2.58996070460782 0.0322052839272097  2.8510141741162 0  2.8510141741162 0  C 2.94261315916579 0.460027351232262  3.06169714999517 0.869454511484216  3.12123648720631 1.31108075879607  C 3.34565400160149 2.91197594985867  3.54259097354198 4.53128230789611  3.77158843275362 6.12297696070838  C 4.23365930878928 9.29856983950383  5.13065984030747 12.3947375248302  6.43711522398422 15.3235239853536  C 7.10120787753688 16.8278134151088  8.1179613049033 17.0900233809686  9.35454760648505 16.0365607641954  C 9.63392451327492 15.7973465503289  9.90413787241621 15.5489328950028  10.1880947240225 15.3189192193867  C 10.2293142683185 15.2821170321107  10.3254929183737 15.3189192193867  10.4812111922755 15.3189192193867  C 10.7789078783312 15.8341498549604  10.6094539603189 16.4137775678632  10.5499146231077 16.9796112186533  C 10.4903752858966 17.5454448694433  10.3483962996185 18.1434888493976  10.334656452373 18.7277235766882  C 10.3495184684381 19.1272877097028  10.4283861428312 19.521839262558  10.5682313449276 19.8961969797159  C 10.9388821033255 20.8483608872446  11.2614163609153 21.8187247198642  11.5346009023386 22.8035732088448  C 11.9565930026449 25.0842377627329  12.7619482574712 27.2761125050168  13.9161730804501 29.2853428641162  C 14.6123253477179 30.4354112421969  14.9466616469025 31.7970989098162  15.5191552949316 33.0299722418288  C 16.2611070649612 34.6262671637662  17.0488605762398 36.2041508090497  17.8686714627463 37.7636435779859  C 18.6197831224088 39.1897283229343  19.4808158053479 40.5606199288549  20.2181876305611 42.0005055908579  C 21.9539883539142 45.4047080338482  23.6439876636018 48.8319207064688  25.3614686076891 52.2453236877095  C 25.5522797273615 52.6007320701285  25.7680865322005 52.9420047127198  26.0072431198934 53.2665709300813  C 26.7829722422813 54.3404006206389  27.380023296062 55.5335832917304  27.7751037845452 56.7995776182042  C 27.8816597473372 57.2275784623891  28.0784489108758 57.627609115317  28.3521748659173 57.9726417482782  C 30.9535859239415 60.9582191524836  32.7901456516455 64.4130303688413  34.7641037238432 67.8402340477784  C 35.7167331192214 69.4917321992178  36.7792816269724 71.0604244096136  37.791450414159 72.6981217536775  C 38.2219656363849 73.3835625114007  38.6387418431202 74.0782138978485  39.0875768719106 74.7498538481962  C 39.779149194362 75.7849153884688  40.5027794926111 76.796981176748  41.189771870246 77.8320427170206  C 41.6477667886693 78.5082829364935  42.0782814649227 79.1845141622829  42.4629971843869 79.8929562656319  C 42.9954830058115 80.8544942236956  43.6720710041234 81.7280310723288  44.4690171633841 82.4829124992969  C 45.3171177781705 83.394306503881  46.0536135359287 84.4043333582967  46.6628097477146 85.491481268333  C 47.5558998604789 86.9267665515317  48.3528154452803 88.4172540771207  49.1863662208335 89.8893416229998  C 50.2122748424694 91.7294510279288  51.2244441756285 93.54196550853  52.2640926317138 95.3590735678333  C 52.5529855386921 95.8709812018616  52.8758308914058 96.3627930532788  53.2304552006769 96.8311667073448  C 54.6600190817131 98.7478338562041  55.8261707828963 100.849106011257  56.6974800875961 103.078345998874  C 56.8722116896158 103.522111399298  57.0725413073008 103.955246731925  57.297452312579 104.375598420849  C 58.2714548929618 106.14517025618  59.2530872204814 107.910146428907  60.2423562835857 109.670517725987  C 60.3464928921391 109.86430106042  60.4643569006184 110.050333841294  60.5950213159849 110.227160929001  C 62.5918792214593 112.784912975529  64.1444707959265 115.618690382609  65.7932524585725 118.401855945307  C 67.3459866410537 120.98431364049  69.0913779171386 123.444840897055  71.0144057101145 125.762293565024  C 71.7027347921928 126.62105949493  72.3055877864136 127.545535250923  72.814322385063 128.522457672417  C 74.0844206963736 130.835169572375  75.5492416244062 133.034448090427  77.1927526870379 135.096238413503  C 77.8373994930674 135.988742556823  78.4174917678014 136.926526057944  78.9285573413929 137.902394024884  C 80.2015894904674 140.137921036004  81.6601279130756 142.261601282607  83.2886639331001 144.250793934162  C 84.2458732732947 145.456065541744  85.1206497762823 146.748725591487  86 148  Z " fill-rule="nonzero" fill="#ffffff" stroke="none" transform="matrix(1 0 0 1 69 221 )" />
  </g>
</svg>