<?xml version="1.0" encoding="utf-8"?>
<svg version="1.1" xmlns:xlink="http://www.w3.org/1999/xlink" width="25px" height="26px" xmlns="http://www.w3.org/2000/svg">
  <g transform="matrix(1 0 0 1 -106 -182 )">
    <path d="M 0 0  C 0.454019100586887 0.262352064784139  0.699189411115175 0.361867682774269  0.908038201173774 0.497567035925044  C 2.74114525583778 1.79420779842634  4.68411848481101 2.92932465834973  6.71493944945612 3.89005072988922  C 8.32670723489025 4.62735051722055  9.86130072305257 5.52748731752769  11.4912292551907 6.20598405632053  C 13.1211577873289 6.88448079511337  14.8963719683594 7.42727820771646  16.6125641555883 8.01530869310143  C 16.9890862216987 8.10434599801135  17.3342917919296 8.293517676735  17.6113978635414 8.56263933464472  C 17.9724314664867 8.85711633903613  18.4072547123637 9.04791159125125  18.8690396397276 9.11448390102495  C 20.1235725738822 9.30895539188408  21.3334268367368 9.72401144657832  22.4421677444563 10.3402974773096  C 22.9461289526025 10.656929283354  23.6089857615035 10.7112128935233  24.1901301972651 10.9238085378058  C 25.0981683984389 11.2449636511285  25.0981772611284 11.3354299314974  24.8802480977177 12.2808020153915  C 24.4512753905364 13.7695173111433  24.0996964505857 15.2792954325845  23.826920459021 16.8041136073438  C 23.4273836526694 19.7352195275563  23.0096860725522 22.6844081081547  23.3729013584341 25.6562239017152  C 23.3729013584341 25.7512134421804  23.3184185128177 25.8507307115341  23.2730166020824 26  C 23.0955722853184 25.9776713687391  22.9196812123886 25.944436502172  22.746352782734 25.900486592815  C 20.9756782471465 25.3757824632467  19.2050027373397 24.8510739120682  17.4388683884283 24.3127998067433  C 15.2822776606405 23.647872989785  13.1801797811306 22.8743955335266  11.5048492739858 21.2686199399524  C 10.596811072812 20.4182373628222  9.72055417837029 19.5678503640819  8.78073467046448 18.7762708354902  C 7.84091516255867 17.9846913068986  6.86022780451324 17.2428682122891  5.86592594824878 16.5146150395141  C 5.41190684766189 16.1979832334697  4.88524248708055 16.0351440096887  4.44484394652168 15.7230355109225  C 4.01804585918695 15.4662372851744  3.66103762214112 15.1090056337785  3.40514325440165 14.682679366394  C 2.74681553690135 13.2126030990096  2.04308789431418 11.7741839432999  1.93866349928488 10.082465403596  C 1.82969891757957 8.47668981002174  1.35751906352326 6.91615278928115  1.03062529811111 5.31037719570694  C 0.744593266906299 3.95338371812127  0.417699501494149 2.63709784915623  0.122587096937332 1.29367429340511  C 0.0539967473956737 0.865507665562343  0.0130489850575218 0.433390544656107  0 0  Z " fill-rule="nonzero" fill="#ffffff" stroke="none" transform="matrix(1 0 0 1 106 182 )" />
  </g>
</svg>