<?xml version="1.0" encoding="utf-8"?>
<svg version="1.1" xmlns:xlink="http://www.w3.org/1999/xlink" width="4px" height="4px" xmlns="http://www.w3.org/2000/svg">
  <g transform="matrix(1 0 0 1 -160 -118 )">
    <path d="M 0.00621662516572563 0.873561818487823  C -0.0359215113911844 0.356788095993187  0.127947270535103 -0.0101225140265801  0.750655283891609 0.000212960192296752  C 0.802157448468917 0.346451362888295  0.844304155958292 0.656513057755443  0.891124306525401 0.96657730357307  C 0.922490664695243 1.25352025041872  0.975740828565053 1.53703689329384  1.05031115729035 1.81409371678762  C 1.22354571403981 2.33086743928226  1.51850913970471 2.81663095334792  2.07098688360589 2.81146321623848  C 2.31733620358524 2.79659733722962  2.5532726603873 2.69686949489215  2.74559825931862 2.52630562153368  C 2.93792385824994 2.35574174817522  3.07696573865154 2.12292563162199  3.14317231636116 1.86060145933024  C 3.28024632880835 1.41810641908667  3.39589482404702 0.967877060384218  3.48963685311472 0.511821789809823  C 3.66287140986418 0.511821789809823  3.77992372058478 0.511819895479802  3.79865178011395 0.558329532352446  C 3.9889489459588 1.04112473427016  4.04603257710616 1.57513873888259  3.96275377634517 2.09355809512826  C 3.87947497558418 2.61197745137393  3.65953178108735 3.09177964266098  3.33045005816374 3.47293295020432  C 2.51577944597046 4.20158388167257  1.8322088121102 4.17057496211956  1.02222021043875 3.40574984297082  C 0.705214286009302 3.08259485264638  0.451531247840697 2.69120960641551  0.276795588374665 2.2557122520707  C 0.102059928908633 1.82021489772589  0.009967552305502 1.34983587401492  0.00621662516572563 0.873561818487823  Z " fill-rule="nonzero" fill="#ffffff" stroke="none" transform="matrix(1 0 0 1 160 118 )" />
  </g>
</svg>