<?xml version="1.0" encoding="utf-8"?>
<svg version="1.1" xmlns:xlink="http://www.w3.org/1999/xlink" width="11px" height="17px" xmlns="http://www.w3.org/2000/svg">
  <defs>
    <mask fill="white" id="clip23">
      <path d="M 11 0.85  C 11 0.85  11 17  11 17  L 5.49927316393171 12.75  L 0 17  C 0 17  0 0.85  0 0.85  C 0 0.624565975368023  0.0827805282814162 0.408365315943956  0.230130536215646 0.248959398269653  C 0.377480544149876 0.0895534805953502  0.577329893197332 0  0.785714285714286 0  C 0.785714285714286 0  10.2142857142857 0  10.2142857142857 0  C 10.4226701068027 0  10.6225202051657 0.0895534805953502  10.7698702130999 0.248959398269653  C 10.9172202210341 0.408365315943956  11 0.624565975368023  11 0.85  Z " fill-rule="evenodd" />
    </mask>
  </defs>
  <g transform="matrix(1 0 0 1 -1236 -249 )">
    <path d="M 11 0.85  C 11 0.85  11 17  11 17  L 5.49927316393171 12.75  L 0 17  C 0 17  0 0.85  0 0.85  C 0 0.624565975368023  0.0827805282814162 0.408365315943956  0.230130536215646 0.248959398269653  C 0.377480544149876 0.0895534805953502  0.577329893197332 0  0.785714285714286 0  C 0.785714285714286 0  10.2142857142857 0  10.2142857142857 0  C 10.4226701068027 0  10.6225202051657 0.0895534805953502  10.7698702130999 0.248959398269653  C 10.9172202210341 0.408365315943956  11 0.624565975368023  11 0.85  Z " fill-rule="nonzero" fill="#ffffff" stroke="none" fill-opacity="0" transform="matrix(1 0 0 1 1236 249 )" />
    <path d="M 11 0.85  C 11 0.85  11 17  11 17  L 5.49927316393171 12.75  L 0 17  C 0 17  0 0.85  0 0.85  C 0 0.624565975368023  0.0827805282814162 0.408365315943956  0.230130536215646 0.248959398269653  C 0.377480544149876 0.0895534805953502  0.577329893197332 0  0.785714285714286 0  C 0.785714285714286 0  10.2142857142857 0  10.2142857142857 0  C 10.4226701068027 0  10.6225202051657 0.0895534805953502  10.7698702130999 0.248959398269653  C 10.9172202210341 0.408365315943956  11 0.624565975368023  11 0.85  Z " stroke-width="4" stroke="#b1b1b1" fill="none" transform="matrix(1 0 0 1 1236 249 )" mask="url(#clip23)" />
  </g>
</svg>