<?xml version="1.0" encoding="utf-8"?>
<svg version="1.1" xmlns:xlink="http://www.w3.org/1999/xlink" width="20px" height="43px" xmlns="http://www.w3.org/2000/svg">
  <g transform="matrix(1 0 0 1 -148 -105 )">
    <path d="M 8.703092923128 35.9646155087805  C 8.6664444040023 35.8632250680079  8.72599545135074 35.7341838138532  8.77180610196445 35.4760990530255  C 9.94913977461134 35.9369646953984  10.8332808776243 36.5683579345958  10.9432264350014 37.8311297990927  C 11.0378505109909 38.4373843869214  10.9613465705667 39.0581831544722  10.7224215628666 39.622834996638  C 10.4834965551665 40.1874868388038  10.0917620530946 40.6732929658922  9.59182065021506 41.0249253252559  C 9.27474505064582 41.2863778478677  8.88709836670766 41.4463039957336  8.4788488969761 41.484089162736  C 8.07059942724455 41.5218743297385  7.66045882146063 41.4357826759858  7.30128771677658 41.2369195826866  C 7.01576666659385 41.0373731660465  6.67090549207382 40.9422584501517  6.32414856690994 40.9674155714821  C 5.97739164174605 40.9925726928124  5.6496692238967 41.1364914753318  5.39556300200748 41.3751877141004  C 5.06847474917374 41.6089342641063  4.75491628748741 41.8612778232875  4.45643629023978 42.1310000540502  C 3.37988606054781 43.1495131412749  2.77519730791831 43.2463056020102  1.19014880282752 42.5596157904795  C 1.37021752201351 42.4880892003134  1.55766913706593 42.4370681614251  1.74902531089786 42.4075222523746  C 2.99507500212981 42.4075222523746  3.75095284488201 41.5641460183371  4.4426936544725 40.7161532209879  C 4.69367708126268 40.3172688005714  4.8300408835912 39.8562808080082  4.83667251363625 39.3842447635687  C 5.00617192056568 37.4163484794269  4.67174745023341 35.4853192139349  4.3144243938775 33.5635094500787  C 3.69139954826153 30.1853643266468  2.48200407613148 26.9869585002709  1.42835914956082 23.7286383295818  C 0.951594628069386 22.1417453728602  0.60231096831059 20.5188883825486  0.383876917649475 18.8757236779755  C 0.191472193946093 17.6129518134787  0.209797009853928 16.3133123809372  0.141081032226778 15.0321059083261  C 0.141081032226778 14.7002826326322  0.141078236849233 14.3684560331005  0.09526758623552 14.0412414369049  C -0.262055470120383 11.1101358898812  0.360969402800866 8.4693801454515  2.38580016470542 6.26183373606602  C 3.25162144184959 5.34010245132026  4.16783252910196 4.41837138633236  5.06114022460227 3.4966401015866  C 5.26728814383108 3.28925056801275  5.56048414027703 3.12333612825302  5.67042969765415 2.87446867148256  C 6.10563086653837 1.88360749642929  6.98519355071245 1.49187023352861  7.90140654933408 1.23839412472958  C 9.77964315281998 0.777528482356694  11.6762057463405 0.34892766542613  13.5865098834174 0.0401476773447745  C 14.6556664999225 -0.104435745663395  15.7407485905017 0.144325592095144  16.6420715310832 0.740658387096669  C 17.5582845297049 1.29830583194848  18.4286958236036 1.88361062797884  19.2853549794992 2.5103879081987  C 19.5624489391355 2.78501560145397  19.8026956586797 3.09488075386392  20 3.43211919294446  C 19.4227858152372 3.89298483531734  19.0562894151647 3.51507023213442  18.6714799677579 3.37681053392861  C 17.988901279416 3.12794307715815  17.2971649478906 2.83298823480539  16.6145862595487 2.64864197510926  C 15.6799035359239 2.44552322958415  14.7057027613279 2.53725737249812  13.8247202301507 2.91133876674259  C 12.5282788720518 3.37220440911547  11.3051316441926 3.87915920886842  10.3431080393283 4.9161069042074  C 10.1139756862908 5.09605087824339  9.84259022209019 5.21350823187594  9.5551643013017 5.2571429789223  C 9.30589034856822 5.3238889840016  9.04633311998812 5.3426574832856  8.79013427642113 5.31245163793815  C 6.89357343043817 5.04975822508197  5.51467352720807 6.02217855639158  4.181583574894 7.19277727043807  C 2.6520724703847 8.52202028473423  1.63005693695977 10.3453325964733  1.29091881158705 12.3498653732666  C 0.764096348301721 15.0551466412535  1.29092339887328 17.6175587074443  1.86813758363606 20.1845804145741  C 2.37205474380006 22.4474306483025  2.94927116759541 24.6918436368221  3.53106641298246 26.9362592624362  C 4.04872675501926 28.9271989165999  4.63968783517225 30.8950967390468  5.15276711658479 32.8860363932105  C 5.58338722484474 34.5589787277659  5.9681955800405 36.2503555605567  6.3255186363964 37.9555584593122  C 6.33442809340097 38.3585079606826  6.3206645673916 38.7616395863822  6.28429072909453 39.1630241920086  C 6.29078358434504 39.4361926930521  6.40053904708958 39.6966043325447  6.59121425466429 39.8911997830796  C 6.95757139783349 40.1071450808679  7.38269339780291 40.2003086834415  7.80513819745864 40.1572298619823  C 8.22758299711438 40.1141510405229  8.62547172593368 39.937052151362  8.94130326986131 39.6515406477636  C 9.26693623344481 39.3767535201786  9.48749510552943 38.9966389210269  9.56521613763606 38.5762671810786  C 9.6429371697427 38.1558954411303  9.57298302758707 37.7214122521622  9.36733895894816 37.3472124358992  C 9.14744784419392 36.8863467935263  8.90924084235682 36.4254811511534  8.703092923128 35.9646155087805  Z " fill-rule="nonzero" fill="#000000" stroke="none" transform="matrix(1 0 0 1 148 105 )" />
  </g>
</svg>