<?xml version="1.0" encoding="utf-8"?>
<svg version="1.1" xmlns:xlink="http://www.w3.org/1999/xlink" width="16px" height="19px" xmlns="http://www.w3.org/2000/svg">
  <defs>
    <mask fill="white" id="clip24">
      <path d="M 0 2.375  C 0 2.375  0 19  0 19  C 0 18.3701108371218  0.252856492996216 17.7660199925303  0.702943801879883 17.3206210931142  C 1.15303111076355 16.8752221936981  1.76348042488098 16.625  2.4 16.625  C 2.4 16.625  16 16.625  16 16.625  L 16 0  C 16 0  2.4 0  2.4 0  C 1.76348042488098 0  1.15303111076355 0.250222571194172  0.702943801879883 0.695621470610301  C 0.252856492996216 1.14102037002643  0 1.7451108371218  0 2.375  Z " fill-rule="evenodd" />
    </mask>
  </defs>
  <g transform="matrix(1 0 0 1 -1185 -37 )">
    <path d="M 0 2.375  C 0 2.375  0 19  0 19  C 0 18.3701108371218  0.252856492996216 17.7660199925303  0.702943801879883 17.3206210931142  C 1.15303111076355 16.8752221936981  1.76348042488098 16.625  2.4 16.625  C 2.4 16.625  16 16.625  16 16.625  L 16 0  C 16 0  2.4 0  2.4 0  C 1.76348042488098 0  1.15303111076355 0.250222571194172  0.702943801879883 0.695621470610301  C 0.252856492996216 1.14102037002643  0 1.7451108371218  0 2.375  Z " fill-rule="nonzero" fill="#ffffff" stroke="none" fill-opacity="0" transform="matrix(1 0 0 1 1185 37 )" />
    <path d="M 0 2.375  C 0 2.375  0 19  0 19  C 0 18.3701108371218  0.252856492996216 17.7660199925303  0.702943801879883 17.3206210931142  C 1.15303111076355 16.8752221936981  1.76348042488098 16.625  2.4 16.625  C 2.4 16.625  16 16.625  16 16.625  L 16 0  C 16 0  2.4 0  2.4 0  C 1.76348042488098 0  1.15303111076355 0.250222571194172  0.702943801879883 0.695621470610301  C 0.252856492996216 1.14102037002643  0 1.7451108371218  0 2.375  Z " stroke-width="4" stroke="#b1b1b1" fill="none" transform="matrix(1 0 0 1 1185 37 )" mask="url(#clip24)" />
  </g>
</svg>