<?xml version="1.0" encoding="utf-8"?>
<svg version="1.1" xmlns:xlink="http://www.w3.org/1999/xlink" width="13px" height="4px" xmlns="http://www.w3.org/2000/svg">
  <g transform="matrix(1 0 0 1 -142 -160 )">
    <path d="M 0.0366781775984637 1.51946739731642  C 0.0366781775984637 1.51946739731642  0 1.36800458740187  0 1.36800458740187  C 0.416855018907997 1.42565199681992  0.828048304419428 1.52067091598728  1.22892186201522 1.65200638453303  C 3.47125177413851 2.59871756341337  5.76401724163915 2.56085547235128  8.13015677544641 2.32417767763119  C 9.63751379044524 2.2423947588076  11.0564138706549 1.56429613660815  12.092071666315 0.430755319870499  C 12.2521279486222 0.277315344039904  12.4291221058314 0.143859247466563  12.6194061823177 0.0331383582206957  C 12.66984714259 -0.00473008808809238  12.7569662941267 0.0331348914018831  13 0  C 12.2892410323589 0.852040038420958  11.8994806221285 1.82715836591978  10.7897794551397 2.10643815127524  C 10.3657557279209 2.21043170506599  9.97921767370949 2.43701438438496  9.67548214585585 2.75965673034309  C 9.24808680278779 3.2283905248167  8.69069087590907 3.54915899701483  8.07972253200312 3.67796772951032  C 6.37576706092864 4.16709053787422  4.56668248780641 4.09762657704636  2.90264184496411 3.47916647151851  C 2.62904310953062 3.37699343845114  2.36874470685069 3.24025140424854  2.12768414979138 3.07207315285354  C 1.42151071964494 2.56558264732407  0.752022682734248 2.03542500560616  0.0366781775984637 1.51946739731642  Z " fill-rule="nonzero" fill="#000000" stroke="none" transform="matrix(1 0 0 1 142 160 )" />
  </g>
</svg>