<?xml version="1.0" encoding="utf-8"?>
<svg version="1.1" xmlns:xlink="http://www.w3.org/1999/xlink" width="94px" height="111px" xmlns="http://www.w3.org/2000/svg">
  <g transform="matrix(1 0 0 1 -79 -71 )">
    <path d="M 5.57668080204266 62.8825084193556  C 5.57668080204266 62.8825084193556  6.13942098868788 63.6243476451205  6.13942098868788 63.6243476451205  C 6.23564988903985 63.9006837535154  6.35124799676382 64.1699970246858  6.4853674785944 64.4303033347503  C 7.28796333957645 65.8040838194461  7.69387009145072 67.3289784848474  8.18280777079164 68.8218199405164  C 8.26876649332327 69.0354095811941  8.30901431741536 69.264419778196  8.30098785526471 69.49428817094  C 8.29296139311406 69.7241565636839  8.23683665031792 69.9498483828911  8.13618607586283 70.1570159533876  C 8.03553550140775 70.364183523884  7.89256558495821 70.5482951425357  7.71635855762484 70.6976317782823  C 7.54015153029147 70.846968414029  7.33456750749027 70.9582646814755  7.11268406182352 71.0244468663265  C 5.67354671659966 71.6197517211924  4.37278651568916 71.1435078372997  3.45026254260511 69.6506663816308  C 3.85156047309614 69.0278858886846  4.58496726704109 69.0690987453246  5.17999521208455 68.8630316780791  C 5.77502315712801 68.6569646108337  6.46691784496584 68.7256536514452  6.52226928211368 67.9471780216153  C 6.59145858284432 67.0313243651514  6.91895179281583 66.0101536980319  6.01487828159772 65.2774707619429  C 5.53055321772328 64.888232947028  4.99548844894339 64.5630970752689  4.47887502181686 64.2104934262646  C 3.29343174719642 63.4045422129436  2.08492649497784 62.6352352099334  0.927158913156296 61.7880705667865  C 0.119950436707756 61.201924239751  -0.110682192417988 60.4142861516732  0.0461468846559009 59.3656337324907  C 0.306502540638878 57.1449367122523  0.879441333023199 54.9714892059169  1.74820468613715 52.9088626594569  C 2.00301047811841 52.3401404736524  2.33008896454842 51.8061328269366  2.72146775927279 51.3198560064994  C 3.48255002606979 50.4040023500356  4.60341519951819 50.4040076451814  5.53055178806872 51.1321113173551  C 6.31521406229374 51.7911990964903  7.14603768268037 52.3941207183354  8.01675317410454 52.9363371511654  C 10.3230631068147 54.3101176358612  12.9153571779684 53.2065153598355  14.2022781028249 51.1275275771311  C 15.4891990276814 49.0485397944267  15.9827516319308 46.7268557188826  16.3379233527703 44.3639533550799  C 16.5547164858952 42.921483802478  16.8453098443757 41.4790104286369  16.6100662356382 39.9953275007984  C 16.5875162840082 39.6828899072414  16.6416231931179 39.3696843537775  16.767752294392 39.0825622790586  C 16.8938813956661 38.7954402043397  17.0882732577982 38.5429715698237  17.3342509328929 38.3467951116087  C 19.3038396066294 36.3548134524712  19.9173143844157 33.7675211520198  20.2494230279228 31.1573383184404  C 20.373963769238 30.1727955940704  19.8481250974318 29.0966715218142  19.5575300481098 28.0846532139531  C 19.1535132720659 26.8235162018891  18.5012841058953 25.6545666954315  17.6386784949031 24.6456182619897  C 17.3157951098224 24.2426426553292  16.9836864663153 23.8488264226305  16.7161545218191 23.4229544690995  C 16.5308054721973 23.1431503677466  16.396526975664 22.8331333654746  16.319468931861 22.5071008126357  C 16.2651095959319 22.3515467613631  16.2503527806429 22.1850642388379  16.2765071525968 22.0224750950807  C 16.3026615245508 21.8598859513234  16.3689142701456 21.706240977523  16.4693706315279 21.5752320150233  C 16.5698269929101 21.4442230525236  16.7013684432883 21.339915033263  16.8522681930492 21.2716011496365  C 17.00316794281 21.20328726601  17.1687467944501 21.1730866698224  17.3342509328929 21.1836925585417  C 18.7028880528912 21.2041534607657  20.0566285023308 20.8995648068836  21.2826524115647 20.2953133937864  C 23.7411787646422 19.0085390326574  24.2485681155568 16.9387147999835  24.0225497377522 14.676556242315  C 24.0225497377522 14.5529159937794  23.8841680432883 14.4384287049827  23.6950506304557 14.1270384585096  C 23.5226450545881 14.4321511185862  23.3686205885938 14.7471532003796  23.2337886439136 15.0703735940908  C 23.0538964757607 15.6290443376352  22.924743118979 16.2014469772989  22.7725266573716 16.7601177208432  C 22.7134355703875 17.0321321168471  22.5815697190185 17.2833010387226  22.390811530142 17.4871855642399  C 22.2000533412656 17.6910700897572  21.9574559056629 17.8401352332801  21.6885581736781 17.9186790246861  C 20.8677398257452 18.1154075973808  20.0280823148671 18.2243997616321  19.1839089651386 18.2438031597818  C 18.7865953719232 18.2785068253979  18.3890186672827 18.1801098299252  18.0546067952983 17.9643137920687  C 17.720194923314 17.7485177542122  17.46821444491 17.4277595623517  17.3388610189705 17.0531975988242  C 17.1919536345455 16.6130844598681  17.1792483632351 16.1396969795945  17.3023392836164 15.6924416442771  C 17.4254302039978 15.2451863089596  17.6788341646997 14.843983811891  18.0307539987836 14.5391767963637  C 19.2150043916367 13.3850626507368  20.4705286727774 12.3053177905426  21.7900363737813 11.3062145070317  C 23.0769572986378 10.3903608505678  24.1424770250535 9.32796889278747  24.677540914046 7.68401161873902  C 27.4451128332981 8.96620671595276  29.6407175753972 8.03661526774335  31.5365044016701 5.85230430581132  C 31.9654780524533 6.76815796227517  31.702561527746 7.82596809045116  32.7357883819991 8.44874858339727  C 32.9767262223551 8.15790838831826  33.1740303595522 7.834005302924  33.3215860373319 7.48709944914668  C 33.8797130586435 5.40811166644225  37.1639076977768 4.57926522532788  38.9167032246418 6.65825300803231  C 39.8807407369242 7.80764934252732  40.8586111468018 8.94789053371812  41.9241263093202 10.0102807446463  C 44.2857876276281 12.3457075249578  47.224022690017 12.8906402038109  50.3237031428028 12.1350609481461  C 51.7021318568853 11.8196000992885  52.976521639607 11.1597318866297  54.0259612164248 10.218058335044  C 55.0754007932425 9.27638478345831  55.8650865161656 8.08413565291859  56.3201089678491 6.75442071642092  C 56.3967958788279 6.43826934233988  56.5558678708275 6.1476948598602  56.7813709543912 5.91183702945231  C 57.5701949530302 5.3524079882773  58.1210349975739 4.52151046971157  58.3266014246267 3.58098416332105  C 58.346838666008 3.53105157652808  58.3780460213985 3.48623673108242  58.4179444736584 3.44979556163565  C 58.4578429259182 3.41335439218888  58.5054269880004 3.38620917530012  58.5572324178977 3.37034173528334  C 58.2205111589241 5.16541493688953  57.7776968849123 6.91927629175473  56.5507399611201 8.36632510827179  C 56.3610870051893 8.5398941598912  56.1965475673986 8.73868598341359  56.0618033815135 8.95704764223107  C 55.9091977651865 9.22352143241315  55.8507528476952 9.53300881092784  55.8957558231257 9.8362663139473  C 55.9806794688851 9.9447473925693  56.0924106634606 10.0295879550398  56.2201088106105 10.0825445272631  C 56.3478069577604 10.1355010994863  56.4871265880935 10.1547758549351  56.6245435681587 10.1384996975585  C 57.7407976107819 9.79505457638456  58.8339885760727 9.37376245995459  59.9364047722964 8.97994538112444  C 61.0572714303861 7.60616489642866  62.2427147050065 6.25985781165874  63.2805541747261 4.79907120339611  C 64.0693121893087 3.66799192456186  64.1338866063709 2.24842076592294  64.3737428305749 0.915853656463854  C 64.4244816488196 0.636518284691682  64.4567784353489 0.357182912919511  64.5121298724967 0  C 64.830400642111 0.0915853670111137  65.0748655502314 0.13737804710485  65.3008839280359 0.228963414115963  C 66.4833431836766 0.648800156995983  67.7362183149241 0.838482705732215  68.9909798203721 0.787634703551624  C 69.6530812736293 0.733026987504276  70.311664127076 0.927539824866734  70.8360277665402 1.33256874713304  C 71.3849295569188 1.79049557536496  71.4818013000675 2.03319454307209  71.1312421946945 2.64681650818783  C 70.4116735220826 3.90611528582563  70.4946922012587 5.27073888036498  70.6469086628662 6.61246451765444  C 70.7108047707013 7.10977642191882  70.9193651899491 7.57780341321114  71.2470644488836 7.95925264185431  C 71.574763707818 8.34070187049749  72.0073828402537 8.61902324914537  72.4919566090342 8.7601424600476  C 73.8475436222937 9.19717183165033  75.2355922619402 9.5278894694366  76.6433144879124 9.74925909859782  C 77.2245045865564 9.84542372952412  77.8656587412515 9.59356956392366  78.4883624340805 9.49740493299736  C 78.5611831467381 9.48145745678372  78.6322609936446 9.45844657338501  78.7005530830409 9.42871171631724  C 79.7706808610259 9.0303153735719  81.9293796756022 10.0789678473436  82.4552183336617 11.7183458574769  C 82.2541886266637 11.7583736693597  82.0508344525703 11.7859064554373  81.8463491330425 11.8007763200112  C 81.4219880977257 11.8007763200112  81.1913576749419 12.0846887175442  81.2559343533327 12.4281338387181  C 81.2994363701857 12.5563224400731  81.374570614456 12.6716662596432  81.4744735483115 12.7636482508155  C 81.5743764821669 12.8556302419878  81.6958805890906 12.9213224313794  81.8279087887319 12.9547468962213  C 83.322397629527 13.0875456725873  84.7892095678155 13.0554938685251  85.8916257640392 11.7916158269721  C 86.080624927944 11.5954248889899  86.2824817450896 11.4118552312393  86.4958778402814 11.2421050305756  C 87.6029066519716 12.3640257815795  88.7283858155543 13.4035177077229  89.7247117460755 14.5529140422179  C 90.9332180980284 15.9266945269137  91.1454014887426 17.7584048968328  91.5005732095821 19.4573134470418  C 91.5283300541787 19.5367649465323  91.5366797497118 19.6216204357186  91.5249538785485 19.7049052932266  C 91.5132280073852 19.7881901507346  91.4817548316147 19.8675193500989  91.4331181485619 19.9363701997209  C 91.3844814655091 20.0052210493429  91.3200752734241 20.0616292582555  91.2451955557782 20.1009446410256  C 91.1703158381323 20.1402600237958  91.0871013306485 20.1613610517207  91.0024023812214 20.162517688059  C 90.398149205245 20.2495237843313  89.775446062283 20.5380188030111  89.2588326351565 19.9060797822346  C 89.1896433344259 19.8190736859623  88.9405618655423 19.8694408841286  88.7975706486145 19.8511238114087  C 88.7975706486145 20.0480323508238  88.7191561100775 20.3090551159494  88.7975706486145 20.4281160869226  C 88.9667937172125 20.6682566530814  89.1999612200937 20.8569343250784  89.4710092075182 20.973050130504  C 90.3113138020433 21.3340457940437  91.1798171229881 21.6265525134347  92.0679164440056 21.8476850619963  C 92.3738766231938 21.8822438412328  92.6613750682397 22.0106486326089  92.8903839534562 22.2150201341243  C 93.1193928386727 22.4193916356396  93.278525735331 22.6895628841954  93.3456211557502 22.987925379761  C 93.989324659453 25.1714921826475  94.1606625445537 27.4655091760259  93.8483950318891 29.7194483572885  C 93.6752048918436 31.685220027368  93.6382073220891 33.66048147213  93.7376825830319 35.6312853867408  C 93.8022592614227 39.6198280781094  93.654653738187 43.6129497058584  93.5485634793578 47.601492397227  C 93.4793741786272 50.014766773275  93.3087162523549 52.4280354720533  93.2118512382053 54.8367306933644  C 93.1749502801068 55.7113709200024  93.26259005645 56.5905954873449  93.2118512382053 57.4606564500677  C 92.8336164125401 62.1681441220122  92.4369232069221 66.874113342665  92.0217874300316 71.5785483903559  C 91.9756612306901 72.1143227597352  91.8418935710372 72.645515681634  91.717352829722 73.3507229796427  C 91.717352829722 73.3507229796427  91.1500095952986 72.7141979804878  91.1500095952986 72.7141979804878  C 91.0515608263273 73.2349227266937  90.983792829046 73.7609066990413  90.9470531950922 74.289467387591  C 90.9239900954214 75.6632478722868  90.9470531950922 77.0736602847388  90.9470531950922 78.4657578250953  C 90.9470531950922 78.8687334317559  91.1315591334326 79.3816153983294  90.4581166154855 79.5144141746954  C 90.3520263566563 79.5144141746954  90.2643899594184 79.8853304303463  90.2597773396561 80.0822389697613  C 90.2597773396561 80.8881901830824  90.2597773396561 81.6941408505121  90.2597773396561 82.5000920638332  C 90.3254733894513 83.3085783964378  90.114165236006 84.1153933735923  89.6601283111923 84.7897262049928  C 89.4902246307986 85.0269837553307  89.3882187627256 85.3054960594673  89.3649279596367 85.5956818946227  C 89.2588377008075 87.1709502099433  88.6315213856386 88.5676214461236  87.9811420000106 89.9688775143105  C 87.6019547494772 90.8392030705555  87.2693802585315 91.7288261032694  86.984814419888 92.6340150085766  C 86.1358643743394 95.2448505098165  85.0841011139868 97.7863451489159  83.8390042932877 100.23560315219  C 83.232367608232 101.40908617687  82.4448890794908 102.481338897073  81.505019767513 103.413616458105  C 80.974568493987 103.921915243993  80.5363650758669 104.521803839083  80.0013011868744 105.020944097141  C 79.456188860858 105.616110077255  78.8232039722458 106.125633160898  78.1239755998634 106.532097040379  C 75.7530890506225 107.626542207892  73.3406813740168 108.633976666351  70.9236686701111 109.618519390721  C 68.7834131141412 110.488580353443  66.4770992223877 110.598490056941  64.2169154443424 110.928197386369  C 62.7471972382874 111.096265300109  61.2584391127954 110.968552947988  59.8395436965702 110.552694033263  C 59.0471589233113 110.36374128663  58.3351933735778 109.930993313345  57.8053731275784 109.316286007109  C 57.1503811264839 108.57444454319  56.4677116730157 107.855498852955  55.7712060777362 107.154870818862  C 54.8763577974511 106.261913481974  53.6955271382971 105.927639225774  52.5423721719421 105.593352632431  C 52.0073082829496 105.442236773109  51.4722437891033 105.31401167892  50.9417925155773 105.158316555683  C 50.4064911389683 105.00828991331  49.9163820501718 104.730326980549  49.5143268701529 104.348741388255  C 49.112271690134 103.96715579596  48.8105199465731 103.493573978377  48.6354825828672 102.969426875727  C 48.4094642050627 102.346646382781  48.1742189054837 101.728446846013  47.9851014926511 101.096507825237  C 47.4608826332041 99.4171317031205  46.7686211324358 97.7940737690263  45.918656801966 96.2516341566453  C 45.6976066112122 95.8307767880614  45.5287840177235 95.3848617524039  45.415882925827 94.9236491497362  C 44.9826374397355 93.170860034599  44.2860050450942 91.4928294254046  43.3494241585432 89.945986762826  C 42.6621437941967 88.7874319005006  42.2331639574081 87.4502911498069  41.080008991053 86.60312650666  C 40.7109993963208 85.0782302035848  39.2903169875067 83.970041676235  39.3548936658975 82.2757123899412  C 39.352307074775 82.1285614211506  39.3242245273341 81.9829498658783  39.2718698867036 81.8452600534178  C 39.0458515088991 81.2041625048109  38.6537838681187 81.0805228158139  38.1094947481932 81.4880776863896  C 37.9927799359205 81.5960484794542  37.8876537247761 81.7157497809441  37.7958258991296 81.8452600534178  C 37.7958258991296 81.8452600534178  37.1085500436936 81.5659313961088  37.1085500436936 81.5659313961088  C 37.0368406743802 81.6652779456476  36.9808357029565 81.7749153107897  36.9424884087072 81.8910555312045  C 36.8839102446619 82.2346980739739  36.8945242131631 82.5864524798538  36.9736962280481 82.9260025845859  C 37.0528682429331 83.265552689318  37.1990283441721 83.5861686628427  37.4037503952492 83.8693027831227  C 37.8419492769654 84.5012418038992  38.2017437583201 85.1835438297143  38.6537805139291 85.8063243226604  C 39.0690639576393 86.5048459259228  39.6951913157176 87.0559544643252  40.443479273968 87.3815937297637  C 40.6482766980828 87.4733741573902  40.8122923805522 87.636203923217  40.90474126051 87.8395205579956  C 41.3750533453018 88.750758812539  41.7924061315025 89.687992848387  42.1547573025912 90.6466142510282  C 42.7036590929699 92.276833733331  43.146462149692 93.939102604127  43.6307872135665 95.5922184060058  C 43.6307872135665 95.6242732841186  43.6307905918127 95.6609124619939  43.6630789310081 95.6975466074336  C 44.9361620094652 98.4954795890705  46.1769652476107 101.311727879516  47.4915618652661 104.095922960229  C 47.7920504265462 104.687082971491  48.2161793629444 105.207764564988  48.7356094294942 105.623146943887  C 49.2550394960439 106.038529322785  49.8578029719724 106.339046956335  50.5036020743216 106.504622548671  C 51.527820675214 106.806761766029  52.530912830831 107.175426383758  53.506408034623 107.608227881688  C 54.0348346973501 107.914533505357  54.5202712351622 108.288675869523  54.9501603047554 108.720986720335  C 55.3376203613536 109.055273313679  55.7020139589365 109.417029922422  56.0710235536688 109.774212835341  C 56.3477807565914 110.039810388073  56.6107000856211 110.314575448548  56.8782320301173 110.584752265195  C 56.8782320301173 110.584752265195  56.7583134857035 110.84119017102  56.7583134857035 110.84119017102  C 56.4197131932556 110.82697819931  56.0823351179868 110.791797081793  55.7481486090486 110.735861969592  C 54.5350295316558 110.447368069989  53.3265253791715 110.140557087432  52.1180190272187 109.820008313128  C 51.5091531807891 109.664313189892  50.9095064067805 109.485718935739  50.3098658462705 109.316286007109  C 49.9328363018765 109.23056173189  49.579648364201 109.062891336208  49.2757566752092 108.82533668452  C 48.9718649862175 108.587782032832  48.7248369686641 108.286257789338  48.5524588036733 107.942505522414  C 48.3681667086625 107.61901581322  48.1551376222914 107.312513586792  47.9159150099895 107.02665186595  C 47.7732722988533 106.836853902142  47.5871952526353 106.683471577125  47.3730509807234 106.579164226582  C 47.1589067088115 106.474856876038  46.9228473446827 106.422618410623  46.6843533888176 106.426768838951  C 44.1566376937694 106.289390785023  42.6298526403689 104.691228360986  42.4960866681208 102.135996694389  C 42.4545730876824 101.384996702639  42.5698947840698 100.606519981027  42.2285609096298 99.8738370449379  C 42.0031889556317 99.8347819022066  41.7713639946058 99.8847639876949  41.5826139480075 100.013110078695  C 41.3938639014092 100.141456169696  41.2631524857845 100.337990473317  41.2183960329749 100.560727287286  C 41.0659435821389 101.00740687103  40.9562960747128 101.467372848988  40.8909039639777 101.934507771982  C 40.7525253625164 102.795410206874  40.5172755677736 103.010642523237  39.6593282662071 102.91447789231  C 38.8391715734002 102.851465889409  38.0754459853016 102.475641374792  37.5283001406387 101.86582154271  C 36.9701731193271 101.233882521934  36.4074318329476 100.601945739312  35.8400795807031 99.9791652463657  C 35.5742355083709 99.6739401053829  35.3747436147954 99.317506182647  35.254098929587 98.9321858748963  C 35.1334542443786 98.5468655671456  35.0942612097956 98.1409541842682  35.1389664287347 97.739896348399  C 35.1896905242868 97.0478152255026  35.1896905242868 96.3529997329913  35.1389664287347 95.6609186100948  C 35.1112907101608 95.3449490997066  34.9083354354637 94.8457976747596  34.6777044421927 94.7908464566  C 34.1887667628518 94.6626269441491  34.0319294927575 95.1800909586836  33.8981635205094 95.5418531628129  C 33.7044334922103 96.0547312126162  33.5845053663616 96.5950904685912  33.4369015339674 97.1217063101401  C 33.3723248555766 97.3231941134704  33.2708480645079 97.5155121981982  33.1278568475802 97.854378055457  C 31.9612381644258 97.1617181239954  30.961503332588 96.223913031239  30.1988474560179 95.1068170860654  C 29.3178370771189 93.971158543316  29.7790937024564 92.5103814335623  29.4654355483086 91.2098692806878  C 29.1702278835201 91.2922961130449  29.0364680972773 91.2922854886351  28.9672787965467 91.3563952448605  C 27.8787005566958 92.3409379692305  26.6609679840491 92.3684246889045  25.3555965973267 91.8830222771815  C 24.8712715334523 91.7044308207217  24.3777174995483 91.5533071415072  23.8887798202074 91.388453476793  C 23.3375649587297 91.2182286782169  22.8443638295544 90.9002967977166  22.4634819709844 90.4696511337826  C 22.0826001124144 90.0390054698487  21.8288160079406 89.5123577209523  21.7300771015744 88.9477096312367  C 21.456993560995 87.8717600258459  21.5229975501337 86.7385367042687  21.9191891669491 85.7010100960504  C 22.6295326086281 83.9700466984351  23.4044533266784 82.2665482940194  24.7882392863045 80.92482265673  C 24.99473221199 80.7181389370037  25.1619352749264 80.4761348480033  25.2817929902881 80.2104579226736  C 25.3331110007717 80.1325075287781  25.367814365025 80.0449622488268  25.3837638713462 79.9531955026015  C 25.3997133776673 79.8614287563761  25.3965673059689 79.7673876972683  25.3745296225922 79.6768714311101  C 25.3524919392154 79.5863551649519  25.3120241459301 79.501280200161  25.2556175549862 79.4268759162712  C 25.1992109640422 79.3524716323814  25.1280662361085 79.2903151708249  25.0465519109395 79.2442390230167  C 24.9026620736429 79.1876046172127  24.7480693199623 79.1627730651468  24.5935317729424 79.1714721469607  C 24.4389942259224 79.1801712287746  24.2882216191903 79.2221853481038  24.15170253092 79.2946042662097  C 23.0415272694978 80.0310619315885  22.1281762899687 81.0242418029904  21.4902188978487 82.1887051745917  C 21.3887412613594 82.3810344364443  21.319554215084 82.5962639619377  21.2042387184485 82.7794346959599  C 20.8444543821425 83.3747395508258  20.489282661303 83.4525843352219  19.9357682554579 83.0770843393471  C 18.3813154135985 82.0192733923341  18.1414588594743 81.1034197358703  18.9625051823223 79.4136697134917  C 19.3056984049931 78.7634127090392  19.6136454466013 78.0954158198171  19.8850291554063 77.412531710089  C 20.1710115892618 76.5928427050224  19.8250650993553 76.2219236380313  18.9625051823223 76.3409846090044  C 18.7784495164337 76.3554061671566  18.59785519544 76.3986817457921  18.4274395887417 76.4692035619167  C 17.1635817412176 77.0919840548628  15.8997247734809 76.7576991537823  14.6589300032893 76.4279918243539  C 14.2449299494772 76.2773882157987  13.8721438672471 76.0327533264138  13.5703514335181 75.7136270902975  C 12.5916566628285 74.7123271401206  11.8261145336558 73.5255869264116  11.3193906869373 72.2242129203233  C 10.5998220143253 70.5756763823597  9.90792815472488 68.9179873213702  9.20680994397888 67.2648715194914  C 9.1864844472037 67.1949002961744  9.15536615482436 67.1284800685903  9.11455895433035 67.0679663373079  C 8.04443117634542 65.96894190588  7.3940516257573 64.5173161181913  6.13019377823322 63.5785661421515  C 6.02410351940402 63.2992307703793  5.91340458353171 63.0198831160525  5.80270170923602 62.7359684803651  C 5.80270170923602 62.7359684803651  5.57668080204266 62.8825084193556  5.57668080204266 62.8825084193556  Z M 78.0317175719155 69.4629147050775  C 77.985591372574 69.7193537299792  77.9256301311554 69.84757324243  77.962531089254 69.9208415333094  C 78.1700989776992 70.3787683615414  78.4237846353354 70.8366951897733  78.6313525237807 71.2946220180052  C 78.8384130910585 71.6664356643947  78.9088490849291 72.0981482729108  78.8305927019275 72.5158394172577  C 78.7523363189259 72.9335305616045  78.5302582134192 73.31122127393  78.2023822546803 73.5842561591649  C 77.8843752288383 73.8679470340007  77.4837457993193 74.0439166119873  77.0583911540857 74.0867207315855  C 76.6330365088521 74.1295248511837  76.2049866623525 74.0369553274207  75.8361060114639 73.8223870537288  C 75.6441174123881 73.6290324851544  75.5336059421174 73.3702814194565  75.527068363376 73.0988548392244  C 75.5636927486146 72.7000297534375  75.5775510792833 72.2994687878465  75.568580252973 71.8990887852276  C 75.208795916667 70.2230765545946  74.821336959803 68.5424851692246  74.3877506935533 66.8618936746764  C 73.8711372664267 64.8836496981062  73.2761053623399 62.9283006217944  72.7548793197469 60.9500566452241  C 72.1690766056364 58.7199530441402  71.5878842525371 56.4898520633346  71.0804960563435 54.24143140659  C 70.494693342233 51.6816203668994  69.968850175263 49.1355472281327  70.499301448789 46.4566753266472  C 70.8407755943357 44.4649249070722  71.8698309915264 42.653239795928  73.40987753434 41.3324730007465  C 74.7521499547677 40.169338874506  76.140547430126 39.2031124142543  78.0501719928248 39.4641307030712  C 78.3081355618012 39.4941439340051  78.5694806487107 39.4755021037161  78.8204716274547 39.4091817196542  C 79.1098773691458 39.3658252194544  79.3831321658451 39.249109871829  79.613842807371 39.0703133512954  C 80.5824929351198 38.0399779877735  81.8140653336876 37.5316834052486  83.1194367204101 37.0783358409318  C 84.0064875547705 36.7066398614161  84.9873996097039 36.6154906820395  85.9285205292592 36.8173141948834  C 86.6342513554716 37.0004849289056  87.3123019799747 37.2752418692468  87.9995823443212 37.5408394219789  C 88.3870424009195 37.6782174759074  88.7560632679281 38.0353981506725  89.3372533665721 37.5957884053959  C 89.1385899715587 37.2607004435966  88.8966884065648 36.9528112165062  88.6176857936944 36.679934748932  C 87.7551258766614 36.0571542559859  86.8602686335419 35.4755888851287  85.9561951223238 34.9214974054995  C 85.0486637716139 34.328967261617  83.956106638172 34.0817922034539  82.8795855549838 34.2254536575214  C 80.956123035912 34.5322646400793  79.0464967136383 34.9443945985016  77.1553226128054 35.4160592184791  C 76.2327986397214 35.6450226325951  75.3471778723178 36.0571581318143  74.9089789906016 37.0417008561842  C 74.7982761163059 37.2889813532555  74.5030605540506 37.4538378020154  74.2954926656054 37.6599048692609  C 73.3960317698538 38.5757585257247  72.4735095013578 39.4641365986974  71.6017243533918 40.4074658386524  C 69.5675590631245 42.6009353284148  68.9402426998422 45.2248512590744  69.2954144206817 48.1372659477693  C 69.3323153787803 48.4623939859879  69.3230929556064 48.7921054914849  69.3415434346556 49.1218128209133  C 69.4107327353863 50.3948493902966  69.3922816961599 51.6862013776668  69.586011724459 52.9409208913894  C 69.8059503725418 54.5736075840958  70.1576399635087 56.1861160592798  70.6376884907108 57.7628898336789  C 71.6801405758969 61.000432587887  72.9163170669905 64.1738636820736  73.5436333752861 67.5350466711701  C 73.9034177115921 69.4446015798343  74.2401457339314 71.3633171998941  74.0694787967114 73.3186647477102  C 74.0628014872796 73.7876907474101  73.9254983962973 74.2457251708209  73.6727861684539 74.6420660143952  C 72.9762805731744 75.4846513936269  72.2151960519221 76.3226636229262  70.960563435331 76.3226636229262  C 70.7678891794286 76.3520211257963  70.5791463773298 76.4027028426576  70.3978373252845 76.4737733273229  C 71.9938038163157 77.1560843057556  72.6026578406019 77.0599230388846  73.6866234649862 76.0479047310235  C 73.9871594248135 75.7799024451493  74.3028777111773 75.5291680118216  74.6322189833566 75.2969119996284  C 74.8880755164502 75.0597378614839  75.2180553218425 74.9167368096745  75.5672007462993 74.8917401084257  C 75.9163461707562 74.8667434071769  76.2635827864331 74.9612516025451  76.5510705365633 75.1595255662681  C 76.9127156507546 75.3571205640163  77.3256809096014 75.4426632348417  77.7367424459393 75.4051190135138  C 78.1478039822773 75.3675747921859  78.5381208185997 75.2086684496205  78.8573804692734 74.9488831382304  C 79.3607655227353 74.5994930422404  79.7551983345259 74.116784767942  79.9957690835812 73.5557335561247  C 80.2363398326365 72.9946823443073  80.3133707404963 72.3778422406902  80.2180948836131 71.7754535725394  C 80.1073920093174 70.5482096423079  79.2125482310695 69.9391585889702  78.0317175719155 69.4629147050775  Z M 51.9980864062062 45.5270844243291  C 51.9980864062062 45.5270844243291  50.8541516120064 45.0966320878057  50.8541516120064 45.0966320878057  C 50.1929663473731 44.778068720228  49.500505629741 44.5279404992095  48.7877069213213 44.3502091218168  C 47.3170847336929 44.0897170176419  45.8011376577917 44.3627626569358  44.5164164214306 45.119529826699  C 42.795909202831 46.177340773712  41.1399775010279 47.3358920331547  39.470209162533 48.4715505759041  C 39.2001795565398 48.6624991284919  38.9699268306191 48.9035279690043  38.7921534792523 49.1813385571454  C 38.7070546114563 49.2686351494829  38.6459534095457 49.3761544358379  38.6146897993104 49.4936058599055  C 38.583426189075 49.611057283973  38.5830427564103 49.7345141812621  38.613591824611 49.8521507716649  C 38.6441408928116 49.9697873620677  38.7046025889317 50.0776683218923  38.7891692403257 50.1654731731656  C 38.8737358917196 50.2532780244389  38.9795824150669 50.3180618574999  39.0965880795618 50.3536301194337  C 40.0191120526459 50.8115569476656  40.9416360257299 51.2694837758976  41.864159998814 51.7274106041295  C 42.9545319052661 52.284683374596  44.1975305429434 52.4758994548718  45.406648677073 52.2723516351198  C 45.9911225272732 52.1844282708412  46.5824178642165 52.1491718595587  47.1732899684243 52.167023433692  C 49.0987427865855 52.1524823594593  50.9912718700177 51.669794450319  52.6853622616422 50.7611847170638  C 53.7923910733324 50.2070932374346  54.0184133551936 49.5980541937059  53.511025159 48.4394993313805  C 53.2942320258752 47.9357798094076  52.9897996800209 47.4641151894301  52.8052948826547 46.9512371396267  C 52.7627804718567 46.8211305081821  52.7473925542935 46.6837887014372  52.7600808475969 46.5475885035595  C 52.7727691409003 46.4113883056819  52.813269557631 46.2791845781477  52.8790984896933 46.15902568326  C 53.4280002800719 45.3759707895149  53.4648961450261 45.169904568401  52.7730031652131 44.5929167691959  C 51.3061900172169 43.3702521028796  49.756349790824 42.3307568467991  47.6991213132508 42.7383117173748  C 47.517130535929 42.7613867054734  47.3336241323237 42.7705710556691  47.1502184231379 42.7657862090833  C 44.7380315731745 42.8966694937542  42.429306843945 43.7814298903694  40.5541776462265 45.293544257398  C 40.2483264232115 45.5666995389632  39.960230767468 45.8588270003606  39.6916199836487 46.1681791888902  C 39.6916199836487 46.1681791888902  39.8484473698811 46.3467703724043  39.8484473698811 46.3467703724043  C 40.0371292879412 46.2721769985854  40.2218637373171 46.1881209945298  40.4019533077723 46.0949162068039  C 41.0707832102529 45.7148369470139  41.7257780156698 45.3027008473142  42.4084457645499 44.940938643185  C 43.9905744091816 44.0891947361229  45.7618203979125 43.8281778393289  47.4823276165121 43.4755741903246  C 48.1837028901447 43.2914310600965  48.9186636636059 43.2721167838222  49.6288681538593 43.4191718258609  C 50.3390726441127 43.5662268678996  51.0049675757622 43.875598817695  51.5737191848841 44.3227346301083  C 51.7819956321222 44.4357967809105  51.9406660080382 44.6215006621839  52.0190464616859 44.8439464205487  C 52.0974269153337 45.0663921789136  52.0899580287701 45.309786680397  51.9980864062062 45.5270844243291  Z M 72.5795975126051 81.3552749932534  C 72.5795975126051 81.3552749932534  72.6026690578914 81.3507052278471  72.6026690578914 81.3507052278471  C 72.4781283165763 81.5796686419631  72.4181591948743 81.6666674710572  72.3812582367757 81.7582528380683  C 71.9199962502337 82.9030699086481  71.5140908180406 83.2053044113365  70.2963591251813 83.0633470934929  C 69.5759956746094 82.9404443441286  68.8665221777281 82.761290633258  68.1745511717683 82.5275665555417  C 67.6487125137088 82.3718714323051  67.1367049386829 82.1520788558688  66.6108662806234 81.9963837326323  C 66.2722609293979 81.9019678577215  65.9172375352186 81.8804842878189  65.5695921208185 81.9333992290055  C 65.2219467064185 81.9863141701921  64.889713380538 82.1123972653194  64.5951536516906 82.3031868816497  C 63.2943948804346 83.0633454012298  62.0167069946245 83.8692910464594  60.711335607902 84.6157117742939  C 60.112210382873 84.9697200289555  59.4785977659371 85.2627552939684  58.8201551286103 85.490353693195  C 57.6716127777218 85.8658536890698  56.4907787093915 86.1543537299497  55.3283985121035 86.4840610593781  C 54.9640015328377 86.5848049610432  54.5304158370751 86.7221835745103  54.6226682357582 87.1572140558717  C 54.6687944350997 87.358701859202  55.106986013893 87.5876652750238  55.3791305738558 87.6151408841036  C 56.3632903640478 87.7331968691593  57.3568939023731 87.7531420456777  58.345055845536 87.6746736077446  C 59.7657427288939 87.5052406791152  61.1679844291104 87.1663658965334  62.5702208506024 86.8641341778907  C 64.2169261117649 86.5115305288864  65.743695452712 86.4062146100134  67.376562867475 87.2579585170754  C 69.1155205479406 88.1738121735393  71.066664368456 87.9540006273796  72.7733337406562 86.9648786390945  C 73.0782413091838 86.764327394205  73.4292941677525 86.6436235462494  73.7938308407645 86.6139989148743  C 74.1583675137765 86.5843742834992  74.5245317110343 86.6467942092652  74.8582328522506 86.7954479486195  C 75.5409006011307 87.0747833203917  76.2420148528333 87.3495438772629  76.9154573707804 87.6014036382494  C 77.2081243194751 87.7205732961841  77.5292450779544 87.7532856696837  77.840191369862 87.6956078847433  C 78.1511376617695 87.6379300998029  78.4386821719349 87.4923211921035  78.6682613655993 87.2762795031537  C 79.0372709603316 86.9465721737253  79.3555338393524 86.5619097468972  79.7845074901357 86.1131414464956  C 79.2620530443584 85.7521791369155  78.7149072546821 85.4277943570217  78.147033068551 85.1423388066148  C 77.2956011426922 84.7861810230025  76.5264725051176 84.2610339020462  75.8868521498148 83.599127631444  C 75.5841113052477 83.2804014517805  75.2451195348916 82.9976344434123  74.8766872731599 82.7565299696576  C 74.5288625745798 82.4962536290265  74.1186732924814 82.3305319493502  73.6866234649862 82.2757123899412  C 73.5523190765841 82.2915523613892  73.4161741454073 82.279955101623  73.2865524530383 82.2416278094341  C 73.1569307606693 82.2033005172452  73.0365802131392 82.13905299511  72.9328919870384 82.0528419963669  C 72.8292037609377 81.9666309976238  72.7443651315111 81.8602700585286  72.6836095004762 81.7403091720695  C 72.6228538694413 81.6203482856103  72.5874599871921 81.4893188112443  72.5795975126051 81.3552749932534  Z M 10.6920741037081 58.3215611231145  C 11.3562913907223 57.9918537936862  12.1035352200127 57.6896209559663  11.974381863231 56.4028465948374  C 11.2455879046994 57.2866453493058  10.7059114002405 57.3782257145877  10.0140184204274 56.6409635145836  C 9.51124283970034 56.1097684091195  8.4042169010659 56.7096597882551  8.44573048150428 57.4927146820002  C 8.48044702366723 58.2570671208136  8.61852474470441 59.0133171131416  8.85625336799471 59.7411370855971  C 9.07765911658608 60.4142895361994  9.51124822839828 60.9546437426798  10.4014838382302 60.8722169103226  C 10.7315043062974 60.8976493454338  11.0545683227326 60.9797684997965  11.3562924904566 61.1149175702929  C 12.6109251070477 61.4904175661677  13.750241127269 61.3576098235368  14.7281164859508 60.418859847497  C 16.4486237045505 58.761164781703  17.9569523712667 56.9798292626641  18.1968085954707 54.4658110804819  C 18.2499510204385 54.2626905435123  18.3257621305347 54.066092397901  18.422829502664 53.8796652993378  C 18.6211721601763 55.7525860966804  18.6626820702516 57.5430815628671  19.0316916649838 59.2190937935002  C 19.4007012597161 60.8951060241332  19.345348691904 62.6306497774463  19.405312747955 64.3432961194008  C 19.4743947214938 64.9171630579375  19.5932280137591 65.4840476097963  19.7604864483162 66.0376309737861  C 20.0187931618794 67.2969297514239  20.8998024135508 68.2265145397592  21.5178934909134 69.2934840146026  C 21.6320414340366 69.4373218325078  21.763742923245 69.5665283778755  21.9099689947938 69.6781408733392  C 21.7715903933326 68.4463176791926  22.2651356568557 67.2099214442918  21.5732426770426 66.0925799572031  C 21.4510065663659 65.8268423833478  21.3895716539561 65.5375233963118  21.3933507838232 65.2454125300105  C 21.2641974270416 63.8258394061628  21.1950117829274 62.4016829788042  21.0151196147744 60.9912683827869  C 20.7798760060369 59.1595610698592  20.40163920085 57.3278598709142  20.1986839278712 55.459518446665  C 20.0536648971685 54.5553372021428  19.6790256114728 53.7027328611844  19.1101053581001 52.9821326289522  C 19.0595249187742 52.8814778645157  18.9849740113663 52.7945997388158  18.8929175165975 52.7290207297537  C 18.8008610218287 52.6634417206915  18.6940776485998 52.6211438999381  18.5818317233972 52.6058047615981  C 18.4695857981947 52.5904656232581  18.3552666814317 52.6025456846596  18.2487864362088 52.640993352708  C 18.1423061909859 52.6794410207563  18.0468803647144 52.7430951317336  17.9707876882773 52.8264391843314  C 17.5338632611181 53.1709521235137  17.2333300231332 53.6574117629535  17.1220673222318 54.2002196690272  C 16.6506541284979 56.2380885156931  15.6431225655627 58.1153292785746  14.2022781028249 59.6403926243934  C 13.2059521723037 60.6478316683392  12.5278968189433 60.6890428600107  11.1533360902502 59.6953416078103  C 10.9210838962054 59.5614370194002  10.7460582377961 59.3479636945153  10.6611267014434 59.0950113866437  C 10.5761951650906 58.8420590787722  10.587200247213 58.5670285240548  10.6920741037081 58.3215611231145  Z M 79.5492734490864 52.331870383943  C 80.5317615332082 52.6753155051169  81.5188503556662 52.9592390934219  82.6074285955171 52.684482985565  C 83.1515835478611 52.7548455106028  83.7044526846208 52.7156938167563  84.2330364443889 52.5693584368902  C 84.7616202041571 52.4230230570241  85.2550978615157 52.1725010709502  85.6840522394558 51.8327388055572  C 86.4820354849714 51.1870619930352  87.2707872860554 50.5276425849239  88.0272569373859 49.8315938147457  C 88.5761587277645 49.3324535566879  88.622289941207 49.0668601800245  88.1333522618661 48.52650654673  C 87.4487336943569 47.7154348728405  86.685523881633 46.973084092321  85.8547169222206 46.3101423750656  C 85.0164868114438 45.7091220926832  84.0147375413491 45.3738895259795  82.981063755087 45.348493240815  C 81.6144337601126 45.3360351437046  80.2723462050164 45.709230506699  79.111068931232 46.4246240821236  C 77.4260831296906 47.2852759529008  76.0419310135379 48.6306953637976  75.1396099838726 50.2849438901625  C 74.6783479973305 51.1366877972245  75.0611915069123 51.8281573034876  75.9283640394118 51.6587243748582  C 77.275249075306 51.3564926562156  78.3915058672649 51.9014191664968  79.5492734490864 52.331870383943  Z M 47.9804984448728 36.1258471997204  C 46.9841725143516 35.9106215909972  46.0016805811599 35.8052964602082  45.0791566080758 35.6587598784493  C 44.5487876496603 35.6765227162429  44.0216854519064 35.7486481853528  43.5062515447757 35.873986046711  C 41.7488434024442 36.5242421231483  40.0098918804906 37.2477659855155  38.280159430958 37.9483940196089  C 37.8769620119351 38.1267545094518  37.5108948937204 38.3783590662468  37.2008080716415 38.6902402327827  C 37.1303852952022 38.7833769546848  37.0849634395783 38.8927541616718  37.0688258821329 39.0081044500541  C 37.0526883246875 39.1234547384364  37.0663593293692 39.2409846002628  37.1085500436936 39.3496489960132  C 37.2008024423767 39.4961855777721  37.5421380007848 39.546559768465  37.7589311339097 39.5236634267122  C 38.0096959797936 39.4634438148486  38.2504599934009 39.3678345464553  38.4738815824104 39.2397510291792  C 41.4351835712016 37.9712937237111  44.4702874074567 37.4492568731317  47.5838058166153 38.6169702632875  C 49.0598441955445 39.1710617429166  50.5358858736765 39.7388885031913  51.9980864062062 40.3387726219723  C 52.4801146750488 40.5693188479665  53.005601913021 40.6966178119454  53.5404170971073 40.7123963620906  C 54.0752322811937 40.7281749122357  54.6074167909226 40.6320786763738  55.1023846432095 40.4303565901369  C 55.9833950221085 40.0411187752219  56.149449343862 39.3679708009284  55.448331133116 38.7177147244912  C 54.9128307046034 38.221127818487  54.3028271830671 37.8101922702698  53.6401779521679 37.4996276844161  C 51.8504813915976 36.6753594154343  49.8901230075716 36.4692923208943  47.9804984448728 36.1258471997204  Z M 14.3821699960443 66.8023609510354  C 14.3821699960443 66.8023609510354  14.4052345030313 66.7977911856292  14.4052345030313 66.7977911856292  C 14.7004421678198 68.5608094306508  14.9864257289029 70.3238177404504  15.3000838830507 72.0822567215568  C 15.3406006918363 72.3008013358498  15.4543952559705 72.4993163515318  15.6229658659703 72.6455117512165  C 16.3926156676175 73.3138431080495  17.2216595330414 73.9115873874508  18.0999404814451 74.4314235863575  C 18.6396169859041 74.7061796942145  19.377635350568 74.6512290227992  20.0234021207294 74.6466497546192  C 20.2126142206831 74.6423227453764  20.3932251751577 74.5673162154189  20.5291743123937 74.4365942689272  C 20.6651234496297 74.3058723224355  20.7464141558625 74.1290484757127  20.7568140284388 73.9414385261931  C 20.7822428249303 73.7580365662556  20.7440252185635 73.5715162158078  20.6484523715662 73.4125475733957  C 20.5528795245689 73.2535789309835  20.4056457527579 73.1316453229481  20.2309756453128 73.0668105821097  C 19.9009085485125 72.9058231653649  19.5585007835537 72.7710733324844  19.2069734721256 72.6638327372948  C 18.8013442107021 72.5398921257083  18.4243077929688 72.3377784306867  18.0974278085753 72.0690505187773  C 17.7705478241818 71.8003226068679  17.5002355452401 71.470246828094  17.3019592154513 71.0977168358218  C 16.5469710161616 69.6660469787105  16.2159251696038 68.0513541740042  16.3471505632249 66.440608818601  C 16.4161961218126 65.4518908990699  16.2404138462226 64.4614147181907  15.8351494766313 63.5556614158492  C 15.6836148365273 63.2253795085135  15.4617185927029 62.9316570891559  15.1847683864152 62.6947567428024  C 15.0884446889688 62.6065188905352  14.9689947482026 62.5470610137117  14.8401521350868 62.5232018800285  C 14.7113095219711 62.4993427463452  14.5782989846893 62.5120566523923  14.4564099776429 62.5598857766382  C 14.3345209705966 62.6077149008842  14.2287028685069 62.6887083352287  14.1511096665126 62.7935726791558  C 14.0735164645184 62.8984370230828  14.0273018955138 63.0229104928326  14.0177761235278 63.1526835710343  C 13.9670832501191 63.4396783438977  14.0056952813383 63.7351980012434  14.1284744957863 63.9998509982269  C 14.3561890624954 64.4268230865323  14.4959099755552 64.8945676882455  14.5394689483336 65.3757556552216  C 14.583027921112 65.8569436221977  14.5295528093428 66.3419228589706  14.3821699960443 66.8023609510354  Z M 67.5933565642137 74.8756131687352  C 67.5933565642137 74.8756131687352  67.6164140329014 74.8710294285112  67.6164140329014 74.8710294285112  C 66.6938900598173 73.0393221155835  65.1209934644711 72.3799136252986  63.4143240922709 71.9723587547229  C 62.4364487335891 71.7433953406069  61.9475166079062 72.0822622896483  61.6615341740507 72.9752196265362  C 61.4355157962462 73.6850061884601  61.0526599146539 73.8406946108806  60.4853076624093 73.3690299909031  C 60.167125641351 73.1233711458775  59.9308455468067 72.7882807275673  59.8072519791286 72.4073948314703  C 59.3183142997877 70.2642973539532  60.5544941450709 68.2860500201514  62.399542091239 68.0250317313345  C 62.7945281243563 67.9354189494268  63.1829001081081 67.819136019374  63.561931306348 67.6770028699366  C 62.639407333264 66.8161004350441  61.8137455356404 66.7199380218013  60.978861366393 67.2786087653456  C 59.6550395178046 68.162407519814  58.9677516477716 69.4446026716169  58.5387779969884 70.942023391201  C 57.8422724017088 73.3736148229098  60.2270077946919 75.5441813332222  62.2796235468252 74.9992483814234  C 62.703984582142 74.8847666743654  63.1514081449241 74.8389868500122  63.561931306348 74.6832917267757  C 64.2870231194188 74.4016275553438  65.0924032876364 74.4016275553438  65.8174951007072 74.6832917267757  C 66.3686948958253 74.9512014021877  66.9969356957385 75.019233066826  67.5933565642137 74.8756131687352  Z M 30.2449694316925 76.1532329324512  C 30.2449694316925 76.1532329324512  30.2541966421472 76.1486491922272  30.2541966421472 76.1486491922272  C 30.3396309357701 76.7325735778286  30.4944645243834 77.3043904761074  30.7154586286892 77.8521375522427  C 31.3427749369848 79.0885400103045  32.0485057631972 80.2928898045254  32.7911375681283 81.4606031946811  C 32.8997406922808 81.6209572137289  33.0430897696148 81.7551726190086  33.2106905926914 81.8534213469874  C 33.3782914157681 81.9516700749662  33.5659043371269 82.0114607117843  33.7597905551863 82.028427989747  C 34.3004490123787 81.9952884460552  34.8409272231236 82.0960014195653  35.3326885801871 82.321507867728  C 36.0568699232522 82.6100017673305  36.6103865285659 82.1108542489182  36.4304943604129 81.3552749932534  C 36.2142300895005 80.5446692921934  35.9571315852509 79.7453544250434  35.6601806491843 78.9603266254838  C 35.5734388402426 78.7587978666573  35.4426773489051 78.5789125931833  35.2773393940578 78.4336995931628  C 34.8944919529261 78.0765166802433  34.5300949736603 78.1589491079864  34.3548154209738 78.6397722557943  C 34.2649359464276 78.8855640799452  34.1894676097581 79.1363239245138  34.1287945137804 79.3907789620072  C 34.1287945137804 79.3907789620072  33.9027806448864 79.3907789620072  33.9027806448864 79.3907789620072  C 33.6998253719077 78.8916387039494  33.5107045773922 78.392494024172  33.2939114442673 77.8979330300294  C 33.0604641414933 77.3259953260018  32.7908578232223 76.7692621691037  32.4867029678187 76.2310726673527  C 32.4452048249002 76.1384707142335  32.3833192375185 76.0562926854922  32.3055934488109 75.9905800285879  C 32.2278676601032 75.9248673716837  32.1362842503992 75.8773002377407  32.0375890859638 75.8513768689194  C 31.9388939215284 75.8254535000981  31.8355979843899 75.8218290461588  31.7353082052569 75.8407839570603  C 31.6350184261238 75.8597388679618  31.5402873088666 75.9007853488692  31.4580907085538 75.960897515674  C 31.0666871973017 76.0890300539905  30.6571030439877 76.1539717731079  30.2449694316925 76.1532329324512  Z M 63.1329610372477 90.0238404725452  C 63.1329610372477 90.0238404725452  63.142181209403 90.0192567323212  63.142181209403 90.0192567323212  C 63.142181209403 90.0192567323212  63.1790759746229 90.174950176942  63.1790759746229 90.174950176942  C 63.8801941853689 90.6740904349997  64.5628608345147 91.1869678843226  65.2824295071266 91.67694961455  C 65.5249135463789 91.8396461897187  65.7867490322947 91.9719311936466  66.0619633905105 92.0707739537347  C 67.7358303286721 92.6690756973505  69.5555976933172 92.7362755191503  71.2696151600176 92.2630953956941  C 71.8841913216796 92.1384851119326  72.4448927934338 91.8281719090312  72.8748119407594 91.3747162309388  C 73.1803410516054 91.0625902321465  73.5691475678623 90.8433789139626  73.9956751896728 90.7427749720079  C 75.111929232296 90.4725981553607  75.5040052860436 89.5292772402483  76.2189613431891 88.7050089712665  C 75.9744925035186 88.7050089712665  75.8868448297086 88.7049983502685  75.8361060114639 88.7370532283812  C 75.6446982920317 88.8441652320471  75.4666589699307 88.9732853764663  75.3056575422603 89.1217240619357  C 74.2638841030949 90.2183177485001  72.8366193791224 90.8743141246271  71.3203612983686 90.9534313748633  C 68.9402495181947 91.1823947889793  66.6339310075573 91.1961264667421  64.3783599549519 90.3031691298542  C 63.9722613269401 90.1740428373341  63.5555331073272 90.0805787000544  63.1329610372477 90.0238404725452  Z M 84.2034052041036 43.7823843267509  C 84.2034052041036 43.7823843267509  84.2126253762589 43.7686470808966  84.2126253762589 43.7686470808966  C 84.0187929489522 43.5205103259976  83.7706326312433 43.3194057929621  83.4869344829422 43.1805657874933  C 83.2032363346411 43.0417257820244  82.8914430273955 42.9687899499398  82.5751509546742 42.9672751314908  C 81.9524472618451 42.9260617153122  81.3205149838935 42.9214816103832  80.6978112910645 42.9306401467431  C 78.9680788415319 42.9306401467431  77.621191056302 43.8190145076549  76.3850089015768 44.9088804112525  C 76.2181556091263 45.0534608187657  76.0938321684304 45.2401844318459  76.025225115138 45.4492377020187  C 75.9914878347962 45.5467025095931  75.9789714711999 45.6501688190296  75.9885133457013 45.7527917059079  C 75.9980552202027 45.8554145927862  76.0294356711905 45.954857219197  76.0805743012672 46.044543976202  C 76.1689847713899 46.0944692207568  76.2677039100324 46.1237147114196  76.3692149578237 46.1300628734605  C 76.470726005615 46.1364110355014  76.5723638527681 46.1196954761287  76.6663860331988 46.0811789609496  C 76.8956050638884 45.9577408969111  77.106672361781 45.8036615710358  77.2936955781285 45.6232521327177  C 78.9588513011569 44.3731118829103  80.7716120387939 43.5763164133739  82.9164803202037 43.7457493420033  C 83.2532015791772 43.8052798274898  83.6037646435936 43.7823843267509  84.2034052041036 43.7823843267509  Z M 10.4983449139564 62.6489752398334  C 10.1339479346906 61.6506947237179  9.15145905326151 61.6598398772109  8.50107966763354 61.1469618274076  C 8.83449138628216 62.6726735829346  9.51445521850213 64.1026508494234  10.4891177035018 65.3278360051359  C 10.6880151219687 65.5472432914796  10.9514323007044 65.6989391671506  11.242025700425 65.761404726019  C 11.5326191001456 65.8238702848873  11.8356489273866 65.7939405855607  12.1081517807758 65.6758648665339  C 12.3563505616909 65.622531168705  12.5816509092411 65.4937748881442  12.7527614655207 65.3074886704831  C 12.9238720218003 65.1212024528219  13.0322929749702 64.8866409914701  13.0629604330022 64.6363759973818  C 13.0629604330022 64.6363759973818  11.8821308735825 64.8928139032063  11.8821308735825 64.8928139032063  C 11.3516796000565 64.0502285239746  10.7797147323455 63.4045544954982  10.4983449139564 62.6489752398334  Z M 24.3638791032817 71.6518043850334  L 24.1194108134784 71.6838626169659  C 24.1194108134784 71.6838626169659  23.2983650404976 69.3942284758063  23.2983650404976 69.3942284758063  C 22.8740040051807 70.6214724060378  23.0677320677048 71.6563892170401  23.9810308098559 72.2013221688388  C 24.6959868670014 72.6271941223699  24.8435966379607 73.2133376380651  25.0465519109395 73.8727522969218  C 25.1891210773461 74.3242197296536  25.3874334646725 74.7564296724555  25.6369666906493 75.1595255662681  C 25.7661200474309 75.370171911076  26.0474881749785 75.4800743405715  26.2550560634238 75.6174523945  C 26.2550560634238 75.6174523945  26.4902971427724 75.4526054442491  26.4902971427724 75.4526054442491  C 25.7799537010935 73.909392085513  25.6877041410995 72.1417855147804  24.5760627139428 70.5207245603079  C 24.4791976997932 71.0381818740264  24.4192305404296 71.3449934024755  24.3638791032817 71.6518043850334  Z M 53.8708089454389 52.5562640326527  C 53.8708089454389 52.5562640326527  53.8846462419712 52.5562640326527  53.8846462419712 52.5562640326527  C 52.7914553866538 53.0141908608847  52.0073177956511 53.9300428250854  51.0386676679022 54.5436647902012  C 50.0700175401533 55.1572867553169  49.0506279824326 55.7480134926393  48.0543020519114 56.3478976114204  C 50.5681797905866 55.9449220047598  52.7453296718827 55.0199104209461  53.8708089454389 52.5562640326527  Z M 88.3040169446308 53.5865993961746  C 88.3040169446308 53.5865993961746  88.3178542411631 53.5865993961746  88.3178542411631 53.5865993961746  C 87.473744785996 54.0857396542323  86.6434827999033 54.6169302833876  85.7763102674037 55.0702778477043  C 84.9091377349042 55.5236254120211  84.0465716593592 55.8579080749471  83.0456331133715 56.3112556392639  C 84.8307169485019 56.9157190765492  87.4414570275978 55.6014774840664  88.3040169446308 53.5865993961746  Z M 65.3931419559838 99.6586108766762  C 65.3931419559838 99.6586108766762  71.2188830982654 98.3214723641369  71.2188830982654 98.3214723641369  C 69.2400691935958 97.7261675092711  66.2510892575504 98.3214645033019  65.3931419559838 99.6586108766762  Z M 27.1868072469625 74.2528393902523  C 27.1868072469625 74.2528393902523  27.2006445434948 74.2528393902523  27.2006445434948 74.2528393902523  C 27.2329328826902 75.4297113082384  27.2882831926104 76.3180893812111  28.0355276130079 77.0004003596438  C 28.4045372077402 77.3392662169026  28.7643178874297 77.6872805302969  29.1056517618698 78.0490427344262  C 29.3224448949947 78.2734268846269  29.4700493184961 78.5985549228455  30.129653935057 78.3924878556001  C 29.0503009261391 77.0919757027256  28.5383048983232 75.576247971881  27.1868072469625 74.2528393902523  Z M 5.28147341218774 60.4921298169922  C 5.28147341218774 60.4921298169922  5.29531070872006 60.4921298169922  5.29531070872006 60.4921298169922  C 5.52594170199107 60.0845749464165  5.67354891606821 59.8372944493452  5.78886441270371 59.5762761605284  C 5.78886441270371 59.5762761605284  5.55361967673859 59.3610583768161  5.47059251586182 59.3839547185689  C 4.99549268292035 59.5213327724974  4.94936476868068 59.841873740555  5.28147341218774 60.4921298169922  Z M 85.1582208946293 44.3227346301083  L 86.2698498947886 45.0691575960972  L 86.4682032472167 44.8127196902727  L 85.31965132864 44.0800339701381  L 85.1582208946293 44.3227346301083  Z " fill-rule="nonzero" fill="#ffffff" stroke="none" transform="matrix(1 0 0 1 79 71 )" />
  </g>
</svg>