<?xml version="1.0" encoding="utf-8"?>
<svg version="1.1" xmlns:xlink="http://www.w3.org/1999/xlink" width="6px" height="7px" xmlns="http://www.w3.org/2000/svg">
  <g transform="matrix(1 0 0 1 -109 -147 )">
    <path d="M 0 0.330720752569904  C 0.384797634983047 0.331116930400951  0.767350210747683 0.266983117094523  1.13417524100565 0.140593802689759  C 1.21406038843498 0.076601305643391  1.30612756930903 0.0329052057602445  1.40359709677378 0.012726727020333  C 1.50106662423853 -0.00745175171957855  1.60145777345575 -0.00359333385944917  1.6973775284271 0.0240034271775434  C 1.79329728339845 0.051600188214536  1.88230527349102 0.102237859035868  1.95784533313268 0.172192366190966  C 2.03338539277434 0.242146873346064  2.09353753420722 0.329629616707956  2.13386870669455 0.42820916435117  C 2.42947041494998 1.00113960309326  2.69149512644647 1.59381071764701  2.91837765112633 2.20266785557997  C 3.12907433852504 2.72915350131803  3.31287002154291 3.26051871645181  3.51011798364552 3.7918792244373  C 3.51011798364552 3.7918792244373  3.72978295062147 3.7918792244373  3.72978295062147 3.7918792244373  C 3.78874985677965 3.52099873383522  3.8620891058796 3.25405196638588  3.94944107722228 2.99239391249997  C 4.13772321800746 2.48053291161712  4.49187296632441 2.3927942243307  4.84602272800146 2.77303382830727  C 5.00671120962201 2.92762054458867  5.13380923417511 3.11910280450069  5.21811177429498 3.33364054601725  C 5.50671214482955 4.16934306374219  5.75656709414024 5.02025490063119  5.96674979147544 5.88318641164007  C 6.14158320696453 6.68753943793295  5.60363205750361 7.21890767493971  4.89981543812817 6.91179106278741  C 4.42188291586381 6.67172783623866  3.89660350791538 6.56451368971139  3.37114892223477 6.59979244049583  C 3.18271498390588 6.58172989937263  3.00037793072667 6.51807968755427  2.83749021505712 6.41348885729168  C 2.67460249938757 6.30889802702909  2.53528454544425 6.16601881667173  2.42973545276657 5.99531370594732  C 1.70798721747647 4.75222267059585  1.0221022674561 3.47013029652145  0.412426738513407 2.15391621123277  C 0.2092152518562 1.56602895405936  0.070775210630114 0.954034356504104  0 0.330720752569904  Z " fill-rule="nonzero" fill="#000000" stroke="none" transform="matrix(1 0 0 1 109 147 )" />
  </g>
</svg>