<?xml version="1.0" encoding="utf-8"?>
<svg version="1.1" xmlns:xlink="http://www.w3.org/1999/xlink" width="21px" height="21px" xmlns="http://www.w3.org/2000/svg">
  <defs>
    <mask fill="white" id="clip25">
      <path d="M 10.5010273760484 21  C 10.5010273760484 21  18.8277240949979 12.6535047117015  18.8277240949979 12.6535047117015  C 20.218608646027 11.2634379457293  21 9.3781023518753  21 7.41225111348578  C 21 5.44639987509626  20.218608646027 3.56106486998763  18.8277240949979 2.1709981040155  C 17.4368395439689 0.780931338043371  15.5503953843706 0  13.5833876232829 0  C 11.6163798621952 0  9.72993570259685 0.780931338043371  8.33905115156781 2.1709981040155  C 8.33905115156781 2.1709981040155  0 10.5051468123585  0 10.5051468123585  L 0 21  L 10.5010273760484 21  Z " fill-rule="evenodd" />
    </mask>
  </defs>
  <g transform="matrix(1 0 0 1 -6 -2 )">
    <path d="M 10.5010273760484 21  C 10.5010273760484 21  18.8277240949979 12.6535047117015  18.8277240949979 12.6535047117015  C 20.218608646027 11.2634379457293  21 9.3781023518753  21 7.41225111348578  C 21 5.44639987509626  20.218608646027 3.56106486998763  18.8277240949979 2.1709981040155  C 17.4368395439689 0.780931338043371  15.5503953843706 0  13.5833876232829 0  C 11.6163798621952 0  9.72993570259685 0.780931338043371  8.33905115156781 2.1709981040155  C 8.33905115156781 2.1709981040155  0 10.5051468123585  0 10.5051468123585  L 0 21  L 10.5010273760484 21  Z " fill-rule="nonzero" fill="#ffffff" stroke="none" fill-opacity="0" transform="matrix(1 0 0 1 6 2 )" />
    <path d="M 10.5010273760484 21  C 10.5010273760484 21  18.8277240949979 12.6535047117015  18.8277240949979 12.6535047117015  C 20.218608646027 11.2634379457293  21 9.3781023518753  21 7.41225111348578  C 21 5.44639987509626  20.218608646027 3.56106486998763  18.8277240949979 2.1709981040155  C 17.4368395439689 0.780931338043371  15.5503953843706 0  13.5833876232829 0  C 11.6163798621952 0  9.72993570259685 0.780931338043371  8.33905115156781 2.1709981040155  C 8.33905115156781 2.1709981040155  0 10.5051468123585  0 10.5051468123585  L 0 21  L 10.5010273760484 21  Z " stroke-width="4" stroke="#000000" fill="none" transform="matrix(1 0 0 1 6 2 )" mask="url(#clip25)" />
  </g>
</svg>