<?xml version="1.0" encoding="utf-8"?>
<svg version="1.1" xmlns:xlink="http://www.w3.org/1999/xlink" width="7px" height="11px" xmlns="http://www.w3.org/2000/svg">
  <g transform="matrix(1 0 0 1 -64 -101 )">
    <path d="M 0.036028947510021 3.63763516548095  C 0.186576544553127 2.03332178574495  1.8990576586848 0.259192689615237  3.86088111239629 0  C 3.83981082156149 0.374951245775764  3.79266040523554 0.748168704261012  3.71974130127989 1.11720990117852  C 3.51837820583654 1.90132690333547  3.48457542387156 2.71583577884173  3.62033109303311 3.51257639114249  C 3.75608676219467 4.30931700344324  4.05864138529596 5.07210962855393  4.51011275766134 5.75586077401426  C 5.10289392978159 6.75241201438914  5.63451800173032 7.78471532259789  6.67423738499548 8.4595100986479  C 6.75887299511633 8.50153105371909  6.83187599976586 8.5619306841333  6.88730745944469 8.63579932945337  C 6.94273891912351 8.70966797477345  6.97903178437019 8.7949176507155  6.99324307780818 8.88462128559354  C 7.00745437124618 8.97432492047158  6.99917634938386 9.0659518869759  6.96908685663903 9.15204522299844  C 6.9389973638942 9.23813855902098  6.8879469288292 9.31626960789612  6.82007922430379 9.38008996619371  C 6.18495652386542 10.1710745677045  5.65333475133411 11.0871869650208  4.36427091835302 10.9933413362518  C 2.95288716452702 10.8905580234789  1.84260017512107 10.4794231409099  1.21218208270878 9.13430242415282  C 0.388874892976942 7.37357959432456  -0.147450933757358 5.59498696348754  0.036028947510021 3.63763516548095  Z " fill-rule="nonzero" fill="#ffffff" stroke="none" transform="matrix(1 0 0 1 64 101 )" />
  </g>
</svg>