<?xml version="1.0" encoding="utf-8"?>
<svg version="1.1" xmlns:xlink="http://www.w3.org/1999/xlink" width="20px" height="20px" xmlns="http://www.w3.org/2000/svg">
  <defs>
    <mask fill="white" id="clip28">
      <path d="M 10 0  C 15.5228475729624 0  20 4.47715242703756  20 10  C 20 15.5228475729624  15.5228475729624 20  10 20  C 4.47715242703756 20  0 15.5228475729624  0 10  C 0 4.47715242703756  4.47715242703756 0  10 0  Z " fill-rule="evenodd" />
    </mask>
  </defs>
  <g transform="matrix(1 0 0 1 -183 -246 )">
    <path d="M 10 0  C 15.5228475729624 0  20 4.47715242703756  20 10  C 20 15.5228475729624  15.5228475729624 20  10 20  C 4.47715242703756 20  0 15.5228475729624  0 10  C 0 4.47715242703756  4.47715242703756 0  10 0  Z " fill-rule="nonzero" fill="#ffffff" stroke="none" fill-opacity="0" transform="matrix(1 0 0 1 183 246 )" />
    <path d="M 10 0  C 15.5228475729624 0  20 4.47715242703756  20 10  C 20 15.5228475729624  15.5228475729624 20  10 20  C 4.47715242703756 20  0 15.5228475729624  0 10  C 0 4.47715242703756  4.47715242703756 0  10 0  Z " stroke-width="4" stroke="#b1b1b1" fill="none" transform="matrix(1 0 0 1 183 246 )" mask="url(#clip28)" />
  </g>
</svg>