<?xml version="1.0" encoding="utf-8"?>
<svg version="1.1" xmlns:xlink="http://www.w3.org/1999/xlink" width="4px" height="3px" xmlns="http://www.w3.org/2000/svg">
  <g transform="matrix(1 0 0 1 -159 -179 )">
    <path d="M 3.7795638056767 0  C 3.7795638056767 0  4 0.356274115691547  4 0.356274115691547  C 3.40238918149506 1.18941524514641  2.81457887251338 2.02803690767497  2.197374275826 2.8392532911992  C 2.04394264348064 2.96601058833989  1.85247765726281 3.02104522478706  1.66344510502406 2.99272598998646  C 1.47101927366192 2.96063763496925  1.28619516709695 2.88611739152082  1.11970946850423 2.77348166704318  C 0.60047387951716 2.47749730294558  -0.0804052234615324 2.18699817646625  0.00776686595052574 1.44155609607482  C 0.0959389553625839 0.696114015683383  0.850289996606137 0.893436925081783  1.35972869650199 0.756407132333525  C 1.86916739639783 0.619377339585267  2.33941853992881 0.482348216581202  2.82926346164222 0.328874848049744  C 3.14766264907713 0.230213393350544  3.46116461824179 0.109623835832129  3.7795638056767 0  Z " fill-rule="nonzero" fill="#ffffff" stroke="none" transform="matrix(1 0 0 1 159 179 )" />
  </g>
</svg>