<?xml version="1.0" encoding="utf-8"?>
<svg version="1.1" xmlns:xlink="http://www.w3.org/1999/xlink" width="24px" height="14px" xmlns="http://www.w3.org/2000/svg">
  <g transform="matrix(1 0 0 1 -102 -167 )">
    <path d="M 0 0.239635901033324  C 0 0.239635901033324  0.210832093671379 0  0.210832093671379 0  C 0.210832093671379 0  1.28842708791939 0.49736143563921  1.28842708791939 0.49736143563921  C 2.31391133800681 1.04850441005042  3.4497289399952 1.38150477451313  4.6195970448286 1.47399467334507  C 4.90071791544363 1.47958737122925  5.17791340914087 1.53879812054341  5.43522292170202 1.64821260888067  C 5.69253243426316 1.75762709721792  5.92487044893387 1.91508510038421  6.11885622641937 2.11151972288976  C 7.24082704764651 3.27597488097077  8.58298536414486 4.22284939510262  10.0731572328243 4.90124202375435  C 10.7868688038002 5.29655225572798  11.4075363416558 5.83085750015338  11.8956956275926 6.47018312624724  C 12.6828074240013 7.34734299882936  13.4418092277914 8.22902425570851  14.5615695460782 8.73090438065501  C 14.8537326825878 8.89365176608376  15.1138372152079 9.10487902560628  15.3299331744262 9.35486565460716  C 15.6828689168442 9.73267898905298  16.127429721295 10.0200851194801  16.6237649303059 10.19132148006  C 17.1201001393168 10.3625578406399  17.6527043967736 10.4122799500447  18.1738465782053 10.336024750293  C 18.3711569626132 10.28331843158  18.5799472537367 10.2859465518931  18.7757664506666 10.3436000430706  C 18.9715856475965 10.4012535342481  19.1463375836437 10.5115470743407  19.2795587141037 10.6615691628616  C 20.1416335812955 11.6743722891483  21.2707533783643 11.968256662877  22.591976760881 11.9094779124184  C 23.6320888234422 11.859742045091  23.941311312395 12.1988590121812  23.9975335840658 13.1619263183027  C 24.0209595314679 13.7768425059696  23.8850999248458 13.9712628712422  23.2619697131272 13.9938700841231  C 22.5170245812008 14.0164772970041  21.7673902988534 13.971255695832  21.0177599819844 13.9441270413854  C 20.2681296651155 13.9169983869389  19.5325503790774 13.8537108857899  18.787605247151 13.8582323281976  C 18.3190863060894 13.8582323281976  17.8505747933185 13.9577018664359  17.4335929424759 13.5733792424067  C 17.2697432099465 13.5036198033899  17.0926159801933 13.4675873121238  16.9135294829046 13.4675873121238  C 16.7344429856159 13.4675873121238  16.557330053926 13.5036198033899  16.3934803213966 13.5733792424067  C 16.0281597751987 13.718975497492  15.6323889896869 13.7793015493635  15.2383540784332 13.7494461565073  C 14.8443191671795 13.7195907636511  14.4631496086799 13.6003948437177  14.1258503624261 13.4015622193361  C 13.0107752290818 12.7504744721947  11.8910089905031 12.1039027193709  10.8181006333446 11.3895147835741  C 9.64826816196608 10.6748529829194  8.53766932779442 9.87366514077887  7.49630305698553 8.99315577324091  C 5.92207946416816 7.55985846345052  4.43219087586957 6.03161095152665  3.00320812797243 4.47171326442537  C 2.14430385633663 3.47029733221271  1.34497481157833 2.42265186929417  0.609076053186413 1.33383105943958  C 0.382221443565246 0.98193026700172  0.178784590329207 0.616456940254634  0 0.239635901033324  Z " fill-rule="nonzero" fill="#ffffff" stroke="none" transform="matrix(1 0 0 1 102 167 )" />
  </g>
</svg>