<?xml version="1.0" encoding="utf-8"?>
<svg version="1.1" xmlns:xlink="http://www.w3.org/1999/xlink" width="31px" height="25px" xmlns="http://www.w3.org/2000/svg">
  <g transform="matrix(1 0 0 1 -179 -300 )">
    <path d="M 20.4272920403074 0.346968632020935  C 21.3429316784429 0.295391533374857  22.2449039801938 0.13128716146036  23.4156471742474 0  C 23.7657250820893 0.139807905877139  24.0859973649674 0.348433672521953  24.3586087778166 0.614235215198394  C 24.5731258924564 0.9200230765692  24.8619563180464 1.16239186642291  25.1961511972629 1.31710139817713  C 25.5303460764794 1.47181092993135  25.8981793356124 1.53343019076675  26.262785366038 1.49573701357425  C 27.4198623098041 1.41602695075996  28.5723772116159 1.26597990809456  29.729454155382 1.13938156933763  C 30.1531083215787 1.08780447069156  30.6906457889482 0.839298928544037  30.9229722610539 1.31755929145594  C 31.2008529550892 1.88959622022692  30.667877013778 2.22718490116499  30.2624445417837 2.42411563636863  C 29.0780350974427 2.98677491973274  27.8799532120612 3.54004504328379  26.6545449082482 3.99486129267852  C 24.3768343548158 4.82947251642263  22.0991238013833 5.57969745202423  19.8214132479509 6.38148691684429  C 17.8261387510114 7.08949981580527  15.8490883105353 7.84438953918479  13.8447029800709 8.53833597003546  C 13.1898314369005 8.76695177987142  12.5134373605942 8.92410884258951  11.8266547662198 9.0072186875405  C 11.0223813993958 9.05750875435272  10.2439669710046 9.3187012332479  9.56543203454254 9.7659764688644  C 8.88689709808048 10.2132517044809  8.33079160731906 10.8317480604463  7.94998695562435 11.5626352216089  C 7.3668930669788 12.6457542722158  6.82934889296022 13.7476287254269  6.23714417078972 14.8448142441441  C 5.0800672270236 16.9641641183236  3.89110638447913 19.0647723401123  2.72491860718805 21.1888111487856  C 2.15093555206746 22.2297307950616  1.59973349070856 23.2846894090215  1.03486126911293 24.3256090552975  C 0.990825631441221 24.5415917449596  0.866775684852845 24.7314243657829  0.689034019207577 24.8548478306161  C 0.511292353562309 24.9782712954493  0.293840808397293 25.0255938314918  0.0827798717183473 24.9867497132443  C 0.0554473456880876 24.7851301413635  -0.0402231672779209 24.5553879179743  0.0189973049391285 24.3819013102616  C 0.643089998751812 22.5907693606937  1.35374185441244 20.8230711281403  1.91861407600807 19.0084950650552  C 2.64748146396742 16.66408147753  3.30801173556567 14.319654251582  4.44686701228189 12.1956154429087  C 5.08181622337184 11.1035656847193  5.7705828997961 10.0456603888902  6.51047221761001 9.02599231197185  C 6.77981168170647 8.53821171506002  7.11406985322723 8.09156949230761  7.50355068241648 7.69904620830023  C 8.32004932029665 6.96226205021286  9.21211250720748 6.3192126483932  10.1639288426225 5.78130330163949  C 12.0502810580867 4.80573517681406  13.8490853815769 3.66032866649457  15.5393201879063 2.35846518751874  C 16.9924995470625 1.25190202339463  18.5504585964117 0.412612212751115  20.4272920403074 0.346968632020935  Z " fill-rule="nonzero" fill="#ffffff" stroke="none" transform="matrix(1 0 0 1 179 300 )" />
  </g>
</svg>