<?xml version="1.0" encoding="utf-8"?>
<svg version="1.1" xmlns:xlink="http://www.w3.org/1999/xlink" width="6px" height="5px" xmlns="http://www.w3.org/2000/svg">
  <g transform="matrix(1 0 0 1 -110 -66 )">
    <path d="M 4.4331293458225 1.40927096769505  C 5.0996995122311 2.3387005554525  5.44163927887063 3.36861081696211  6 4.55761077887203  C 5.44596765255394 4.59110373580915  5.11268360131533 4.59947569770041  4.78372689179434 4.64134189543145  C 4.24087852408543 4.69794792346336  3.70182727412387 4.78461797079169  3.16923700653723 4.90091666152277  C 2.43341275799916 5.08512792779621  2.39012582207247 5.0558213432737  2.05684073886817 4.43620161810207  C 1.66295834670016 3.70354316872639  1.19116527983091 3.00855996869107  0.758327498713999 2.29264798218757  C 0.502042535286519 1.89175242692552  0.279151749315996 1.47176466426462  0.0917602089097578 1.03666206897213  C -0.137643802698618 0.463095166607402  0.065788380162675 0.0779246396244477  0.671761263406696 0.0276852042187687  C 2.13908138679952 -0.0895401481804237  3.4938713277759 0.128165360171327  4.4331293458225 1.40927096769505  Z " fill-rule="nonzero" fill="#ffffff" stroke="none" transform="matrix(1 0 0 1 110 66 )" />
  </g>
</svg>