<?xml version="1.0" encoding="utf-8"?>
<svg version="1.1" xmlns:xlink="http://www.w3.org/1999/xlink" width="10px" height="12px" xmlns="http://www.w3.org/2000/svg">
  <g transform="matrix(1 0 0 1 -104 -173 )">
    <path d="M 10 11.7231565926629  C 10 11.7231565926629  9.72119958519564 12  9.72119958519564 12  C 8.24953730711214 11.1742238133158  6.75959636076821 10.3770913324682  5.3107859594164 9.51312900057903  C 4.52011026173541 9.03580173030164  3.78884949804 8.46778868126712  3.02559610692022 7.92363559997912  C 2.30682762622836 7.40197428158007  1.71473401816792 6.71209170650302  1.2965495502218 5.90903716616067  C 0.878365082275692 5.10598262581832  0.645661224171926 4.21197998921444  0.617004049712364 3.29833318564143  C 0.526946526815484 2.61961446799962  0.398756340969462 1.94701281247458  0.233093828216041 1.28401152239596  C 0.159967754570659 0.926016069687917  0.100548352965 0.563246153890508  0 0  C 0.805475942323504 0.480127808371581  1.49373270268263 1.14828912843975  2.01097125450423 1.95226678740985  C 3.41620775854314 3.86028328621355  5.19176311205088 5.43650785943454  7.22120132865714 6.57756920174754  C 7.45285276938398 6.67821725590929  7.65362254904183 6.84332002120997  7.80164150386804 7.05489647202493  C 8.55118376894881 8.60143683227582  9.27330961165092 10.1670696961108  10 11.7231565926629  Z " fill-rule="nonzero" fill="#ffffff" stroke="none" transform="matrix(1 0 0 1 104 173 )" />
  </g>
</svg>