<?xml version="1.0" encoding="utf-8"?>
<svg version="1.1" xmlns:xlink="http://www.w3.org/1999/xlink" width="21px" height="14px" xmlns="http://www.w3.org/2000/svg">
  <g transform="matrix(1 0 0 1 -110 -199 )">
    <path d="M 0.012066811360338 0.622960743865905  C -0.0054539648356957 0.41561468256642  -0.00389034371926977 0.207048754813723  0.0167281003332082 0  C 1.04538270048336 0.48897429971027  1.98910588645808 1.14591120269206  2.81077249320631 1.94497092330179  C 4.10534634092183 3.13858495021717  5.39991430429404 4.32269106526449  6.67586120774428 5.55910396085789  C 8.37557153733095 7.18546255792016  10.4431687902467 8.10326601842302  12.6318367398729 8.77378225129316  C 14.3036065420363 9.28736918563217  15.994006175124 9.72486912894298  17.684403032578 10.2004125677679  C 18.1500770833113 10.3240538573272  18.6390337041227 10.3097840742962  19.1093644909224 10.4048927634784  C 19.3701419604433 10.4572025414657  19.7706153916816 10.5427968845562  19.8451232381335 10.7282588188952  C 20.2642298726909 11.7268999950761  20.6041770457742 12.7635923198126  21 13.8716084959935  C 20.7412454677868 13.9425818594008  20.4759034409927 13.9856114300744  20.2083484292557 14  C 16.6156366404788 13.6473782097422  13.0854410032462 12.8045051389566  9.71206555782306 11.493891301869  C 7.25625708183097 10.4945883360199  4.95152945343808 9.14487834174709  2.86665110549523 7.48504908312515  C 2.59656016384169 7.2853208450545  2.35441108191556 7.03803941389203  2.07500664037305 6.86208833925924  C 1.85000164819769 6.72676785661067  1.65536741723325 6.54465272482287  1.5037429340298 6.32755185603665  C 1.35211845082635 6.11045098725044  1.24689199728649 5.86321847886368  1.19488285768665 5.60190112886005  C 0.803716667283474 3.94225452282599  0.398576265697199 2.27309649019374  0.012066811360338 0.622960743865905  Z " fill-rule="nonzero" fill="#ffffff" stroke="none" transform="matrix(1 0 0 1 110 199 )" />
  </g>
</svg>