<?xml version="1.0" encoding="utf-8"?>
<svg version="1.1" xmlns:xlink="http://www.w3.org/1999/xlink" width="14px" height="9px" xmlns="http://www.w3.org/2000/svg">
  <g transform="matrix(1 0 0 1 -230 -237 )">
    <path d="M 0.117046173773532 9  C 0.117046173773532 9  0 8.764901281703  0 8.764901281703  C 0.495176762426589 8.34752477692406  0.972364125968393 7.89657798205083  1.49455050363807 7.51758091777027  C 3.2186658865551 6.26065403413537  4.95626750957967 5.03729495283694  6.6803828924967 3.78516549568997  C 8.64529403214648 2.42964001972821  10.7233519529774 1.27016112613241  12.8881163004067 0.321434323091964  C 13.251286195153 0.186874176402834  13.6228066951604 0.0794645249357339  14 0  C 13.9213935373475 0.362512265948694  13.7683924392807 0.701964675440316  13.552009891226 0.993950179672669  C 13.3356273431712 1.28593568390502  13.061252706932 1.52321050401376  12.7485675875908 1.68870510420039  C 11.5421369261396 2.51866068727033  10.3041752987974 3.30542473416131  9.07073502210316 4.0874059951621  C 6.72989955450232 5.59379939930848  4.45208523454864 7.21534041829814  1.89517263034977 8.29476240749989  C 1.30546216090905 8.5442288136317  0.711258299418105 8.77452074060531  0.117046173773532 9  Z " fill-rule="nonzero" fill="#ffffff" stroke="none" transform="matrix(1 0 0 1 230 237 )" />
  </g>
</svg>