<?xml version="1.0" encoding="utf-8"?>
<svg version="1.1" xmlns:xlink="http://www.w3.org/1999/xlink" width="14px" height="10px" xmlns="http://www.w3.org/2000/svg">
  <g transform="matrix(1 0 0 1 -176 -104 )">
    <path d="M 4.75954658760434 9.15617176958404  C 4.75030582287024 9.18020474046697  4.75031089876748 9.23307756720218  4.75031089876748 9.3292094507339  C 4.67176439594585 9.40130836517328  4.57935448691317 9.55992538067151  4.45922454709119 9.58395835155444  C 3.70841581057773 9.77604487827936  2.94579059183442 9.91416038972579  2.17675447872997 9.99732573795239  C 1.18799258161171 10.0598114590249  1.09097362018607 9.01197219308374  0.568870403243066 8.47844024055707  C -0.23507615099898 7.65651263027287  -0.0548846011003261 6.83458507728773  0.305505218365626 5.95497833545202  C 0.853185366859287 4.59194435169635  1.86262285820398 3.48537571960752  3.14241272299228 2.8451111336029  C 4.23759808827788 2.29789518983043  5.3732412565623 1.84301170725366  6.53839665873526 1.48484423638313  C 8.09084512029308 1.00418482588693  9.67564239717491 0.624464139126902  11.2511928592111 0.215903628745319  C 11.5723488467979 0.132429968564815  11.8978462085017 0.0682390344254627  12.2260867923103 0.0236428018402535  C 12.3350628877186 -0.00326407178273533  12.4481077011809 -0.00724928992417913  12.5585856907253 0.0119152872317418  C 12.6690636802697 0.0310798643876628  12.7747532518396 0.0730049057971253  12.8694406465989 0.135241211194092  C 12.9641280413582 0.197477516591059  13.0459156276359 0.278764873577173  13.1099915650061 0.374331423028284  C 13.1740675023763 0.469897972479396  13.219141535283 0.577820779199467  13.2425765758961 0.691759085477556  C 13.4966976172716 1.61462513300259  13.7600543337142 2.53748791448082  13.9448696352809 3.47477378786804  C 14.1296849368477 4.41205966125525  13.8617005168007 4.65239397370644  12.9607259130566 4.62836100282351  C 12.5186093905402 4.64313693343313  12.0761503301608 4.61416330395633  11.6393032946834 4.54183849510831  C 10.813427928013 4.32564831372972  9.94493185122937 4.36406473093917  9.13967468620564 4.65239544020444  C 8.70820776444335 4.74726851337434  8.26848639070388 4.79558428925564  7.82748775666931 4.79658739592885  C 6.98445536849593 4.86800055513628  6.14845346118014 5.01108083734014  5.3278587075575 5.2243813121798  C 4.78685917651798 5.42962093997148  4.30834320038776 5.78139811808778  3.94174396646146 6.24337691546196  C 3.35495540154348 6.9691726207273  3.47971133751306 7.83435546846709  4.14966681774118 8.50727863170195  C 4.35758402339767 8.7187687711743  4.55624976001183 8.93987504059066  4.75954658760434 9.15617176958404  Z " fill-rule="nonzero" fill="#ffffff" stroke="none" transform="matrix(1 0 0 1 176 104 )" />
  </g>
</svg>