<?xml version="1.0" encoding="utf-8"?>
<svg version="1.1" xmlns:xlink="http://www.w3.org/1999/xlink" width="10px" height="23px" xmlns="http://www.w3.org/2000/svg">
  <g transform="matrix(1 0 0 1 -115 -225 )">
    <path d="M 9.93334639239483 23  C 9.71181783657097 22.6565086997007  9.60548250804417 22.5358293792593  9.53016279827181 22.3687254989514  C 7.1802663017566 17.8039597004906  5.11570378482362 13.0841654515584  3.34951068237427 8.23914932667346  C 2.6760638811204 6.38243961925409  1.71905995376822 4.62785748049924  0.925987740820108 2.80828193181433  C 0.532501550904396 1.90529047744518  0.222425855741765 0.964902026600479  0 0  C 0.697785870067296 0.646027777125529  1.1882742136507 1.50192601241489  1.40449699317644 2.45085624717074  C 1.7965850240818 4.18162805329642  2.6032169023354 5.77915894232457  3.74825937865121 7.09263051571916  C 4.47192460580705 7.91269622010218  5.00024945244054 8.90042606418851  5.29010299475604 9.97518253569878  C 5.65431895395734 11.3340848656272  6.22262630501179 12.6235953758649  6.97371461060532 13.7953536927488  C 7.27650289312015 14.2063644396728  7.42045062088676 14.7217703532886  7.37689820472834 15.2389528563642  C 7.37228957064183 15.6431112573753  7.4685083195109 16.0415334875251  7.6560263484312 16.394764281821  C 8.2452923259366 17.7037445945644  8.88329670472217 18.9848482811542  9.48585438290104 20.2845450542141  C 9.94474013129596 21.1027557328219  10.1038005777367 22.0679545723999  9.93334639239483 23  Z " fill-rule="nonzero" fill="#000000" stroke="none" transform="matrix(1 0 0 1 115 225 )" />
  </g>
</svg>