<?xml version="1.0" encoding="utf-8"?>
<svg version="1.1" xmlns:xlink="http://www.w3.org/1999/xlink" width="9px" height="59px" xmlns="http://www.w3.org/2000/svg">
  <g transform="matrix(1 0 0 1 -66 -267 )">
    <path d="M 1.97881532514142 0.0276464009257257  C 1.97881532514142 0.0276464009257257  2.28811650419097 0  2.28811650419097 0  C 2.39121632458395 0.400889127840532  2.53180612918605 0.797163582615175  2.60210146444637 1.20266062704566  C 3.0051280439612 3.59877945104755  3.38940860483903 5.99491541342743  3.78774883332532 8.39103423742932  C 4.02206660821541 9.80412997668406  4.26575593991551 11.2172314287315  4.51881914685263 12.6303271679862  C 4.81874589200805 14.2937865950177  5.1467907712676 15.9526180008235  5.45609024641297 17.6206853444449  C 5.76538972155834 19.2887526880663  6.01376540428699 21.0351761465508  6.30431944738532 22.7401069327532  C 6.68860059485312 25.0440674249561  7.1103751762377 27.3111432713283  7.47122454062991 29.6012799039  C 7.78521036680383 31.5596463222724  8.03827240056102 33.5318543978225  8.31945374160227 35.4948288426463  C 8.31945374160227 35.5685555767489  8.31945374160227 35.6422733159495  8.31945374160227 35.7160000500521  C 9.25672484116261 40.3239210344579  8.93337003149299 44.9687119432671  8.98960629620963 49.6042806469354  C 9.0130380740478 51.4474490406977  8.98960114958101 53.29061743446  8.88181497117627 55.1337858282224  C 8.75691864086571 56.1895167238095  8.54853209492543 57.2340554895394  8.25853598268233 58.2579416309003  C 8.24652880470895 58.3693832814778  8.21167589417167 58.4772984498631  8.15608631346692 58.5751299418263  C 8.10049673276218 58.6729614337896  8.02532115055705 58.7586807478906  7.93509765028323 58.8271537451788  C 7.84487415000942 58.8956267424669  7.74147190059022 58.9454216045001  7.63113812705164 58.9735137354305  C 7.52080435351305 59.001605866361  7.40582391455034 59.0074242838915  7.29314074345393 58.9906134422086  C 6.75889622340842 58.9537500751573  6.66985774659522 58.5943367352753  6.53395344106957 58.1888396908448  C 6.15904499565886 57.073722777463  5.74196050830547 55.9678071955566  5.33424757776209 54.8619061153546  C 4.27683447352353 51.8711519313857  3.41897402398382 48.8157678254028  2.76612676719383 45.7151942111162  C 2.39590467281166 44.0701664504445  1.82885337713933 42.4896596292807  1.29929520812237 40.8584556183789  C 0.390142214733293 38.0660555281957  -0.214395315162311 35.2552068529976  0.0714723769074788 32.2877057126735  C 0.263612950641378 30.2740442952216  0.319845507271456 28.2419589017078  0.33859092884367 26.219081651076  C 0.380768129999857 21.7586139975486  0.315161436262239 17.2981467834668  0.399515838574613 12.8561107962992  C 0.432320327198889 10.9852949029972  0.708810984127385 9.11907121610534  0.915010624913346 7.25286312953188  C 1.14464204877489 5.20694618608897  1.41176402946909 3.16103034126004  1.68357264052039 1.11972142426848  C 1.75500818097471 0.749156788637397  1.85368272477283 0.384176050785163  1.97881532514142 0.0276464009257257  Z " fill-rule="nonzero" fill="#ffffff" stroke="none" transform="matrix(1 0 0 1 66 267 )" />
  </g>
</svg>