<?xml version="1.0" encoding="utf-8"?>
<svg version="1.1" xmlns:xlink="http://www.w3.org/1999/xlink" width="128px" height="175px" xmlns="http://www.w3.org/2000/svg">
  <g transform="matrix(1 0 0 1 -134 -194 )">
    <path d="M 103.993409061794 173.835250837925  C 103.823048842431 174.231178451406  103.606637461185 174.631695243911  103.381025277302 175  C 103.381025277302 175  23.4084270699624 175  23.4084270699624 175  C 23.1091456183489 174.502788566932  22.8052598134887 174.005581689043  22.4875610312206 173.508370255974  C 21.0091758286453 171.218989784666  19.334559382498 169.062429575822  17.4826423075661 167.063037120461  C 17.0152467040643 166.48568382939  16.5978212580151 165.869621553202  16.234872759435 165.221513367457  C 14.1260895658445 161.810090685266  12.1186015399128 158.315808294289  9.90391874308481 154.987254101954  C 7.56491903980876 151.4607361852  5.03714011243456 148.081526637058  2.57842771873731 144.614858075437  C 1.5433989239997 143.124752066502  0.749417337570532 141.481016855579  0.225621734376189 139.744019880903  C 1.37209995700082 139.320469410029  2.3390121079399 138.593083272599  3.60980723701262 138.781839455635  C 3.97779713368836 138.798784071129  4.34398618603461 138.721120651136  4.67340638765541 138.5562572918  C 6.74598003815148 137.760624503606  9.00102168324263 137.565928077956  11.179313148274 137.994577935434  C 12.9934192709417 138.284617924337  14.8029243610802 138.602283020782  16.6216348095505 138.8600963473  C 17.6760264063458 139.01202206296  18.744237237769 139.081080324656  19.8078374861696 139.17776031867  C 20.8714377345703 139.274440312684  21.9258310877781 139.380345914445  22.9894313361788 139.426384008956  C 24.0530315845794 139.472422103467  25.135040793231 139.343504199753  26.1894323900263 139.472410863012  C 28.850735338593 139.799281319291  31.4706097836352 139.504633025099  34.0996823418073 139.122516854034  C 36.8991150644543 138.72198543556  39.4176820469496 137.43751248229  42.0835892115431 136.608826815391  C 43.9253212890268 136.028746837586  45.6795710664838 135.149439484794  47.6087854439942 134.730492818912  C 50.0116202060777 134.250004877884  52.506919332471 134.629696787737  54.658013846459 135.803160173452  C 56.4096496428939 136.763303390589  57.9702577875766 138.036631355527  59.2623440401683 139.559884365257  C 59.9575978950273 140.324116707386  60.8324206208545 140.480647339392  61.5645091370229 139.762453102064  C 62.6879657306342 138.629915976404  64.1245139539844 138.381319287907  65.5472519443213 138.045241194203  C 67.0607018383163 137.676770530782  68.6553948157507 137.84941286125  70.0548951383268 138.533243864772  C 72.2005129383388 139.504647596186  74.2908671924854 140.586542866934  76.5608018989455 141.295529494278  C 77.5760661122477 141.624674961028  78.5320707764013 142.114257867382  79.3924762091172 142.745712590115  C 80.7323363350058 143.703304906553  81.9754942023565 144.799029593469  83.2370806798239 145.871717144469  C 83.9921908250057 146.516250447044  84.6736452048784 147.252857709073  85.4379640016655 147.883579596672  C 86.1331474902456 148.485718499248  86.8769778440629 149.029274496444  87.6618493026548 149.508709696998  C 88.8313491542928 150.190073494391  89.8028645332767 149.642235957454  89.9225771139221 148.316338802605  C 89.9732247457785 147.763881654751  89.9962379666528 147.211407713102  90.0146552870159 146.658950565248  C 90.065089452995 145.995031624758  89.9645418447184 145.328314267173  89.7205334620198 144.708794444857  C 89.4765250793212 144.08927462254  89.095390602556 143.533023805681  88.605731371845 143.081781683223  C 87.2244323137322 141.806526493049  85.8937876455476 140.476046937065  84.4111933100001 139.334302201421  C 81.6485951937746 137.216549929372  78.614339330348 135.876843609696  75.0275661270126 136.056392169028  C 73.7475623463345 136.120845500658  72.4537432829569 135.996542645821  71.1691351764761 135.941296934465  C 70.9025428682679 135.889308303595  70.6418532040863 135.810643380326  70.3910022496352 135.70649816005  C 70.7087010319034 135.448684833532  70.8928781806025 135.273740079192  71.1000730338306 135.131021987236  C 72.4091903410042 134.292327547522  73.4258903667027 133.068254138272  74.010013088567 131.627529791008  C 74.5164894208526 130.36608601581  75.216337996133 129.164465911115  76.6620977252591 128.69487736288  C 76.8308094141958 128.614901288726  76.9861254109319 128.50930172439  77.12253074463 128.381821696801  C 78.2820902890473 127.451266842267  79.7340572900069 126.961898955493  81.2203958580718 127.000678882048  C 83.4995392161372 127.055924593403  85.7832848142654 127.042113168137  88.0670326079093 127.000678882048  C 88.6837506697695 126.969072578215  89.2984580234409 126.906084570413  89.908764685393 126.811935061111  C 92.5010026371437 126.512687462224  95.093237734724 126.190428659017  97.6900799025015 125.928011527507  C 98.1662115728488 125.839994051725  98.6573705329077 125.883978182041  99.1102729607858 126.055217613168  C 99.5631753886639 126.226457044294  99.960544441794 126.518409810829  100.25930401932 126.899408563355  C 100.348604748385 127.064859156716  100.494781958942 127.192364944396  100.670838512463 127.258378685801  C 100.846895065985 127.324392427207  101.040901360199 127.324433993223  101.216984465738 127.258491083491  C 101.40886917822 127.181107688719  101.569110066637 127.041382816399  101.671853170056 126.861811536049  C 101.774596273474 126.6822402557  101.813873336252 126.473303926322  101.783336189333 126.268688925905  C 101.730979845907 125.536673888833  101.620107485314 124.810007346331  101.451809802034 124.095676285661  C 101.364522017839 123.773136104058  101.212046064774 123.471934168383  101.003770029827 123.210628775157  C 100.79549399488 122.949323381932  100.535837677619 122.733468104859  100.24086871288 122.576424809317  C 98.155107038527 121.361019084039  96.0095054853314 120.905238657879  93.7395707788713 122.083813833458  C 93.7395707788713 122.083813833458  93.4402780752397 122.231139105629  93.4402780752397 122.231139105629  C 91.4019599588429 123.178579517818  89.258165754192 123.880208596765  87.054074344773 124.321258449496  C 86.6212673076621 124.408730826666  86.1976694984794 124.537656602472  85.7740711129739 124.657355642027  C 84.5032759839012 125.030264203108  83.2601096638149 125.495233214173  81.9064365605182 125.504440832732  C 81.501894565407 125.534563303889  81.1066764041448 125.640772713505  80.7415415835618 125.817496498812  C 79.2681558996197 126.443614581419  77.8039710732021 127.097371245021  76.33058538926 127.732696937613  C 76.2845420866368 127.732696937613  76.2016720128389 127.691255909652  76.1372113898526 127.668236862396  C 75.9760598358171 126.41139689219  76.4364945429908 125.642567495515  77.7072896720635 124.970411308107  C 78.812328962464 124.381123720317  79.9219652236896 123.796438785004  80.9947741236956 123.156509287421  C 81.3605950429426 122.92617919929  81.6742516886535 122.621965576293  81.9156401624374 122.263369143237  C 82.6201026689019 121.236719642157  83.1956450957613 120.113400224711  83.9599638925484 119.137392688305  C 84.6321961183941 118.285687941565  84.5124930607981 117.526060502061  84.0704773720819 116.69277103017  C 83.9185344696518 116.407334846259  83.7389639108809 116.13570897969  83.5363733834555 115.799630885986  C 83.794215875401 115.61087470295  83.9737813844856 115.39449565909  84.1947892288438 115.339249947735  C 85.6911965417993 114.947926139245  87.1783946542705 114.482939145853  88.6978235962394 114.243541066744  C 91.7531175499977 113.771554518183  94.8381550334888 113.517691818858  97.9295140654068 113.483901278861  C 100.181811974496 113.494265764742  102.418856538087 113.114195859859  104.541325478949 112.360570665552  C 105.534027804231 111.973296850975  106.475668855632 111.466203915718  107.345346829461 110.850535799788  C 108.035996358518 110.390154861537  107.87946821755 109.598300759649  107.105940769157 109.326676018154  C 106.028527543349 108.953767457074  104.941897762078 108.594670338409  103.846067123283 108.29081890709  C 102.644421408606 107.904589902583  101.36094563936 107.848914464208  100.130369284647 108.129668719048  C 97.4690663360806 108.847862956377  94.803159171487 109.566057248587  92.1878997004987 110.431573410303  C 90.2034334133562 111.085314322862  88.2880404659895 111.969245759428  86.3404087852684 112.733478101558  C 86.1430055754024 112.787102614811  85.9411085702286 112.822565476915  85.7372426539965 112.839384824963  C 85.6497603814138 112.139605807603  86.1608365386948 112.019885405352  86.5383916112857 111.867959689692  C 87.4592576500276 111.499654933604  87.4868836048436 109.906737994768  86.7686081209712 109.423338031557  C 86.4109508976201 109.172889717345  86.0119452247368 108.987433762088  85.5899007154856 108.875483591061  C 83.9047158250688 108.488763615004  82.2195310444277 108.875493709872  80.5251375024055 108.972173703886  C 80.1975988028731 109.032899869392  79.8848999783413 109.156391816468  79.6042714636636 109.335864529312  C 78.4802946426013 109.77581864177  77.2431553425076 109.835645275885  76.0819616757362 109.506203228511  C 76.513312290047 109.068550634378  76.8876795012491 108.578213543915  77.1962017138854 108.046803522094  C 77.5507742925307 107.161597842576  77.8310739463967 106.248431481455  78.0341931814527 105.316747930197  C 78.0609684819859 105.207312746667  78.0658798609542 105.093674394443  78.0486519698112 104.982336703016  C 78.0314240786683 104.87099901159  77.9923953029905 104.76416005417  77.93379663838 104.667932264656  C 77.8751979737695 104.571704475142  77.7981787675626 104.48797080983  77.7071632103577 104.42155652817  C 77.6161476531529 104.35514224651  77.5129274641673 104.307343490961  77.4034021931226 104.280890819132  C 76.9807448056568 104.175540012891  76.5434916022073 104.141295834609  76.1095865327944 104.179592401017  C 75.0505906101964 104.248649544499  73.9915929311858 104.382172374849  72.9279926827852 104.451229518331  C 71.4592113246458 104.543305707353  69.9904266732327 104.603159720568  68.5216453150933 104.686028292747  C 68.2647359996628 104.70351096313  68.0102287156551 104.746681060859  67.7619336433914 104.814920343757  C 66.7351680014122 105.091148917684  65.7037918861862 105.344370787589  64.690839221615 105.662033633885  C 63.6271243672935 105.954779180074  62.5854808130039 106.322475545248  61.5737127389421 106.762350820166  C 60.4824865357254 107.277977473202  59.4879528210017 107.996177363344  58.424352572601 108.580861146142  C 56.1221874757464 109.8653239463  53.7601688878516 111.099130293018  51.4487951393916 112.39280070316  C 49.9146205649347 113.241005315585  48.7728354767239 114.655267745172  48.2672012893825 116.333660410611  C 46.9733845312964 120.398824060243  45.7163967810666 124.477794624552  44.3765366551779 128.529146968972  C 44.0443921753137 129.385852095757  43.6066774744587 130.197786500482  43.0735173929305 130.946146894789  C 42.272363934834 132.175364035043  41.3607004002535 133.330913380334  40.5779642453678 134.56473432558  C 40.2226049585503 135.167328965664  39.6718542678136 135.630320104274  39.0171036163767 135.876836859249  C 37.8844383711601 136.309594940107  36.7885993894051 136.843636840552  35.6559341441885 137.257979674002  C 34.9183565642682 137.574760324659  34.1454515994716 137.801955214236  33.3537690473339 137.934726165508  C 31.8573617343784 138.109670919848  30.3471470425799 138.155720254814  28.8415310780191 138.23398501514  C 25.4363988185052 138.462800629465  22.0164435345739 138.317680023165  18.6429425092132 137.801225809207  C 16.3407774123586 137.41450583315  14.0708409494859 137.023188775108  11.7778845042366 136.714733538796  C 8.9093867847737 136.328013562739  6.07772586724792 136.387860859809  3.31973218660083 137.460548410809  C 2.44921761150503 137.740006826755  1.55773404993503 137.949374032238  0.653821070078996 138.086659742969  C 0.511086832976251 138.118886408784  0.345324764528194 138.031428640432  0 137.957767691958  C 0.52028930969363 137.442141038922  0.879440005172635 137.037005815456  1.29382971162889 136.691720111768  C 2.54160321168822 135.665070610688  3.90908193741529 134.776529771198  4.81153067294643 133.376971736477  C 5.08486425730039 132.984489238422  5.37840374919438 132.606457499527  5.69095942610097 132.244424512587  C 7.64933464347075 129.804405452047  9.60617497579718 127.365914517131  11.5614804230803 124.928964659918  C 12.1784606844059 124.150920847931  12.7355857531667 123.322256530007  13.3755876435058 122.562627992869  C 15.7191917823603 119.777323228641  18.0858156840398 117.010421610409  20.4386284744997 114.234324456164  C 20.7674545421214 113.884896008516  21.0590848684288 113.502270370773  21.3088395744344 113.092588721117  C 22.5612174002964 110.813703164585  24.3477053622288 108.949153471529  25.9500122784217 106.928081214075  C 27.7180750332868 104.713648927431  29.394053467614 102.420957553855  31.1897422870709 100.229544182408  C 34.2193915194034 96.5464966764003  37.3319188357356 92.8956748174661  40.3984026744894 89.2080233967032  C 42.1296308229331 87.114824751278  43.8347609857295 84.9970779673974  45.5138067750761 82.8547720687244  C 47.0378400428477 80.9165683011258  48.5020165263055 78.9323264836074  50.0168411424717 76.9849151060247  C 50.4220221973226 76.4646846479964  50.9377133561016 76.0273070385436  51.3613117416071 75.5300956054751  C 51.9362286660365 74.911520736004  52.4743264624303 74.2597319649652  52.9728273094054 73.5780849231987  C 53.2042880727401 73.2422106051892  53.3354152957272 72.8474284547871  53.3509056557253 72.4398335165416  C 53.3663960157235 72.032238578296  53.2656114615581 71.6286496188524  53.0603107071899 71.2761802319439  C 52.3461801923426 69.8556493809908  51.2732309439938 68.6463447428229  49.9477789998262 67.7680797304254  C 48.9250815387096 67.1157368738992  47.9675723425176 66.366470273217  47.088493883897 65.5306351143871  C 45.1086318127814 63.6522809214475  43.1057482224281 61.8199534728006  40.7575398675467 60.39737641312  C 39.5097663674874 59.6423516809742  38.3218508592755 58.7998635448138  37.6081797012057 57.2990216905062  C 38.0962386753927 57.4647588348624  38.5060229582884 57.589061679409  38.9019953615339 57.7594026287572  C 40.8818574326495 58.5558616607124  42.8663162550386 59.3477123873775  44.8369696745488 60.1717942492846  C 46.2965423810829 60.7841009169158  47.756121235061 61.3964041818825  49.1742548995952 62.0961831992429  C 50.6890795157614 62.8420003214047  52.162456746968 63.6753044467055  53.6404467567128 64.4993863086126  C 53.936371703886 64.7108164891784  54.2192958772496 64.9398831460489  54.4876558774999 65.1853494106989  C 54.8212701179223 65.4693146831407  55.1857617896176 65.7148442675343  55.574271058591 65.9173393668413  C 56.200459971522 66.2027755507522  56.5503918748574 66.050852071521  56.7713997192155 65.4017149639541  C 57.1380341593705 64.4382253909824  57.4380137575406 63.4506921519999  57.6692356762084 62.4460772082212  C 58.4703891343049 58.3302718134412  59.5478119654948 54.2651046513817  60.0819142525965 50.0986570723998  C 60.35356972195 47.9809048003508  60.7863694589711 45.8815727973846  60.9521253525312 43.7592166105802  C 61.2145721702794 40.4951156881324  61.3296781747185 37.2172045581057  61.4678080860186 33.9484999404292  C 61.6888159303767 28.5758543559163  61.8730009417665 23.2032030637081  61.0626388320647 17.8581805286738  C 60.8784656215719 16.6611901331266  60.832417821572 15.4411827981236  60.7127052409266 14.2349847925925  C 60.6528489506039 13.6503010097949  60.6022058126937 13.0610049702259  60.487097557851 12.4855287974122  C 59.6721311223465 8.56308299276833  58.8387355278464 4.65906338442932  58.0145604407366 0.713598884115734  C 57.9969946597236 0.476059620221904  57.9969946597236 0.23753926389383  58.0145604407366 0  C 58.0145604407366 0  61.8683966159638 2.05330910039137  61.8683966159638 2.05330910039137  C 61.9328572389502 2.08553576620614  61.9650858660711 2.16379883892023  62.0249421563938 2.20983693343134  C 63.2220679628479 3.06154168017195  64.3639402130331 4.00531358103747  65.6347353421058 4.73271548323139  C 67.3843807937602 5.74094976434419  69.2399213478447 6.57423923623522  71.0402144931043 7.49500111273713  C 71.7629153682478 7.85628661113272  72.4598235990936 8.26700717107799  73.1259755088025 8.72422439974014  C 73.950711111077 9.34829824936032  74.9116654007689 9.76798032981592  75.9300109106154 9.94883938145303  C 77.3167324534658 10.2063678720283  78.6046932222344 10.8438962135888  79.6503175758608 11.7903631344569  C 81.3447111178831 13.2037325841536  83.0114708012326 14.6493315226417  84.678238278663 16.0949277170456  C 85.7003995948395 16.983462903722  85.7234234742565 17.1952303047986  85.313638093603 18.4750892999647  C 84.9038527129494 19.7549482951308  84.300689943561 21.1268840487165  84.1671643717856 22.4896116435015  C 83.9555966412781 24.6215716860525  83.2407334691113 26.6728251380665  82.0814033560873 28.4745638407639  C 80.3225492528276 31.2368494702697  79.502975088471 34.390461707231  78.5959220271372 37.498033040425  C 77.8960638464755 39.8966177462746  77.2422528757688 42.3182198306335  76.4272864402644 44.675370181792  C 75.0736133369677 48.6024194621377  73.1029566241838 52.2992800295718  72.1360473274152 56.3736515087142  C 71.7492836032189 57.9849847925925  71.261224587866 59.568683940892  71.3302895435161 61.2536782144053  C 71.3855415046056 62.5519524295393  71.7584905258557 63.0952019674092  72.9832423969016 63.5555829056601  C 73.1151169682958 63.6265144507559  73.2399883522402 63.7097713520135  73.356192018488 63.804206595946  C 73.1950404644526 64.3336446639583  73.0246819328925 64.8814833534104  72.8543217135298 65.4293366962722  C 72.2741761135134 67.270860449276  71.7170583379814 69.1123852999136  71.7815189609678 71.0413814575283  C 71.7716977784852 71.2954432916159  71.8135641733329 71.548862653263  71.9045802519728 71.7862690485985  C 71.9955963306126 72.023675443934  72.1338644907935 72.2401264754129  72.3110141229842 72.4225242722812  C 72.9556203391259 73.0532461598802  72.9372030359152 73.0854728497057  72.426122377827 73.803667087034  C 71.8045377906986 74.6691832487505  71.0954631094628 75.4840552505246  70.5475477900652 76.3910057120506  C 69.71416405135 77.7721485268035  69.0235212186166 79.2499904549774  68.1947418057041 80.6403408797142  C 66.2240883861939 83.9504798520818  65.5288317869401 87.6427292603782  65.0407728127531 91.367211121077  C 64.7385456102474 93.7061721452813  64.2426439520074 96.0160089961706  63.5581779283267 98.2729251948414  C 63.2180048042275 99.5141002858203  63.1442554962266 100.813171931831  63.3417738471704 102.08486475186  C 63.394015992905 102.617523441768  63.5858292413494 103.126989570829  63.8978681212983 103.561854696762  C 64.2099070012472 103.996719822695  64.631140788873 104.341603229915  65.1190526086185 104.561716447604  C 66.1181922957817 105.091154515616  66.8502729080934 104.994483501617  67.7296999597233 104.225647354496  C 68.3633431974196 103.611116222425  69.052305088426 103.056293893493  69.7878361183633 102.568259117139  C 72.5504342345889 100.915491588333  75.3959148258457 99.3455981473138  78.1953475484926 97.7112458384755  C 79.1806742582478 97.1403734706538  80.152181733375 96.5372722177392  81.1098823785383 95.924965550108  C 81.4941580619831 95.6663134393637  81.8223001715686 95.3328122602768  82.0746727830807 94.9444081025247  C 82.3270453945929 94.5560039447726  82.4984625352257 94.120692081927  82.5786648344356 93.6645075070417  C 82.7904640271884 92.7437456305398  82.3346324931717 92.1084221838102  81.3815361738111 92.1130259930898  C 80.7637717291564 92.152873001388  80.1554338959306 92.2847585361523  79.5766466066054 92.5043385508341  C 79.1162135872345 92.6516604477815  78.7294509882401 92.9647318511845  78.2828309462772 93.1212613718363  C 75.3242551685459 94.2595169495014  72.5247752423108 95.7743673537959  69.9535993120132 97.6283806415211  C 68.3983878547583 98.6111791278122  67.0641412234753 99.9060829489332  66.0353098207504 101.431131687382  C 65.8250490395881 101.70061873238  65.5857182305856 101.946116169827  65.3216442612457 102.163149742946  C 65.3216442612457 102.163149742946  65.0868189249504 102.057243019541  65.0868189249504 102.057243019541  C 65.0476047945727 101.640751760227  65.0476047945727 101.221511614536  65.0868189249504 100.805020355222  C 65.2387618273804 100.013165128258  65.4735871636758 99.2351236213018  65.6669690257739 98.4478721993306  C 65.9754591564368 97.2002398391083  66.334596898373 95.9572000880144  66.5878350645158 94.6957563128163  C 66.946972806452 92.743741240005  67.2048096998324 90.7687215212353  67.5317171337059 88.8121025336687  C 67.7020773530687 87.794660642572  67.8908543267632 86.7818102629698  68.1210708364487 85.778179786849  C 68.5216475654969 84.0793740983598  69.433307203037 82.5923549646552  70.1377697095014 81.0132483157206  C 71.0521034303067 79.0029484548408  72.1446204869939 77.0785220755737  73.4022381306852 75.2630667934513  C 73.9229405266625 74.5092295363146  74.5565356825644 73.8399874017117  75.2807986671463 73.2788260735665  C 76.8158749399115 72.1296831770795  78.1693428722637 70.756204589577  79.2957751581128 69.2044660098146  C 80.2957962350638 67.737398234429  81.6270197509692 66.5261893115698  83.1818309657075 65.6687437759779  C 83.8264371818492 65.3142504623058  84.4572287190582 64.9367425690902  85.0650003287785 64.5223997356406  C 85.1492156053525 64.4816331469863  85.2239210673127 64.4236102200155  85.2842708752654 64.3521172352866  C 85.3446206832182 64.2806242505577  85.3892790905422 64.1972557199536  85.4153273563345 64.1073993647283  C 85.4413756221268 64.0175430095029  85.4482346345185 63.9232169321013  85.4354769214522 63.8305357548292  C 85.422719208386 63.7378545775571  85.3906204974775 63.648886791106  85.3412629506612 63.5694078215304  C 85.1263613844132 63.2904859838149  84.8105945599292 63.1070060093096  84.4618341975066 63.0583917239333  C 84.0574870818599 63.0760531045174  83.6637258648329 63.1930581102248  83.3153604756892 63.3990691223314  C 80.952176288496 64.5346257285127  78.8986217320709 66.2246735075413  77.3297312238672 68.3251507815011  C 76.7660265238059 69.0486346802335  76.1388825615345 69.7203782671374  75.4557654627154 70.3324049284139  C 75.2095541544262 70.5534911846492  74.9192237929796 70.7198210992202  74.603961566619 70.820407598983  C 74.1020895601361 70.9861447433392  73.7613742002559 70.7743784947779  73.7890001808007 70.2541480367495  C 73.834092053254 69.596386821269  73.9482900747211 68.945182869461  74.129716118719 68.3113258656308  C 74.4013715880725 67.3215068044859  74.8341842649145 66.3639268913089  75.0275661270126 65.3602964151881  C 75.0760589528082 65.014917083346  75.2197656352829 64.6898519600805  75.4425853427151 64.4215228088632  C 75.6654050501472 64.153193657646  75.9585329926186 63.9521756988792  76.2891481036727 63.8410168394219  C 77.8592247392469 63.2148987568148  79.4247019889287 62.5749805099771  80.9993829503055 61.953466232362  C 81.7867234309939 61.6404071910584  82.6062958938257 61.410216721933  83.3752190164156 61.0327043558601  C 86.1378171326411 59.762052970678  88.8681848584721 58.3578933262326  91.6630133650922 57.1793181506534  C 95.8805797522734 55.4068515822925  99.8218782483341 53.1233564033104  103.841458296673 50.9871889112935  C 105.471391167682 50.117068944585  106.686934387122 48.8187980772338  107.985355471011 47.5665619120196  C 108.482623151691 47.1061809737686  108.979899779098 46.5951513752771  109.490980437186 46.1209590220502  C 110.411846475928 45.2416314453577  111.443202941289 44.4267610900342  111.894427309054 43.1469020948681  C 112.106226501807 42.5484068970946  112.391700588299 41.9360968816806  111.871411278606 41.3882435388188  C 111.351121968912 40.8403901959569  110.6927184733 41.0383658297008  110.103364221678 41.2133105840409  C 109.471795636566 41.4287075578859  108.856334672122 41.6887115142845  108.261632144194 41.9913554936619  C 105.324069427916 43.3724983084148  102.39569406674 44.7536209267077  99.8080605505673 46.7470703542101  C 98.9691696899833 47.4082827495432  98.0827673202315 48.0068671300542  97.1559899651758 48.5379589478677  C 94.1021112408539 50.1697970169723  91.2058856946453 52.0808733167041  88.5044355455313 54.2466938219486  C 86.7547900938769 55.6968938213444  84.8209713905639 56.9491298767953  82.9792393130802 58.2750270316444  C 82.5763390697402 58.5829873998062  82.1445967205362 58.8512530803553  81.6900324793619 59.0760853682935  C 80.4468633051052 59.6377501261313  79.1944883334137 60.1671971947398  77.937506181749 60.6966352627521  C 77.6789221269234 60.7860494156642  77.4142622842124 60.8568043926602  77.145560826379 60.9083925107171  C 77.145560826379 60.9083925107171  76.9705940308099 60.733445506228  76.9705940308099 60.733445506228  C 77.1194866209114 60.3865250143606  77.2965765350744 60.0524043856999  77.5000891928263 59.7344267380617  C 78.9734748767685 57.8100344952023  80.3547784356885 55.7889609205877  81.9939199583028 54.0072867422429  C 84.266162590893 51.4427986554145  86.8208870827601 49.1431856037807  89.6094860330621 47.1522078278247  C 90.4353296023471 46.5362597055405  91.2056586234314 45.8492219103069  91.9116511299167 45.0989268268559  C 92.4181274622023 44.6063191987794  92.4595557461751 44.1781649503539  92.1740872719696 43.717784012103  C 91.8886187977641 43.257403073852  91.4788334171106 43.1791383066659  90.7927882138569 43.4875935429775  C 89.4612573257499 44.028228242986  88.2035061947025 44.7351457759403  87.0494795694638 45.5915237530038  C 86.0135052758792 46.4156056149109  84.9452972986265 47.1982526830734  83.9093230050419 48.0223345449804  C 81.6008468982358 49.8620391896674  79.6433282613261 52.1031715256188  78.1308801811564 54.6380063796929  C 77.0396539779397 56.4795301326967  75.8977856796828 58.2750281292781  74.7697247602689 60.0889290523301  C 74.5441125763861 60.4480261709943  74.336917695714 60.86235666464  73.7337504666843 60.8531490460808  C 73.6604106566711 60.6488803490939  73.6184996491154 60.434664662348  73.6094386099224 60.2178211033407  C 73.6744034056511 59.336741648395  73.8098858611751 58.46229008985  74.0146078638763 57.602860746006  C 74.711451930775 55.0836375359251  75.5712141322713 52.6123253778951  76.5884408073043 50.2045356963824  C 77.3949615878058 48.3476760249686  78.1079834220999 46.4516174396396  78.7248427105091 44.5234506540422  C 79.6457087492509 41.6184469600218  80.4146296214371 38.65819409367  81.3124740311656 35.7439827896657  C 81.9524759215046 33.6722685675364  82.5740700591263 31.5729242710729  83.7251526075537 29.7083813833458  C 85.1245426054646 27.3153744128626  85.9782429880442 24.6429395406503  86.2253005304256 21.8819054330795  C 86.3035929710893 21.3379522571318  86.4586129917228 20.8078516025417  86.6857335497966 20.3074104920996  C 87.3671744272476 18.7190962331811  88.5274661761592 17.5036928129334  89.7798440020212 16.3389290523301  C 90.6697785174714 15.5110315413032  91.710919847539 14.8623355178351  92.8463295971876 14.4283369188196  C 94.7985654939356 13.6641045766899  96.8336654233827 13.908108144973  98.831944797709 13.9265233820915  C 99.1577400107602 13.9577856017729  99.4723964394443 14.0616121652683  99.7528108364509 14.2303764873024  C 100.986771359102 14.8841173998614  102.211523120372 15.5562763862358  103.436274991418 16.2330363786363  C 103.988794636619 16.5414916149479  104.513700621891 16.8131197316656  105.204350150947 16.6105521199328  C 105.562191138964 16.5366286312006  105.934211124305 16.5768861030477  106.26794930159 16.7256473544956  C 107.432180464367 17.1493310232183  108.483318910625 17.8351606804886  109.340013263111 18.730077509447  C 110.196707615596 19.6249943384054  110.835977822876 20.7049984411845  111.208386606608 21.8865137383696  C 111.829971193736 23.8339251159523  112.58968566472 25.7168814674333  113.970984722833 27.2223271267329  C 115.352283780946 28.7277727860325  116.922358111229 30.2009929080219  118.400348120973 31.6834195423616  C 118.833215754318 32.0241211435826  119.216063995771 32.4239526010511  119.537632292172 32.8711961811761  C 120.324355393839 34.2840120942022  121.02847331411 35.74126779273  121.646423389619 37.2356125336912  C 122.240381967044 38.7364543879988  122.608714913052 40.3201648419253  123.129004222745 41.8394219162008  C 124.280086771172 45.214014158456  125.477223884533 48.5701957908049  126.190895042602 52.0875060975747  C 126.724997329704 54.7254888825337  127.323559148895 57.3312348245556  127.139385938402 60.0474824041416  C 127.093350347528 60.8939580239763  127.093350347528 61.7423185552675  127.139385938402 62.5887941751021  C 127.176220579129 63.4312913118588  127.263680368258 64.2737838934356  127.346558315038 65.1162810301923  C 127.429436261818 65.9587781669489  127.567578529755 66.8657387267049  127.618226161612 67.7450663033973  C 127.756356072912 70.3185958184687  127.899090303154 72.8921060151872  127.96355092614 75.4656355302586  C 128.018802887229 77.5281421424039  128.00498989953 79.6090650721509  127.96355092614 81.6531564643283  C 127.889881644687 84.2266859793997  127.678095944065 86.7956205803121  127.632052641441 89.3737537906121  C 127.581405009585 92.3155879245682  127.632052641441 95.2666309856687  127.632052641441 98.2084651196249  C 127.606426280016 98.7937751024435  127.523127494037 99.3751416715806  127.383400825316 99.9441102486462  C 127.111745355963 101.325253063399  126.715774077919 102.664944729665  126.550018184359 104.041483739426  C 126.324984861919 106.236622040569  125.932479109393 108.41135313612  125.375919605483 110.546668644866  C 124.643831089315 113.124801855166  124.049878110456 115.74436722489  123.280954987866 118.313292825206  C 122.512031865276 120.882218425522  121.687850026955 123.534020638183  120.68410601399 126.061511883808  C 119.54683644297 128.934288833121  118.381929665117 131.793265892612  117.50710693929 134.76272285652  C 116.798040107023 137.156703647614  115.803504745662 139.453995643044  115.204941842435 141.889410788829  C 114.546522648885 144.485959219097  113.515167281283 146.985821048968  112.658761858667 149.536331429316  C 111.991133958624 151.515969551606  111.074870022725 153.41733607394  110.987387750142 155.571918785925  C 110.895424416243 156.265882485107  110.680244705596 156.937845049932  110.351987935202 157.55615950581  C 109.716590370666 159.006359505206  109.012119960345 160.424354053988  108.358305092598 161.8653464434  C 107.202618218368 164.420460738503  106.056136647581 166.984765520505  105.563473292704 169.76086267475  C 105.312367960312 171.208787718557  104.778895539228 172.593205323429  103.993409061794 173.835250837925  Z " fill-rule="nonzero" fill="#ffffff" stroke="none" transform="matrix(1 0 0 1 134 194 )" />
  </g>
</svg>