<?xml version="1.0" encoding="utf-8"?>
<svg version="1.1" xmlns:xlink="http://www.w3.org/1999/xlink" width="132px" height="91px" xmlns="http://www.w3.org/2000/svg">
  <g transform="matrix(1 0 0 1 -65 -42 )">
    <path d="M 58.6531100828258 22.9204953800295  C 59.1785998117285 23.3935240157141  59.7086728965453 23.8604479703248  60.2433281353997 24.3212694266772  C 58.9876520701518 23.9733644882881  58.0665141134466 23.1310660584264  57.2324518883883 22.2017936586388  C 56.39838966333 21.2725212588513  56.315896686659 19.1576296223692  56.9712312491378 18.1505363451983  C 57.1599448935666 17.8789056500255  57.436900390286 17.6808262103365  57.7551309199071 17.5898844610147  C 58.0733614495282 17.4989427116929  58.4132942625477 17.5207338645941  58.7172754266999 17.6515655980393  C 58.8749569758023 17.7102646811972  59.0029791432268 17.8289036418949  59.0733874910127 17.9815724287657  C 59.1437958387987 18.1342412156366  59.1508591370583 18.3085351181572  59.0930510641355 18.4663950367431  C 58.9831399868781 18.7712233868334  58.8287114188714 19.0581434791672  58.6347751295086 19.3178468865696  C 58.2131612620037 19.9404136327845  58.3643923127822 20.3936076859614  59.0930510641355 20.4393846527955  C 59.7132507347538 20.4899117440989  60.3374348990201 20.4575832455232  60.9490769906571 20.343253442977  C 61.2790322076472 20.2890064139636  61.5874237394481 20.1442964908544  61.8398816066256 19.9252564324081  C 62.092339473803 19.7062163739618  62.2789427802158 19.4214523034085  62.3788956690173 19.10269807936  C 62.6584439956953 18.2420911178863  62.8371665776152 17.3494402560952  63.0754700548803 16.4705225256233  C 63.1992045621463 16.0127528641039  63.3595977767431 15.5916025304799  63.50166331757 15.1521436652439  C 64.2303220689233 15.197920632078  64.9681519025645 15.2345428897216  65.4264278371913 15.907464305252  C 64.9681519025645 16.7726489589753  64.5098726081467 17.5829007054295  64.1340863450305 18.4389299746536  C 63.7583000819143 19.2949592438778  63.5383309843436 20.2104974209383  63.2496171477139 21.0985705904798  C 63.2496171477139 21.0985705904798  63.4650073964074 21.222170354893  63.4650073964074 21.222170354893  C 63.6205274389689 21.1202340554753  63.7622407480443 20.9986847464114  63.8866274098716 20.8605319031921  C 64.4365585532761 20.0411242265348  65.0185689815112 19.235449462915  65.4905931810655 18.3748425014413  C 66.1004978510051 17.2694621563826  66.9255200529414 16.2970706306724  67.9171564230503 15.5148578085934  C 68.9087927931593 14.7326449865143  70.0470090340584 14.1564074697743  71.2648587689861 13.8200366394515  C 72.3143106417997 13.4950201895954  73.3546037788744 13.1333797733601  74.4223866715913 12.8770287618178  C 76.1500869363934 12.4558806655801  77.8319540791012 12.762586346438  79.486330155029 13.3347984233372  C 79.8554081173187 13.4452074452411  80.2322593522478 13.527837710544  80.6136990237505 13.5819944596584  C 81.1201703686713 13.6699244210688  81.6033319204166 13.8602248439685  82.0335880172479 14.1412353716797  C 82.4638441140792 14.4222458993909  82.8321299578298 14.7880475811829  83.1158817108809 15.2162311384562  C 83.5283300411189 15.8159093688529  83.8766236804787 16.45678606551  84.2799065007651 17.1251297887909  C 84.2715691178447 16.272251250528  84.0368287604351 15.4368552663613  83.5996531603034 14.7042088987962  C 83.1624775601717 13.9715625312311  82.5385116730613 13.3679063645235  81.791457546783 12.9548522585802  C 81.5614469898378 12.8408857993741  81.338067595102 12.7140333596783  81.1223785981599 12.5749026013178  C 79.0280574982471 11.0276410929945  76.7458411498346 11.1283490673658  74.3032304532374 11.5220309828209  C 71.5250490723182 12.0227267002015  68.9026136184484 13.165542773567  66.6454435015553 14.8591713612719  C 66.5595811939518 14.9133765961832  66.4621294305686 14.9465999426726  66.361006979386 14.9561442648802  C 66.2598845282035 14.9656885870878  66.1579449102836 14.9512862888442  66.063438099349 14.9141049779561  C 65.939703592083 14.8454395259997  65.9396963261934 14.5707786049429  65.8984514904381 14.4563361895631  C 65.8984514904381 14.4563361895631  62.5851114483164 13.6231955452979  62.5851114483164 13.6231955452979  C 62.5392838541708 14.140475260632  62.5072045386104 14.4837988505551  62.4705424646597 14.8362814811938  C 61.9206113212552 14.2961133046118  61.4531721165374 13.6186183987523  60.811585818986 13.2661357681136  C 60.1699995214346 12.9136531374749  59.3176118488094 12.8632960943471  58.4972979433093 12.6664551366195  C 59.0747256165686 11.9294459750248  59.9317066425348 12.8266745290654  60.4358101815505 12.2086854751001  C 60.3579032718445 12.0713545711872  60.3304033617121 11.9660696497934  60.2891585259567 11.9569142567676  C 58.9968204209023 11.7738063894313  57.7044721545287 11.4396327235572  56.4121340494742 11.4579435096086  C 55.1197959444198 11.4762542956601  53.992438220371 12.2269980994918  53.0621380861899 13.1654258837785  C 52.898585070068 13.3113187464178  52.7620790615151 13.4848744206195  52.6588670115145 13.6781256694768  C 51.9027117303064 15.3764511311764  51.1648812957269 17.0839317590936  50.404143259543 18.7822572207932  C 50.2566358679034 19.1554609948271  50.0559871257774 19.505449239944  49.8083901387168 19.8213963082453  C 49.2630417502881 20.4576961312089  48.6581130674526 21.0482189771064  48.085268149169 21.652474954323  C 47.7798132113122 21.9938399581586  47.3956201500808 22.2556343530721  46.9659898757899 22.4151717656349  C 46.5363596014991 22.5747091781978  46.074255335219 22.627171588136  45.6197413832013 22.5680107848565  C 44.6634879285514 22.4473493770654  43.6979361566001 22.7053161225388  42.9296638846173 23.2867125062472  C 42.5189289658626 23.5116928524492  42.0444299114513 23.5923006331414  41.5823315179767 23.5155973370069  C 40.1443954752073 23.3900164762178  38.7097179380679 23.7901727053252  37.5449216527522 24.6417067927387  C 36.8652633504041 25.113460827681  36.3403787116727 25.7753799236554  36.0362388998265 26.5442560683432  C 35.7320990879804 27.313132213031  35.6622786967972 28.1546544335782  35.8355543745602 28.9630535150838  C 35.9445154572439 28.6384143376613  36.0302745810209 28.3064613356126  36.0921877791135 27.9696941877879  C 36.3442395486213 25.1864546806749  39.3871917753031 23.4972820932362  42.0497749292621 24.0832272468841  C 42.2357236705319 24.1413371266537  42.4083570136107 24.2355462102306  42.5577762082971 24.3604483517179  C 42.7071954029834 24.4853504932051  42.8304577708336 24.6384934831757  42.9204964079588 24.8110863173082  C 43.4385973281154 25.9408121531913  44.0976310478424 27.0005619335569  44.8819168487427 27.9651190057766  C 45.2922713189643 28.4193785357059  45.5638506924904 28.9814934522097  45.6645508343287 29.5850268082408  C 45.765250976167 30.1885601642719  45.6908643080076 30.8082805186248  45.4501815250648 31.3709264050829  C 44.9970648090729 32.4867064488133  44.4609094644931 33.5670124608369  43.846215753871 34.6027790978083  C 43.2046294563196 35.6739600664731  42.1047672241413 35.9348888111928  40.7528531951399 35.9760880823666  C 40.9865739174291 35.5595176783785  41.16987981429 35.2665420456123  41.3211108787263 34.964414057004  C 41.8114661528145 33.9664761643322  41.5777501834004 32.7945844382059  40.8032638276583 32.3093486231891  C 39.6667395010429 31.5952279774126  38.5118852744545 32.00264346075  38.1406817663142 33.3255978305631  C 37.9416768360977 34.1804548731081  37.7886986325199 35.0453566338978  37.6824058316874 35.9165757911657  C 37.6221973792756 36.2832214041338  37.4784862783551 36.6311588119086  37.2623661765183 36.9335514396529  C 37.0462460746814 37.2359440673973  36.7634907181961 37.4847114309897  36.4358947300836 37.660677083953  C 36.3809016191575 36.7771816612315  36.3396534270256 35.9989723962643  36.2892430744898 35.2207639498531  C 36.2880278119937 34.0825953097035  36.0212846611241 32.9603766140748  35.5101753841714 31.9431384819822  C 35.2909932971647 31.6198620092066  35.0473994055221 31.3137909547705  34.7815183263713 31.0275991589433  C 34.4775500277604 31.5987587366125  34.4116648396323 32.2667108627308  34.5982037568791 32.8861428671105  C 34.7411550533482 33.5652405600747  34.9357241579872 34.2324656993757  35.1802161518212 34.8820188707356  C 35.3220149170451 35.2205795019142  35.3950399889133 35.5839114912887  35.3950399889133 35.9509071187775  C 35.3950399889133 36.3179027462663  35.3220149170451 36.6812417206515  35.1802161518212 37.0198023518301  C 34.6612615715872 38.4023017550818  33.7077803542742 39.5795910936594  32.4626432159973 40.3752548089688  C 31.7604363453245 40.7778407576785  31.161711584929 41.3382120954556  30.7138858569375 42.0119895022197  C 30.2660601289461 42.6857669089839  29.9814319689397 43.4544413069172  29.8825474663729 44.2571395828505  C 29.8599485797143 44.5116091162752  29.8185896100819 44.7640644290935  29.7588110060576 45.0124567303533  C 29.6654074221176 45.3142212801234  29.6681559770251 45.6375179166604  29.766670841118 45.9376563231963  C 29.8651857052111 46.2377947297322  30.0546002075134 46.4999538322455  30.3087407290626 46.687895367917  C 30.8631308887974 47.0989052395362  31.4466826143424 47.4691461139123  32.0547779138889 47.7956971105928  C 32.2913427948956 47.8858333053695  32.5210788459868 47.9929236218116  32.7421918158291 48.1161344766542  C 32.8224078648452 48.1817186589424  32.8861502813647 48.2651413921272  32.9283244578564 48.3597297399573  C 32.970498634348 48.4543180877873  32.9899342346373 48.5574496084849  32.9850775017625 48.660881491464  C 32.9442346766139 48.7531885375266  32.8808979685199 48.8338110317619  32.800846883878 48.8953822708301  C 32.7207957992361 48.9569535098982  32.6265800677588 48.9975143261959  32.5268015671357 49.013366086637  C 32.0161463263345 49.0017605271636  31.5065985054378 48.9604895897117  31.0007418657001 48.8897663222238  C 28.8330966861743 48.6517261069649  28.2144219236412 50.2127214560224  28.7643530670457 51.5585642870833  C 29.1051584150662 52.3225795191657  29.4971069666283 53.0627890707821  29.9375383408526 53.7741677724348  C 30.6707798471817 55.0376120338628  31.4635974959808 56.2644397777707  32.1647596628484 57.5416171159474  C 32.9667425484454 59.0019023623882  32.7467712383293 60.5216925875968  32.2518332092653 62.0140216797845  C 32.0089469770244 62.7418754568801  31.6835693797197 63.4468424098398  31.3765244958714 64.1472299788677  C 30.652448499494 65.8089339025708  29.543424909301 66.9716696166383  27.6644936210357 67.3882400206265  C 26.5420351825199 67.689801841375  25.4636608080519 68.1360606145316  24.4565620786479 68.7157692450286  C 23.3704481660279 69.2879813219279  23.2742073614755 70.8764434247571  24.1815937207775 71.714161924983  C 24.4978041145774 72.007134501807  24.8231775053145 72.2863740018823  25.2172948156492 72.6297012480218  C 24.8019767868188 72.9895019597776  24.2994664443242 73.2342238289087  23.7598967872193 73.3394481856895  C 23.2203271301145 73.4446725424703  22.6625678374837 73.4067191184581  22.1422672102353 73.2293783870106  C 21.6839912756085 73.105780573489  21.2623757418657 72.8585891483663  20.8086825622147 72.7258359503456  C 20.2091204763356 72.539604064257  19.596346872634 72.398822674197  18.9755788237074 72.304688699949  C 18.2996360132013 72.1991851064513  17.607554023056 72.2948667926316  16.9857119336122 72.5798003315501  C 16.3638698441685 72.8647338704685  15.8398072616264 73.3262993396018  15.4789312048293 73.906882515267  C 14.9748276658137 74.624055010447  14.4844754510474 75.3519037124958  14.0078684965173 76.090438771507  C 13.5495925618905 76.7725155715366  13.444185482556 76.850339204725  12.6651163718381 76.7084306085625  C 12.1289335479918 76.6122989826448  11.5881729405678 76.5024337069893  11.0519901167215 76.3788358934677  C 10.3659565699057 76.2340183131989  9.74161790988239 75.8806235111037  9.26470977603539 75.3671688531157  C 8.80643384140857 74.8544668300312  8.27025238333097 74.3966946582735  7.79822818377673 73.8839926351889  C 7.28924535408195 73.3510393198198  6.94567760225923 72.6822404794352  6.80905019735408 71.9584277493136  C 6.67242279244893 71.2346150191921  6.74858753441141 70.486767849504  7.02832840716285 69.8052632746482  C 7.48660434178967 68.4548427513378  8.43523341990552 67.5713495660025  9.59008876642419 66.774830350593  C 10.8210841891224 65.9046926694356  12.2984643972007 65.4507384233555  13.8062259664438 65.4793413702918  C 14.7591103428284 65.4770210208478  15.7109922449765 65.4174034113403  16.6567037133334 65.3008114816996  C 18.8380972670481 65.0307273934086  20.6345396213179 64.083144251908  21.7344019081269 62.0964238510636  C 21.9385139529018 61.6319996571588  22.0921518910573 61.1470384403753  22.1926778427537 60.6498700442596  C 22.2660019906551 60.2378773598062  22.3347439435458 59.8213064101141  22.4080680914472 59.4047360061259  C 22.4080680914472 59.4047360061259  22.2064255613737 59.4047360061259  22.2064255613737 59.4047360061259  C 22.2064255613737 59.4047360061259  22.2064255613737 60.6819172733711  22.2064255613737 60.6819172733711  C 22.0322807084007 60.9611567734464  21.8489725716791 61.2358168895899  21.6931587522671 61.5242117741643  C 21.2310695367583 62.4676605805987  20.5142116826684 63.2633326451786  19.6234767755351 63.8214490796174  C 18.7327418684018 64.3795655140561  17.7035833519806 64.6779092140938  16.6521234713721 64.6828196446441  C 15.5155991447566 64.7331743071384  14.3607393185166 64.7835339994884  13.2471287667802 64.7881116960013  C 11.6202492207073 64.7881116960013  10.0391986447919 64.9391734665618  8.57271563213378 65.7585811432191  C 8.25552305942045 65.942006910398  7.89769769288588 66.0438811035889  7.53135741398458 66.0550669075753  C 7.16501713508329 66.0662527115617  6.8016275448592 65.9863997366514  6.47381144946064 65.8226686164313  C 4.53072159153396 64.9849501162054  3.75165239716273 63.8634141508027  3.72415584169972 61.7668291359687  C 3.72415584169972 59.862507413898  4.11827178626576 58.1367162352642  5.6489133685852 56.8320727435902  C 5.89045516541873 56.5769925401477  6.11113570557062 56.3029748539926  6.30883183328555 56.0126611378644  C 5.93762832514521 56.0584381046985  5.72223583659105 56.0126661651621  5.57558754078831 56.1179531892216  C 4.91567016870293 56.5070574124272  4.25575733096968 56.9053181115398  3.63250205332152 57.3493546963105  C 3.36338229950237 57.5136555178236  3.06418258235854 57.6227323126468  2.7523823376843 57.6702251330357  C 2.44058209301006 57.7177179534245  2.12243520306508 57.7026742185443  1.8165234155732 57.6259611202023  C 1.51061162808133 57.5492480218603  1.22306773624799 57.4124053729242  0.970696076391825 57.2234359083435  C 0.718324416535659 57.0344664437627  0.506184110102453 56.7971581130141  0.34666433191402 56.5253679085734  C 0.0236863082947832 55.7254953968923  -0.0761372422094169 54.8531105068224  0.0578223930077648 54.0010688601545  C 0.191782028224946 53.1490272134866  0.554506577859981 52.3492100907575  1.10739706891532 51.6867392335079  C 1.94145929397366 50.8215545797846  2.54638497211806 50.7391560101517  3.65083001390283 51.2289695719885  C 4.7552750556876 51.7187831338252  5.73140558042568 52.1445111324136  6.79002296319087 52.5473484323679  C 7.40631506025513 52.8235930545333  8.09324329484044 52.9019696222604  8.75602320889018 52.7716580811162  C 8.72394389332973 52.1262028736535  8.26566796211733 51.8561142833049  7.83947133963654 51.6226517602956  C 7.26204366637721 51.3022130026891  6.64795712189483 51.0595947950435  6.05219842873226 50.771199910469  C 5.4564397355697 50.4828050258946  4.78735658037896 50.1669442606748  4.51239100867671 49.4482458680783  C 4.50535872147626 49.4109529709622  4.48599469429646 49.3771033601115  4.45740013419696 49.3521181507652  C 3.0825723303165 48.4365788277264  3.35753790201874 46.9076250324592  3.0825723303165 45.593826156286  C 3.03728700439581 45.0886345476797  3.15793965455726 44.5824560061742  3.42627928128661 44.1518545165041  C 3.77465363757747 43.5234512481418  4.24450143005421 42.9704199014958  4.80856134155001 42.524856928175  C 5.37262125304581 42.0792939548542  6.01965866132178 41.7500740019547  6.71211689343261 41.5563013738902  C 8.36191021438457 41.0710655588734  10.0437791052763 40.70484420345  11.7210690653446 40.3203176997792  C 12.7567726732307 40.0822774845203  13.8062243275213 39.9174826372111  14.8419279354075 39.693175498701  C 15.0955539718819 39.5899477908589  15.335635693671 39.4562094880473  15.5568442673234 39.2949181283825  C 15.153561447037 39.0568779131237  14.8969260484614 38.8920771994969  14.6402915239778 38.754746295584  C 14.3836569994941 38.6174153916711  14.0995214381189 38.5258639750625  13.8337214036836 38.4068438674331  C 12.2572521623446 37.7110339906548  11.7348159440168 36.8641603787818  11.8127228537228 35.1383687635848  C 11.8127228537228 34.7721530289122  11.8585566006564 34.4059375943768  11.8906359162169 34.0442995519538  C 12.0097876548494 32.5199266140191  13.0867322333654 31.3938115375365  14.8144324981676 31.1099943452117  C 14.7625934627813 31.3855957188327  14.6937208194823 31.6577258422709  14.6082088520407 31.9248237839154  C 14.4111501968733 32.4329481147504  14.1499351572746 32.9136101665862  13.9803730592774 33.4308898819203  C 13.7454812995769 34.0930795924891  13.7225059148711 34.8118328283337  13.914634349844 35.4876402538338  C 14.1067627848169 36.1634476793338  14.5044886063303 36.7628689104499  15.0527379421396 37.2029074224336  C 15.5510540635424 37.6697143235445  16.1725623044815 37.9845215526967  16.8440321131857 38.1102323728841  C 17.5155019218899 38.2359431930716  18.2089564549627 38.1673208380855  18.8426818794694 37.9124517947908  C 20.1427514373251 37.4893848942844  21.2461301415282 36.6115608909769  21.9497921568204 35.4404984165902  C 21.9497921568204 35.4404984165902  21.0744834434265 35.7380459025735  21.0744834434265 35.7380459025735  C 20.1973447092166 36.0919640620528  19.297026148382 36.3856193145323  18.3798187101454 36.6169628144896  C 17.8744270327088 36.7407510377658  17.3423639682441 36.6958975282283  16.8648914441334 36.4892488787715  C 16.3874189200228 36.2826002293146  15.990788513307 35.9255159500225  15.7355716021184 35.472538660691  C 15.5072919248383 34.9711198309913  15.4265721393473 34.4151631291202  15.5028533540657 33.8696253892704  C 15.5791345687842 33.3240876494207  15.809260697078 32.8115003333088  16.1663451067695 32.3917507944682  C 17.4311866819691 31.0733741169047  18.8747617106075 30.0525439157721  20.7766068830134 29.8557029580446  C 21.4640207849537 29.7870375060881  22.3026654918341 29.8007705964794  22.7884379563157 29.3979332965251  C 23.7049898255694 28.6792349039287  24.6673654204287 28.8760753227736  25.6343275944162 28.8394537506706  C 26.6251825262975 28.7363897949447  27.6237557996003 28.9410049468028  28.4939719438725 29.4254053436253  C 28.704778877625 29.558158541646  29.1676330875062 29.603935791564  29.2913675947722 29.4757602857929  C 29.3911659673302 29.3574893205615  29.4631481484512 29.2183681938759  29.5020097758447 29.0686389368906  C 29.5408714032382 28.9189096799053  29.5456258626568 28.7623765859308  29.5159253201243 28.6105689199109  C 29.2822045978351 27.772850419685  28.9568264542228 26.9534435615837  28.6543643253504 26.1294581926768  C 27.4903434688801 22.9845806704259  27.3986901175479 19.9129497166734  29.2363767202925 16.9740684547936  C 29.3142836299985 16.850470641272  29.4380172921951 16.7085627545247  29.4288517737074 16.5849649410031  C 29.3830241795619 15.6419594644669  30.0796024885955 15.2940531072475  30.7166060311711 14.8454388302272  C 32.044273076505 13.9747045309289  33.5921793957768 13.4984650242959  35.1802161518212 13.4721307187952  C 36.4233123945925 13.4393589210172  37.6672699457459 13.4775686724119  38.9060017380127 13.5865731341751  C 39.891295041165 13.6415054923296  40.8765868146563 13.7513706281485  41.8618801178085 13.8337691704962  C 42.7791471035611 13.8369112590841  43.6852345075541 14.0350921312837  44.5198819371912 14.4151351039235  C 45.0698130805957 14.7172630925318  45.2989490812022 14.602820813578  45.541835313443 14.0397641211778  C 45.7164355683362 13.7153507014841  45.7921156638559 13.3469686585112  45.7595401576926 12.9800856097496  C 45.7269646515292 12.613202560988  45.5875621650738 12.2638758454981  45.3585277366866 11.9752219698237  C 45.0010725207891 11.5174523083042  44.4419727807957 11.0596847204599  44.8040107789844 10.3501417669329  C 44.8040107789844 10.3501417669329  43.1221389380323 8.97683278237462  43.1221389380323 8.97683278237462  C 44.2036700956765 8.7616810420062  44.9552401635251 9.14162832545638  45.7618058040979 9.32931388504223  C 46.1146782650196 9.41171242738995  46.4446389177692 9.5993979869758  46.8020941336668 9.6726411311818  C 47.0547295507771 9.68699847279829  47.2979102427528 9.77359720985906  47.5026613716823 9.92212126600325  C 47.7074125006119 10.0706453221474  47.8651043817545 10.2748342655692  47.9569514468924 10.5103604499636  C 48.2090032164002 11.1329271961785  48.7543476440996 11.073417851779  49.0843063301423 10.4645841823128  C 49.2068201406466 10.2856169665661  49.2693990225199 10.0724647537247  49.2630406576732 9.85574969429064  C 49.0201544254323 8.77541334112674  49.6709045393821 8.02467033879777  50.2208356827866 7.26935040820479  C 50.8525612941107 6.40080274467936  51.7476623999324 5.7587137666722  52.7734359951712 5.43827176212707  C 54.4294873776351 4.92814617115487  56.2115795453895 5.00906086257629  57.8144712760662 5.66715659288679  C 58.4285610437628 5.90061911589606  59.0105714719979 6.21190458996375  59.6475750145735 6.44536711297303  C 59.7431999325529 6.47847106710969  59.8452673659379 6.48867524687329  59.9455634587597 6.47515818362703  C 60.0458595515815 6.46164112038076  60.1415702671515 6.42477813225594  60.2249931820826 6.36754361621066  C 60.266056210121 6.27341756149143  60.2845465845035 6.17101157467426  60.2789771026044 6.06848736791517  C 60.2734076207053 5.96596316115609  60.2439289302284 5.86615873611871  60.1929105101455 5.7770238262553  C 60.0208606644347 5.54570444641315  59.8099973107766 5.34590852902045  59.5696619520794 5.1865005437946  C 58.8914135600908 4.67379852071002  58.8180955718063 4.47695644428932  59.1892990799467 3.7262142059459  C 59.770763419219 2.5335681576236  60.7401657302228 1.5733076309726  61.9389546877076 1.00248611690743  C 64.9452447926368 -0.503576052028965  67.8965379044424 -0.178561975985073  70.8570004596135 1.08945997769249  C 72.5684087425726 1.83899331805049  74.1640078146207 2.82859361817951  75.5955719453982 4.0283438589513  C 76.6129445333811 4.87064005142676  76.5900368771459 4.86605979436858  75.9026229752057 5.97844010242021  C 75.644626888575 6.41630965943937  75.4253406753616 6.87582014388047  75.2472777597309 7.3517490869785  C 75.1453933256959 7.53531429516214  75.1134007979084 7.74949222681167  75.1571973369119 7.95477204609462  C 75.2009938759154 8.16005186537757  75.3176339146654 8.34258647070254  75.4855901964387 8.46870817868763  C 75.7330592109707 8.14826942108107  75.9438650111351 7.84614143247275  76.2004995356188 7.55316885564877  C 76.8862625509675 6.65515699814214  77.6254122634946 5.7991121217847  78.4139661462588 4.98965944964103  C 79.5596559828258 3.92763386547537  81.0490606371908 3.61634990573618  82.5751194645344 3.51564058074761  C 82.8759296961466 3.54431730685943  83.1717087089677 3.61202802586106  83.4550014271538 3.71706034941787  C 83.1937841476944 4.0283437225253  83.0379669684913 4.2480730187173  82.8500738369332 4.43575857830316  C 82.6621807053752 4.62344413788901  82.3230632289629 4.84317275195106  82.1122562952104 5.08579065945947  C 81.676894162778 5.58933729804492  81.7181406784289 6.00132845452723  82.300151106664 6.35381108516593  C 82.9647613693144 6.73800438199801  83.6518819041347 7.08195168426358  84.3578055777875 7.38379282358465  C 85.0589677446552 7.69507619669209  85.805954183436 7.91022876925906  86.5025335953278 8.22151214236649  C 86.9074503393583 8.46748214559783  87.2893721272172 8.74938847364669  87.6436501826693 9.06381013566503  C 87.0799707743374 9.24691800300132  86.8004174216305 9.35678160061719  86.507120830025 9.43460244389405  C 85.5905689607714 9.67722035140246  84.6740176378252 9.8923718325615  83.9728554709576 10.6431140709049  C 83.1158794710202 11.5586533939438  83.1891991255425 12.5337039167757  84.3119751872305 13.5911518086918  C 84.4591451930245 13.3117791841351  84.583289034832 13.0208959713529  84.6831775754405 12.7213887533038  C 84.738669926048 12.4523173824241  84.8685627185925 12.2041731172573  85.0581140845778 12.0051213081436  C 85.247665450563 11.8060694990299  85.4892960087053 11.6640827717028  85.7555555696823 11.5952758050666  C 87.3503558309246 11.082573781982  88.8214081593943 11.1924384505419  89.9808462608888 12.5108151281055  C 90.6880708565577 13.3446514357805  91.3460567585269 14.2189473811228  91.9514411710671 15.1292572776711  C 92.4784584849618 15.8937325927632  93.0925409867688 15.9761279427428  93.7341272843202 15.2940511427132  C 94.5315274149413 14.4334441812395  94.6048532359094 13.3943094048487  94.4948670140573 12.3093953594352  C 94.4627876984969 11.9798011900443  94.3619725871017 11.6593627325749  94.3573898278579 11.3297685631841  C 94.3573898278579 10.6660025321527  94.7056767476357 10.4142286807986  95.3426802902112 10.5424041865698  C 95.9665854552446 10.7453909987353  96.5086950597434 11.1432521879778  96.8890678746724 11.6773287258105  C 97.2694406896014 12.2114052636431  97.46795378431 12.8534341596441  97.4553396212861 13.5087531299181  C 97.3957637519699 14.2823838840797  97.5057370877941 14.5112682646336  98.0006751168582 14.6348660781552  C 98.5872683000691 14.7767746743176  98.91722977228 14.6073982329756  99.1921953439822 13.9894091790102  C 99.6825506180705 12.9594274405915  99.9300212988403 12.730544983644  100.98405592663 12.414683918287  C 100.894421939459 12.6178652875573  100.791871945843 12.8151061507903  100.677018882294 13.0052037082424  C 100.030849829767 13.9527868770282  100.218742947667 15.0193894985987  100.218742947667 16.0631043137661  C 100.269528077381 16.4854242001198  100.295533635836 16.9103526059789  100.296642024689 17.3357069064946  C 100.220459111174 17.6790915334057  100.271309241236 18.038414153921  100.439797312374 18.3472482166538  C 100.608285383511 18.6560822793867  100.883016848798 18.8935410197896  101.213193893943 19.0157207260696  C 102.227511311942 19.4368688223073  103.244885538848 19.8488601152156  104.265313296814 20.2516974151699  C 105.488910077232 20.7094670766894  106.671257473884 21.3503446464729  107.239519637191 22.5405457227671  C 107.697795571818 23.5430613076884  108.554774357924 24.3166951177922  108.889315798942 25.3832983942074  C 109.283433109277 26.6375872711363  109.746287319158 27.8735609042945  110.030418400812 29.1553159347207  C 110.488694335439 31.2290125974476  111.978093308206 32.42836789862  114.099910937974 32.2727262120663  C 114.351962707482 32.2727262120663  114.599433934559 32.2040632771694  114.961471932748 32.1537086146751  C 114.868212758363 32.4722225379843  114.681873864773 32.7556653910343  114.426317860528 32.9677138221157  C 114.170761856283 33.1797622531972  113.857628184297 33.3107593110681  113.52706601969 33.3439125286299  C 112.800281430798 33.4323528255636  112.068658797442 33.4751615083898  111.336507611593 33.4720874750545  C 109.686714290641 33.4720874750545  108.559359953699 32.4878810220195  107.445749401962 31.4533215913512  C 107.124956253186 31.1557713222777  106.909566578116 30.6476492220076  106.300059565395 30.7117369748932  C 106.075504353058 31.2061282289795  106.423797992417 31.4624780945435  106.662101469682 31.7691837754014  C 106.992060155725 32.1903318716391  107.294516111323 32.6343667647276  107.615309260099 33.069247937714  C 107.697798931609 33.1836903530938  107.775708634312 33.3439083369414  107.890277617969 33.3896853037754  C 109.347595120676 33.9435866116765  110.690348010185 34.8408151316106  112.363055215278 34.7629942883337  C 112.837863343149 34.7752526248543  113.309965172997 34.6878829539015  113.748861614394 34.5065256503026  C 114.187758055791 34.3251683467037  114.583685719872 34.0538628774492  114.911068292965 33.7101296548476  C 116.592941008009 31.8790510087699  118.810985238335 31.4899417650878  121.143609815513 31.6593165420328  C 121.633965089601 31.6959381141358  122.083076060583 32.2269509266826  122.61925888443 32.5748558650717  C 122.674251995356 32.3368156498129  122.743004017376 32.0484243941698  122.816328165278 31.7417187133119  C 122.903400591764 31.7096748368691  123.017971815282 31.6318528766045  123.105044241768 31.6547413600215  C 124.547825813414 31.9522092550821  125.895091312018 32.5999414396084  127.027885123336 33.5407501302781  C 128.008595671512 34.456289453317  128.187323238488 35.7426269781877  128.28814394356 37.2578445316232  C 128.063519978425 37.116489906837  127.846310157046 36.9636985412139  127.637385962782 36.8000748701037  C 126.658298821931 35.800837765441  125.399369495604 35.1209976422375  124.026169360247 34.8499716416241  C 121.157361904592 34.2914926414735  118.581856886033 34.8041945008469  116.327139252705 36.7451377609141  C 115.732678094452 37.2691358559971  115.008979541917 37.6251590412218  114.230759010617 37.7764466513667  C 113.452538479317 37.9277342615116  112.647997290394 37.868805846264  111.900192045954 37.6057469597741  C 111.295267788209 37.42721679833  110.717832302752 36.9831819052415  110.030418400812 37.2212221205003  C 109.987330361158 37.3183116205813  109.96509768317 37.4233455607861  109.965148204679 37.5295474780005  C 109.965198726187 37.6357493952149  109.987531702782 37.7407614185843  110.030712095717 37.8378099704043  C 110.073892488651 37.9348585222242  110.136968150542 38.0217826898423  110.215851769258 38.0929863814551  C 110.294735387973 38.1641900730679  110.387674774443 38.2180914259071  110.488694335439 38.2512038589191  C 111.03380131059 38.5443439122888  111.635388503688 38.7175963967803  112.253059480847 38.7593284626061  C 114.247939944001 38.7535608799222  116.188931762659 38.1120888577604  117.793613852228 36.9282498165283  C 118.350799740522 36.5079199760953  118.986494767407 36.2031008756872  119.663317570012 36.0317236926267  C 120.340140372616 35.8603465095662  121.044433209162 35.825866593587  121.734789687113 35.9303083222104  C 122.19306562174 35.9806629847047  122.683423681996 36.0218602990183  123.155447881551 36.0355933885569  C 124.227497763516 36.1032517302102  125.240065085485 36.5513436048284  126.010511989046 37.2990421247574  C 126.224523016203 37.4746864263005  126.389039356801 37.7029749526991  126.487878092458 37.9614376748603  C 126.586716828115 38.2199003970216  126.616460836237 38.4996254644816  126.574182437935 38.7730609936508  C 126.409203094913 40.1463699782091  125.703465985267 41.3274159974265  125.006886573375 42.4855732279738  C 124.887794300312 42.672424979192  124.708287152554 42.8129564163739  124.498193013494 42.8838305982923  C 123.640788052919 43.1667137364318  122.709974007286 43.1309522278783  121.87685410801 42.7831207139571  C 122.335130042637 42.5084589061314  122.619270083733 42.3253538491705  122.917149430315 42.1422459818342  C 124.466122141799 41.2267066587954  124.502773528609 39.6245117520694  124.094907953347 38.2786689210085  C 123.865769986034 37.518771298166  123.146280131738 37.1754420874921  122.408455870434 37.0106450027967  C 121.691279300556 36.8511846572758  120.947174743025 36.8569386007712  120.232554236613 37.0274649085727  C 119.5179337302 37.1979912163742  118.851559386047 37.5288099590968  118.283972458792 37.9948469810592  C 117.997704140307 38.2040851595234  117.767609165198 38.4807128931549  117.614110323757 38.8001488651622  C 117.460611482317 39.1195848371695  117.388468514366 39.4719401823592  117.404090496173 39.8259256271369  C 117.404090496173 41.2679001045794  117.674466593317 42.6000156433536  118.943890923492 43.5155549663925  C 119.170968177996 43.6739508344814  119.350925196311 43.8907527154157  119.46468191634 44.142997522931  C 119.578438636369 44.3952423304463  119.621759392769 44.6735294133979  119.590061669573 44.948369257141  C 119.599286804719 45.1313611896708  119.599286804719 45.3147065064432  119.590061669573 45.4976984389729  C 119.269268520797 47.1502468690361  120.222486335956 48.0016985005811  121.785207312367 48.7020860696089  C 122.401885266409 48.9307697402459  123.057050255044 49.0380244738809  123.714545081214 49.0179412686483  C 124.993134921341 49.0682959311426  126.280883060161 48.9767473044455  127.559472900288 49.0591458467932  C 130.139566464683 49.2193652255965  131.111112486261 50.4004073839584  131.885598842003 52.8677857984293  C 132.022324828094 53.2151739005967  132.03694688453 53.5986363361135  131.927051779937 53.9554008601695  C 131.817156675345 54.3121653842256  131.589265736814 54.6210994881371  131.280685237254 54.8316215579537  C 131.133432711714 54.9418630692053  131.011544273047 55.082346061518  130.923230567664 55.2436114593169  C 130.525004533359 55.9514321165717  129.868149761039 56.477978812865  129.090126829157 56.713055146199  C 128.81123319737 56.8347136915533  128.54030205182 56.9738421852425  128.278969474165 57.1296202295735  C 128.278969474165 57.1296202295735  128.705162736855 57.4592149446684  128.705162736855 57.4592149446684  C 128.705162736855 57.4592149446684  126.147989175245 58.1687593170256  126.147989175245 58.1687593170256  C 126.079247782319 57.8391651476347  126.019674709415 57.5690838424339  125.964681598489 57.298999754143  C 125.753874664736 56.3010618614712  125.616385746583 55.2756538862335  125.313923617711 54.3051822561999  C 125.019695326004 53.4324856054569  124.446056486366 52.680802409773  123.681567339092 52.1661903682536  C 122.917078191818 51.6515783267342  122.00426393986 51.4026564163692  121.084045691807 51.4578544027482  C 120.433293884304 51.5036313695823  120.433284354653 51.5036344903268  120.401205039093 52.4695284281108  C 120.859480973719 52.5565046627081  121.368172840047 52.6709454000483  121.867693624087 52.7396108520047  C 122.343726682603 52.7942565382258  122.798795846919 52.9658400690073  123.19224365743 53.2390321323541  C 123.585691467941 53.512224195701  123.905256312623 53.8785155103722  124.122403390587 54.3051822561999  C 124.527437672673 54.9546556456407  124.836159979999 55.6593101285121  125.038955259841 56.3971929621488  C 125.428489815199 58.3976463306012  124.227810797706 60.237874849568  122.19306562174 60.8833300570307  C 120.662424039421 61.3685658720475  119.095121946956 61.7576700952531  117.569063119612 62.256639041589  C 116.182014635796 62.7174604979415  114.814819184539 63.2347469254343  113.467487910513 63.8084848997501  C 112.472261316869 64.2922183371911  111.618455976318 65.023703774149  110.988227411397 65.9325358497998  C 110.401999161587 66.6945586621492  110.08024821543 67.6266000184066  110.071675542144 68.587594298604  C 110.048761745071 69.1689617600024  110.016676276722 69.7549102970149  109.99376247965 70.3362777584134  C 109.961683164089 71.2197731811349  111.166942727428 72.767030473895  112.092660106633 72.8997836719157  C 112.700171785892 73.0293493858134  113.330553207647 73.0041673035312  113.92576384514 72.8265458346808  C 115.252604327248 72.3468313977738  116.345983528492 71.3791091880082  116.982470482709 70.1211254586984  C 117.184111892852 69.7045550547102  117.124539929634 69.4207370438294  116.657098485056 69.2834061399165  C 116.551695018179 69.2513622634737  116.441703203504 69.2330498010879  116.336299736628 69.2101613176708  C 116.153750939997 69.1789859700102  115.986895440492 69.0876845574395  115.862318117352 68.9508008852081  C 115.737740794212 68.8139172129767  115.662608174764 68.6393285621041  115.648885834688 68.4548441701681  C 115.617519604045 68.253026378671  115.654618867391 68.046524960143  115.754266363479 67.8681870911322  C 115.853913859567 67.6898492221214  116.010392931262 67.5499187618908  116.198822550429 67.4706421919056  C 116.587125264353 67.2631217530854  117.013467696302 67.1362620316525  117.452158562192 67.097712470401  C 117.890849428082 67.0591629091496  118.332812730442 67.1097188306754  118.751422862813 67.2463325431572  C 118.650602157742 67.653747535361  118.531448739214 68.061163646258  118.448959067703 68.4777340502462  C 118.215238345414 69.6450466652926  118.123583136636 70.7665807207314  118.90723500233 71.8377616893962  C 119.315100577592 72.3916629972973  119.205112655358 72.7075234896651  118.60477120722 73.1103607896194  C 117.861041034208 73.6517222570535  116.986222030845 73.9851457129962  116.070505848152 74.0762550548258  C 115.377629035246 74.1151926832174  114.692434889882 74.2413160146717  114.031172344874 74.4516295300769  C 113.488503048356 74.5951619638743  113.017459989731 74.9326866170102  112.707433468886 75.400166043683  C 112.397406948042 75.8676454703558  112.269978002259 76.4325470241379  112.349307496658 76.9876703814898  C 112.391765756456 77.5073324220373  112.621301401475 77.9940257850495  112.99540831538 78.3576195758993  C 113.369515229285 78.7212133667491  113.862835177522 78.9370708916306  114.384039779767 78.9652316870482  C 115.474311747923 79.0492338896269  116.569014488313 79.0599426613796  117.660723900726 78.9972789161597  C 118.130862847777 78.944226057946  118.603667010529 78.9182436604097  119.076794860466 78.9194589119027  C 120.314139905811 79.0567898158155  120.786166891533 79.7709123988411  120.497453054904 80.9885797377735  C 120.410903506141 81.250304787356  120.309926919057 81.5070445311151  120.194989259793 81.757629416321  C 120.194989259793 81.757629416321  119.113450781629 81.2083002344891  119.113450781629 81.2083002344891  C 117.830278186526 80.5399565112082  116.638762985431 81.0297734018392  115.506821413791 81.5836747097402  C 114.795364410137 81.9600137985984  113.997207206602 82.1425091302914  113.192701363774 82.1127753005723  C 112.388195520946 82.0830414708532  111.605732037926 81.8421300103275  110.924062067523 81.4143021701814  C 110.369548169143 81.0938634125748  109.778377803292 80.823780715829  109.18261911013 80.5216527272207  C 108.848077669111 81.7896746808982  108.884735884765 81.9498870883334  109.851698058753 82.3527243882877  C 110.422535952595 82.5950717357721  111.023859333808 82.7583414155438  111.638971406703 82.837973081918  C 111.935419345725 82.8313449424194  112.22305671077 82.9388610021705  112.442310883049 83.1382726621188  C 112.661565055328 83.3376843220672  112.79563801179 83.6137090801066  112.816743915207 83.9091524134709  C 112.949643932425 84.9574449208879  113.064215717615 86.0148945590566  113.091712273078 87.0723424509727  C 113.119208828541 87.9283717201969  112.459285312203 88.4456407943037  111.868109374017 88.9354543561405  C 111.489997397987 89.245761437576  111.043949900862 89.462621156309  110.566187833784 89.5684080861247  C 110.088425766706 89.6741950159405  109.592419542615 89.6659343199072  109.118453766256 89.5442958291734  C 110.433705646189 88.6836888676996  110.305391784711 87.5072152474033  110.067088307446 86.3627910936047  C 109.985664693535 86.017904525681  109.807466136584 85.7033639001991  109.553401934191 85.4560668540747  C 109.299337731797 85.2087698079504  108.97994239267 85.0389780176808  108.632682394389 84.9665992139791  C 108.174406459762 85.2961933833699  108.298140407063 85.6440927282935  108.531861129352 86.0194638474652  C 108.796391326667 86.4125828419991  109.035192025691 86.822375575503  109.246770468532 87.2462831875321  C 109.310818663595 87.3499574858535  109.352712306071 87.4657475444509  109.369814648002 87.5863693887049  C 109.386916989932 87.7069912329588  109.378859748369 87.8298384306817  109.34615122999 87.9472010716695  C 109.313442711612 88.0645637126573  109.256792083287 88.1739012516545  109.179752088444 88.2683439238121  C 109.102712093601 88.3627865959697  109.006955891104 88.4402978613893  108.898490268337 88.4959993926879  C 108.535463972591 88.6679583507415  108.218558757615 88.9236693879632  107.973938709306 89.2420404459753  C 107.729318660998 89.5604115039874  107.563991026467 89.9323184398425  107.491579792519 90.3270780387656  C 107.384771475457 90.5648671756318  107.252629937895 90.7904756134506  107.097455216295 91  C 107.097455216295 90.0478391389646  107.097455216295 89.3154082153234  107.097455216295 88.5829767459783  C 107.097455216295 88.0016092845798  107.069959779055 87.4202429145894  107.069959779055 86.8388754531909  C 107.069959779055 85.8134714070218  107.069967611739 84.7926394869218  107.106629685689 83.7718131330022  C 107.17078831681 82.5678788708185  107.317438292508 81.3685272122201  107.4090934808 80.1645929500364  C 107.596986612358 77.7933461819471  107.798620196646 75.4266730678981  107.945268492449 73.0508484984184  C 108.032340918935 71.6775395138602  108.050676992183 70.2767685231546  108.050676992183 68.885148769598  C 108.050676992183 66.5963004620009  107.954437367313 64.279987747159  107.977351164386 61.9774062536724  C 107.977351164386 60.0044190387175  108.142330500578 58.0314307323546  108.206489131699 56.0538657160093  C 108.200138337906 55.5782538269127  108.157240406428 55.1038281345168  108.078172429423 54.6347769712947  C 107.908610331425 53.3667550176172  107.716127165344 52.0987341553476  107.569478869542 50.83071220167  C 107.568521516676 50.5103685602639  107.603886291525 50.1909459580036  107.674887369276 49.8785504675083  C 106.851815648956 49.1880818319622  106.231068578237 48.2880517429252  105.878439551931 47.273839975861  C 105.589725715301 46.4864761449507  105.420168643333 45.6487615737933  105.067296182411 44.8888639509508  C 104.259338004057 43.0728134462627  102.953333252414 41.5222562134357  101.30026744036 40.416452402103  C 100.512080512334 39.9281662656538  99.931355108567 39.1672129239278  99.6688062319262 38.2786689210085  C 99.3357527686069 37.2629993603822  98.7226323689132 36.3617742888108  97.899867837293 35.6785336113726  C 97.789881615441 35.577824286384  97.6615643531992 35.5045853304559  97.5561608863229 35.4038760054673  C 96.7725090206292 34.6485560748744  96.8137432170463 34.2090971823532  97.702798556445 33.5727973593896  C 98.0331745940916 33.3492755843779  98.3402337365652 33.0931652692104  98.6193504256987 32.8083228628535  C 98.808978097182 32.6410324294737  98.9427215858424 32.4196975494443  99.0025383631023 32.174146755996  C 99.0623551403621 31.9285959625477  99.045375241304 31.6706312225363  98.9538968927461 31.4350138782952  C 98.6974704567838 31.8608144827956  98.4046054754075 32.2636262710896  98.0785881793522 32.638943338284  C 97.7165501811635 32.9960036611723  97.2307810491575 33.2157331074328  96.8504120310656 33.5544826613229  C 96.254653337903 34.0809177611561  96.1996518104272 34.5066438497806  96.5983518757378 35.2070314188084  C 96.7528821183965 35.4986619458804  96.9541333967063 35.7630843692158  97.1941189820357 35.9898206134114  C 97.9124191425189 36.6798819355208  98.4167257713425 37.5618559901686  98.6468458629386 38.5304436318463  C 98.9951355688845 39.7389555862796  98.6468458629386 40.25623134526  97.2720180590581 40.4576499952371  C 96.8870662859904 38.5670612407743  96.1767458477453 36.9373999008777  93.7707971909545 37.0014876537633  C 93.7982937464175 36.575761865276  93.8212047470788 36.2736394701333  93.8395357840541 35.9486230202772  C 93.7066357668365 35.9120014481742  93.5920617434933 35.8433298519322  93.5049893170068 35.8707960310095  C 93.2613668534826 35.9431295481037  93.025091665678 36.038157037554  92.7992544472211 36.1546179709588  C 90.6086953835547 37.2990421247573  88.4318757346346 37.1205136549955  86.2596479093945 36.1134203778246  C 85.8460951912585 35.9456101614218  85.5052311971294 35.6371924435262  85.2972656495838 35.2426619584112  C 85.0893001020383 34.8481314732963  85.0276260227323 34.3928759790673  85.1231325422218 33.9573221986634  C 85.1718377530039 33.5204636400881  85.2437361271422 33.0864988677638  85.3385227909153 32.6572580363508  C 85.6089055803264 31.5586108050478  86.0351022028071 31.2839448635146  87.1716265294226 31.4441642423179  C 87.8571367682976 31.5475824690554  88.5497696002809 31.5965679581792  89.243028719166 31.5906538868092  C 89.7153683566626 31.5539528295136  90.1791543212763 31.4443083354488  90.6178565230465 31.2656343537257  C 90.7782530974343 31.2107019955712  90.8744871414316 30.9726625954577  91.1723664880129 30.6156022725694  C 89.2246937658489 30.6156022725694  87.4603352853926 30.5881355733681  85.9205281931216 29.3704682344357  C 86.1470769907365 29.2282348625607  86.3845978278973 29.1042463932158  86.6308502976045 28.9996759262067  C 87.8208563789007 28.6180843821508  88.8798687419782 27.9107495378475  89.6875569351729 26.958027147436  C 90.5811950295475 25.8914238710208  91.6031491706297 24.9392596266209  92.5792769638304 23.9504771184482  C 93.555404757031 22.9616946102755  94.5544411898204 22.4077958671831  95.9109379737976 23.1448050287779  C 95.9739307301129 23.1838621151772  96.0478881713096 23.2015259261231  96.1217549732655 23.1951599709454  C 96.4654619242356 23.1493830041114  96.8137421244313 23.0898726672127  97.1574490754014 23.030362613398  C 97.1353170767779 22.689513190665  97.0595397931565 22.3542798802495  96.9328983427852 22.0370032861021  C 96.3215219751093 21.1447017294167  95.4255446467111 20.4856140457306  94.3910668435617 20.1672172032063  C 93.3565890404123 19.8488203606821  92.2446418857088 19.8898933968871  91.236531831887 20.2837411517761  C 90.1128431089131 20.7116897016384  89.027429125444 21.2338871646456  87.991930382865 21.8447373739599  C 86.9791405498579 22.5268141739895  85.76471714622 22.5085018497349  84.5915307797981 22.1972184766275  C 83.9224478977611 22.0186883151834  83.2762704320986 21.7394492380286  82.6209358696198 21.5288751899098  C 82.6209358696198 21.5288751899098  81.7043840003662 20.5812921302648  81.7043840003662 20.5812921302648  L 81.5394113769269 20.782711898935  C 81.5394113769269 20.782711898935  82.6484313068597 21.515142658865  82.6484313068597 21.515142658865  C 83.0487236126531 21.9661202706009  83.5439092009544 22.3231032399526  84.0985009481514 22.5605228533815  C 84.6530926953484 22.7979424668104  85.253368040281 22.9099205905366  85.8563628492474 22.888448150918  C 87.3602391889126 22.9143138297312  88.8439084887681 22.539859118043  90.1549933537225 21.8035362883204  C 90.6816987806735 21.5154149651417  91.2650480992949 21.3456572609058  91.8642557408772 21.3061231985485  C 92.4634633824594 21.2665891361911  93.0640782574945 21.3582323743126  93.6241455353607 21.5746514575607  C 93.5181449817178 21.6622136076799  93.404674410721 21.7403339673972  93.2850258190878 21.8081149628371  C 92.3880041692996 22.2285508335497  91.6227239141553 22.8853573382517  91.0715452229761 23.7078597566438  C 90.2374829979178 24.866016987191  89.3300977858615 25.9692381999566  88.408963161632 27.0587300467604  C 87.4878285374026 28.1482218935642  86.1175863292968 28.5510644459192  84.7885860751745 28.7021284402233  C 83.2714085686283 28.930686776303  81.7309397887304 28.9614607280042  80.2058267289063 28.7936809755251  C 79.5650487479109 28.7485763807736  78.9547170294096 28.5032697148137  78.4612370403945 28.0924906759702  C 77.9677570513794 27.6817116371267  77.6161354980234 27.1262761916793  77.4561711211453 26.5048326679279  C 77.110291068258 25.4286289308627  76.697022238807 24.3752077884769  76.2188205034643 23.3507999794595  C 76.1139571912858 23.0368303240322  75.9231477201337 22.7584795301431  75.6680027030102 22.5473072131289  C 75.4128576858868 22.3361348961147  75.1035846050113 22.2005867183664  74.7752541064841 22.1560208834933  C 74.808194764571 22.4191613527254  74.8776061455828 22.6764485739837  74.9814838712548 22.9204953800295  C 75.6721109353038 24.08408629406  76.1209876223212 25.3747283317772  76.3013208006555 26.7154028006209  C 76.6023034195948 27.8813479906811  76.7471604619264 29.0820174152052  76.7321012980425 30.2860075574745  C 76.7034039536039 31.6119539129665  76.2771628651082 32.8988170598927  75.5084983989814 33.9802120787415  C 74.5992250936232 35.0431248684074  73.400353206662 35.8192202399397  72.0576811706603 36.214123277149  C 72.2409915472425 35.660221969248  72.396803686759 35.1932994334677  72.5572002611469 34.7217966951995  C 73.0240986214537 33.5235197459824  73.2212426098503 32.2372789198537  73.1346324141276 30.9543543366976  C 73.0796393032016 30.4279192368644  73.1346352002958 29.7000654597688  72.4930489027444 29.5810453521393  C 71.7643901513911 29.4437144482265  71.7277213783449 30.235652615307  71.5123316896166 30.6934222768264  C 71.2052868057684 31.3388774842891  70.9807383130128 32.0209548300226  70.6599451642371 32.854095637999  C 70.2337485417563 32.4833022110768  69.9816844803301 32.2361077163694  69.702136153652 32.0255336682505  C 69.4790534994848 31.8425458967135  69.2285185117384 31.6957896076241  68.959731377232 31.5906538868092  C 68.5610313119215 31.4579006887885  68.2998151523924 31.6913609880541  68.3593910217086 32.1033536725075  C 68.3905599431593 32.3582006147918  68.4649523987637 32.6058875391113  68.5793685050993 32.8357879249429  C 68.7918981375623 33.2457460340323  68.8868241131587 33.7064109552035  68.8536655603311 34.1668864898149  C 68.8205070075035 34.6273620244263  68.6605531846031 35.0697192871118  68.3914736936457 35.4450735986015  C 66.8929113961569 37.8712528919671  64.8535886005056 39.3727386911334  61.8518811412908 39.3590056015948  C 60.2158360852662 39.3590056015948  58.6439377986613 39.2857573959845  57.2141169350712 38.3381742271988  C 56.8469848654153 38.1003225799437  56.4991551503724 37.8339993742131  56.1738355982381 37.5416594865618  C 55.1106354604971 36.5391439016405  54.0795123130953 35.4954299595994  53.0208949303301 34.4883366824285  C 52.1582615339615 33.6556637064581  51.003166030672 33.1940469496791  49.8036071074167 33.2026057620812  C 48.6040481841613 33.2111645744832  47.4556763056232 33.6892123854487  46.6050388382904 34.534109457574  C 46.5130464895056 34.5924938946491  46.4146338941739 34.6401088538164  46.3117425198387 34.6760169350433  C 46.4996356513968 33.2523533357398  46.9533279979289 32.0163807939896  47.9936143607908 31.1054191632003  C 49.0339007236528 30.194457532411  50.2437427927143 30.2951657250639  51.4169291591362 30.7895569791502  C 52.0178255464187 31.0607383689665  52.5765335566294 31.4168684575972  53.0758858048099 31.8470037796584  C 54.2582376811834 32.8266309033319  55.4497679603652 33.8062576995831  56.5404647372225 34.886594052747  C 57.8602994813933 36.1958152366706  59.4184365009526 36.2599021914641  61.0361505370739 35.8799533800428  C 61.7730231853692 35.6579329457694  62.4783896800172 35.3425567793098  63.1350481640572 34.9415241769259  C 63.4759697936261 34.7572683258088  63.7729151182988 34.5014753784225  64.0054899333211 34.1917182028688  C 64.2380647483434 33.8819610273151  64.4007573438328 33.525582779808  64.4823805306978 33.147067941971  C 64.8184050053328 31.6684386385903  64.627150757941 30.1190243281398  63.9416182843513 28.7662159134356  C 63.6849837598677 28.1985815287859  63.3504384127507 28.1940032908324  62.7775934944672 28.5510636137206  C 61.0178139448343 29.6588662295227  60.3349810770013 31.3983925585802  59.9546120589093 33.3164474665405  C 59.9271155034463 33.4629337549524  59.9133649867077 33.6094186518193  59.8950339497324 33.7513272479818  C 59.7346373753445 34.8865960172812  59.3451028063279 35.124636505392  58.2910681785385 34.6027790978083  C 57.9971802910257 34.4544845511077  57.7281706454804 34.2614407788964  57.4936725276388 34.0305670209091  C 56.7008551519935 33.2660917058169  55.9355270949442 32.483302238362  55.1518752292505 31.7096714842004  C 54.8485849255449 31.3431511648618  54.5024091017847 31.0142635183896  54.1207543763401 30.7300446879493  C 52.7459265724597 29.8923261877234  52.0356011355011 28.5602181250934  51.5452458614129 27.1411322180395  C 50.9311560937163 25.3695636803469  49.7625575629299 24.0603432604088  48.4427228187591 22.8289428447277  C 48.3877297078331 22.7785881822335  48.3464899083499 22.7190753385072  48.2044243675229 22.5542782538118  C 48.5067207467042 22.2704644994219  48.8266184428798 22.0059618985321  49.1622193926364 21.7623386951862  C 49.8700471117697 21.3094380226908  50.4455024237975 20.6777602031385  50.8303365222328 19.9312600491085  C 51.5521710189958 18.6600341583335  52.1875517551846 17.3417303868191  52.7321788538397 15.985284309509  C 52.904506414961 15.5395362061194  53.1632382685136 15.1321585673517  53.4935339443289 14.7865167724307  C 53.8238296201443 14.4408749775098  54.2191956254994 14.1637703259014  54.656943373461 13.9710979734488  C 55.932813148616 13.3296942904762  57.3555450170082 13.0359875917557  58.7814267851024 13.1196461236223  C 61.5310823928633 13.3302201717411  62.0855957176208 15.6373804625278  61.65939909514 17.4455706473577  C 61.5127507993373 18.0635597013231  61.022402818454 18.3611088517035  60.3349889165137 18.6174598632458  C 60.2433337282226 18.2512441285732  60.1883316680971 17.9445406851016  60.0966764798059 17.646990416028  C 59.675062612301 16.2736814314697  58.391899495633 15.8159105148312  57.2278786391628 16.6765174763049  C 56.7712091763288 17.0100785042163  56.4001917405182 17.4470245664218  56.1452772651537 17.951515927705  C 55.8903627897893 18.4560072889882  55.7588072145944 19.0136712257022  55.7613900541683 19.5787754539355  C 55.5139210396363 23.1356457152102  57.2782840271293 24.6783275667496  60.4449706654732 25.6350661200346  C 62.4100013246467 26.171769840448  64.4942753928487 26.0772820181089  66.4025578156219 25.3649836961407  C 67.0762234526347 25.136098865381  67.8369530756833 25.0399714209199  68.4418773334283 24.2892291825764  C 68.1865432939147 24.2309229517003  67.9244267377028 24.2078156427001  67.6628166358457 24.2205595423421  C 67.0533096231249 24.3441573558637  66.4483797930436 24.4997990424174  65.8526210998811 24.6783292038615  C 64.3629838277886 25.1007564301845  62.7817559204634 25.0752791220592  61.3065316602471 24.6050843816159  C 61.3065316602471 24.6050843816159  58.7860140197996 22.7740057355381  58.7860140197996 22.7740057355381  C 58.7860140197996 22.7740057355381  58.6531100828258 22.9204953800295  58.6531100828258 22.9204953800295  Z M 16.7621052203316 47.8643667508271  C 18.4943882401096 47.3425093432434  20.2679181306383 46.8664247108052  22.1560149288553 47.4523698644532  C 21.642745879888 46.5368305414143  20.7811871249748 46.2667509142532  19.8646352557212 46.1980854622968  C 18.7323543178713 46.1316774034531  17.5974365723103 46.1225044336438  16.4642286599185 46.1706134151966  C 15.5020168480434 46.2190713880753  14.585940157041 46.5973886196867  13.8703843175821 47.2417997317602  C 12.5287820608991 48.2798567973979  11.5269107293042 49.6933555690147  10.9924120075445 51.3022143942342  C 10.3645739749206 53.339289300683  10.5341326858113 55.2344557473954  12.1060191721745 56.9098927478472  C 13.6779056585377 58.585329748299  15.5018461815848 58.4571519642138  17.3991084897534 58.3381318565844  C 17.8145273396303 58.2679058277247  18.1908004446625 58.0507561014428  18.4592002471614 57.7263427090343  C 18.7276000496603 57.4019293166258  18.8702169939976 56.9919005388734  18.8610098400507 56.5711406837189  C 17.8253062321646 57.3356159988111  17.8253051395496 57.3310436271751  16.4825566204998 57.1845573387631  C 16.3431626598555 57.1592259382345  16.2003375604156 57.1592259382345  16.0609435997714 57.1845573387631  C 15.6094647409374 57.3112556375537  15.1271741945322 57.2685350665192  14.7050591172243 57.0644570647127  C 14.2829440399164 56.8603790629063  13.9501881776001 56.5090472673516  13.7695630525453 56.0767486110767  C 13.0638181307019 54.2456699649989  13.2379618364291 52.4145969942424  13.5679205224718 50.5606297777761  C 13.716144355406 49.9567115913115  14.0651295517545 49.4209002333008  14.5577982195223 49.0408311487265  C 15.2172385559111 48.5217055351729  15.9635414547656 48.1233972506748  16.7621052203316 47.8643667508271  Z M 110.859910709121 63.9366598461747  C 110.859910709121 63.9366598461747  110.859910709121 63.9320776791527  110.859910709121 63.9320776791527  C 111.166955592969 63.8679899262671  111.258610774431 63.8725670659914  111.318186643747 63.8313677948175  C 111.459985381656 63.7176394126071  111.58225926757 63.5815795964674  111.680214562563 63.4285352424877  C 112.835069909082 61.2358185812722  114.512360961765 59.4459366552023  116.120909487935 57.5965472401263  C 116.522082168242 57.1304709820491  116.822992428754 56.5869460712606  117.004917164687 55.9997598230935  C 117.18684190062 55.4125735749264  117.245888466271 54.794277999046  117.178406940354 54.183321759452  C 117.110925414437 53.5723655198581  116.918353787516 52.9818096043005  116.612652656191 52.4483638456767  C 116.306951524865 51.9149180870529  115.894656461193 51.4499909996626  115.401412914057 51.0824869125078  C 114.796488656312 50.675071920304  114.136583084469 50.3546339812534  113.508745051845 49.9746851698321  C 112.98172773795 49.6588241044751  112.477612999631 49.3017620899046  111.950595685736 48.9859010245476  C 111.423578371842 48.6700399591906  110.786583187771 48.0337401294057  110.2549831189 48.0703617015087  C 109.338431249646 48.157337936106  108.990137610287 47.7682348315935  108.632682394389 47.1273573163804  C 108.577689283463 47.0358033827122  108.403550586693 47.003758390987  108.252319522256 46.9259375477101  C 108.118459506209 47.1822494049932  108.068988717188 47.4742176136765  108.110954374942 47.7602551662789  C 108.152920032695 48.0462927188814  108.284172103138 48.3118079416844  108.486030738795 48.5189740139947  C 109.081789431958 49.091186090894  109.695879254285 49.7091748515435  110.662841428273 49.6130432256257  C 110.916574513699 49.5830356196399  111.173656901059 49.6242550000047  111.405246204693 49.7320678080277  C 112.551697703156 50.2992533511692  113.662758637856 50.9351832414174  114.732333965434 51.6363842913403  C 116.372961776435 52.7991192141372  116.652507316944 55.6601806900415  115.373917476817 57.2165975828639  C 115.166443223594 57.438569408557  114.944464178837 57.6465485797696  114.709425762892 57.8391646019308  C 114.118249824705 57.6514790423449  113.944099918388 57.3813969049456  114.031172344874 56.8183402125454  C 114.10907925458 56.3331043975286  114.43904185355 55.8020899137635  113.934938314535 55.1429015749817  C 113.828089700466 55.4104852477222  113.742286079944 55.6859828830202  113.678304909981 55.9668883627189  C 113.449166942668 57.6881022856663  112.601350279407 59.1438098398575  111.652719125323 60.5445849779132  C 111.299846664401 61.0618646932473  110.827822437532 61.4601257197823  111.194443190696 62.1696686733093  C 111.295263895768 62.375665015536  111.093624162106 62.723568289528  111.03863105118 63.0119631741025  C 110.983637940254 63.3003580586769  110.919486578437 63.5521333425039  110.859910709121 63.9366598461747  Z M 32.9529948298254 18.0223613987737  C 33.8374673596177 18.3428001563803  33.4479359182114 18.9699432032996  33.2783738202142 19.7161077493935  C 33.933708382693 19.258338087874  34.4148956338152 18.9607885009304  34.8869198333695 18.6403497433239  C 37.0041545988999 17.2029529581309  39.2588717951815 16.2919922277532  41.8893755550484 16.7314510929891  C 42.1781006182969 16.7728377179755  42.4724340195644 16.7493790915864  42.7509365498223 16.6627849452602  C 43.0625641886464 16.5666533193425  43.2917030027364 16.2691009288448  43.0167374310341 15.9990168405538  C 42.6180373657236 15.6007572328491  42.1597614310968 15.0834798913271  41.6419096271537 14.9965036567299  C 39.8088058886464 14.5936663567756  37.9298728521971 14.5982440490251  36.1838415674917 15.4542733182493  C 34.905201248553 16.0209642898908  33.7929807762143 16.9050292638367  32.9529948298254 18.0223613987737  Z M 115.236440290618 41.8630062089069  C 115.236440290618 41.8630062089069  115.236440290618 41.8675813909183  115.236440290618 41.8675813909183  C 114.966057501207 41.9820238062981  114.778157636409 42.0506895379278  114.59943002846 42.1468211638456  C 113.733288518571 42.604590825365  112.89923918637 43.1630698255156  111.991852827068 43.5201301484038  C 111.267793875484 43.8450218230492  110.492200154468 44.0402529916082  109.700473153934 44.0969174073145  C 109.244989506129 44.1050865137592  108.793736408863 44.0083109776311  108.381755062264 43.8140943238959  C 107.969773715665 43.6198776701607  107.608131763088 43.3334462147963  107.32490094154 42.9770315961202  C 107.041670119992 42.6206169774442  106.84447508599 42.2038058634387  106.748601611762 41.7589435194337  C 106.652728137534 41.3140811754288  106.660760947202 40.8531352712879  106.772083218642 40.4118772200916  C 106.836241849763 40.1417931318006  106.882062731155 39.8671293594407  106.937055842081 39.6016229633992  C 105.45224180952 39.2079410479441  104.824413292889 39.6428189194215  104.870240887035 41.0573271342259  C 104.895787444022 41.6342772311986  105.05250692857 42.1978468853223  105.328516821662 42.7053007097001  C 105.663396590906 43.2244603751808  106.045370387238 43.7117457724206  106.469619423532 44.1610048805268  C 107.454912726684 45.4015606807069  108.76100521531 45.6808046282695  110.21373996304 45.3100112013474  C 112.130595042881 44.7949534288324  113.854410187367 43.7302892568732  115.172274946744 42.2475310481807  C 115.213519782499 42.2063317770068  115.195195454863 42.0781579492754  115.236440290618 41.8630062089069  Z M 57.1957959672257 19.5925114774856  L 57.1957959672257 20.4027622416726  L 57.2736950442481 20.3615646485384  L 57.2736950442481 19.5925114774856  L 57.1957959672257 19.5925114774856  Z " fill-rule="nonzero" fill="#ffffff" stroke="none" transform="matrix(1 0 0 1 65 42 )" />
  </g>
</svg>