<?xml version="1.0" encoding="utf-8"?>
<svg version="1.1" xmlns:xlink="http://www.w3.org/1999/xlink" width="41px" height="24px" xmlns="http://www.w3.org/2000/svg">
  <g transform="matrix(1 0 0 1 -178 -305 )">
    <path d="M 0.114194683146661 24  C 0.114194683146661 24  0 23.7049555566589  0 23.7049555566589  C 0.484185430404753 23.1055048391511  0.950096407342405 22.4966796736447  1.45255302407817 21.9112785692438  C 3.36703836121389 19.7453322228236  4.92797764499051 17.2767624199693  6.07515156749009 14.6007964376547  C 6.33094765882765 13.9872961070401  6.80599697877035 13.4768103056773  7.11660652019641 12.8867259969074  C 7.7444903973186 11.7935968925577  8.29849545168969 10.6576175233851  8.77471554985082 9.4867403931392  C 9.10728936656744 8.43241825206968  9.7001506338329 7.48418007467729  10.4957208698321 6.73415467284638  C 11.2912911058313 5.98412927101546  12.2625292597271 5.4578037532331  13.3150972669445 5.20628065759069  C 15.9552784371313 4.48038331046486  18.5863327537416 3.72169180883442  21.2036749001754 2.91149667141107  C 24.0996521344737 2.0170037995184  26.9682224531447 1.0382165707625  29.8824708193217 0.134357290131934  C 30.4793658017104 -0.0310696632837507  31.1067166455792 -0.0439417200861898  31.7095857496682 0.0968836159195526  C 33.0479474666404 0.401292179042377  34.413709673872 0.686981630512449  35.4003517754648 1.86715024805214  C 35.7304772548466 2.15391121016109  36.1561859860463 2.29827286659327  36.5879792681462 2.26989934771076  C 37.4558588491704 2.23243367786652  38.3191717907225 2.04977823968996  39.1870513717467 1.93738123015726  C 39.6170435361715 1.86218338059997  40.052670611892 1.82614739353476  40.4888596077941 1.82967657383975  C 41.0141551393783 1.86245903582577  41.1511938014343 2.25586115147076  40.8223131009034 2.69139957649472  C 40.6904390595156 2.87035213953388  40.526019387499 3.02143964076489  40.338128759544 3.13631013264706  C 39.5149852562382 3.67910153593799  38.6658317013413 4.17924809426718  37.793867873489 4.6349143159955  C 37.0484180099395 4.93934236316006  36.285734874743 5.1973989492835  35.5099742105558 5.40765520742  C 34.9252974459134 5.6043499723576  34.3314867488998 5.78698483784253  33.7559455501968 6.01177885690793  C 32.4052795808945 6.48078899538345  30.9929394479728 6.73660109596525  29.5672923786544 6.77045640148842  C 28.9565654310992 6.83697441750903  28.3632727929651 7.0196275667294  27.8178220265704 7.30903685115257  C 26.6164939075934 7.84760585603575  25.3603541354527 8.24567861819399  24.1224837527182 8.71399950171471  C 22.784122035746 9.18232038523542  21.4411942782768 9.68810693162184  20.0845614294259 10.1189621522768  C 18.2026331034431 10.7090464610467  16.311572478657 11.2710166374735  14.4068051289213 11.7721200074051  C 13.4493806986822 12.02451446959  12.5755004777031 12.5355822520217  11.8762470472527 13.252030006392  C 10.1633268000528 14.9848172977499  8.43213759906488 16.6988626158072  6.79686977125415 18.5112643814373  C 5.95184293595453 19.4952792790808  5.18792340755643 20.5495163379738  4.51297610832094 21.6630833646778  C 4.10775134027485 22.3809618841526  3.45643700608871 22.9185047667234  2.68586117797436 23.1710628892761  C 1.82711716288957 23.4380057895332  0.972938698231458 23.723690691005  0.114194683146661 24  Z " fill-rule="nonzero" fill="#ffffff" stroke="none" transform="matrix(1 0 0 1 178 305 )" />
  </g>
</svg>