<?xml version="1.0" encoding="utf-8"?>
<svg version="1.1" xmlns:xlink="http://www.w3.org/1999/xlink" width="33px" height="17px" xmlns="http://www.w3.org/2000/svg">
  <g transform="matrix(1 0 0 1 -183 -312 )">
    <path d="M 1.2888910740876 14.7418193581163  C 0.865401054324235 14.6774220071742  0.483330970099458 14.6774211298299  0 14.6268232117221  C 0.0631145459825317 14.3716038986831  0.15580666043446 14.1245950201397  0.276191947854915 13.8908366447919  C 0.931696596328632 12.9581480653165  1.63699888101242 12.0614349879117  2.3890371702301 11.2045628817931  C 3.67331664582924 9.82461965319303  5.0174427512081 8.52746065652808  6.39378529486135 7.25331308422742  C 7.66137982714298 6.07505057760735  9.18975783949794 5.21292235676039  10.8542410024443 4.73723007342133  C 12.8658185071503 4.14845430904545  14.8175551987048 3.35727335565297  16.8383389992414 2.76849759127709  C 19.6876903025173 1.91753258934023  22.3621217655157 0.468611326786203  25.3541707639143 0.11442590688562  C 25.5705189217113 0.0868270429305004  25.7868687668792 0.0316102199305183  26.0032169246762 0.00861116577780402  C 26.5325794288027 -0.0465865621324347  26.7949602455407 0.160399315893381  26.896229595707 0.721576242017586  C 26.9796947337455 1.33316948283858  27.171403907984 1.92506195792381  27.4624083387183 2.46952673675718  C 28.0792307629836 3.48608493270615  28.9722467813194 3.74367430905784  30.1138285617959 3.38948888915725  C 30.5741437923187 3.24689475443856  31.0344590228416 3.09510100696931  31.4947742533644 2.92950781295722  C 31.4947742533644 2.92950781295722  33 2.37752490651381  33 2.37752490651381  C 32.8711117349049 2.75930919208307  32.8665097119035 2.99849262576653  32.7422245947237 3.11808770119181  C 31.1589635119616 4.71558006803856  29.2410162725114 5.94249367267049  27.1263872109684 6.71053878331341  C 26.8906607777512 6.81616977991316  26.6343513274204 6.86803038664082  26.3760711375832 6.86234039946414  C 24.5624291029837 6.67834796624242  23.0249661757579 7.4741085059663  21.4460849043351 8.17787953939219  C 18.7900660329981 9.36003087451923  16.11563742344 10.4777759276135  13.4366027027786 11.6185290053631  C 12.8032950211418 11.897364342641  12.2598893655354 12.3464254710487  11.866926080971 12.9156790092492  C 10.8772482914478 14.2358246453026  9.75408250481134 15.4593797212089  8.67694490489703 16.7151280680084  C 8.25805803304898 17.2073078436694  7.8483774844685 16.9635178590266  7.41107802095918 16.7151280680084  C 6.49044755991347 16.1677505610101  5.56981709886776 15.6433710440418  4.64918663782204 15.1327920428796  C 3.5858584816537 14.548616084879  2.41206026290282 14.8568146271664  1.2888910740876 14.7418193581163  Z " fill-rule="nonzero" fill="#ffffff" stroke="none" transform="matrix(1 0 0 1 183 312 )" />
  </g>
</svg>