<?xml version="1.0" encoding="utf-8"?>
<svg version="1.1" xmlns:xlink="http://www.w3.org/1999/xlink" width="7px" height="12px" xmlns="http://www.w3.org/2000/svg">
  <g transform="matrix(1 0 0 1 -93 -134 )">
    <path d="M 1.34862553838729 9.45993255683938  C 1.0242350360814 7.72186142288767  0.72846603176 5.97926007343453  0.423157333742958 4.23666271678685  C 0.571308661393936 3.78074492584569  0.622300426471526 3.30140701069014  0.573158270443086 2.82659548010104  C 0.524016114414647 2.35178394951195  0.375728093435521 1.89100974704966  0.136934776213322 1.47114453445003  C 0.00995446175049611 1.20955699031964  -0.0299860179226724 0.917460311693503  0.0224413985207515 0.633789774547498  C 0.0322931110252952 0.505519846725191  0.0800889831407625 0.382488169425312  0.160337168745301 0.278838460155506  C 0.24058535434984 0.175188750885701  0.35003149644028 0.0951334497655791  0.476091143538465 0.0478583261432859  C 0.602150790636651 0.000583202520992624  0.73970520251538 -0.0119972507106294  0.872956385162254 0.0115855246835953  C 1.00620756780913 0.0351683000778201  1.12974474868685 0.0939512994459497  1.22936432555868 0.181167100275748  C 1.51579085502508 0.415323450336442  1.74527965690096 0.705643681248656  1.90199931290243 1.03209996171943  C 2.32113049339286 1.92736200162863  2.5029273453054 2.90635187724087  2.43151927529014 3.88361756232967  C 2.29580378124313 5.47570579311469  2.63817692548013 7.07170956318636  3.41899833236506 8.48679651174126  C 3.62405902460286 8.85501152122219  3.90362072620208 9.18125024775178  4.24168546620305 9.44686550741975  C 4.57975020620401 9.71248076708771  4.96968756736848 9.91225339660047  5.38919612508685 10.0347584147656  C 5.75275154241121 10.1407568513844  6.10687537244594 10.273945888565  6.44823627733499 10.4330686019375  C 6.62888302011099 10.497152367561  6.78115464628286 10.6176736291242  6.87999768107819 10.7748009514532  C 6.97884071587352 10.9319282737821  7.01836600275764 11.1163019880358  6.99206711666835 11.2975796188792  C 6.98131139473244 11.483016498524  6.897239188482 11.6577783969224  6.75663831988396 11.7869862023751  C 6.61603745128591 11.9161940078278  6.42925386440391 11.9903455565624  6.23356755006886 11.99462244643  C 5.56570476960231 11.99462244643  4.80243384914829 12.053462855866  4.24429139358297 11.7818892243245  C 3.33595856610562 11.268074243304  2.47854015942977 10.6772535843702  1.68255547848202 10.0166634520386  C 1.5082169378488 9.87216142106752  1.3905286988184 9.67594578770174  1.34862553838729 9.45993255683938  Z " fill-rule="nonzero" fill="#000000" stroke="none" transform="matrix(1 0 0 1 93 134 )" />
  </g>
</svg>