<?xml version="1.0" encoding="utf-8"?>
<svg version="1.1" xmlns:xlink="http://www.w3.org/1999/xlink" width="15px" height="10px" xmlns="http://www.w3.org/2000/svg">
  <g transform="matrix(1 0 0 1 -208 -332 )">
    <path d="M 14.1551307900138 6.70096821229998  C 15.1189040682921 7.66240044629329  15.2193906619483 8.67567422890851  14.6530025417242 10  C 13.776025401067 9.49723776920593  12.9769744522504 8.86180423196572  12.2824070422524 8.11483872162429  C 11.0354396494114 6.96017741614629  9.82957155782571 5.75839791063401  8.51865718062946 4.67914309674222  C 6.5225958890767 3.03433987686483  4.15199298432532 2.13418779843414  1.75854653471833 1.30471684044341  C 1.0789578271365 1.16486399012344  0.461796987050228 0.800981393764029  0 0.267872412372198  C 0.210364824144069 0.176128380403367  0.42920723676874 0.106648663301114  0.653170046242631 0.0605035211397379  C 4.07248380508933 -0.275687045188365  7.48172986864602 0.798572666890976  10.1356078015288 3.0484680107183  C 11.5059016302418 4.2031293161963  12.8761899049952 5.40491983341668  14.1551307900138 6.70096821229998  Z " fill-rule="nonzero" fill="#ffffff" stroke="none" transform="matrix(1 0 0 1 208 332 )" />
  </g>
</svg>