<?xml version="1.0" encoding="utf-8"?>
<svg version="1.1" xmlns:xlink="http://www.w3.org/1999/xlink" width="26px" height="23px" xmlns="http://www.w3.org/2000/svg">
  <g transform="matrix(1 0 0 1 -69 -111 )">
    <path d="M 8.19135817604678 21.1905435334778  C 8.45450162067981 22.6763811779641  7.98822569147922 23.1531486427833  6.2754849864316 22.9587399873988  C 7.24034425590258 21.1396303386049  6.66789304918709 19.5797260318458  5.67071783844063 18.135547456872  C 5.2955443683472 17.6947993340344  4.82068146632094 17.3504134540381  4.28575232299302 17.1311106165337  C 3.69945026359225 16.8348688533202  3.03928311694241 16.6682283264614  2.43913141559521 16.4321606705384  C 1.58150965438096 16.0708298392023  0.865025649545318 15.438595647965  0.398616511552108 14.6315735087321  C 0.188240699137859 14.3250590925037  0.0563059546567625 13.9713586519864  0.014441569428813 13.6016535296998  C -0.0274228157991364 13.2319484074132  0.0220670092148912 12.8575859289946  0.158553836045772 12.5115854328412  C 0.554245092418153 11.4347871922308  1.12177867683276 10.4295962711748  1.83897839344197 9.53528479174764  C 2.10853484670725 9.15269846882063  2.50035636151328 8.8739202046965  2.94953313570463 8.74512385542716  C 3.39870990989597 8.61632750615782  3.87829100626929 8.64524235771563  4.3088364904436 8.82708237577204  C 5.6943258155537 9.35785322966247  7.20444837991963 9.47048560823283  8.65301334786265 9.1510953989383  C 8.76081938744894 9.12583488814689  8.87297853545826 9.12583488814689  8.98078457504454 9.1510953989383  C 10.065674184785 9.48436740324578  10.6704452951941 8.9752029538925  11.2198149760711 8.08184889101255  C 11.6899814220164 7.37322098722672  12.2502213916459 6.72902880071192  12.8863904280983 6.16553522491018  C 13.8927987334757 5.23977969417562  14.6914632901942 5.19812211450492  15.8963832402041 5.84152220174392  C 17.7430039274676 6.83208066818771  19.6357898677514 6.59137971432039  21.3854629513228 5.60545002111593  C 21.8640746861291 5.31645156572451  22.2761249508254 4.92898739006454  22.5944337033938 4.46861104165446  C 22.9127424559623 4.00823469324438  23.1300740526205 3.48541625674023  23.2320836385863 2.93465040027374  C 23.3936629459702 2.21718988602618  23.1166658832142 1.95797661886029  22.4057169362285 2.05055217331323  C 22.1010245107226 2.09221117385166  21.8009469815247 2.15701321289679  21.2931262815205 2.24495998721298  C 21.4962545560188 1.86077144968325  21.5470414194445 1.62007161319735  21.6947710711236 1.51823850536834  C 22.0463756104325 1.25241870674085  22.435308192225 1.04028582993473  22.8489090006632 0.888731524904859  C 23.8507007587252 0.564717094665696  24.8755745929614 0.310128110521184  25.9789305020309 0  C 26.0070232468203 0.266183099333311  26.0070232468203 0.534600520079096  25.9789305020309 0.800783619412407  C 25.4664932547113 2.91613508659911  24.972520545646 5.04074255524324  24.4046846755071 7.14220759235331  C 23.9674479604113 8.71542887850805  23.2461009128328 10.1948863578349  22.276454051664 11.5071415295488  C 22.0400081420919 11.8374538525671  21.7657582595928 12.1388461647602  21.4593224251462 12.4051325873881  C 21.160310456222 12.687347102876  20.7794810745258 12.8668157513088  20.3719644490491 12.9175781652149  C 19.9644478235724 12.968340579121  19.5513971583671 12.8877556964549  19.1926008851974 12.6874812438262  C 18.7247656619148 12.4644355510133  18.2897987520009 12.1778458113054  17.8999649952532 11.8357878506594  C 16.8750905006139 10.8868884537282  15.591688585838 10.5212152850524  14.299054126767 10.2666325085825  C 13.6140188439737 10.0967224822939  12.8920804605238 10.1600450255652  12.246873753701 10.4466318959479  C 11.6016670468782 10.7332187663307  11.0698292500897 11.2267953861597  10.7350756368046 11.849673618584  C 9.88370734185956 13.2330439102326  9.14274924134933 14.6817290914101  8.51912940322867 16.1822027219858  C 7.94380494807132 17.6344890165688  7.79795871077342 19.2222167277471  8.09902855054339 20.7554373039598  C 8.09902855054337 20.9035581855666  8.15904231388209 21.0470514251103  8.19135817604678 21.1905435334778  Z " fill-rule="nonzero" fill="#ffffff" stroke="none" transform="matrix(1 0 0 1 69 111 )" />
  </g>
</svg>