<?xml version="1.0" encoding="utf-8"?>
<svg version="1.1" xmlns:xlink="http://www.w3.org/1999/xlink" width="8px" height="4px" xmlns="http://www.w3.org/2000/svg">
  <g transform="matrix(1 0 0 1 -152 -191 )">
    <path d="M 7.05494998882866 0.0566419900449969  C 7.36632996638375 -0.0224998790723136  7.6902236791464 -0.0186592231251489  8 0.0678621916933887  C 7.81447845294971 0.711555960319202  7.59523615930903 1.34272245385282  7.34339030609039 1.95814144174117  C 6.78058246864624 3.18038777084852  6.07037484789835 4.0067709771193  4.5963543314013 3.78904288980597  C 3.45733848258517 3.6207984560189  2.2647141639143 3.88800151071124  1.09889796724253 3.99686555436791  C 0.934318405167484 4.01045305465548  0.769217868985875 3.97972662821756  0.617683226444186 3.90730049291305  C 0.466148583902497 3.83487435760853  0.332689031226711 3.72290562095482  0.22868468308438 3.58094816744414  C 0.124680334942049 3.43899071393346  0.0532162633190779 3.2712595149443  0.0204109021526071 3.09207658202908  C -0.0123944590138637 2.91289364911387  -0.00557383455472582 2.72758246973269  0.0402854483103592 2.5519514779133  C 0.118903244474874 2.43306746201691  0.21915265137695 2.33376907855462  0.334559571344379 2.26046785447149  C 0.449966491311809 2.18716663038836  0.577965646699045 2.14148405572141  0.710294787000184 2.12638417959118  C 1.23290204941331 2.03731359439556  1.77784623638806 2.07690535579875  2.30492022344379 2.00762823643781  C 3.69717325754289 1.87887198654104  5.0386976627091 1.36874054699427  6.20883692211224 0.523118483177484  C 6.45358839020066 0.295655540139733  6.74357001127357 0.135783859162307  7.05494998882866 0.0566419900449969  Z " fill-rule="nonzero" fill="#ffffff" stroke="none" transform="matrix(1 0 0 1 152 191 )" />
  </g>
</svg>