<?xml version="1.0" encoding="utf-8"?>
<svg version="1.1" xmlns:xlink="http://www.w3.org/1999/xlink" width="11px" height="11px" xmlns="http://www.w3.org/2000/svg">
  <defs>
    <mask fill="white" id="clip26">
      <path d="M 5.5 0  C 8.53756613390786 0  11 2.46243386609214  11 5.5  C 11 8.53756613390786  8.53756613390786 11  5.5 11  C 2.46243386609214 11  0 8.53756613390786  0 5.5  C 0 2.46243386609214  2.46243386609214 0  5.5 0  Z " fill-rule="evenodd" />
    </mask>
  </defs>
  <g transform="matrix(1 0 0 1 -1145 -42 )">
    <path d="M 5.5 0  C 8.53756613390786 0  11 2.46243386609214  11 5.5  C 11 8.53756613390786  8.53756613390786 11  5.5 11  C 2.46243386609214 11  0 8.53756613390786  0 5.5  C 0 2.46243386609214  2.46243386609214 0  5.5 0  Z " fill-rule="nonzero" fill="#ffffff" stroke="none" fill-opacity="0" transform="matrix(1 0 0 1 1145 42 )" />
    <path d="M 5.5 0  C 8.53756613390786 0  11 2.46243386609214  11 5.5  C 11 8.53756613390786  8.53756613390786 11  5.5 11  C 2.46243386609214 11  0 8.53756613390786  0 5.5  C 0 2.46243386609214  2.46243386609214 0  5.5 0  Z " stroke-width="4" stroke="#b1b1b1" fill="none" transform="matrix(1 0 0 1 1145 42 )" mask="url(#clip26)" />
  </g>
</svg>